<svg width="14" height="16" viewBox="0 0 14 16" fill="none" xmlns="http://www.w3.org/2000/svg">
<path fill-rule="evenodd" clip-rule="evenodd" d="M11.444 0C12.4258 0 13.2218 0.795938 13.2218 1.77778V10.6667C13.2218 11.6485 12.4258 12.4444 11.444 12.4444H3.44401C2.95309 12.4444 2.55512 12.8424 2.55512 13.3333C2.55512 13.8243 2.95309 14.2222 3.44401 14.2222H13.2218V15.1111C13.2218 15.602 12.8238 16 12.3329 16H2.55512C1.57328 16 0.777344 15.2041 0.777344 14.2222V1.77778C0.777344 0.795938 1.57328 0 2.55512 0H11.444ZM7.76147 5.5873H9.9202C10.2708 5.5873 10.5551 5.87159 10.5551 6.22222C10.5551 6.57285 10.2708 6.85714 9.9202 6.85714H7.76147C7.69134 6.85714 7.63449 6.914 7.63449 6.98413V9.14286C7.63449 9.49349 7.3502 9.77778 6.99957 9.77778C6.64893 9.77778 6.36465 9.49349 6.36465 9.14286V6.98413C6.36465 6.914 6.30779 6.85714 6.23766 6.85714H4.07893C3.7283 6.85714 3.44401 6.57285 3.44401 6.22222C3.44401 5.87159 3.7283 5.5873 4.07893 5.5873H6.23766C6.30779 5.5873 6.36465 5.53044 6.36465 5.46032V3.30159C6.36465 2.95095 6.64893 2.66667 6.99957 2.66667C7.3502 2.66667 7.63449 2.95095 7.63449 3.30159V5.46032C7.63449 5.53044 7.69134 5.5873 7.76147 5.5873Z" fill="#001489"/>
</svg>