<svg width="14" height="16" viewBox="0 0 14 16" fill="none" xmlns="http://www.w3.org/2000/svg">
<path fillRule="evenodd" clip-rule="evenodd" d="M2.17103 14.9095C2.11938 14.9095 2.0514 14.8641 2.0514 14.7754V1.53922C2.0514 1.41518 2.10102 1.29972 2.18451 1.21697L2.1848 1.21668C2.26771 1.1344 2.37786 1.09052 2.48943 1.09052H11.5143C11.6259 1.09052 11.7361 1.13439 11.819 1.21671L11.8192 1.21694C11.9027 1.2997 11.9524 1.41517 11.9524 1.53922V14.7669C11.9524 14.8589 11.8808 14.9095 11.8227 14.9095C11.7806 14.9095 11.7371 14.8936 11.7002 14.8575C11.0425 14.2046 9.07405 12.2539 8.26158 11.4501C7.93058 11.1206 7.47661 10.9336 7.00189 10.9336C6.52712 10.9336 6.07319 11.1206 5.74219 11.4501C5.19417 11.9922 4.12016 13.0565 3.277 13.892C2.87354 14.2918 2.52293 14.6392 2.3081 14.852L2.30723 14.8529L2.30723 14.8529C2.26851 14.8914 2.22078 14.9095 2.17355 14.9095H2.17103ZM0.921875 14.7754C0.921875 15.4371 1.4656 16 2.17103 16H2.17355C2.5322 16 2.87029 15.8583 3.11731 15.6128C3.3325 15.3997 3.68319 15.0522 4.08659 14.6524C4.92994 13.8168 6.00365 12.7528 6.55121 12.2111L6.55267 12.2096L6.55267 12.2096C6.67284 12.0898 6.8352 12.0241 7.00189 12.0241C7.16857 12.0241 7.33093 12.0899 7.45105 12.2096L7.45253 12.2111C8.26458 13.0145 10.2348 14.9669 10.8914 15.6187L10.8927 15.62C11.1365 15.8604 11.4688 16 11.8227 16C12.5317 16 13.0819 15.4347 13.0819 14.7669V1.53922C13.0819 1.13598 12.9209 0.746021 12.6284 0.456038C12.3352 0.165267 11.9342 0 11.5143 0H2.48943C2.06942 0 1.66829 0.16535 1.37515 0.456299C1.08273 0.746261 0.921875 1.13611 0.921875 1.53922V14.7754Z" fill="#00A993"/>
</svg>
