<svg width="24" height="24" viewBox="0 0 24 24" fill="none" xmlns="http://www.w3.org/2000/svg">
<path d="M20.8933 1.41187H18.7757V3.52951C18.7757 3.95304 18.4227 4.23539 18.0698 4.23539C17.7168 4.23539 17.3639 3.95304 17.3639 3.52951V1.41187H6.06978V3.52951C6.06978 3.95304 5.71684 4.23539 5.3639 4.23539C5.01096 4.23539 4.65802 3.95304 4.65802 3.52951V1.41187H2.54037C1.48155 1.41187 0.705078 2.32951 0.705078 3.52951V6.07069H23.2933V3.52951C23.2933 2.32951 22.0227 1.41187 20.8933 1.41187ZM0.705078 7.55304V20.4707C0.705078 21.7413 1.48155 22.5883 2.61096 22.5883H20.9639C22.0933 22.5883 23.3639 21.6707 23.3639 20.4707V7.55304H0.705078ZM6.98743 19.4119H5.29331C5.01096 19.4119 4.72861 19.2001 4.72861 18.8472V17.0825C4.72861 16.8001 4.94037 16.5177 5.29331 16.5177H7.05802C7.34037 16.5177 7.62273 16.7295 7.62273 17.0825V18.8472C7.55214 19.2001 7.34037 19.4119 6.98743 19.4119ZM6.98743 13.0589H5.29331C5.01096 13.0589 4.72861 12.8472 4.72861 12.4942V10.7295C4.72861 10.4472 4.94037 10.1648 5.29331 10.1648H7.05802C7.34037 10.1648 7.62273 10.3766 7.62273 10.7295V12.4942C7.55214 12.8472 7.34037 13.0589 6.98743 13.0589ZM12.6345 19.4119H10.8698C10.5874 19.4119 10.3051 19.2001 10.3051 18.8472V17.0825C10.3051 16.8001 10.5168 16.5177 10.8698 16.5177H12.6345C12.9168 16.5177 13.1992 16.7295 13.1992 17.0825V18.8472C13.1992 19.2001 12.9874 19.4119 12.6345 19.4119ZM12.6345 13.0589H10.8698C10.5874 13.0589 10.3051 12.8472 10.3051 12.4942V10.7295C10.3051 10.4472 10.5168 10.1648 10.8698 10.1648H12.6345C12.9168 10.1648 13.1992 10.3766 13.1992 10.7295V12.4942C13.1992 12.8472 12.9874 13.0589 12.6345 13.0589ZM18.2815 19.4119H16.5168C16.2345 19.4119 15.9521 19.2001 15.9521 18.8472V17.0825C15.9521 16.8001 16.1639 16.5177 16.5168 16.5177H18.2815C18.5639 16.5177 18.8463 16.7295 18.8463 17.0825V18.8472C18.8463 19.2001 18.6345 19.4119 18.2815 19.4119ZM18.2815 13.0589H16.5168C16.2345 13.0589 15.9521 12.8472 15.9521 12.4942V10.7295C15.9521 10.4472 16.1639 10.1648 16.5168 10.1648H18.2815C18.5639 10.1648 18.8463 10.3766 18.8463 10.7295V12.4942C18.8463 12.8472 18.6345 13.0589 18.2815 13.0589Z" fill="#212938"/>
</svg>
