<svg width="24" height="25" viewBox="0 0 24 25" fill="none" xmlns="http://www.w3.org/2000/svg">
<path d="M20.8943 2.08398H18.7766V4.20163C18.7766 4.62516 18.4237 4.90751 18.0708 4.90751C17.7178 4.90751 17.3649 4.62516 17.3649 4.20163V2.08398H6.07076V4.20163C6.07076 4.62516 5.71782 4.90751 5.36488 4.90751C5.01194 4.90751 4.659 4.62516 4.659 4.20163V2.08398H2.54135C1.48253 2.08398 0.706055 3.00163 0.706055 4.20163V6.74281H23.2943V4.20163C23.2943 3.00163 22.0237 2.08398 20.8943 2.08398ZM0.706055 8.22516V21.1428C0.706055 22.4134 1.48253 23.2605 2.61194 23.2605H20.9649C22.0943 23.2605 23.3649 22.3428 23.3649 21.1428V8.22516H0.706055ZM6.98841 20.084H5.29429C5.01194 20.084 4.72958 19.8722 4.72958 19.5193V17.7546C4.72958 17.4722 4.94135 17.1899 5.29429 17.1899H7.059C7.34135 17.1899 7.6237 17.4016 7.6237 17.7546V19.5193C7.55311 19.8722 7.34135 20.084 6.98841 20.084ZM6.98841 13.731H5.29429C5.01194 13.731 4.72958 13.5193 4.72958 13.1663V11.4016C4.72958 11.1193 4.94135 10.8369 5.29429 10.8369H7.059C7.34135 10.8369 7.6237 11.0487 7.6237 11.4016V13.1663C7.55311 13.5193 7.34135 13.731 6.98841 13.731ZM12.6355 20.084H10.8708C10.5884 20.084 10.3061 19.8722 10.3061 19.5193V17.7546C10.3061 17.4722 10.5178 17.1899 10.8708 17.1899H12.6355C12.9178 17.1899 13.2002 17.4016 13.2002 17.7546V19.5193C13.2002 19.8722 12.9884 20.084 12.6355 20.084ZM12.6355 13.731H10.8708C10.5884 13.731 10.3061 13.5193 10.3061 13.1663V11.4016C10.3061 11.1193 10.5178 10.8369 10.8708 10.8369H12.6355C12.9178 10.8369 13.2002 11.0487 13.2002 11.4016V13.1663C13.2002 13.5193 12.9884 13.731 12.6355 13.731ZM18.2825 20.084H16.5178C16.2355 20.084 15.9531 19.8722 15.9531 19.5193V17.7546C15.9531 17.4722 16.1649 17.1899 16.5178 17.1899H18.2825C18.5649 17.1899 18.8472 17.4016 18.8472 17.7546V19.5193C18.8472 19.8722 18.6355 20.084 18.2825 20.084ZM18.2825 13.731H16.5178C16.2355 13.731 15.9531 13.5193 15.9531 13.1663V11.4016C15.9531 11.1193 16.1649 10.8369 16.5178 10.8369H18.2825C18.5649 10.8369 18.8472 11.0487 18.8472 11.4016V13.1663C18.8472 13.5193 18.6355 13.731 18.2825 13.731Z" fill="white"/>
</svg>
