<svg width="40" height="40" viewBox="0 0 40 40" fill="none" xmlns="http://www.w3.org/2000/svg">
<path d="M34.8233 2.35156H31.2939V5.88097C31.2939 6.58686 30.7057 7.05744 30.1174 7.05744C29.5292 7.05744 28.941 6.58686 28.941 5.88097V2.35156H10.1174V5.88097C10.1174 6.58686 9.52921 7.05744 8.94098 7.05744C8.35274 7.05744 7.7645 6.58686 7.7645 5.88097V2.35156H4.23509C2.47039 2.35156 1.17627 3.88097 1.17627 5.88097V10.1163H38.8233V5.88097C38.8233 3.88097 36.7057 2.35156 34.8233 2.35156ZM1.17627 12.5869V34.1163C1.17627 36.2339 2.47039 37.6457 4.35274 37.6457H34.941C36.8233 37.6457 38.941 36.1163 38.941 34.1163V12.5869H1.17627ZM11.6469 32.3516H8.82333C8.35274 32.3516 7.88215 31.9986 7.88215 31.4104V28.4692C7.88215 27.9986 8.23509 27.528 8.82333 27.528H11.7645C12.2351 27.528 12.7057 27.881 12.7057 28.4692V31.4104C12.588 31.9986 12.2351 32.3516 11.6469 32.3516ZM11.6469 21.7633H8.82333C8.35274 21.7633 7.88215 21.4104 7.88215 20.8222V17.881C7.88215 17.4104 8.23509 16.9398 8.82333 16.9398H11.7645C12.2351 16.9398 12.7057 17.2927 12.7057 17.881V20.8222C12.588 21.4104 12.2351 21.7633 11.6469 21.7633ZM21.0586 32.3516H18.1174C17.6469 32.3516 17.1763 31.9986 17.1763 31.4104V28.4692C17.1763 27.9986 17.5292 27.528 18.1174 27.528H21.0586C21.5292 27.528 21.9998 27.881 21.9998 28.4692V31.4104C21.9998 31.9986 21.6469 32.3516 21.0586 32.3516ZM21.0586 21.7633H18.1174C17.6469 21.7633 17.1763 21.4104 17.1763 20.8222V17.881C17.1763 17.4104 17.5292 16.9398 18.1174 16.9398H21.0586C21.5292 16.9398 21.9998 17.2927 21.9998 17.881V20.8222C21.9998 21.4104 21.6469 21.7633 21.0586 21.7633ZM30.4704 32.3516H27.5292C27.0586 32.3516 26.588 31.9986 26.588 31.4104V28.4692C26.588 27.9986 26.941 27.528 27.5292 27.528H30.4704C30.941 27.528 31.4116 27.881 31.4116 28.4692V31.4104C31.4116 31.9986 31.0586 32.3516 30.4704 32.3516ZM30.4704 21.7633H27.5292C27.0586 21.7633 26.588 21.4104 26.588 20.8222V17.881C26.588 17.4104 26.941 16.9398 27.5292 16.9398H30.4704C30.941 16.9398 31.4116 17.2927 31.4116 17.881V20.8222C31.4116 21.4104 31.0586 21.7633 30.4704 21.7633Z" fill="white"/>
</svg>
