<svg width="16" height="16" viewBox="0 0 16 16" fill="none" xmlns="http://www.w3.org/2000/svg">
<g clipPath="url(#clip0_1618_6281)">
<path d="M14.5 3.79C14.4993 3.1643 14.2504 2.56442 13.808 2.12199C13.3656 1.67955 12.7657 1.43069 12.14 1.43H11.7143V1C11.7143 0.867392 11.6616 0.740215 11.5679 0.646447C11.4741 0.552678 11.3469 0.5 11.2143 0.5C11.0817 0.5 10.9545 0.552678 10.8607 0.646447C10.767 0.740215 10.7143 0.867392 10.7143 1V1.43H4.2861V1C4.2861 0.867392 4.23342 0.740215 4.13965 0.646447C4.04589 0.552678 3.91871 0.5 3.7861 0.5C3.65349 0.5 3.52631 0.552678 3.43255 0.646447C3.33878 0.740215 3.2861 0.867392 3.2861 1V1.43H2.86C2.2343 1.43069 1.63442 1.67955 1.19199 2.12199C0.749551 2.56442 0.500688 3.1643 0.5 3.79V12.14C0.500688 12.7657 0.749551 13.3656 1.19199 13.808C1.63442 14.2504 2.2343 14.4993 2.86 14.5H8.2065C8.99604 15.1427 9.98192 15.4957 11 15.5C12.1931 15.4987 13.3369 15.0241 14.1805 14.1805C15.0241 13.3369 15.4987 12.1931 15.5 11C15.4957 9.98192 15.1427 8.99604 14.5 8.2065V3.79ZM2.86 2.43H3.2857V2.8567C3.2857 2.98931 3.33838 3.11649 3.43215 3.21025C3.52591 3.30402 3.65309 3.3567 3.7857 3.3567C3.91831 3.3567 4.04549 3.30402 4.13925 3.21025C4.23302 3.11649 4.2857 2.98931 4.2857 2.8567V2.43H10.7135V2.8567C10.7135 2.98931 10.7662 3.11649 10.8599 3.21025C10.9537 3.30402 11.0809 3.3567 11.2135 3.3567C11.3461 3.3567 11.4733 3.30402 11.5671 3.21025C11.6608 3.11649 11.7135 2.98931 11.7135 2.8567V2.43H12.14C12.5006 2.43042 12.8462 2.57384 13.1012 2.8288C13.3562 3.08376 13.4996 3.42944 13.5 3.79V4.2144H1.5V3.79C1.50042 3.42944 1.64384 3.08376 1.8988 2.8288C2.15376 2.57384 2.49944 2.43042 2.86 2.43ZM1.5 12.14V5.2144H13.5V7.2618C12.635 6.68174 11.5955 6.41997 10.559 6.52118C9.52242 6.62239 8.55317 7.08032 7.81675 7.81675C7.08032 8.55317 6.62239 9.52242 6.52118 10.559C6.41997 11.5955 6.68174 12.635 7.2618 13.5H2.86C2.49944 13.4995 2.15378 13.3561 1.89883 13.1012C1.64388 12.8462 1.50045 12.5006 1.5 12.14ZM11 14.5C10.3078 14.5 9.63108 14.2947 9.0555 13.9101C8.47993 13.5256 8.03133 12.9789 7.76642 12.3394C7.50151 11.6999 7.4322 10.9961 7.56725 10.3172C7.7023 9.63825 8.03564 9.01461 8.52513 8.52513C9.01461 8.03564 9.63825 7.7023 10.3172 7.56725C10.9961 7.4322 11.6999 7.50151 12.3394 7.76642C12.9789 8.03133 13.5256 8.47993 13.9101 9.0555C14.2947 9.63108 14.5 10.3078 14.5 11C14.4989 11.9279 14.1298 12.8175 13.4736 13.4736C12.8175 14.1298 11.9279 14.4989 11 14.5Z" fill="#6E7288"/>
<path d="M11.5 10.793V9C11.5 8.86739 11.4473 8.74021 11.3536 8.64645C11.2598 8.55268 11.1326 8.5 11 8.5C10.8674 8.5 10.7402 8.55268 10.6464 8.64645C10.5527 8.74021 10.5 8.86739 10.5 9V11C10.5 11.0657 10.5129 11.1307 10.538 11.1913C10.5632 11.252 10.6 11.3071 10.6465 11.3535L11.6465 12.3535C11.7408 12.4446 11.8671 12.495 11.9982 12.4938C12.1293 12.4927 12.2547 12.4401 12.3474 12.3474C12.4401 12.2547 12.4927 12.1293 12.4938 11.9982C12.495 11.8671 12.4446 11.7408 12.3535 11.6465L11.5 10.793Z" fill="#6E7288"/>
</g>
<defs>
<clipPath id="clip0_1618_6281">
<rect width="16" height="16" fill="white"/>
</clipPath>
</defs>
</svg>
