<svg width="24" height="25" viewBox="0 0 24 25" fill="none" xmlns="http://www.w3.org/2000/svg">
<path d="M12 1.67224C9.82441 1.67224 7.69767 2.31738 5.88873 3.52608C4.07979 4.73477 2.66989 6.45274 1.83733 8.46272C1.00477 10.4727 0.786929 12.6844 1.21137 14.8182C1.6358 16.952 2.68345 18.912 4.22183 20.4504C5.76021 21.9888 7.72022 23.0364 9.85401 23.4609C11.9878 23.8853 14.1995 23.6675 16.2095 22.8349C18.2195 22.0024 19.9375 20.5925 21.1462 18.7835C22.3549 16.9746 23 14.8478 23 12.6722C22.9966 9.75592 21.8365 6.96002 19.7744 4.89787C17.7122 2.83571 14.9163 1.67568 12 1.67224ZM15.707 16.3792C15.5195 16.5667 15.2652 16.672 15 16.672C14.7348 16.672 14.4805 16.5667 14.293 16.3792L11.293 13.3792C11.1055 13.1917 11.0001 12.9374 11 12.6722V6.67224C11 6.40702 11.1054 6.15267 11.2929 5.96513C11.4804 5.7776 11.7348 5.67224 12 5.67224C12.2652 5.67224 12.5196 5.7776 12.7071 5.96513C12.8946 6.15267 13 6.40702 13 6.67224V12.2582L15.707 14.9652C15.8945 15.1528 15.9998 15.4071 15.9998 15.6722C15.9998 15.9374 15.8945 16.1917 15.707 16.3792Z" fill="white"/>
</svg>
