<svg width="40" height="40" viewBox="0 0 40 40" fill="none" xmlns="http://www.w3.org/2000/svg">
<path d="M19.9998 1.66797C16.3739 1.66797 12.8293 2.7432 9.81439 4.75769C6.79949 6.77219 4.44966 9.63546 3.06205 12.9854C1.67445 16.3354 1.31139 20.0216 2.01878 23.578C2.72618 27.1343 4.47226 30.401 7.03622 32.9649C9.60018 35.5289 12.8669 37.275 16.4232 37.9824C19.9795 38.6898 23.6657 38.3267 27.0157 36.9391C30.3657 35.5515 33.229 33.2017 35.2435 30.1868C37.2579 27.1719 38.3332 23.6273 38.3332 20.0013C38.3274 15.1408 36.3941 10.4809 32.9571 7.04401C29.5202 3.60709 24.8604 1.6737 19.9998 1.66797ZM26.1782 26.1796C25.8656 26.4921 25.4418 26.6676 24.9998 26.6676C24.5579 26.6676 24.1341 26.4921 23.8215 26.1796L18.8215 21.1796C18.5089 20.8671 18.3333 20.4433 18.3332 20.0013V10.0013C18.3332 9.55928 18.5088 9.13535 18.8213 8.82279C19.1339 8.51023 19.5578 8.33464 19.9998 8.33464C20.4419 8.33464 20.8658 8.51023 21.1784 8.82279C21.4909 9.13535 21.6665 9.55928 21.6665 10.0013V19.3113L26.1782 23.823C26.4906 24.1355 26.6662 24.5594 26.6662 25.0013C26.6662 25.4432 26.4906 25.8671 26.1782 26.1796Z" fill="white"/>
</svg>
