<svg width="20" height="21" viewBox="0 0 20 21" fill="none" xmlns="http://www.w3.org/2000/svg">
<path d="M12.2028 10.6701L19.6805 3.19208C19.8862 2.98622 19.9997 2.71159 20 2.41874C20 2.12574 19.8865 1.85078 19.6805 1.64525L19.0252 0.990126C18.8192 0.783785 18.5446 0.670776 18.2514 0.670776C17.9587 0.670776 17.6841 0.783785 17.478 0.990126L10.0003 8.46769L2.52228 0.990126C2.31659 0.783785 2.04179 0.670776 1.74878 0.670776C1.4561 0.670776 1.1813 0.783785 0.97561 0.990126L0.32 1.64525C-0.106667 2.07191 -0.106667 2.7659 0.32 3.19208L7.79789 10.6701L0.32 18.1478C0.114146 18.354 0.000813008 18.6287 0.000813008 18.9215C0.000813008 19.2144 0.114146 19.489 0.32 19.695L0.975447 20.3501C1.18114 20.5563 1.4561 20.6695 1.74862 20.6695C2.04163 20.6695 2.31642 20.5563 2.52211 20.3501L10.0002 12.8724L17.4779 20.3501C17.6839 20.5563 17.9585 20.6695 18.2512 20.6695H18.2515C18.5444 20.6695 18.819 20.5563 19.025 20.3501L19.6803 19.695C19.886 19.4891 19.9995 19.2144 19.9995 18.9215C19.9995 18.6287 19.886 18.354 19.6803 18.148L12.2028 10.6701Z" fill="white"/>
</svg>
