<svg width="12" height="12" viewBox="0 0 12 12" fill="none" xmlns="http://www.w3.org/2000/svg">
<path d="M10.7 7.8C10.7 8.13135 10.9686 8.4 11.3 8.4C11.6313 8.4 11.9 8.13135 11.9 7.8V1.8C11.9 0.807423 11.0925 0 10.1 0H4.1C3.76865 0 3.5 0.26865 3.5 0.6C3.5 0.93135 3.76865 1.2 4.1 1.2H10.1C10.4308 1.2 10.7 1.46924 10.7 1.8V7.8Z" fill="#001489"/>
<path d="M9.49999 10.5V3.85001C9.49999 3.0663 8.69837 2.42501 7.71874 2.42501H1.78125C0.80162 2.42501 0 3.0663 0 3.85001V10.5C0 11.2837 0.80162 11.925 1.78125 11.925H7.71874C8.69837 11.925 9.49999 11.2837 9.49999 10.5Z" fill="#001489"/>
</svg>