<svg width="201" height="57" viewBox="0 0 201 57" fill="none" xmlns="http://www.w3.org/2000/svg">
<path d="M62.481 51.5915H58.4666L58.4919 48.6485H62.481C63.4772 48.6485 64.3173 48.4263 65.0011 47.9819C65.685 47.5291 66.2 46.8709 66.5461 46.0073C66.9007 45.1437 67.078 44.0998 67.078 42.8756V41.9827C67.078 41.0436 66.9767 40.2177 66.774 39.505C66.5799 38.7923 66.2886 38.1928 65.9002 37.7065C65.5119 37.2202 65.0349 36.8555 64.4692 36.6123C63.9036 36.3608 63.2535 36.235 62.519 36.235H58.3906V33.2794H62.519C63.7516 33.2794 64.8787 33.489 65.9002 33.9083C66.9302 34.3191 67.8209 34.9102 68.5723 35.6816C69.3237 36.453 69.902 37.3753 70.3072 38.4485C70.7209 39.5134 70.9278 40.6998 70.9278 42.0078V42.8756C70.9278 44.1753 70.7209 45.3617 70.3072 46.4349C69.902 47.5081 69.3237 48.4305 68.5723 49.2018C67.8294 49.9648 66.9387 50.556 65.9002 50.9752C64.8703 51.386 63.7305 51.5915 62.481 51.5915ZM60.6194 33.2794V51.5915H56.8203V33.2794H60.6194Z" fill="#001489" fill-opacity="0.5"/>
<path d="M72.878 44.9257V44.6616C72.878 43.6638 73.0215 42.7457 73.3086 41.9072C73.5956 41.0604 74.0135 40.3267 74.5623 39.7062C75.111 39.0858 75.7864 38.6037 76.5885 38.2599C77.3905 37.9077 78.3108 37.7317 79.3492 37.7317C80.3876 37.7317 81.3121 37.9077 82.1226 38.2599C82.933 38.6037 83.6127 39.0858 84.1614 39.7062C84.7186 40.3267 85.1408 41.0604 85.4278 41.9072C85.7149 42.7457 85.8584 43.6638 85.8584 44.6616V44.9257C85.8584 45.9151 85.7149 46.8332 85.4278 47.68C85.1408 48.5185 84.7186 49.2522 84.1614 49.881C83.6127 50.5015 82.9373 50.9836 82.1352 51.3274C81.3332 51.6711 80.4129 51.843 79.3745 51.843C78.3361 51.843 77.4116 51.6711 76.6011 51.3274C75.7991 50.9836 75.1195 50.5015 74.5623 49.881C74.0135 49.2522 73.5956 48.5185 73.3086 47.68C73.0215 46.8332 72.878 45.9151 72.878 44.9257ZM76.5252 44.6616V44.9257C76.5252 45.4958 76.5758 46.0283 76.6771 46.523C76.7784 47.0176 76.9388 47.4536 77.1584 47.831C77.3863 48.1999 77.6818 48.4892 78.0448 48.6988C78.4078 48.9084 78.8511 49.0132 79.3745 49.0132C79.8811 49.0132 80.3159 48.9084 80.6789 48.6988C81.0419 48.4892 81.3332 48.1999 81.5527 47.831C81.7722 47.4536 81.9326 47.0176 82.0339 46.523C82.1437 46.0283 82.1985 45.4958 82.1985 44.9257V44.6616C82.1985 44.1082 82.1437 43.5883 82.0339 43.102C81.9326 42.6073 81.768 42.1713 81.54 41.794C81.3205 41.4083 81.0293 41.1065 80.6662 40.8885C80.3032 40.6705 79.8642 40.5615 79.3492 40.5615C78.8342 40.5615 78.3952 40.6705 78.0322 40.8885C77.6776 41.1065 77.3863 41.4083 77.1584 41.794C76.9388 42.1713 76.7784 42.6073 76.6771 43.102C76.5758 43.5883 76.5252 44.1082 76.5252 44.6616Z" fill="#001489" fill-opacity="0.5"/>
<path d="M93.7606 49.0132C94.208 49.0132 94.6048 48.9293 94.951 48.7617C95.2971 48.5856 95.5673 48.3424 95.7615 48.0322C95.9641 47.7136 96.0696 47.3405 96.0781 46.9128H99.5099C99.5015 47.8687 99.244 48.7197 98.7374 49.466C98.2309 50.2038 97.5513 50.7865 96.6986 51.2142C95.8459 51.6334 94.8919 51.843 93.8366 51.843C92.7728 51.843 91.8441 51.6669 91.0505 51.3148C90.2654 50.9626 89.6111 50.4763 89.0876 49.8558C88.5642 49.227 88.1716 48.4975 87.9099 47.6675C87.6482 46.829 87.5173 45.9318 87.5173 44.976V44.6113C87.5173 43.647 87.6482 42.7499 87.9099 41.9198C88.1716 41.0813 88.5642 40.3519 89.0876 39.7314C89.6111 39.1025 90.2654 38.612 91.0505 38.2599C91.8357 37.9077 92.7559 37.7317 93.8112 37.7317C94.9341 37.7317 95.9176 37.9455 96.7619 38.3731C97.6146 38.8007 98.2816 39.4128 98.7628 40.2093C99.2524 40.9975 99.5015 41.9324 99.5099 43.014H96.0781C96.0696 42.5612 95.9725 42.1504 95.7868 41.7814C95.6095 41.4125 95.3478 41.1191 95.0016 40.9011C94.6639 40.6747 94.246 40.5615 93.7479 40.5615C93.216 40.5615 92.7812 40.6747 92.4435 40.9011C92.1058 41.1191 91.8441 41.4209 91.6584 41.8066C91.4727 42.1839 91.3418 42.6157 91.2658 43.102C91.1983 43.5799 91.1645 44.083 91.1645 44.6113V44.976C91.1645 45.5042 91.1983 46.0115 91.2658 46.4978C91.3334 46.9841 91.46 47.4159 91.6457 47.7932C91.8399 48.1705 92.1058 48.4682 92.4435 48.6862C92.7812 48.9042 93.2203 49.0132 93.7606 49.0132Z" fill="#001489" fill-opacity="0.5"/>
<path d="M105.475 37.9832V51.5915H101.815V37.9832H105.475ZM101.587 34.4365C101.587 33.9083 101.773 33.4723 102.144 33.1285C102.515 32.7847 103.014 32.6128 103.638 32.6128C104.255 32.6128 104.749 32.7847 105.12 33.1285C105.5 33.4723 105.69 33.9083 105.69 34.4365C105.69 34.9647 105.5 35.4007 105.12 35.7445C104.749 36.0883 104.255 36.2602 103.638 36.2602C103.014 36.2602 102.515 36.0883 102.144 35.7445C101.773 35.4007 101.587 34.9647 101.587 34.4365Z" fill="#001489" fill-opacity="0.5"/>
<path d="M112.06 40.8885V51.5915H108.413V37.9832H111.832L112.06 40.8885ZM111.528 44.3094H110.54C110.54 43.3033 110.671 42.3977 110.933 41.5928C111.194 40.7795 111.562 40.0877 112.034 39.5176C112.507 38.939 113.069 38.4989 113.719 38.197C114.377 37.8868 115.112 37.7317 115.922 37.7317C116.564 37.7317 117.151 37.8239 117.682 38.0084C118.214 38.1928 118.67 38.4863 119.05 38.8887C119.439 39.2912 119.734 39.8236 119.937 40.486C120.148 41.1484 120.253 41.9575 120.253 42.9134V51.5915H116.581V42.9008C116.581 42.2971 116.496 41.8276 116.327 41.4922C116.159 41.1568 115.91 40.922 115.58 40.7879C115.259 40.6453 114.863 40.5741 114.39 40.5741C113.9 40.5741 113.474 40.6705 113.111 40.8633C112.756 41.0562 112.461 41.3245 112.224 41.6682C111.996 42.0036 111.823 42.3977 111.705 42.8505C111.587 43.3033 111.528 43.7896 111.528 44.3094Z" fill="#001489" fill-opacity="0.5"/>
<path d="M129.738 37.9832V40.5489H121.76V37.9832H129.738ZM123.736 34.6252H127.383V47.4914C127.383 47.8855 127.434 48.1873 127.535 48.3969C127.645 48.6065 127.805 48.7533 128.016 48.8371C128.227 48.9126 128.493 48.9503 128.814 48.9503C129.042 48.9503 129.245 48.9419 129.422 48.9252C129.608 48.9 129.764 48.8748 129.89 48.8497L129.903 51.516C129.591 51.6166 129.253 51.6963 128.89 51.755C128.527 51.8137 128.126 51.843 127.687 51.843C126.885 51.843 126.184 51.713 125.585 51.4531C124.994 51.1848 124.538 50.7572 124.217 50.1703C123.896 49.5833 123.736 48.812 123.736 47.8561V34.6252Z" fill="#001489" fill-opacity="0.5"/>
<path d="M138.122 51.843C137.058 51.843 136.104 51.6753 135.26 51.3399C134.416 50.9962 133.698 50.5224 133.107 49.9187C132.524 49.315 132.077 48.6149 131.765 47.8184C131.452 47.0135 131.296 46.1582 131.296 45.2527V44.7496C131.296 43.7183 131.444 42.775 131.739 41.9198C132.035 41.0646 132.457 40.3225 133.006 39.6937C133.563 39.0648 134.238 38.5827 135.032 38.2473C135.825 37.9035 136.72 37.7317 137.717 37.7317C138.687 37.7317 139.549 37.891 140.3 38.2096C141.051 38.5282 141.68 38.981 142.187 39.5679C142.702 40.1548 143.09 40.8591 143.352 41.6808C143.614 42.4941 143.745 43.3997 143.745 44.3974V45.9067H132.854V43.4919H140.161V43.2152C140.161 42.7121 140.068 42.2636 139.882 41.8695C139.705 41.467 139.435 41.1484 139.072 40.9136C138.709 40.6789 138.244 40.5615 137.679 40.5615C137.197 40.5615 136.784 40.6663 136.438 40.8759C136.091 41.0855 135.809 41.379 135.589 41.7563C135.378 42.1336 135.218 42.578 135.108 43.0894C135.007 43.5925 134.956 44.1459 134.956 44.7496V45.2527C134.956 45.7977 135.032 46.3008 135.184 46.7619C135.344 47.2231 135.568 47.6213 135.855 47.9567C136.15 48.2921 136.505 48.552 136.919 48.7365C137.341 48.921 137.818 49.0132 138.35 49.0132C139.008 49.0132 139.62 48.8874 140.186 48.6359C140.76 48.376 141.254 47.9861 141.668 47.4662L143.441 49.3779C143.154 49.7888 142.761 50.1828 142.263 50.5602C141.773 50.9375 141.182 51.2477 140.49 51.4908C139.798 51.7256 139.008 51.843 138.122 51.843Z" fill="#001489" fill-opacity="0.5"/>
<path d="M149.671 32.2733V51.5915H146.011V32.2733H149.671Z" fill="#001489" fill-opacity="0.5"/>
<path d="M152.862 49.8433C152.862 49.3067 153.048 48.8581 153.42 48.4975C153.8 48.137 154.302 47.9567 154.927 47.9567C155.551 47.9567 156.05 48.137 156.421 48.4975C156.801 48.8581 156.991 49.3067 156.991 49.8433C156.991 50.3799 156.801 50.8285 156.421 51.189C156.05 51.5495 155.551 51.7298 154.927 51.7298C154.302 51.7298 153.8 51.5495 153.42 51.189C153.048 50.8285 152.862 50.3799 152.862 49.8433Z" fill="#001489" fill-opacity="0.5"/>
<path d="M167.603 48.5227V42.4606C167.603 42.0246 167.531 41.6515 167.388 41.3412C167.244 41.0226 167.021 40.7753 166.717 40.5992C166.421 40.4231 166.037 40.3351 165.564 40.3351C165.159 40.3351 164.809 40.4064 164.513 40.5489C164.218 40.6831 163.99 40.8801 163.829 41.14C163.669 41.3916 163.589 41.6892 163.589 42.033H159.942C159.942 41.4544 160.077 40.9052 160.347 40.3854C160.617 39.8656 161.01 39.4086 161.525 39.0145C162.039 38.612 162.652 38.2976 163.361 38.0712C164.078 37.8449 164.88 37.7317 165.767 37.7317C166.831 37.7317 167.776 37.9077 168.604 38.2599C169.431 38.612 170.081 39.1403 170.554 39.8446C171.035 40.5489 171.276 41.4293 171.276 42.4858V48.3089C171.276 49.0551 171.322 49.6672 171.415 50.1451C171.508 50.6147 171.643 51.0255 171.82 51.3777V51.5915H168.135C167.958 51.2225 167.823 50.7614 167.73 50.208C167.645 49.6462 167.603 49.0845 167.603 48.5227ZM168.084 43.3033L168.11 45.3533H166.071C165.59 45.3533 165.172 45.4078 164.817 45.5168C164.463 45.6258 164.171 45.7809 163.943 45.9821C163.715 46.175 163.546 46.4014 163.437 46.6613C163.335 46.9212 163.285 47.2063 163.285 47.5165C163.285 47.8268 163.357 48.1077 163.5 48.3592C163.644 48.6023 163.85 48.7952 164.121 48.9377C164.391 49.0719 164.707 49.139 165.07 49.139C165.619 49.139 166.096 49.03 166.501 48.812C166.907 48.594 167.219 48.3256 167.438 48.007C167.666 47.6884 167.785 47.3866 167.793 47.1015L168.756 48.6359C168.62 48.9797 168.435 49.336 168.198 49.7049C167.97 50.0738 167.679 50.4218 167.325 50.7488C166.97 51.0674 166.544 51.3315 166.045 51.5412C165.547 51.7424 164.956 51.843 164.273 51.843C163.403 51.843 162.614 51.6711 161.904 51.3274C161.204 50.9752 160.646 50.4931 160.233 49.881C159.828 49.2605 159.625 48.5562 159.625 47.7681C159.625 47.0554 159.76 46.4223 160.03 45.8689C160.3 45.3156 160.697 44.8502 161.221 44.4729C161.752 44.0872 162.415 43.7979 163.209 43.6051C164.002 43.4039 164.923 43.3033 165.969 43.3033H168.084Z" fill="#001489" fill-opacity="0.5"/>
<path d="M177.734 40.5992V56.8235H174.087V37.9832H177.468L177.734 40.5992ZM186.409 44.6364V44.9005C186.409 45.8899 186.291 46.808 186.054 47.6549C185.826 48.5017 185.489 49.2396 185.041 49.8684C184.594 50.4889 184.036 50.9752 183.37 51.3274C182.711 51.6711 181.951 51.843 181.09 51.843C180.254 51.843 179.528 51.6753 178.912 51.3399C178.296 51.0045 177.776 50.535 177.354 49.9313C176.941 49.3192 176.607 48.6107 176.354 47.8058C176.101 47.0009 175.906 46.1373 175.771 45.2149V44.5232C175.906 43.5338 176.101 42.6283 176.354 41.8066C176.607 40.9765 176.941 40.2596 177.354 39.6559C177.776 39.0439 178.291 38.5701 178.899 38.2347C179.516 37.8994 180.237 37.7317 181.065 37.7317C181.934 37.7317 182.698 37.8952 183.357 38.2222C184.024 38.5492 184.581 39.0187 185.028 39.6308C185.484 40.2429 185.826 40.9723 186.054 41.8192C186.291 42.666 186.409 43.6051 186.409 44.6364ZM182.749 44.9005V44.6364C182.749 44.0579 182.698 43.5254 182.597 43.0391C182.504 42.5444 182.352 42.1126 182.141 41.7437C181.939 41.3748 181.668 41.0897 181.331 40.8885C181.001 40.6789 180.6 40.5741 180.128 40.5741C179.63 40.5741 179.203 40.6537 178.849 40.813C178.502 40.9723 178.22 41.2029 178 41.5047C177.781 41.8066 177.616 42.1671 177.506 42.5864C177.396 43.0056 177.329 43.4793 177.304 44.0076V45.7558C177.346 46.3762 177.464 46.9338 177.658 47.4285C177.852 47.9148 178.152 48.3005 178.557 48.5856C178.963 48.8707 179.494 49.0132 180.153 49.0132C180.634 49.0132 181.039 48.9084 181.369 48.6988C181.698 48.4808 181.964 48.1831 182.166 47.8058C182.378 47.4285 182.525 46.9925 182.61 46.4978C182.703 46.0031 182.749 45.4707 182.749 44.9005Z" fill="#001489" fill-opacity="0.5"/>
<path d="M192.323 40.5992V56.8235H188.676V37.9832H192.057L192.323 40.5992ZM200.998 44.6364V44.9005C200.998 45.8899 200.879 46.808 200.643 47.6549C200.415 48.5017 200.077 49.2396 199.63 49.8684C199.182 50.4889 198.625 50.9752 197.958 51.3274C197.3 51.6711 196.54 51.843 195.679 51.843C194.843 51.843 194.117 51.6753 193.501 51.3399C192.884 51.0045 192.365 50.535 191.943 49.9313C191.529 49.3192 191.196 48.6107 190.942 47.8058C190.689 47.0009 190.495 46.1373 190.36 45.2149V44.5232C190.495 43.5338 190.689 42.6283 190.942 41.8066C191.196 40.9765 191.529 40.2596 191.943 39.6559C192.365 39.0439 192.88 38.5701 193.488 38.2347C194.104 37.8994 194.826 37.7317 195.653 37.7317C196.523 37.7317 197.287 37.8952 197.946 38.2222C198.613 38.5492 199.17 39.0187 199.617 39.6308C200.073 40.2429 200.415 40.9723 200.643 41.8192C200.879 42.666 200.998 43.6051 200.998 44.6364ZM197.338 44.9005V44.6364C197.338 44.0579 197.287 43.5254 197.186 43.0391C197.093 42.5444 196.941 42.1126 196.73 41.7437C196.527 41.3748 196.257 41.0897 195.919 40.8885C195.59 40.6789 195.189 40.5741 194.716 40.5741C194.218 40.5741 193.792 40.6537 193.437 40.813C193.091 40.9723 192.808 41.2029 192.589 41.5047C192.369 41.8066 192.205 42.1671 192.095 42.5864C191.985 43.0056 191.918 43.4793 191.892 44.0076V45.7558C191.934 46.3762 192.053 46.9338 192.247 47.4285C192.441 47.9148 192.741 48.3005 193.146 48.5856C193.551 48.8707 194.083 49.0132 194.742 49.0132C195.223 49.0132 195.628 48.9084 195.957 48.6988C196.287 48.4808 196.553 48.1831 196.755 47.8058C196.966 47.4285 197.114 46.9925 197.198 46.4978C197.291 46.0031 197.338 45.4707 197.338 44.9005Z" fill="#001489" fill-opacity="0.5"/>
<path d="M62.1317 14.6985L58.7034 23.9469H57.8327L61.5739 14.1108H62.1793L62.1317 14.6985ZM65.2471 23.9469L61.812 14.6985L61.7644 14.1108H62.3698L66.1178 23.9469H65.2471ZM64.6349 20.4746V21.1907H59.3768V20.4746H64.6349Z" fill="#001489" fill-opacity="0.5"/>
<path d="M73.5119 23.3862C73.8565 23.3862 74.1785 23.3232 74.4778 23.1971C74.7817 23.0665 75.0311 22.8751 75.2261 22.6228C75.4256 22.3661 75.539 22.0531 75.5662 21.6838H76.3416C76.319 22.1477 76.1761 22.562 75.9131 22.9268C75.6546 23.2871 75.3145 23.5709 74.8928 23.7781C74.4756 23.9807 74.0153 24.0821 73.5119 24.0821C72.9995 24.0821 72.546 23.9897 72.1514 23.8051C71.7614 23.6204 71.4349 23.3637 71.1719 23.0349C70.9089 22.7017 70.7094 22.3143 70.5733 21.873C70.4418 21.4271 70.3761 20.9475 70.3761 20.434V20.1503C70.3761 19.6369 70.4418 19.1595 70.5733 18.7181C70.7094 18.2722 70.9089 17.8849 71.1719 17.5561C71.4349 17.2229 71.7614 16.9639 72.1514 16.7792C72.5414 16.5946 72.9927 16.5023 73.5051 16.5023C74.0311 16.5023 74.5028 16.6081 74.92 16.8198C75.3417 17.0314 75.6773 17.3309 75.9267 17.7183C76.1807 18.1056 76.319 18.565 76.3416 19.0964H75.5662C75.5435 18.7046 75.4392 18.3668 75.2533 18.0831C75.0673 17.7993 74.8225 17.5809 74.5186 17.4278C74.2148 17.2746 73.877 17.1981 73.5051 17.1981C73.0879 17.1981 72.7319 17.2791 72.4371 17.4413C72.1424 17.5989 71.902 17.8173 71.7161 18.0966C71.5347 18.3713 71.4009 18.6866 71.3148 19.0424C71.2286 19.3937 71.1855 19.763 71.1855 20.1503V20.434C71.1855 20.8258 71.2263 21.1997 71.308 21.5555C71.3941 21.9067 71.5279 22.2198 71.7093 22.4945C71.8952 22.7692 72.1356 22.9876 72.4303 23.1498C72.7296 23.3074 73.0902 23.3862 73.5119 23.3862Z" fill="#001489" fill-opacity="0.5"/>
<path d="M77.532 20.407V20.1841C77.532 19.6526 77.6091 19.1617 77.7633 18.7113C77.9175 18.261 78.1374 17.8714 78.4231 17.5426C78.7134 17.2138 79.0603 16.9594 79.4639 16.7792C79.8675 16.5946 80.3164 16.5023 80.8107 16.5023C81.3096 16.5023 81.7608 16.5946 82.1644 16.7792C82.568 16.9594 82.9149 17.2138 83.2051 17.5426C83.4953 17.8714 83.7176 18.261 83.8717 18.7113C84.0259 19.1617 84.103 19.6526 84.103 20.1841V20.407C84.103 20.9384 84.0259 21.4294 83.8717 21.8797C83.7176 22.3256 83.4953 22.7129 83.2051 23.0417C82.9194 23.3705 82.5748 23.6272 82.1712 23.8118C81.7676 23.992 81.3186 24.0821 80.8243 24.0821C80.3255 24.0821 79.8743 23.992 79.4707 23.8118C79.0671 23.6272 78.7202 23.3705 78.4299 23.0417C78.1397 22.7129 77.9175 22.3256 77.7633 21.8797C77.6091 21.4294 77.532 20.9384 77.532 20.407ZM78.3415 20.1841V20.407C78.3415 20.8078 78.3959 21.1884 78.5048 21.5487C78.6136 21.9045 78.7723 22.222 78.9809 22.5012C79.1895 22.776 79.448 22.9922 79.7564 23.1498C80.0647 23.3074 80.4207 23.3862 80.8243 23.3862C81.2234 23.3862 81.5748 23.3074 81.8787 23.1498C82.187 22.9922 82.4455 22.776 82.6541 22.5012C82.8627 22.222 83.0192 21.9045 83.1235 21.5487C83.2323 21.1884 83.2867 20.8078 83.2867 20.407V20.1841C83.2867 19.7877 83.2323 19.4117 83.1235 19.0559C83.0192 18.7001 82.8605 18.3826 82.6473 18.1033C82.4387 17.8241 82.1802 17.6034 81.8719 17.4413C81.5635 17.2791 81.2098 17.1981 80.8107 17.1981C80.4117 17.1981 80.0579 17.2791 79.7496 17.4413C79.4457 17.6034 79.1873 17.8241 78.9741 18.1033C78.7655 18.3826 78.6068 18.7001 78.498 19.0559C78.3937 19.4117 78.3415 19.7877 78.3415 20.1841Z" fill="#001489" fill-opacity="0.5"/>
<path d="M86.6947 13.5703V23.9469H85.8852V13.5703H86.6947Z" fill="#001489" fill-opacity="0.5"/>
<path d="M89.8237 13.5703V23.9469H89.0143V13.5703H89.8237Z" fill="#001489" fill-opacity="0.5"/>
<path d="M96.5239 22.6364V18.8667C96.5239 18.5199 96.4514 18.2204 96.3063 17.9682C96.1612 17.716 95.948 17.5224 95.6669 17.3872C95.3857 17.2521 95.0388 17.1846 94.6261 17.1846C94.2452 17.1846 93.9051 17.2521 93.6058 17.3872C93.311 17.5178 93.0775 17.6957 92.9051 17.9209C92.7374 18.1416 92.6535 18.3871 92.6535 18.6573L91.8372 18.6505C91.8372 18.3758 91.9052 18.1101 92.0413 17.8534C92.1773 17.5967 92.37 17.367 92.6194 17.1643C92.8689 16.9616 93.1659 16.8018 93.5105 16.6847C93.8597 16.5631 94.2429 16.5023 94.6601 16.5023C95.1862 16.5023 95.6487 16.5901 96.0478 16.7657C96.4514 16.9414 96.7666 17.2048 96.9933 17.5561C97.2201 17.9074 97.3334 18.3488 97.3334 18.8802V22.4134C97.3334 22.6656 97.3516 22.9268 97.3878 23.1971C97.4287 23.4673 97.4853 23.6902 97.5579 23.8659V23.9469H96.694C96.6396 23.7848 96.5965 23.5821 96.5648 23.3389C96.5376 23.0912 96.5239 22.857 96.5239 22.6364ZM96.7144 19.6909L96.728 20.3124H95.1295C94.7123 20.3124 94.3382 20.3507 94.0071 20.4273C93.6806 20.4993 93.404 20.6074 93.1772 20.7515C92.9505 20.8912 92.7759 21.06 92.6535 21.2582C92.5356 21.4564 92.4766 21.6816 92.4766 21.9338C92.4766 22.195 92.5424 22.4337 92.6739 22.6499C92.8099 22.866 93.0004 23.0394 93.2453 23.17C93.4947 23.2962 93.7894 23.3592 94.1296 23.3592C94.583 23.3592 94.9821 23.2759 95.3268 23.1093C95.6759 22.9426 95.9639 22.7242 96.1906 22.454C96.4174 22.1837 96.5693 21.8887 96.6464 21.569L97.0001 22.0351C96.9412 22.2603 96.8323 22.4922 96.6736 22.7309C96.5194 22.9651 96.3176 23.1858 96.0682 23.393C95.8188 23.5957 95.524 23.7623 95.1839 23.8929C94.8483 24.019 94.4674 24.0821 94.0411 24.0821C93.5604 24.0821 93.141 23.992 92.7827 23.8118C92.429 23.6317 92.1524 23.3862 91.9528 23.0755C91.7578 22.7602 91.6603 22.4044 91.6603 22.0081C91.6603 21.6478 91.7374 21.3258 91.8916 21.042C92.0458 20.7538 92.268 20.5106 92.5582 20.3124C92.853 20.1098 93.2067 19.9566 93.6194 19.853C94.0366 19.745 94.5037 19.6909 95.0207 19.6909H96.7144Z" fill="#001489" fill-opacity="0.5"/>
<path d="M99.5033 13.5703H100.32V22.5283L100.265 23.9469H99.5033V13.5703ZM105.442 20.2246V20.3665C105.442 20.9114 105.378 21.4113 105.251 21.8662C105.124 22.3211 104.941 22.7152 104.7 23.0484C104.46 23.3772 104.165 23.6317 103.816 23.8118C103.471 23.992 103.075 24.0821 102.626 24.0821C102.186 24.0821 101.796 24.0145 101.456 23.8794C101.115 23.7398 100.825 23.5439 100.585 23.2917C100.345 23.0349 100.152 22.7354 100.007 22.3932C99.8616 22.0464 99.7596 21.6658 99.7006 21.2515V19.4477C99.7686 19.0063 99.8775 18.6055 100.027 18.2452C100.177 17.8849 100.369 17.5741 100.605 17.3129C100.846 17.0517 101.131 16.8513 101.462 16.7117C101.798 16.5721 102.181 16.5023 102.612 16.5023C103.061 16.5023 103.46 16.5901 103.809 16.7657C104.163 16.9369 104.46 17.1868 104.7 17.5156C104.941 17.8399 105.124 18.2317 105.251 18.6911C105.378 19.146 105.442 19.6571 105.442 20.2246ZM104.619 20.3665V20.2246C104.619 19.7967 104.578 19.4004 104.496 19.0356C104.415 18.6708 104.285 18.3533 104.108 18.0831C103.936 17.8083 103.714 17.5944 103.442 17.4413C103.17 17.2882 102.843 17.2116 102.462 17.2116C102.072 17.2116 101.739 17.2769 101.462 17.4075C101.19 17.5336 100.964 17.7025 100.782 17.9142C100.605 18.1213 100.465 18.3488 100.36 18.5965C100.256 18.8442 100.179 19.0874 100.129 19.3261V21.4271C100.206 21.7649 100.34 22.0824 100.53 22.3796C100.721 22.6769 100.977 22.9178 101.299 23.1025C101.621 23.2826 102.013 23.3727 102.476 23.3727C102.848 23.3727 103.167 23.2962 103.435 23.143C103.707 22.9899 103.929 22.7782 104.102 22.508C104.279 22.2378 104.408 21.9203 104.489 21.5555C104.576 21.1907 104.619 20.7943 104.619 20.3665Z" fill="#001489" fill-opacity="0.5"/>
<path d="M106.795 20.407V20.1841C106.795 19.6526 106.872 19.1617 107.027 18.7113C107.181 18.261 107.401 17.8714 107.686 17.5426C107.977 17.2138 108.324 16.9594 108.727 16.7792C109.131 16.5946 109.58 16.5023 110.074 16.5023C110.573 16.5023 111.024 16.5946 111.428 16.7792C111.831 16.9594 112.178 17.2138 112.468 17.5426C112.759 17.8714 112.981 18.261 113.135 18.7113C113.289 19.1617 113.366 19.6526 113.366 20.1841V20.407C113.366 20.9384 113.289 21.4294 113.135 21.8797C112.981 22.3256 112.759 22.7129 112.468 23.0417C112.183 23.3705 111.838 23.6272 111.435 23.8118C111.031 23.992 110.582 24.0821 110.088 24.0821C109.589 24.0821 109.138 23.992 108.734 23.8118C108.33 23.6272 107.983 23.3705 107.693 23.0417C107.403 22.7129 107.181 22.3256 107.027 21.8797C106.872 21.4294 106.795 20.9384 106.795 20.407ZM107.605 20.1841V20.407C107.605 20.8078 107.659 21.1884 107.768 21.5487C107.877 21.9045 108.036 22.222 108.244 22.5012C108.453 22.776 108.711 22.9922 109.02 23.1498C109.328 23.3074 109.684 23.3862 110.088 23.3862C110.487 23.3862 110.838 23.3074 111.142 23.1498C111.45 22.9922 111.709 22.776 111.917 22.5012C112.126 22.222 112.283 21.9045 112.387 21.5487C112.496 21.1884 112.55 20.8078 112.55 20.407V20.1841C112.55 19.7877 112.496 19.4117 112.387 19.0559C112.283 18.7001 112.124 18.3826 111.911 18.1033C111.702 17.8241 111.444 17.6034 111.135 17.4413C110.827 17.2791 110.473 17.1981 110.074 17.1981C109.675 17.1981 109.321 17.2791 109.013 17.4413C108.709 17.6034 108.451 17.8241 108.237 18.1033C108.029 18.3826 107.87 18.7001 107.761 19.0559C107.657 19.4117 107.605 19.7877 107.605 20.1841Z" fill="#001489" fill-opacity="0.5"/>
<path d="M115.863 17.8466V23.9469H115.053V16.6374H115.842L115.863 17.8466ZM118.468 16.5833L118.448 17.3264C118.357 17.3129 118.269 17.3017 118.182 17.2927C118.096 17.2837 118.003 17.2791 117.903 17.2791C117.55 17.2791 117.239 17.3445 116.972 17.4751C116.709 17.6012 116.486 17.7791 116.305 18.0088C116.124 18.2339 115.985 18.4997 115.89 18.8059C115.795 19.1077 115.74 19.4319 115.727 19.7787L115.427 19.8936C115.427 19.4162 115.477 18.9726 115.577 18.5627C115.677 18.1529 115.829 17.7948 116.033 17.4886C116.241 17.1778 116.502 16.9369 116.815 16.7657C117.133 16.5901 117.504 16.5023 117.931 16.5023C118.035 16.5023 118.137 16.5113 118.237 16.5293C118.341 16.5428 118.418 16.5608 118.468 16.5833Z" fill="#001489" fill-opacity="0.5"/>
<path d="M123.951 22.6364V18.8667C123.951 18.5199 123.878 18.2204 123.733 17.9682C123.588 17.716 123.375 17.5224 123.094 17.3872C122.812 17.2521 122.466 17.1846 122.053 17.1846C121.672 17.1846 121.332 17.2521 121.033 17.3872C120.738 17.5178 120.504 17.6957 120.332 17.9209C120.164 18.1416 120.08 18.3871 120.08 18.6573L119.264 18.6505C119.264 18.3758 119.332 18.1101 119.468 17.8534C119.604 17.5967 119.797 17.367 120.046 17.1643C120.296 16.9616 120.593 16.8018 120.937 16.6847C121.286 16.5631 121.67 16.5023 122.087 16.5023C122.613 16.5023 123.075 16.5901 123.475 16.7657C123.878 16.9414 124.193 17.2048 124.42 17.5561C124.647 17.9074 124.76 18.3488 124.76 18.8802V22.4134C124.76 22.6656 124.778 22.9268 124.815 23.1971C124.855 23.4673 124.912 23.6902 124.985 23.8659V23.9469H124.121C124.066 23.7848 124.023 23.5821 123.991 23.3389C123.964 23.0912 123.951 22.857 123.951 22.6364ZM124.141 19.6909L124.155 20.3124H122.556C122.139 20.3124 121.765 20.3507 121.434 20.4273C121.107 20.4993 120.831 20.6074 120.604 20.7515C120.377 20.8912 120.203 21.06 120.08 21.2582C119.962 21.4564 119.903 21.6816 119.903 21.9338C119.903 22.195 119.969 22.4337 120.101 22.6499C120.237 22.866 120.427 23.0394 120.672 23.17C120.921 23.2962 121.216 23.3592 121.556 23.3592C122.01 23.3592 122.409 23.2759 122.753 23.1093C123.103 22.9426 123.391 22.7242 123.617 22.454C123.844 22.1837 123.996 21.8887 124.073 21.569L124.427 22.0351C124.368 22.2603 124.259 22.4922 124.1 22.7309C123.946 22.9651 123.744 23.1858 123.495 23.393C123.246 23.5957 122.951 23.7623 122.611 23.8929C122.275 24.019 121.894 24.0821 121.468 24.0821C120.987 24.0821 120.568 23.992 120.209 23.8118C119.856 23.6317 119.579 23.3862 119.38 23.0755C119.185 22.7602 119.087 22.4044 119.087 22.0081C119.087 21.6478 119.164 21.3258 119.318 21.042C119.473 20.7538 119.695 20.5106 119.985 20.3124C120.28 20.1098 120.633 19.9566 121.046 19.853C121.463 19.745 121.93 19.6909 122.447 19.6909H124.141Z" fill="#001489" fill-opacity="0.5"/>
<path d="M129.726 16.6374V17.2994H126.039V16.6374H129.726ZM127.393 14.7593H128.202V22.1702C128.202 22.508 128.247 22.7625 128.338 22.9336C128.429 23.1047 128.547 23.2196 128.692 23.2781C128.837 23.3367 128.993 23.366 129.161 23.366C129.284 23.366 129.402 23.3592 129.515 23.3457C129.628 23.3277 129.73 23.3097 129.821 23.2917L129.855 23.974C129.755 24.0055 129.626 24.0303 129.467 24.0483C129.309 24.0708 129.15 24.0821 128.991 24.0821C128.678 24.0821 128.402 24.0258 128.161 23.9132C127.921 23.7961 127.733 23.5979 127.597 23.3187C127.461 23.0349 127.393 22.6499 127.393 22.1635V14.7593Z" fill="#001489" fill-opacity="0.5"/>
<path d="M132.338 16.6374V23.9469H131.528V16.6374H132.338ZM131.386 14.5229C131.386 14.3697 131.433 14.2414 131.528 14.1378C131.628 14.0297 131.764 13.9756 131.937 13.9756C132.109 13.9756 132.245 14.0297 132.345 14.1378C132.449 14.2414 132.501 14.3697 132.501 14.5229C132.501 14.6715 132.449 14.7998 132.345 14.9079C132.245 15.0115 132.109 15.0633 131.937 15.0633C131.764 15.0633 131.628 15.0115 131.528 14.9079C131.433 14.7998 131.386 14.6715 131.386 14.5229Z" fill="#001489" fill-opacity="0.5"/>
<path d="M134.113 20.407V20.1841C134.113 19.6526 134.19 19.1617 134.345 18.7113C134.499 18.261 134.719 17.8714 135.004 17.5426C135.295 17.2138 135.641 16.9594 136.045 16.7792C136.449 16.5946 136.898 16.5023 137.392 16.5023C137.891 16.5023 138.342 16.5946 138.746 16.7792C139.149 16.9594 139.496 17.2138 139.786 17.5426C140.077 17.8714 140.299 18.261 140.453 18.7113C140.607 19.1617 140.684 19.6526 140.684 20.1841V20.407C140.684 20.9384 140.607 21.4294 140.453 21.8797C140.299 22.3256 140.077 22.7129 139.786 23.0417C139.501 23.3705 139.156 23.6272 138.752 23.8118C138.349 23.992 137.9 24.0821 137.406 24.0821C136.907 24.0821 136.455 23.992 136.052 23.8118C135.648 23.6272 135.301 23.3705 135.011 23.0417C134.721 22.7129 134.499 22.3256 134.345 21.8797C134.19 21.4294 134.113 20.9384 134.113 20.407ZM134.923 20.1841V20.407C134.923 20.8078 134.977 21.1884 135.086 21.5487C135.195 21.9045 135.354 22.222 135.562 22.5012C135.771 22.776 136.029 22.9922 136.338 23.1498C136.646 23.3074 137.002 23.3862 137.406 23.3862C137.805 23.3862 138.156 23.3074 138.46 23.1498C138.768 22.9922 139.027 22.776 139.235 22.5012C139.444 22.222 139.6 21.9045 139.705 21.5487C139.814 21.1884 139.868 20.8078 139.868 20.407V20.1841C139.868 19.7877 139.814 19.4117 139.705 19.0559C139.6 18.7001 139.442 18.3826 139.229 18.1033C139.02 17.8241 138.761 17.6034 138.453 17.4413C138.145 17.2791 137.791 17.1981 137.392 17.1981C136.993 17.1981 136.639 17.2791 136.331 17.4413C136.027 17.6034 135.768 17.8241 135.555 18.1033C135.347 18.3826 135.188 18.7001 135.079 19.0559C134.975 19.4117 134.923 19.7877 134.923 20.1841Z" fill="#001489" fill-opacity="0.5"/>
<path d="M143.181 18.1979V23.9469H142.371V16.6374H143.147L143.181 18.1979ZM142.997 19.8395L142.636 19.6369C142.664 19.2045 142.752 18.7992 142.902 18.4208C143.051 18.0425 143.253 17.7093 143.507 17.421C143.766 17.1328 144.067 16.9076 144.412 16.7455C144.761 16.5833 145.147 16.5023 145.568 16.5023C145.936 16.5023 146.264 16.5518 146.555 16.6509C146.845 16.75 147.092 16.9076 147.296 17.1238C147.5 17.3399 147.654 17.6169 147.759 17.9547C147.867 18.2925 147.922 18.7046 147.922 19.191V23.9469H147.106V19.1842C147.106 18.6798 147.035 18.2857 146.895 18.002C146.754 17.7138 146.555 17.5088 146.296 17.3872C146.038 17.2656 145.732 17.2048 145.378 17.2048C144.988 17.2048 144.645 17.2904 144.351 17.4616C144.06 17.6282 143.816 17.8466 143.616 18.1168C143.421 18.3826 143.271 18.6686 143.167 18.9748C143.063 19.2766 143.006 19.5648 142.997 19.8395Z" fill="#001489" fill-opacity="0.5"/>
<path d="M155.472 22.2378L157.248 16.6374H157.819L157.479 18.1439L155.622 23.9469H155.051L155.472 22.2378ZM153.629 16.6374L155.187 22.2716L155.52 23.9469H154.928L152.792 16.6374H153.629ZM160.03 22.2513L161.547 16.6374H162.383L160.248 23.9469H159.663L160.03 22.2513ZM157.935 16.6374L159.683 22.1905L160.125 23.9469H159.554L157.656 18.1371L157.336 16.6374H157.935Z" fill="#001489" fill-opacity="0.5"/>
<path d="M164.853 16.6374V23.9469H164.043V16.6374H164.853ZM163.9 14.5229C163.9 14.3697 163.948 14.2414 164.043 14.1378C164.143 14.0297 164.279 13.9756 164.451 13.9756C164.624 13.9756 164.76 14.0297 164.859 14.1378C164.964 14.2414 165.016 14.3697 165.016 14.5229C165.016 14.6715 164.964 14.7998 164.859 14.9079C164.76 15.0115 164.624 15.0633 164.451 15.0633C164.279 15.0633 164.143 15.0115 164.043 14.9079C163.948 14.7998 163.9 14.6715 163.9 14.5229Z" fill="#001489" fill-opacity="0.5"/>
<path d="M169.859 16.6374V17.2994H166.172V16.6374H169.859ZM167.526 14.7593H168.335V22.1702C168.335 22.508 168.381 22.7625 168.471 22.9336C168.562 23.1047 168.68 23.2196 168.825 23.2781C168.97 23.3367 169.127 23.366 169.295 23.366C169.417 23.366 169.535 23.3592 169.648 23.3457C169.762 23.3277 169.864 23.3097 169.954 23.2917L169.988 23.974C169.889 24.0055 169.759 24.0303 169.601 24.0483C169.442 24.0708 169.283 24.0821 169.124 24.0821C168.812 24.0821 168.535 24.0258 168.295 23.9132C168.054 23.7961 167.866 23.5979 167.73 23.3187C167.594 23.0349 167.526 22.6499 167.526 22.1635V14.7593Z" fill="#001489" fill-opacity="0.5"/>
<path d="M172.376 13.5703V23.9469H171.567V13.5703H172.376ZM172.192 19.8395L171.832 19.6369C171.859 19.2045 171.947 18.7992 172.097 18.4208C172.247 18.0425 172.449 17.7093 172.702 17.421C172.961 17.1328 173.263 16.9076 173.607 16.7455C173.956 16.5833 174.342 16.5023 174.764 16.5023C175.131 16.5023 175.46 16.5518 175.75 16.6509C176.04 16.75 176.287 16.9076 176.491 17.1238C176.695 17.3399 176.85 17.6169 176.954 17.9547C177.063 18.2925 177.117 18.7046 177.117 19.191V23.9469H176.301V19.1842C176.301 18.6798 176.231 18.2857 176.09 18.002C175.949 17.7138 175.75 17.5088 175.491 17.3872C175.233 17.2656 174.927 17.2048 174.573 17.2048C174.183 17.2048 173.841 17.2904 173.546 17.4616C173.256 17.6282 173.011 17.8466 172.811 18.1168C172.616 18.3826 172.467 18.6686 172.362 18.9748C172.258 19.2766 172.201 19.5648 172.192 19.8395Z" fill="#001489" fill-opacity="0.5"/>
<path fill-rule="evenodd" clip-rule="evenodd" d="M14.3152 8.64579C17.6434 6.42167 21.5562 5.23455 25.5589 5.23455C30.9264 5.23455 36.0741 7.36709 39.8695 11.163C43.6649 14.959 45.7971 20.1074 45.7971 25.4757C45.7971 29.479 44.6101 33.3924 42.3863 36.721C40.1625 40.0497 37.0018 42.644 33.3037 44.176C29.6057 45.708 25.5365 46.1089 21.6107 45.3279C17.6849 44.5469 14.0788 42.6191 11.2484 39.7883C8.41807 36.9575 6.49058 33.3509 5.70969 29.4245C4.92879 25.4981 5.32958 21.4283 6.86135 17.7297C8.39313 14.0311 10.9871 10.8699 14.3152 8.64579ZM26.826 41.9151C30.9505 41.6049 34.8058 39.7485 37.6207 36.7174C40.46 33.6736 42.0349 29.6632 42.0256 25.5004C42.0251 24.7354 41.9722 23.9713 41.8672 23.2135C40.7727 24.7787 39.3087 26.0495 37.6052 26.913C35.9017 27.7765 34.0114 28.2061 32.1021 28.1636L31.9882 30.9208L26.8755 25.7677L32.6416 20.6889L32.4287 23.5897C34.0063 23.5838 35.5398 23.0691 36.8016 22.122C38.0633 21.1749 38.9858 19.8459 39.4321 18.3326C39.5429 17.9525 39.567 17.5525 39.5028 17.1618C39.4385 16.7712 39.2876 16.3999 39.0609 16.0754C37.7703 14.222 36.1119 12.6543 34.1892 11.4698C32.2664 10.2854 30.1204 9.50944 27.8849 9.19042C25.6493 8.87141 23.372 9.01612 21.1947 9.61554C19.0175 10.215 16.9869 11.2563 15.2295 12.6746C17.1744 12.8092 19.0539 13.4329 20.6935 14.4877C22.3331 15.5426 23.6798 16.9945 24.6087 18.7088L27.0537 17.4317L25.1481 24.4361L17.8577 21.9611L20.4759 20.6988C19.6927 19.3267 18.4845 18.2467 17.0336 17.6216C15.5828 16.9966 13.9681 16.8604 12.4331 17.2337C12.0052 17.338 11.6069 17.539 11.2689 17.8214C10.9308 18.1037 10.662 18.4598 10.483 18.8623C9.59325 20.8931 9.12225 23.0827 9.09824 25.2998C9.07423 27.517 9.4977 29.7162 10.3433 31.7658C11.1889 33.8155 12.4393 35.6734 14.0196 37.2285C15.5999 38.7836 17.4777 40.0038 19.5405 40.8162C18.9609 39.5689 18.6105 38.2275 18.506 36.856C18.3264 34.4412 18.9006 32.0302 20.1492 29.9555L17.823 28.4705L24.8165 26.6142L26.3707 34.1632L23.9652 32.5296C23.1759 33.8945 22.8505 35.4786 23.0379 37.0442C23.2253 38.6097 23.9154 40.0722 25.0046 41.2122C25.2369 41.4574 25.5209 41.6477 25.836 41.7693C26.151 41.8909 26.4893 41.9407 26.826 41.9151Z" fill="#001489" fill-opacity="0.5"/>
<path fill-rule="evenodd" clip-rule="evenodd" d="M35.3003 1.98865C30.6739 0.0433254 25.5756 -0.489996 20.6469 0.455791C15.7181 1.40158 11.1792 3.78422 7.60116 7.30391C4.02314 10.8236 1.5659 15.3231 0.538652 20.2362C-0.488601 25.1493 -0.0399775 30.2565 1.82807 34.9152C3.69612 39.5739 6.90013 43.576 11.0369 46.4178C15.1738 49.2596 20.0586 50.8142 25.0767 50.886L25.0841 50.3657V50.8861H50.8861L50.881 25.5024C50.8925 20.483 49.4193 15.5724 46.6469 11.3884C43.8745 7.20438 39.9267 3.93397 35.3003 1.98865ZM49.8453 49.8454H25.0877C20.2762 49.7758 15.5926 48.2848 11.6261 45.56C7.65844 42.8344 4.58548 38.996 2.79384 34.5279C1.00219 30.0597 0.57192 25.1614 1.55716 20.4492C2.54239 15.737 4.89912 11.4216 8.3308 8.04586C11.7625 4.67013 16.1158 2.38494 20.8429 1.47784C25.5701 0.570735 30.4599 1.08224 34.8971 2.948C39.3342 4.81376 43.1206 7.95041 45.7796 11.9633C48.4386 15.9761 49.8515 20.6859 49.8405 25.5L49.8453 49.8454Z" fill="#001489" fill-opacity="0.5"/>
</svg>
