<svg width="210" height="58" viewBox="0 0 210 58" fill="none" xmlns="http://www.w3.org/2000/svg">
<path fill-rule="evenodd" clip-rule="evenodd" d="M20.3945 4.04864C11.4593 4.04864 4.21375 11.153 4.21375 19.9141C4.21375 28.6752 11.4593 35.7795 20.3945 35.7795C29.3298 35.7795 36.5753 28.6752 36.5753 19.9141C36.5753 11.153 29.3298 4.04864 20.3945 4.04864ZM30.0302 28.7295C27.7667 31.1119 24.6999 32.5591 21.3957 32.8035C20.8536 32.8423 20.3193 32.6445 19.9395 32.2526L19.9315 32.2448C18.135 30.4018 17.8066 27.6276 19.1005 25.4392L21.0237 26.7197L19.801 20.8104L14.1897 22.2615L16.0535 23.4216C15.0603 25.0318 14.5933 26.9447 14.7398 28.8304C14.8229 29.9129 15.0999 30.9567 15.5668 31.9461C10.561 30.0099 7.22909 25.2452 7.22909 19.9335C7.22909 18.1254 7.60502 16.3755 8.34105 14.7342C8.62597 14.0979 9.20767 13.6207 9.90017 13.4577C12.4288 12.8563 15.0405 13.9621 16.3266 16.1543L14.2332 17.1476L20.0621 19.0644L21.5856 13.5741L19.6308 14.5752C18.7048 12.9262 17.2486 11.5759 15.5114 10.7572C14.4628 10.2645 13.3033 9.96569 12.132 9.88421C14.4667 8.03731 17.3792 7.02851 20.3906 7.02851C24.688 7.02851 28.7243 9.09268 31.1896 12.5498C31.5576 13.0658 31.6645 13.7099 31.4825 14.3191V14.3307C30.7543 16.7519 28.4552 18.4397 25.8871 18.4397L26.0572 16.166L21.4511 20.1585L25.5388 24.1976L25.6298 22.0365C27.5491 22.0753 29.4722 21.5165 31.063 20.4495C31.9811 19.8365 32.7923 19.045 33.4333 18.1409C33.5164 18.7346 33.56 19.336 33.56 19.9335C33.56 23.2121 32.3055 26.3355 30.0302 28.7295Z" fill="#0066BE"/>
<path fill-rule="evenodd" clip-rule="evenodd" d="M34.6665 5.83475C26.7361 -1.94494 13.878 -1.94492 5.94768 5.83482C-1.98262 13.6106 -1.9825 26.218 5.94768 33.9976C9.73917 37.7152 14.6543 39.6439 19.6186 39.8058V39.8227H40.6231V19.5495H40.6117C40.5174 14.5757 38.5369 9.62979 34.6665 5.83475ZM20.41 39.0467V39.0444L20.0199 39.039C15.1203 38.9705 10.246 37.1147 6.50738 33.4489C-1.11395 25.9722 -1.11382 13.8561 6.50738 6.38347C14.1286 -1.09305 26.4855 -1.09312 34.1068 6.3834C37.9232 10.1255 39.8276 15.0307 39.8238 19.9372L39.8235 20.3255H39.8317V39.0467H20.41Z" fill="#0066BE"/>
<path d="M151.266 39.5782V17.753H147.078V39.5782H151.266Z" fill="#0066BE"/>
<path d="M100.691 39.5782V24.204H96.5025V39.5782H100.691Z" fill="#0066BE"/>
<path d="M96.8792 18.7192C96.4542 19.1076 96.2416 19.6002 96.2416 20.197C96.2416 20.7938 96.4542 21.2864 96.8792 21.6747C97.3043 22.0631 97.8743 22.2573 98.5892 22.2573C99.2945 22.2573 99.8597 22.0631 100.285 21.6747C100.719 21.2864 100.937 20.7938 100.937 20.197C100.937 19.6002 100.719 19.1076 100.285 18.7192C99.8597 18.3309 99.2945 18.1367 98.5892 18.1367C97.8743 18.1367 97.3043 18.3309 96.8792 18.7192Z" fill="#0066BE"/>
<path fill-rule="evenodd" clip-rule="evenodd" d="M51.4918 39.5782C52.9217 39.5782 54.2259 39.3461 55.4045 38.882C56.5928 38.4083 57.6121 37.7405 58.4622 36.8785C59.3221 36.007 59.9839 34.965 60.4476 33.7525C60.921 32.54 61.1577 31.1996 61.1577 29.7313V28.7509C61.1577 27.2731 60.921 25.9327 60.4476 24.7297C59.9839 23.5172 59.3221 22.4752 58.4622 21.6037C57.6024 20.7322 56.5832 20.0644 55.4045 19.6002C54.2356 19.1266 52.9458 18.8898 51.5353 18.8898H45.0141V39.5782H51.4918ZM49.3616 36.2533H51.4918C52.6318 36.2533 53.5931 36.0022 54.3756 35.5002C55.1582 34.9887 55.7475 34.2451 56.1436 33.2694C56.5494 32.2937 56.7522 31.1143 56.7522 29.7313V28.7225C56.7522 27.6615 56.6363 26.7284 56.4044 25.9233C56.1822 25.1181 55.8489 24.4408 55.4045 23.8914C54.9601 23.3419 54.4143 22.9299 53.767 22.6552C53.1197 22.371 52.3758 22.2289 51.5353 22.2289H49.3616V36.2533Z" fill="#0066BE"/>
<path fill-rule="evenodd" clip-rule="evenodd" d="M63.3894 31.749V32.0474C63.3894 33.1652 63.5536 34.2024 63.8821 35.1592C64.2105 36.1064 64.6888 36.9353 65.3167 37.6458C65.9544 38.3467 66.7321 38.8914 67.6499 39.2798C68.5773 39.6682 69.6352 39.8624 70.8235 39.8624C72.0118 39.8624 73.0649 39.6682 73.9827 39.2798C74.9005 38.8914 75.6733 38.3467 76.3013 37.6458C76.9389 36.9353 77.422 36.1064 77.7505 35.1592C78.0789 34.2024 78.2432 33.1652 78.2432 32.0474V31.749C78.2432 30.6217 78.0789 29.5845 77.7505 28.6372C77.422 27.6805 76.9389 26.8516 76.3013 26.1506C75.6733 25.4496 74.8956 24.9049 73.9682 24.5166C73.0407 24.1187 71.9828 23.9198 70.7945 23.9198C69.6062 23.9198 68.5532 24.1187 67.6354 24.5166C66.7176 24.9049 65.9447 25.4496 65.3167 26.1506C64.6888 26.8516 64.2105 27.6805 63.8821 28.6372C63.5536 29.5845 63.3894 30.6217 63.3894 31.749ZM67.5629 32.0474V31.749C67.5629 31.1238 67.6209 30.5365 67.7368 29.9871C67.8527 29.4282 68.0363 28.9356 68.2875 28.5093C68.5483 28.0736 68.8816 27.7325 69.2874 27.4863C69.7028 27.24 70.2052 27.1168 70.7945 27.1168C71.3838 27.1168 71.8862 27.24 72.3016 27.4863C72.7171 27.7325 73.0504 28.0736 73.3016 28.5093C73.5624 28.9356 73.7508 29.4282 73.8667 29.9871C73.9923 30.5365 74.0551 31.1238 74.0551 31.749V32.0474C74.0551 32.6915 73.9923 33.293 73.8667 33.8519C73.7508 34.4108 73.5672 34.9034 73.316 35.3297C73.0649 35.7465 72.7316 36.0733 72.3161 36.3101C71.9007 36.5469 71.4032 36.6653 70.8235 36.6653C70.2245 36.6653 69.7173 36.5469 69.3019 36.3101C68.8865 36.0733 68.5483 35.7465 68.2875 35.3297C68.0363 34.9034 67.8527 34.4108 67.7368 33.8519C67.6209 33.293 67.5629 32.6915 67.5629 32.0474Z" fill="#0066BE"/>
<path d="M87.2859 36.6653C87.7979 36.6653 88.252 36.5706 88.6481 36.3811C89.0442 36.1822 89.3533 35.9075 89.5755 35.557C89.8074 35.1971 89.9282 34.7755 89.9378 34.2924H93.865C93.8554 35.3723 93.5607 36.3338 92.981 37.1769C92.4014 38.0105 91.6237 38.6688 90.6479 39.1519C89.6721 39.6256 88.5804 39.8624 87.3728 39.8624C86.1555 39.8624 85.0928 39.6635 84.1847 39.2656C83.2862 38.8677 82.5375 38.3183 81.9385 37.6173C81.3395 36.9069 80.8903 36.0828 80.5908 35.145C80.2913 34.1977 80.1415 33.1841 80.1415 32.1042V31.6922C80.1415 30.6028 80.2913 29.5892 80.5908 28.6514C80.8903 27.7041 81.3395 26.88 81.9385 26.179C82.5375 25.4686 83.2862 24.9144 84.1847 24.5166C85.0832 24.1187 86.1362 23.9198 87.3438 23.9198C88.6287 23.9198 89.7543 24.1613 90.7204 24.6444C91.6961 25.1276 92.4593 25.8191 93.01 26.719C93.5704 27.6094 93.8554 28.6656 93.865 29.8876H89.9378C89.9282 29.3761 89.817 28.9119 89.6045 28.4951C89.4016 28.0783 89.1021 27.7468 88.706 27.5005C88.3196 27.2447 87.8414 27.1168 87.2714 27.1168C86.6627 27.1168 86.1652 27.2447 85.7787 27.5005C85.3923 27.7468 85.0928 28.0878 84.8803 28.5235C84.6677 28.9498 84.518 29.4376 84.431 29.9871C84.3538 30.527 84.3151 31.0954 84.3151 31.6922V32.1042C84.3151 32.701 84.3538 33.2741 84.431 33.8235C84.5083 34.3729 84.6532 34.8608 84.8658 35.2871C85.088 35.7133 85.3923 36.0496 85.7787 36.2959C86.1652 36.5422 86.6676 36.6653 87.2859 36.6653Z" fill="#0066BE"/>
<path d="M108.226 39.5782V28.672C108.285 28.566 108.348 28.4644 108.414 28.3672C108.685 27.9788 109.023 27.6757 109.429 27.4578C109.844 27.24 110.332 27.131 110.893 27.131C111.434 27.131 111.888 27.2115 112.255 27.3726C112.632 27.5241 112.917 27.7894 113.11 28.1683C113.303 28.5472 113.4 29.0777 113.4 29.7597V39.5782H117.602V29.7739C117.602 28.694 117.481 27.7799 117.24 27.0316C117.008 26.2832 116.67 25.6817 116.225 25.227C115.791 24.7723 115.269 24.4408 114.66 24.2324C114.052 24.024 113.38 23.9198 112.646 23.9198C111.719 23.9198 110.878 24.095 110.124 24.4455C109.381 24.7865 108.738 25.2838 108.197 25.9375C108.168 25.9719 108.14 26.0068 108.111 26.042L107.965 24.204H104.053V39.5782H108.226Z" fill="#0066BE"/>
<path d="M128.456 27.1026V24.204H125.761V20.4101H121.587V24.204H119.327V27.1026H121.587V35.3581C121.587 36.438 121.771 37.3095 122.138 37.9726C122.505 38.6357 123.027 39.1188 123.703 39.4219C124.389 39.7155 125.191 39.8624 126.109 39.8624C126.611 39.8624 127.07 39.8292 127.485 39.7629C127.901 39.6966 128.287 39.6066 128.645 39.4929L128.63 36.4806C128.485 36.509 128.307 36.5374 128.094 36.5659C127.891 36.5848 127.659 36.5943 127.398 36.5943C127.031 36.5943 126.727 36.5517 126.485 36.4664C126.244 36.3717 126.06 36.2059 125.935 35.9691C125.819 35.7323 125.761 35.3913 125.761 34.946V27.1026H128.456Z" fill="#0066BE"/>
<path fill-rule="evenodd" clip-rule="evenodd" d="M138.05 39.8624C136.832 39.8624 135.741 39.6729 134.775 39.294C133.808 38.9056 132.987 38.3704 132.311 37.6884C131.644 37.0064 131.132 36.2154 130.775 35.3155C130.417 34.4061 130.239 33.4399 130.239 32.4168V31.8484C130.239 30.6833 130.408 29.6176 130.746 28.6514C131.084 27.6852 131.567 26.8468 132.195 26.1364C132.833 25.4259 133.606 24.8813 134.514 24.5023C135.422 24.114 136.446 23.9198 137.586 23.9198C138.697 23.9198 139.682 24.0998 140.542 24.4597C141.402 24.8197 142.122 25.3312 142.701 25.9943C143.291 26.6574 143.735 27.4531 144.035 28.3814C144.334 29.3003 144.484 30.3233 144.484 31.4506V33.1557H134.471C134.513 33.4941 134.586 33.8161 134.688 34.1219C134.871 34.6429 135.127 35.0929 135.456 35.4718C135.794 35.8507 136.2 36.1443 136.673 36.3527C137.156 36.5611 137.702 36.6653 138.31 36.6653C139.064 36.6653 139.764 36.5232 140.412 36.2391C141.069 35.9454 141.634 35.5049 142.107 34.9176L144.136 37.0774C143.808 37.5416 143.358 37.9868 142.788 38.4131C142.228 38.8393 141.552 39.1898 140.76 39.4645C139.967 39.7298 139.064 39.8624 138.05 39.8624ZM134.601 29.9729C134.571 30.1206 134.544 30.2721 134.522 30.4275H140.383V30.1149C140.383 29.5466 140.277 29.0398 140.064 28.5946C139.861 28.1399 139.552 27.7799 139.137 27.5147C138.721 27.2494 138.19 27.1168 137.542 27.1168C136.992 27.1168 136.518 27.2352 136.122 27.472C135.726 27.7089 135.403 28.0404 135.151 28.4667C134.91 28.893 134.726 29.395 134.601 29.9729Z" fill="#0066BE"/>
<path d="M154.918 37.6031C154.918 36.9969 155.13 36.4901 155.555 36.0828C155.99 35.6754 156.565 35.4718 157.28 35.4718C157.995 35.4718 158.565 35.6754 158.99 36.0828C159.425 36.4901 159.642 36.9969 159.642 37.6031C159.642 38.2094 159.425 38.7162 158.99 39.1235C158.565 39.5308 157.995 39.7345 157.28 39.7345C156.565 39.7345 155.99 39.5308 155.555 39.1235C155.13 38.7162 154.918 38.2094 154.918 37.6031Z" fill="#0066BE"/>
<path fill-rule="evenodd" clip-rule="evenodd" d="M171.952 38.1346C171.804 38.3029 171.642 38.4668 171.467 38.6262C171.061 38.9862 170.573 39.2845 170.003 39.5214C169.433 39.7487 168.757 39.8624 167.975 39.8624C166.98 39.8624 166.076 39.6682 165.265 39.2798C164.463 38.882 163.825 38.3373 163.352 37.6458C162.888 36.9448 162.656 36.1491 162.656 35.2586C162.656 34.4534 162.811 33.7383 163.12 33.1131C163.429 32.4879 163.883 31.9621 164.482 31.5359C165.091 31.1001 165.849 30.7733 166.757 30.5554C167.665 30.3281 168.719 30.2144 169.916 30.2144H171.786V29.2624C171.786 28.7698 171.704 28.3483 171.54 27.9978C171.375 27.6378 171.119 27.3584 170.771 27.1594C170.433 26.9605 169.994 26.8611 169.453 26.8611C168.989 26.8611 168.588 26.9416 168.25 27.1026C167.912 27.2542 167.651 27.4768 167.467 27.7704C167.284 28.0546 167.192 28.3909 167.192 28.7793H163.019C163.019 28.1257 163.173 27.5052 163.482 26.9179C163.791 26.3306 164.241 25.8143 164.83 25.3691C165.419 24.9144 166.12 24.5592 166.931 24.3034C167.752 24.0477 168.67 23.9198 169.685 23.9198C170.902 23.9198 171.984 24.1187 172.931 24.5166C173.877 24.9144 174.621 25.5112 175.162 26.3069C175.713 27.1026 175.988 28.0972 175.988 29.2908V35.8696C175.988 36.7127 176.042 37.4042 176.148 37.9442C176.254 38.4746 176.409 38.9388 176.612 39.3366V39.5782H172.395C172.205 39.1882 172.057 38.707 171.952 38.1346ZM171.786 35.2329C171.733 35.33 171.67 35.4286 171.597 35.5286C171.346 35.8886 170.989 36.1917 170.525 36.438C170.061 36.6843 169.516 36.8074 168.888 36.8074C168.472 36.8074 168.11 36.7316 167.801 36.5801C167.492 36.419 167.255 36.2012 167.091 35.9265C166.926 35.6423 166.844 35.3249 166.844 34.9744C166.844 34.624 166.902 34.3019 167.018 34.0082C167.144 33.7146 167.337 33.4588 167.598 33.2409C167.859 33.0136 168.192 32.8383 168.598 32.7152C169.004 32.5921 169.482 32.5305 170.032 32.5305H171.786V35.2329Z" fill="#0066BE"/>
<path fill-rule="evenodd" clip-rule="evenodd" d="M183.379 45.4892V38.243C183.771 38.6715 184.22 39.0219 184.727 39.294C185.432 39.6729 186.263 39.8624 187.219 39.8624C188.205 39.8624 189.074 39.6682 189.828 39.2798C190.591 38.882 191.229 38.3325 191.741 37.6315C192.253 36.9211 192.639 36.0875 192.9 35.1307C193.171 34.174 193.306 33.1367 193.306 32.019V31.7206C193.306 30.5554 193.171 29.4945 192.9 28.5377C192.639 27.581 192.248 26.7569 191.726 26.0653C191.214 25.3738 190.577 24.8434 189.813 24.4739C189.06 24.1045 188.185 23.9198 187.19 23.9198C186.244 23.9198 185.418 24.1092 184.712 24.4881C184.149 24.7952 183.655 25.2049 183.231 25.7173L183.075 24.204H179.206V45.4892H183.379ZM184.321 36.1822C183.914 35.8995 183.6 35.5293 183.379 35.0715V28.6901C183.467 28.5071 183.569 28.3379 183.683 28.1825C183.935 27.8415 184.258 27.581 184.654 27.401C185.06 27.221 185.548 27.131 186.118 27.131C186.659 27.131 187.118 27.2494 187.495 27.4863C187.881 27.7136 188.19 28.0357 188.422 28.4525C188.664 28.8693 188.838 29.3571 188.944 29.916C189.06 30.4654 189.118 31.0669 189.118 31.7206V32.019C189.118 32.6631 189.065 33.2646 188.958 33.8235C188.862 34.3824 188.693 34.875 188.451 35.3013C188.219 35.7275 187.915 36.0638 187.538 36.3101C187.161 36.5469 186.698 36.6653 186.147 36.6653C185.393 36.6653 184.785 36.5043 184.321 36.1822Z" fill="#0066BE"/>
<path fill-rule="evenodd" clip-rule="evenodd" d="M200.073 38.243V45.4892H195.9V24.204H199.769L199.925 25.7173C200.349 25.2049 200.843 24.7952 201.407 24.4881C202.112 24.1092 202.938 23.9198 203.885 23.9198C204.88 23.9198 205.754 24.1045 206.508 24.4739C207.271 24.8434 207.908 25.3738 208.42 26.0653C208.942 26.7569 209.333 27.581 209.594 28.5377C209.865 29.4945 210 30.5554 210 31.7206V32.019C210 33.1367 209.865 34.174 209.594 35.1307C209.333 36.0875 208.947 36.9211 208.435 37.6315C207.923 38.3325 207.285 38.882 206.522 39.2798C205.768 39.6682 204.899 39.8624 203.914 39.8624C202.957 39.8624 202.126 39.6729 201.421 39.294C200.914 39.0219 200.465 38.6715 200.073 38.243ZM200.073 35.0715C200.294 35.5293 200.608 35.8995 201.015 36.1822C201.479 36.5043 202.088 36.6653 202.841 36.6653C203.392 36.6653 203.856 36.5469 204.232 36.3101C204.609 36.0638 204.913 35.7275 205.145 35.3013C205.387 34.875 205.556 34.3824 205.653 33.8235C205.759 33.2646 205.812 32.6631 205.812 32.019V31.7206C205.812 31.0669 205.754 30.4654 205.638 29.916C205.532 29.3571 205.358 28.8693 205.116 28.4525C204.885 28.0357 204.575 27.7136 204.189 27.4863C203.812 27.2494 203.353 27.131 202.812 27.131C202.242 27.131 201.754 27.221 201.349 27.401C200.952 27.581 200.629 27.8415 200.378 28.1825C200.263 28.3379 200.162 28.5071 200.073 28.6901V35.0715Z" fill="#0066BE"/>
<path d="M59.9746 57.8143V43.5552H58.8479V57.8143H59.9746Z" fill="#0066BE"/>
<path fill-rule="evenodd" clip-rule="evenodd" d="M51.7187 44.2979L56.9354 57.8143H55.7235L54.2986 54.0268H48.0376L46.6155 57.8143H45.4037L50.6109 44.2979H51.7187ZM48.4071 53.0427L51.165 45.6975L53.9284 53.0427H48.4071Z" fill="#0066BE"/>
<path fill-rule="evenodd" clip-rule="evenodd" d="M63.0516 43.5552H64.1877V49.2103C64.3087 49.0265 64.4413 48.8558 64.5854 48.6982C64.9199 48.3392 65.3176 48.0638 65.7783 47.8719C66.2454 47.6801 66.7788 47.5842 67.3784 47.5842C68.0033 47.5842 68.5587 47.7048 69.0447 47.9462C69.537 48.1814 69.9505 48.5249 70.285 48.9767C70.6195 49.4223 70.8752 49.9607 71.0519 50.5919C71.2286 51.217 71.317 51.9195 71.317 52.6993V52.8942C71.317 53.6431 71.2286 54.33 71.0519 54.9551C70.8752 55.5802 70.6195 56.1217 70.285 56.5797C69.9505 57.0314 69.5402 57.3811 69.0542 57.6287C68.5745 57.8762 68.0222 58 67.3973 58C66.7851 58 66.2423 57.9072 65.7689 57.7215C65.2955 57.5297 64.8915 57.2604 64.557 56.9139C64.4146 56.7637 64.2841 56.6028 64.1657 56.4313L64.112 57.8143H63.0516V43.5552ZM64.1877 50.5997V55.1285C64.2715 55.3109 64.3694 55.4882 64.4812 55.6606C64.7463 56.0691 65.103 56.4002 65.5511 56.6539C65.9993 56.9015 66.5452 57.0253 67.189 57.0253C67.7066 57.0253 68.1516 56.92 68.524 56.7096C68.9027 56.4992 69.212 56.2083 69.4518 55.837C69.698 55.4657 69.8779 55.0294 69.9915 54.5281C70.1114 54.0268 70.1714 53.4821 70.1714 52.8942V52.6993C70.1714 52.1113 70.1146 51.5667 70.001 51.0654C69.8874 50.5641 69.7075 50.1278 69.4613 49.7565C69.2215 49.3789 68.9122 49.085 68.5335 48.8745C68.1547 48.6641 67.7003 48.5589 67.1701 48.5589C66.6273 48.5589 66.1634 48.6487 65.7783 48.8281C65.3996 49.0014 65.084 49.2335 64.8316 49.5244C64.5854 49.8091 64.3897 50.1216 64.2446 50.462C64.2249 50.508 64.206 50.5539 64.1877 50.5997Z" fill="#0066BE"/>
<path fill-rule="evenodd" clip-rule="evenodd" d="M75.9373 57.638C76.499 57.8793 77.1144 58 77.7835 58C78.3957 58 78.9323 57.9195 79.393 57.7586C79.8538 57.5977 80.2483 57.3811 80.5765 57.1088C80.911 56.8365 81.1887 56.5394 81.4097 56.2176L80.6996 55.6792C80.3272 56.1557 79.9074 56.5054 79.4404 56.7282C78.9733 56.9448 78.4368 57.0531 77.8308 57.0531C77.3133 57.0531 76.8399 56.951 76.4107 56.7468C75.9815 56.5425 75.6091 56.2578 75.2935 55.8927C74.9842 55.5276 74.7443 55.1067 74.5739 54.6302C74.4098 54.1474 74.3278 53.6276 74.3278 53.0706V52.8664H81.6274V52.1887C81.6274 51.5141 81.539 50.8983 81.3623 50.3413C81.1856 49.7781 80.9236 49.2923 80.5765 48.8838C80.2356 48.4692 79.8128 48.1504 79.3078 47.9277C78.8029 47.6987 78.2253 47.5842 77.5752 47.5842C76.9945 47.5842 76.4391 47.7048 75.9089 47.9462C75.385 48.1814 74.9179 48.5218 74.5076 48.9674C74.0974 49.413 73.7755 49.9483 73.5419 50.5734C73.3084 51.1985 73.1916 51.8978 73.1916 52.6714V53.0706C73.1916 53.7885 73.3021 54.4507 73.523 55.0572C73.7502 55.6575 74.069 56.1774 74.4792 56.6168C74.8958 57.0562 75.3818 57.3966 75.9373 57.638ZM74.3689 51.9195C74.4059 51.5947 74.468 51.2884 74.555 51.0004C74.7128 50.4929 74.9337 50.0566 75.2177 49.6915C75.5081 49.3201 75.8521 49.0355 76.2497 48.8374C76.6537 48.6394 77.0955 48.5403 77.5752 48.5403C78.219 48.5403 78.7555 48.6951 79.1847 49.0045C79.6139 49.3139 79.9358 49.7162 80.1504 50.2113C80.3714 50.7003 80.4881 51.2263 80.5007 51.7895V51.9195H74.3689Z" fill="#0066BE"/>
<path d="M84.9885 57.8143V50.8744L84.9968 50.8459L85.0039 50.8222C85.0112 50.7979 85.0187 50.7738 85.0264 50.7498C85.1589 50.3289 85.3514 49.9638 85.6039 49.6543C85.8564 49.3387 86.1656 49.0942 86.5317 48.921C86.9041 48.7415 87.3365 48.6517 87.8288 48.6517C87.9677 48.6517 88.0971 48.6579 88.217 48.6703C88.3369 48.6827 88.46 48.6982 88.5862 48.7167L88.6146 47.6956C88.5452 47.6646 88.4379 47.6399 88.2927 47.6213C88.1539 47.5965 88.0119 47.5842 87.8667 47.5842C87.2734 47.5842 86.7558 47.7048 86.314 47.9462C85.8784 48.1814 85.5155 48.5125 85.2252 48.9395C85.1391 49.0671 85.0597 49.2011 84.9869 49.3417L84.9601 47.7698H83.8618V57.8143H84.9885Z" fill="#0066BE"/>
<path d="M94.7403 48.6796V47.7698H92.6195V45.1891H91.4929V47.7698H89.6088V48.6796H91.4929V55.3636C91.4929 56.0319 91.5875 56.5611 91.7769 56.951C91.9662 57.3347 92.2282 57.607 92.5627 57.7679C92.8972 57.9226 93.2823 58 93.7178 58C93.9387 58 94.1596 57.9845 94.3805 57.9536C94.6014 57.9288 94.7813 57.8948 94.9202 57.8515L94.8728 56.9139C94.7466 56.9386 94.6046 56.9634 94.4468 56.9881C94.289 57.0067 94.1249 57.016 93.9545 57.016C93.7209 57.016 93.5032 56.9757 93.3012 56.8953C93.0992 56.8148 92.9351 56.657 92.8089 56.4218C92.6826 56.1867 92.6195 55.837 92.6195 55.3728V48.6796H94.7403Z" fill="#0066BE"/>
<path d="M103.11 47.7698V57.8143H101.983V47.7698H103.11Z" fill="#0066BE"/>
<path d="M101.784 44.8642C101.784 44.6537 101.851 44.4774 101.983 44.335C102.122 44.1865 102.311 44.1122 102.551 44.1122C102.791 44.1122 102.98 44.1865 103.119 44.335C103.264 44.4774 103.337 44.6537 103.337 44.8642C103.337 45.0684 103.264 45.2448 103.119 45.3933C102.98 45.5357 102.791 45.6068 102.551 45.6068C102.311 45.6068 102.122 45.5357 101.983 45.3933C101.851 45.2448 101.784 45.0684 101.784 44.8642Z" fill="#0066BE"/>
<path d="M107.332 50.9281V57.8143H106.206V47.7698H107.285L107.323 49.4686C107.46 49.2467 107.615 49.0394 107.787 48.8467C108.147 48.4506 108.566 48.1412 109.046 47.9184C109.532 47.6956 110.069 47.5842 110.656 47.5842C111.167 47.5842 111.625 47.6522 112.028 47.7884C112.432 47.9246 112.776 48.1412 113.06 48.4382C113.345 48.7353 113.559 49.1159 113.704 49.5801C113.856 50.0442 113.932 50.6105 113.932 51.2789V57.8143H112.795V51.2696C112.795 50.5765 112.698 50.035 112.502 49.6451C112.306 49.249 112.028 48.9674 111.669 48.8003C111.309 48.6332 110.883 48.5496 110.391 48.5496C109.848 48.5496 109.371 48.6672 108.961 48.9024C108.557 49.1314 108.216 49.4315 107.938 49.8029C107.679 50.1524 107.477 50.5275 107.332 50.9281Z" fill="#0066BE"/>
<path d="M123.002 55.2522C123.002 54.9798 122.932 54.7106 122.793 54.4445C122.654 54.1784 122.386 53.9339 121.989 53.7111C121.597 53.4883 121.02 53.2996 120.256 53.1448C119.688 53.0211 119.18 52.8818 118.732 52.7271C118.29 52.5724 117.917 52.3867 117.614 52.1701C117.312 51.9535 117.081 51.6936 116.923 51.3903C116.766 51.0871 116.687 50.7281 116.687 50.3134C116.687 49.9421 116.769 49.5924 116.933 49.2644C117.103 48.9302 117.343 48.6394 117.652 48.3918C117.968 48.1381 118.347 47.94 118.788 47.7977C119.237 47.6553 119.738 47.5842 120.294 47.5842C121.083 47.5842 121.758 47.7172 122.32 47.9833C122.888 48.2433 123.32 48.5991 123.617 49.0509C123.92 49.5027 124.072 50.0133 124.072 50.5827H122.945C122.945 50.2361 122.841 49.9081 122.632 49.5986C122.43 49.2892 122.131 49.0355 121.733 48.8374C121.342 48.6394 120.862 48.5403 120.294 48.5403C119.707 48.5403 119.23 48.627 118.864 48.8003C118.498 48.9736 118.23 49.1933 118.059 49.4594C117.895 49.7255 117.813 50.0009 117.813 50.2856C117.813 50.5084 117.848 50.7126 117.917 50.8983C117.993 51.0778 118.126 51.2449 118.315 51.3996C118.511 51.5543 118.788 51.6998 119.148 51.8359C119.508 51.9721 119.975 52.1051 120.549 52.2351C121.376 52.4146 122.052 52.6343 122.576 52.8942C123.106 53.1479 123.497 53.4636 123.75 53.8411C124.002 54.2124 124.128 54.6642 124.128 55.1965C124.128 55.6111 124.04 55.9917 123.863 56.3383C123.686 56.6787 123.431 56.9727 123.096 57.2202C122.768 57.4678 122.37 57.6596 121.903 57.7958C121.443 57.9319 120.925 58 120.351 58C119.486 58 118.754 57.8608 118.154 57.5823C117.561 57.2976 117.11 56.9262 116.8 56.4683C116.497 56.0041 116.346 55.5121 116.346 54.9922H117.472C117.51 55.5121 117.678 55.9236 117.974 56.2269C118.271 56.524 118.634 56.7344 119.063 56.8582C119.499 56.9819 119.928 57.0438 120.351 57.0438C120.931 57.0438 121.417 56.9603 121.809 56.7932C122.2 56.6261 122.497 56.4064 122.699 56.1341C122.901 55.8618 123.002 55.5678 123.002 55.2522Z" fill="#0066BE"/>
<path d="M127.953 57.8143V47.7698H126.827V57.8143H127.953Z" fill="#0066BE"/>
<path d="M126.827 44.335C126.694 44.4774 126.628 44.6537 126.628 44.8642C126.628 45.0684 126.694 45.2448 126.827 45.3933C126.965 45.5357 127.155 45.6068 127.395 45.6068C127.635 45.6068 127.824 45.5357 127.963 45.3933C128.108 45.2448 128.181 45.0684 128.181 44.8642C128.181 44.6537 128.108 44.4774 127.963 44.335C127.824 44.1865 127.635 44.1122 127.395 44.1122C127.155 44.1122 126.965 44.1865 126.827 44.335Z" fill="#0066BE"/>
<path fill-rule="evenodd" clip-rule="evenodd" d="M137.364 56.9139C137.496 56.775 137.617 56.6269 137.729 56.4698L137.781 57.8143H138.841V43.5552H137.705V49.175C137.59 49.0046 137.464 48.8456 137.326 48.6982C136.998 48.3392 136.604 48.0638 136.143 47.8719C135.682 47.6801 135.152 47.5842 134.552 47.5842C133.94 47.5842 133.391 47.7048 132.905 47.9462C132.419 48.1814 132.002 48.5249 131.655 48.9767C131.314 49.4223 131.052 49.9607 130.869 50.5919C130.686 51.217 130.595 51.9195 130.595 52.6993V52.8942C130.595 53.6431 130.686 54.33 130.869 54.9551C131.052 55.5802 131.314 56.1217 131.655 56.5797C131.996 57.0314 132.409 57.3811 132.895 57.6287C133.382 57.8762 133.927 58 134.533 58C135.146 58 135.685 57.9072 136.152 57.7215C136.626 57.5297 137.03 57.2604 137.364 56.9139ZM137.686 50.462C137.693 50.4769 137.699 50.4919 137.705 50.5068V55.2185C137.627 55.3803 137.538 55.5369 137.44 55.6885C137.175 56.0907 136.821 56.4157 136.38 56.6632C135.938 56.9046 135.392 57.0253 134.742 57.0253C134.224 57.0253 133.776 56.92 133.397 56.7096C133.019 56.4992 132.706 56.2083 132.46 55.837C132.214 55.4657 132.031 55.0294 131.911 54.5281C131.791 54.0268 131.731 53.4821 131.731 52.8942V52.6993C131.731 52.1113 131.791 51.5667 131.911 51.0654C132.031 50.5641 132.214 50.1278 132.46 49.7565C132.712 49.3789 133.028 49.085 133.407 48.8745C133.785 48.6641 134.237 48.5589 134.761 48.5589C135.303 48.5589 135.764 48.6487 136.143 48.8281C136.528 49.0014 136.844 49.2335 137.09 49.5244C137.342 49.8091 137.541 50.1216 137.686 50.462Z" fill="#0066BE"/>
<path fill-rule="evenodd" clip-rule="evenodd" d="M143.935 57.638C144.497 57.8793 145.112 58 145.781 58C146.393 58 146.93 57.9195 147.391 57.7586C147.851 57.5977 148.246 57.3811 148.574 57.1088C148.909 56.8365 149.186 56.5394 149.407 56.2176L148.697 55.6792C148.325 56.1557 147.905 56.5054 147.438 56.7282C146.971 56.9448 146.434 57.0531 145.828 57.0531C145.311 57.0531 144.838 56.951 144.408 56.7468C143.979 56.5425 143.607 56.2578 143.291 55.8927C142.982 55.5276 142.742 55.1067 142.572 54.6302C142.407 54.1474 142.325 53.6276 142.325 53.0706V52.8664H149.625V52.1887C149.625 51.5141 149.537 50.8983 149.36 50.3413C149.183 49.7781 148.921 49.2923 148.574 48.8838C148.233 48.4692 147.81 48.1504 147.305 47.9277C146.801 47.6987 146.223 47.5842 145.573 47.5842C144.992 47.5842 144.437 47.7048 143.907 47.9462C143.383 48.1814 142.916 48.5218 142.505 48.9674C142.095 49.413 141.773 49.9483 141.54 50.5734C141.306 51.1985 141.189 51.8978 141.189 52.6714V53.0706C141.189 53.7885 141.3 54.4507 141.521 55.0572C141.748 55.6575 142.067 56.1774 142.477 56.6168C142.893 57.0562 143.379 57.3966 143.935 57.638ZM142.367 51.9195C142.404 51.5947 142.466 51.2884 142.553 51.0004C142.71 50.4929 142.931 50.0566 143.215 49.6915C143.506 49.3201 143.85 49.0355 144.247 48.8374C144.651 48.6394 145.093 48.5403 145.573 48.5403C146.217 48.5403 146.753 48.6951 147.182 49.0045C147.612 49.3139 147.933 49.7162 148.148 50.2113C148.369 50.7003 148.486 51.2263 148.498 51.7895V51.9195H142.367Z" fill="#0066BE"/>
</svg>
