<svg width="4" height="214" viewBox="0 0 4 214" fill="none" xmlns="http://www.w3.org/2000/svg">
<path id="Union" d="M0 212C0 210.895 0.895431 210 2 210C3.10457 210 4 210.895 4 212C4 213.105 3.10457 214 2 214C0.895431 214 0 213.105 0 212ZM0 205C0 203.895 0.895431 203 2 203C3.10457 203 4 203.895 4 205C4 206.105 3.10457 207 2 207C0.895431 207 0 206.105 0 205ZM0 198C0 196.895 0.895431 196 2 196C3.10457 196 4 196.895 4 198C4 199.105 3.10457 200 2 200C0.895431 200 0 199.105 0 198ZM0 191C0 189.895 0.895431 189 2 189C3.10457 189 4 189.895 4 191C4 192.105 3.10457 193 2 193C0.895431 193 0 192.105 0 191ZM0 184C0 182.895 0.895431 182 2 182C3.10457 182 4 182.895 4 184C4 185.105 3.10457 186 2 186C0.895431 186 0 185.105 0 184ZM0 177C0 175.895 0.895431 175 2 175C3.10457 175 4 175.895 4 177C4 178.105 3.10457 179 2 179C0.895431 179 0 178.105 0 177ZM0 170C0 168.895 0.895431 168 2 168C3.10457 168 4 168.895 4 170C4 171.105 3.10457 172 2 172C0.895431 172 0 171.105 0 170ZM0 163C0 161.895 0.895431 161 2 161C3.10457 161 4 161.895 4 163C4 164.105 3.10457 165 2 165C0.895431 165 0 164.105 0 163ZM0 156C0 154.895 0.895431 154 2 154C3.10457 154 4 154.895 4 156C4 157.105 3.10457 158 2 158C0.895431 158 0 157.105 0 156ZM0 149C0 147.895 0.895431 147 2 147C3.10457 147 4 147.895 4 149C4 150.105 3.10457 151 2 151C0.895431 151 0 150.105 0 149ZM0 142C0 140.895 0.895431 140 2 140C3.10457 140 4 140.895 4 142C4 143.105 3.10457 144 2 144C0.895431 144 0 143.105 0 142ZM0 135C0 133.895 0.895431 133 2 133C3.10457 133 4 133.895 4 135C4 136.105 3.10457 137 2 137C0.895431 137 0 136.105 0 135ZM0 128C0 126.895 0.895431 126 2 126C3.10457 126 4 126.895 4 128C4 129.105 3.10457 130 2 130C0.895431 130 0 129.105 0 128ZM0 121C0 119.895 0.895431 119 2 119C3.10457 119 4 119.895 4 121C4 122.105 3.10457 123 2 123C0.895431 123 0 122.105 0 121ZM0 114C0 112.895 0.895431 112 2 112C3.10457 112 4 112.895 4 114C4 115.105 3.10457 116 2 116C0.895431 116 0 115.105 0 114ZM0 107C0 105.895 0.895431 105 2 105C3.10457 105 4 105.895 4 107C4 108.105 3.10457 109 2 109C0.895431 109 0 108.105 0 107ZM0 100C0 98.8954 0.895431 98 2 98C3.10457 98 4 98.8954 4 100C4 101.105 3.10457 102 2 102C0.895431 102 0 101.105 0 100ZM0 93C0 91.8954 0.895431 91 2 91C3.10457 91 4 91.8954 4 93C4 94.1046 3.10457 95 2 95C0.895431 95 0 94.1046 0 93ZM0 86C0 84.8954 0.895431 84 2 84C3.10457 84 4 84.8954 4 86C4 87.1046 3.10457 88 2 88C0.895431 88 0 87.1046 0 86ZM0 79C0 77.8954 0.895431 77 2 77C3.10457 77 4 77.8954 4 79C4 80.1046 3.10457 81 2 81C0.895431 81 0 80.1046 0 79ZM0 72C0 70.8954 0.895431 70 2 70C3.10457 70 4 70.8954 4 72C4 73.1046 3.10457 74 2 74C0.895431 74 0 73.1046 0 72ZM0 65C0 63.8954 0.895431 63 2 63C3.10457 63 4 63.8954 4 65C4 66.1046 3.10457 67 2 67C0.895431 67 0 66.1046 0 65ZM0 58C0 56.8954 0.895431 56 2 56C3.10457 56 4 56.8954 4 58C4 59.1046 3.10457 60 2 60C0.895431 60 0 59.1046 0 58ZM0 51C0 49.8954 0.895431 49 2 49C3.10457 49 4 49.8954 4 51C4 52.1046 3.10457 53 2 53C0.895431 53 0 52.1046 0 51ZM0 44C0 42.8954 0.895431 42 2 42C3.10457 42 4 42.8954 4 44C4 45.1046 3.10457 46 2 46C0.895431 46 0 45.1046 0 44ZM0 37C0 35.8954 0.895431 35 2 35C3.10457 35 4 35.8954 4 37C4 38.1046 3.10457 39 2 39C0.895431 39 0 38.1046 0 37ZM0 30C0 28.8954 0.895431 28 2 28C3.10457 28 4 28.8954 4 30C4 31.1046 3.10457 32 2 32C0.895431 32 0 31.1046 0 30ZM0 23C0 21.8954 0.895431 21 2 21C3.10457 21 4 21.8954 4 23C4 24.1046 3.10457 25 2 25C0.895431 25 0 24.1046 0 23ZM0 16C0 14.8954 0.895431 14 2 14C3.10457 14 4 14.8954 4 16C4 17.1046 3.10457 18 2 18C0.895431 18 0 17.1046 0 16ZM0 9C0 7.89543 0.895431 7 2 7C3.10457 7 4 7.89543 4 9C4 10.1046 3.10457 11 2 11C0.895431 11 0 10.1046 0 9ZM0 2C0 0.895432 0.895431 0 2 0C3.10457 0 4 0.895432 4 2C4 3.10457 3.10457 4 2 4C0.895431 4 0 3.10457 0 2Z" fill="url(#paint0_linear_695_918)"/>
<defs>
<linearGradient id="paint0_linear_695_918" x1="1" y1="207.222" x2="1" y2="88.9672" gradientUnits="userSpaceOnUse">
<stop stop-color="#00A993" stop-opacity="0.2"/>
<stop offset="1" stop-color="#00A993"/>
</linearGradient>
</defs>
</svg>
