<svg width="4" height="215" viewBox="0 0 4 215" fill="none" xmlns="http://www.w3.org/2000/svg">
<path id="Union" d="M0 212.672C0 211.568 0.895431 210.672 2 210.672C3.10457 210.672 4 211.568 4 212.672C4 213.777 3.10457 214.672 2 214.672C0.895431 214.672 0 213.777 0 212.672ZM0 205.672C0 204.568 0.895431 203.672 2 203.672C3.10457 203.672 4 204.568 4 205.672C4 206.777 3.10457 207.672 2 207.672C0.895431 207.672 0 206.777 0 205.672ZM0 198.672C0 197.568 0.895431 196.672 2 196.672C3.10457 196.672 4 197.568 4 198.672C4 199.777 3.10457 200.672 2 200.672C0.895431 200.672 0 199.777 0 198.672ZM0 191.672C0 190.568 0.895431 189.672 2 189.672C3.10457 189.672 4 190.568 4 191.672C4 192.777 3.10457 193.672 2 193.672C0.895431 193.672 0 192.777 0 191.672ZM0 184.672C0 183.568 0.895431 182.672 2 182.672C3.10457 182.672 4 183.568 4 184.672C4 185.777 3.10457 186.672 2 186.672C0.895431 186.672 0 185.777 0 184.672ZM0 177.672C0 176.568 0.895431 175.672 2 175.672C3.10457 175.672 4 176.568 4 177.672C4 178.777 3.10457 179.672 2 179.672C0.895431 179.672 0 178.777 0 177.672ZM0 170.672C0 169.568 0.895431 168.672 2 168.672C3.10457 168.672 4 169.568 4 170.672C4 171.777 3.10457 172.672 2 172.672C0.895431 172.672 0 171.777 0 170.672ZM0 163.672C0 162.568 0.895431 161.672 2 161.672C3.10457 161.672 4 162.568 4 163.672C4 164.777 3.10457 165.672 2 165.672C0.895431 165.672 0 164.777 0 163.672ZM0 156.672C0 155.568 0.895431 154.672 2 154.672C3.10457 154.672 4 155.568 4 156.672C4 157.777 3.10457 158.672 2 158.672C0.895431 158.672 0 157.777 0 156.672ZM0 149.672C0 148.568 0.895431 147.672 2 147.672C3.10457 147.672 4 148.568 4 149.672C4 150.777 3.10457 151.672 2 151.672C0.895431 151.672 0 150.777 0 149.672ZM0 142.672C0 141.568 0.895431 140.672 2 140.672C3.10457 140.672 4 141.568 4 142.672C4 143.777 3.10457 144.672 2 144.672C0.895431 144.672 0 143.777 0 142.672ZM0 135.672C0 134.568 0.895431 133.672 2 133.672C3.10457 133.672 4 134.568 4 135.672C4 136.777 3.10457 137.672 2 137.672C0.895431 137.672 0 136.777 0 135.672ZM0 128.672C0 127.568 0.895431 126.672 2 126.672C3.10457 126.672 4 127.568 4 128.672C4 129.777 3.10457 130.672 2 130.672C0.895431 130.672 0 129.777 0 128.672ZM0 121.672C0 120.568 0.895431 119.672 2 119.672C3.10457 119.672 4 120.568 4 121.672C4 122.777 3.10457 123.672 2 123.672C0.895431 123.672 0 122.777 0 121.672ZM0 114.672C0 113.568 0.895431 112.672 2 112.672C3.10457 112.672 4 113.568 4 114.672C4 115.777 3.10457 116.672 2 116.672C0.895431 116.672 0 115.777 0 114.672ZM0 107.672C0 106.568 0.895431 105.672 2 105.672C3.10457 105.672 4 106.568 4 107.672C4 108.777 3.10457 109.672 2 109.672C0.895431 109.672 0 108.777 0 107.672ZM0 100.672C0 99.5678 0.895431 98.6724 2 98.6724C3.10457 98.6724 4 99.5678 4 100.672C4 101.777 3.10457 102.672 2 102.672C0.895431 102.672 0 101.777 0 100.672ZM0 93.6724C0 92.5678 0.895431 91.6724 2 91.6724C3.10457 91.6724 4 92.5678 4 93.6724C4 94.7769 3.10457 95.6724 2 95.6724C0.895431 95.6724 0 94.7769 0 93.6724ZM0 86.6724C0 85.5678 0.895431 84.6724 2 84.6724C3.10457 84.6724 4 85.5678 4 86.6724C4 87.7769 3.10457 88.6724 2 88.6724C0.895431 88.6724 0 87.7769 0 86.6724ZM0 79.6724C0 78.5678 0.895431 77.6724 2 77.6724C3.10457 77.6724 4 78.5678 4 79.6724C4 80.7769 3.10457 81.6724 2 81.6724C0.895431 81.6724 0 80.7769 0 79.6724ZM0 72.6724C0 71.5678 0.895431 70.6724 2 70.6724C3.10457 70.6724 4 71.5678 4 72.6724C4 73.7769 3.10457 74.6724 2 74.6724C0.895431 74.6724 0 73.7769 0 72.6724ZM0 65.6724C0 64.5678 0.895431 63.6724 2 63.6724C3.10457 63.6724 4 64.5678 4 65.6724C4 66.7769 3.10457 67.6724 2 67.6724C0.895431 67.6724 0 66.7769 0 65.6724ZM0 58.6724C0 57.5678 0.895431 56.6724 2 56.6724C3.10457 56.6724 4 57.5678 4 58.6724C4 59.7769 3.10457 60.6724 2 60.6724C0.895431 60.6724 0 59.7769 0 58.6724ZM0 51.6724C0 50.5678 0.895431 49.6724 2 49.6724C3.10457 49.6724 4 50.5678 4 51.6724C4 52.7769 3.10457 53.6724 2 53.6724C0.895431 53.6724 0 52.7769 0 51.6724ZM0 44.6724C0 43.5678 0.895431 42.6724 2 42.6724C3.10457 42.6724 4 43.5678 4 44.6724C4 45.7769 3.10457 46.6724 2 46.6724C0.895431 46.6724 0 45.7769 0 44.6724ZM0 37.6724C0 36.5678 0.895431 35.6724 2 35.6724C3.10457 35.6724 4 36.5678 4 37.6724C4 38.7769 3.10457 39.6724 2 39.6724C0.895431 39.6724 0 38.7769 0 37.6724ZM0 30.6724C0 29.5678 0.895431 28.6724 2 28.6724C3.10457 28.6724 4 29.5678 4 30.6724C4 31.7769 3.10457 32.6724 2 32.6724C0.895431 32.6724 0 31.7769 0 30.6724ZM0 23.6724C0 22.5678 0.895431 21.6724 2 21.6724C3.10457 21.6724 4 22.5678 4 23.6724C4 24.7769 3.10457 25.6724 2 25.6724C0.895431 25.6724 0 24.7769 0 23.6724ZM0 16.6724C0 15.5678 0.895431 14.6724 2 14.6724C3.10457 14.6724 4 15.5678 4 16.6724C4 17.7769 3.10457 18.6724 2 18.6724C0.895431 18.6724 0 17.7769 0 16.6724ZM0 9.67236C0 8.56779 0.895431 7.67236 2 7.67236C3.10457 7.67236 4 8.56779 4 9.67236C4 10.7769 3.10457 11.6724 2 11.6724C0.895431 11.6724 0 10.7769 0 9.67236ZM0 2.67236C0 1.56779 0.895431 0.672363 2 0.672363C3.10457 0.672363 4 1.56779 4 2.67236C4 3.77693 3.10457 4.67236 2 4.67236C0.895431 4.67236 0 3.77693 0 2.67236Z" fill="url(#paint0_linear_695_1457)"/>
<defs>
<linearGradient id="paint0_linear_695_1457" x1="1" y1="207.894" x2="1" y2="89.6395" gradientUnits="userSpaceOnUse">
<stop stop-color="#F3942D" stop-opacity="0.2"/>
<stop offset="1" stop-color="#F3942D"/>
</linearGradient>
</defs>
</svg>
