<svg width="284" height="4" viewBox="0 0 284 4" fill="none" xmlns="http://www.w3.org/2000/svg">
<path d="M2 0C3.10457 0 4 0.895431 4 2C4 3.10457 3.10457 4 2 4C0.895431 4 0 3.10457 0 2C0 0.895431 0.895431 0 2 0ZM10 0C11.1046 0 12 0.895431 12 2C12 3.10457 11.1046 4 10 4C8.89543 4 8 3.10457 8 2C8 0.895431 8.89543 0 10 0ZM18 0C19.1046 0 20 0.895431 20 2C20 3.10457 19.1046 4 18 4C16.8954 4 16 3.10457 16 2C16 0.895431 16.8954 0 18 0ZM26 0C27.1046 0 28 0.895431 28 2C28 3.10457 27.1046 4 26 4C24.8954 4 24 3.10457 24 2C24 0.895431 24.8954 0 26 0ZM34 0C35.1046 0 36 0.895431 36 2C36 3.10457 35.1046 4 34 4C32.8954 4 32 3.10457 32 2C32 0.895431 32.8954 0 34 0ZM42 0C43.1046 0 44 0.895431 44 2C44 3.10457 43.1046 4 42 4C40.8954 4 40 3.10457 40 2C40 0.895431 40.8954 0 42 0ZM50 0C51.1046 0 52 0.895431 52 2C52 3.10457 51.1046 4 50 4C48.8954 4 48 3.10457 48 2C48 0.895431 48.8954 0 50 0ZM58 0C59.1046 0 60 0.895431 60 2C60 3.10457 59.1046 4 58 4C56.8954 4 56 3.10457 56 2C56 0.895431 56.8954 0 58 0ZM66 0C67.1046 0 68 0.895431 68 2C68 3.10457 67.1046 4 66 4C64.8954 4 64 3.10457 64 2C64 0.895431 64.8954 0 66 0ZM74 0C75.1046 0 76 0.895431 76 2C76 3.10457 75.1046 4 74 4C72.8954 4 72 3.10457 72 2C72 0.895431 72.8954 0 74 0ZM82 0C83.1046 0 84 0.895431 84 2C84 3.10457 83.1046 4 82 4C80.8954 4 80 3.10457 80 2C80 0.895431 80.8954 0 82 0ZM90 0C91.1046 0 92 0.895431 92 2C92 3.10457 91.1046 4 90 4C88.8954 4 88 3.10457 88 2C88 0.895431 88.8954 0 90 0ZM98 0C99.1046 0 100 0.895431 100 2C100 3.10457 99.1046 4 98 4C96.8954 4 96 3.10457 96 2C96 0.895431 96.8954 0 98 0ZM106 0C107.105 0 108 0.895431 108 2C108 3.10457 107.105 4 106 4C104.895 4 104 3.10457 104 2C104 0.895431 104.895 0 106 0ZM114 0C115.105 0 116 0.895431 116 2C116 3.10457 115.105 4 114 4C112.895 4 112 3.10457 112 2C112 0.895431 112.895 0 114 0ZM122 0C123.105 0 124 0.895431 124 2C124 3.10457 123.105 4 122 4C120.895 4 120 3.10457 120 2C120 0.895431 120.895 0 122 0ZM130 0C131.105 0 132 0.895431 132 2C132 3.10457 131.105 4 130 4C128.895 4 128 3.10457 128 2C128 0.895431 128.895 0 130 0ZM138 0C139.105 0 140 0.895431 140 2C140 3.10457 139.105 4 138 4C136.895 4 136 3.10457 136 2C136 0.895431 136.895 0 138 0ZM146 0C147.105 0 148 0.895431 148 2C148 3.10457 147.105 4 146 4C144.895 4 144 3.10457 144 2C144 0.895431 144.895 0 146 0ZM154 0C155.105 0 156 0.895431 156 2C156 3.10457 155.105 4 154 4C152.895 4 152 3.10457 152 2C152 0.895431 152.895 0 154 0ZM162 0C163.105 0 164 0.895431 164 2C164 3.10457 163.105 4 162 4C160.895 4 160 3.10457 160 2C160 0.895431 160.895 0 162 0ZM170 0C171.105 0 172 0.895431 172 2C172 3.10457 171.105 4 170 4C168.895 4 168 3.10457 168 2C168 0.895431 168.895 0 170 0ZM178 0C179.105 0 180 0.895431 180 2C180 3.10457 179.105 4 178 4C176.895 4 176 3.10457 176 2C176 0.895431 176.895 0 178 0ZM186 0C187.105 0 188 0.895431 188 2C188 3.10457 187.105 4 186 4C184.895 4 184 3.10457 184 2C184 0.895431 184.895 0 186 0ZM194 0C195.105 0 196 0.895431 196 2C196 3.10457 195.105 4 194 4C192.895 4 192 3.10457 192 2C192 0.895431 192.895 0 194 0ZM202 0C203.105 0 204 0.895431 204 2C204 3.10457 203.105 4 202 4C200.895 4 200 3.10457 200 2C200 0.895431 200.895 0 202 0ZM210 0C211.105 0 212 0.895431 212 2C212 3.10457 211.105 4 210 4C208.895 4 208 3.10457 208 2C208 0.895431 208.895 0 210 0ZM218 0C219.105 0 220 0.895431 220 2C220 3.10457 219.105 4 218 4C216.895 4 216 3.10457 216 2C216 0.895431 216.895 0 218 0ZM226 0C227.105 0 228 0.895431 228 2C228 3.10457 227.105 4 226 4C224.895 4 224 3.10457 224 2C224 0.895431 224.895 0 226 0ZM234 0C235.105 0 236 0.895431 236 2C236 3.10457 235.105 4 234 4C232.895 4 232 3.10457 232 2C232 0.895431 232.895 0 234 0ZM242 0C243.105 0 244 0.895431 244 2C244 3.10457 243.105 4 242 4C240.895 4 240 3.10457 240 2C240 0.895431 240.895 0 242 0ZM250 0C251.105 0 252 0.895431 252 2C252 3.10457 251.105 4 250 4C248.895 4 248 3.10457 248 2C248 0.895431 248.895 0 250 0ZM258 0C259.105 0 260 0.895431 260 2C260 3.10457 259.105 4 258 4C256.895 4 256 3.10457 256 2C256 0.895431 256.895 0 258 0ZM266 0C267.105 0 268 0.895431 268 2C268 3.10457 267.105 4 266 4C264.895 4 264 3.10457 264 2C264 0.895431 264.895 0 266 0ZM274 0C275.105 0 276 0.895431 276 2C276 3.10457 275.105 4 274 4C272.895 4 272 3.10457 272 2C272 0.895431 272.895 0 274 0ZM282 0C283.105 0 284 0.895431 284 2C284 3.10457 283.105 4 282 4C280.895 4 280 3.10457 280 2C280 0.895431 280.895 0 282 0Z" fill="url(#paint0_linear_695_5204)"/>
<defs>
<linearGradient id="paint0_linear_695_5204" x1="15.2229" y1="1" x2="271.501" y2="1.83757" gradientUnits="userSpaceOnUse">
<stop stop-color="#00A993" stop-opacity="0.2"/>
<stop offset="0.471154" stop-color="#00A993"/>
<stop offset="1" stop-color="#00A993" stop-opacity="0.2"/>
</linearGradient>
</defs>
</svg>
