<svg width="4" height="215" viewBox="0 0 4 215" fill="none" xmlns="http://www.w3.org/2000/svg">
<path d="M0 212.672C0 211.568 0.895431 210.672 2 210.672C3.10457 210.672 4 211.568 4 212.672C4 213.777 3.10457 214.672 2 214.672C0.895431 214.672 0 213.777 0 212.672ZM0 205.672C0 204.568 0.895431 203.672 2 203.672C3.10457 203.672 4 204.568 4 205.672C4 206.777 3.10457 207.672 2 207.672C0.895431 207.672 0 206.777 0 205.672ZM0 198.672C0 197.568 0.895431 196.672 2 196.672C3.10457 196.672 4 197.568 4 198.672C4 199.777 3.10457 200.672 2 200.672C0.895431 200.672 0 199.777 0 198.672ZM0 191.672C0 190.568 0.895431 189.672 2 189.672C3.10457 189.672 4 190.568 4 191.672C4 192.777 3.10457 193.672 2 193.672C0.895431 193.672 0 192.777 0 191.672ZM0 184.672C0 183.568 0.895431 182.672 2 182.672C3.10457 182.672 4 183.568 4 184.672C4 185.777 3.10457 186.672 2 186.672C0.895431 186.672 0 185.777 0 184.672ZM0 177.672C0 176.568 0.895431 175.672 2 175.672C3.10457 175.672 4 176.568 4 177.672C4 178.777 3.10457 179.672 2 179.672C0.895431 179.672 0 178.777 0 177.672ZM0 170.672C0 169.568 0.895431 168.672 2 168.672C3.10457 168.672 4 169.568 4 170.672C4 171.777 3.10457 172.672 2 172.672C0.895431 172.672 0 171.777 0 170.672ZM0 163.672C0 162.568 0.895431 161.672 2 161.672C3.10457 161.672 4 162.568 4 163.672C4 164.777 3.10457 165.672 2 165.672C0.895431 165.672 0 164.777 0 163.672ZM0 156.672C0 155.568 0.895431 154.672 2 154.672C3.10457 154.672 4 155.568 4 156.672C4 157.777 3.10457 158.672 2 158.672C0.895431 158.672 0 157.777 0 156.672ZM0 149.672C0 148.568 0.895431 147.672 2 147.672C3.10457 147.672 4 148.568 4 149.672C4 150.777 3.10457 151.672 2 151.672C0.895431 151.672 0 150.777 0 149.672ZM0 142.672C0 141.568 0.895431 140.672 2 140.672C3.10457 140.672 4 141.568 4 142.672C4 143.777 3.10457 144.672 2 144.672C0.895431 144.672 0 143.777 0 142.672ZM0 135.672C0 134.568 0.895431 133.672 2 133.672C3.10457 133.672 4 134.568 4 135.672C4 136.777 3.10457 137.672 2 137.672C0.895431 137.672 0 136.777 0 135.672ZM0 128.672C0 127.568 0.895431 126.672 2 126.672C3.10457 126.672 4 127.568 4 128.672C4 129.777 3.10457 130.672 2 130.672C0.895431 130.672 0 129.777 0 128.672ZM0 121.672C0 120.568 0.895431 119.672 2 119.672C3.10457 119.672 4 120.568 4 121.672C4 122.777 3.10457 123.672 2 123.672C0.895431 123.672 0 122.777 0 121.672ZM0 114.672C0 113.568 0.895431 112.672 2 112.672C3.10457 112.672 4 113.568 4 114.672C4 115.777 3.10457 116.672 2 116.672C0.895431 116.672 0 115.777 0 114.672ZM0 107.672C0 106.568 0.895431 105.672 2 105.672C3.10457 105.672 4 106.568 4 107.672C4 108.777 3.10457 109.672 2 109.672C0.895431 109.672 0 108.777 0 107.672ZM0 100.672C0 99.5677 0.895431 98.6722 2 98.6722C3.10457 98.6722 4 99.5677 4 100.672C4 101.777 3.10457 102.672 2 102.672C0.895431 102.672 0 101.777 0 100.672ZM0 93.6722C0 92.5677 0.895431 91.6722 2 91.6722C3.10457 91.6722 4 92.5677 4 93.6722C4 94.7768 3.10457 95.6722 2 95.6722C0.895431 95.6722 0 94.7768 0 93.6722ZM0 86.6722C0 85.5677 0.895431 84.6722 2 84.6722C3.10457 84.6722 4 85.5677 4 86.6722C4 87.7768 3.10457 88.6722 2 88.6722C0.895431 88.6722 0 87.7768 0 86.6722ZM0 79.6722C0 78.5677 0.895431 77.6722 2 77.6722C3.10457 77.6722 4 78.5677 4 79.6722C4 80.7768 3.10457 81.6722 2 81.6722C0.895431 81.6722 0 80.7768 0 79.6722ZM0 72.6722C0 71.5677 0.895431 70.6722 2 70.6722C3.10457 70.6722 4 71.5677 4 72.6722C4 73.7768 3.10457 74.6722 2 74.6722C0.895431 74.6722 0 73.7768 0 72.6722ZM0 65.6722C0 64.5677 0.895431 63.6722 2 63.6722C3.10457 63.6722 4 64.5677 4 65.6722C4 66.7768 3.10457 67.6722 2 67.6722C0.895431 67.6722 0 66.7768 0 65.6722ZM0 58.6722C0 57.5677 0.895431 56.6722 2 56.6722C3.10457 56.6722 4 57.5677 4 58.6722C4 59.7768 3.10457 60.6722 2 60.6722C0.895431 60.6722 0 59.7768 0 58.6722ZM0 51.6722C0 50.5677 0.895431 49.6722 2 49.6722C3.10457 49.6722 4 50.5677 4 51.6722C4 52.7768 3.10457 53.6722 2 53.6722C0.895431 53.6722 0 52.7768 0 51.6722ZM0 44.6722C0 43.5677 0.895431 42.6722 2 42.6722C3.10457 42.6722 4 43.5677 4 44.6722C4 45.7768 3.10457 46.6722 2 46.6722C0.895431 46.6722 0 45.7768 0 44.6722ZM0 37.6722C0 36.5677 0.895431 35.6722 2 35.6722C3.10457 35.6722 4 36.5677 4 37.6722C4 38.7768 3.10457 39.6722 2 39.6722C0.895431 39.6722 0 38.7768 0 37.6722ZM0 30.6722C0 29.5677 0.895431 28.6722 2 28.6722C3.10457 28.6722 4 29.5677 4 30.6722C4 31.7768 3.10457 32.6722 2 32.6722C0.895431 32.6722 0 31.7768 0 30.6722ZM0 23.6722C0 22.5677 0.895431 21.6722 2 21.6722C3.10457 21.6722 4 22.5677 4 23.6722C4 24.7768 3.10457 25.6722 2 25.6722C0.895431 25.6722 0 24.7768 0 23.6722ZM0 16.6722C0 15.5677 0.895431 14.6722 2 14.6722C3.10457 14.6722 4 15.5677 4 16.6722C4 17.7768 3.10457 18.6722 2 18.6722C0.895431 18.6722 0 17.7768 0 16.6722ZM0 9.67224C0 8.56767 0.895431 7.67224 2 7.67224C3.10457 7.67224 4 8.56767 4 9.67224C4 10.7768 3.10457 11.6722 2 11.6722C0.895431 11.6722 0 10.7768 0 9.67224ZM0 2.67224C0 1.56767 0.895431 0.672241 2 0.672241C3.10457 0.672241 4 1.56767 4 2.67224C4 3.77681 3.10457 4.67224 2 4.67224C0.895431 4.67224 0 3.77681 0 2.67224Z" fill="url(#paint0_linear_695_1991)"/>
<defs>
<linearGradient id="paint0_linear_695_1991" x1="1" y1="207.894" x2="1" y2="89.6394" gradientUnits="userSpaceOnUse">
<stop stop-color="#B0CF3E" stop-opacity="0.2"/>
<stop offset="1" stop-color="#B0CF3E"/>
</linearGradient>
</defs>
</svg>
