<svg width="1594" height="85" viewBox="0 0 1594 85" fill="none" xmlns="http://www.w3.org/2000/svg">
<g filter="url(#filter0_d_1378_401)">
<path d="M1646.95 74.0113C1647.35 74.0126 1647.73 74.1712 1648.01 74.4527C1648.29 74.7342 1648.45 75.1155 1648.45 75.5129C1648.45 75.9103 1648.29 76.2913 1648.01 76.5722C1647.72 76.8531 1647.34 77.0108 1646.95 77.0113C1621.12 77.0447 1591.78 77.0737 1564.71 77.1032C1253.73 77.4398 943.673 77.5021 632.742 77.4945C511.79 77.5844 388.667 77.065 269.012 77.5258C204.931 79.6602 139.545 70.4019 81.463 42.5448C56.3401 31.1319 32.5393 16.9986 6.69885 7.65672C6.51221 7.5898 6.35901 7.45202 6.27332 7.27289C6.18774 7.09378 6.17651 6.88814 6.24231 6.70106C6.30811 6.51398 6.44568 6.36063 6.62451 6.27459C6.80347 6.18855 7.00916 6.17701 7.19666 6.24172C33.3474 15.3551 57.3423 29.2568 82.4575 40.3522C140.502 67.4454 205.187 76.0259 268.884 73.4968C388.787 72.2191 511.751 72.3351 632.742 72.2445C943.677 72.2521 1253.74 72.8225 1564.71 73.7514C1591.79 73.8342 1621.12 73.9225 1646.95 74.0113Z" fill="#F3942C"/>
</g>
<g filter="url(#filter1_d_1378_401)">
<path d="M1646.95 61.012C1647.35 61.0129 1647.73 61.171 1648.01 61.4522C1648.29 61.7335 1648.45 62.1146 1648.45 62.512C1648.45 62.9093 1648.29 63.2905 1648.01 63.5717C1647.73 63.8529 1647.35 64.0111 1646.95 64.012C1621.94 64.0731 1592.94 64.1317 1567.18 64.1879C1264.81 64.8206 963.534 65.137 661.822 65.137C531.815 65.137 400.462 64.8894 271.448 64.3942C221.415 64.1996 171.02 58.732 123.596 42.2833C98.1599 33.6568 74.126 21.5488 50.1262 9.826C49.9475 9.73987 49.8097 9.58682 49.7432 9.39972C49.6768 9.21263 49.6873 9.00696 49.7722 8.82782C49.8573 8.64867 50.01 8.51056 50.1969 8.44373C50.3839 8.37689 50.5896 8.38693 50.7693 8.47088C74.9543 19.9253 99.0128 31.7013 124.368 40.0028C171.631 55.8384 221.671 60.8114 271.448 60.6297C400.462 60.1346 531.815 59.887 661.822 59.887C963.534 59.887 1264.81 60.2033 1567.18 60.8361C1592.94 60.8922 1621.94 60.9509 1646.95 61.012Z" fill="#E94362"/>
</g>
<defs>
<filter id="filter0_d_1378_401" x="-0.000292778" y="0.00117207" width="1654.65" height="84.0191" filterUnits="userSpaceOnUse" color-interpolation-filters="sRGB">
<feFlood flood-opacity="0" result="BackgroundImageFix"/>
<feColorMatrix in="SourceAlpha" type="matrix" values="0 0 0 0 0 0 0 0 0 0 0 0 0 0 0 0 0 0 127 0" result="hardAlpha"/>
<feOffset/>
<feGaussianBlur stdDeviation="3.1"/>
<feComposite in2="hardAlpha" operator="out"/>
<feColorMatrix type="matrix" values="0 0 0 0 0.952941 0 0 0 0 0.580392 0 0 0 0 0.172549 0 0 0 1 0"/>
<feBlend mode="normal" in2="BackgroundImageFix" result="effect1_dropShadow_1378_401"/>
<feBlend mode="normal" in="SourceGraphic" in2="effect1_dropShadow_1378_401" result="shape"/>
</filter>
<filter id="filter1_d_1378_401" x="43.5002" y="2.20039" width="1611.15" height="69.1363" filterUnits="userSpaceOnUse" color-interpolation-filters="sRGB">
<feFlood flood-opacity="0" result="BackgroundImageFix"/>
<feColorMatrix in="SourceAlpha" type="matrix" values="0 0 0 0 0 0 0 0 0 0 0 0 0 0 0 0 0 0 127 0" result="hardAlpha"/>
<feOffset/>
<feGaussianBlur stdDeviation="3.1"/>
<feComposite in2="hardAlpha" operator="out"/>
<feColorMatrix type="matrix" values="0 0 0 0 0.913725 0 0 0 0 0.262745 0 0 0 0 0.384314 0 0 0 1 0"/>
<feBlend mode="normal" in2="BackgroundImageFix" result="effect1_dropShadow_1378_401"/>
<feBlend mode="normal" in="SourceGraphic" in2="effect1_dropShadow_1378_401" result="shape"/>
</filter>
</defs>
</svg>
