<svg width="387" height="114" viewBox="0 0 387 114" fill="none" xmlns="http://www.w3.org/2000/svg">
<g filter="url(#filter0_d_1378_460)">
<path d="M-173.555 87.0195C-173.752 87.0028 -173.936 86.9099 -174.065 86.7595C-174.194 86.6092 -174.258 86.414 -174.244 86.2168C-174.229 86.0195 -174.137 85.8358 -173.987 85.706C-173.837 85.5762 -173.642 85.5111 -173.445 85.5235C-164.05 86.0838 -154.564 86.5233 -144.984 86.9096C-92.5834 88.7595 -39.7285 89.8387 12.2446 84.0718C66.5013 78.1441 116.534 55.2733 166.663 33.7357C204.342 17.7045 244.936 5.47273 286.5 6.23359C309.738 6.31969 332.914 11.1844 354.292 19.9235C363.162 23.4775 371.787 27.5405 380.321 31.7561C380.498 31.8435 380.635 31.9962 380.701 32.1827C380.767 32.3692 380.757 32.5738 380.672 32.7521C380.588 32.9304 380.436 33.068 380.25 33.1353C380.064 33.2025 379.859 33.1934 379.679 33.1121C371.023 29.196 362.314 25.4289 353.429 22.1713C331.999 14.1518 309.275 9.9771 286.5 10.3172C245.632 10.3642 206.194 22.642 168.682 38.5818C118.868 59.9829 67.8107 83.0259 12.7554 88.4712C-39.8167 93.764 -92.6477 91.874 -145.088 88.9933C-154.672 88.4194 -164.149 87.7848 -173.555 87.0195Z" fill="#E94362"/>
</g>
<g filter="url(#filter1_d_1378_460)">
<path d="M-176.055 102.019C-176.252 102.003 -176.435 101.91 -176.565 101.759C-176.694 101.609 -176.758 101.414 -176.744 101.217C-176.729 101.02 -176.637 100.836 -176.487 100.706C-176.337 100.576 -176.142 100.511 -175.945 100.524C-167.386 101.027 -158.437 101.443 -149.783 101.794C-96.4952 103.693 -43.0041 104.825 9.73584 98.9959C54.6477 93.7998 97.3968 78.2632 139.004 60.5533C184.826 41.1898 232.854 20.5519 284 21.6811C292.828 21.7978 301.642 22.6547 310.301 24.2882C318.974 25.9171 327.477 28.3238 335.741 31.3076C335.927 31.3745 336.08 31.5105 336.167 31.6882C336.254 31.8659 336.267 32.0702 336.204 32.2568C336.14 32.4434 336.005 32.5974 335.828 32.6853C335.651 32.7733 335.446 32.7877 335.259 32.7278C326.953 30.0717 318.477 27.9889 309.893 26.661C301.323 25.3284 292.657 24.7472 284 24.8697C233.703 25.1451 187.038 45.9633 141.034 65.395C99.3658 83.1361 55.8459 98.7339 10.2642 103.547C-43.1002 108.907 -96.5661 106.912 -149.889 103.877C-158.546 103.339 -167.486 102.728 -176.055 102.019Z" fill="#F3942C"/>
</g>
<defs>
<filter id="filter0_d_1378_460" x="-180.446" y="-0.000781059" width="567.39" height="98.0191" filterUnits="userSpaceOnUse" color-interpolation-filters="sRGB">
<feFlood flood-opacity="0" result="BackgroundImageFix"/>
<feColorMatrix in="SourceAlpha" type="matrix" values="0 0 0 0 0 0 0 0 0 0 0 0 0 0 0 0 0 0 127 0" result="hardAlpha"/>
<feOffset/>
<feGaussianBlur stdDeviation="3.1"/>
<feComposite in2="hardAlpha" operator="out"/>
<feColorMatrix type="matrix" values="0 0 0 0 0.913725 0 0 0 0 0.262745 0 0 0 0 0.384314 0 0 0 1 0"/>
<feBlend mode="normal" in2="BackgroundImageFix" result="effect1_dropShadow_1378_460"/>
<feBlend mode="normal" in="SourceGraphic" in2="effect1_dropShadow_1378_460" result="shape"/>
</filter>
<filter id="filter1_d_1378_460" x="-182.946" y="15.4367" width="525.389" height="97.6539" filterUnits="userSpaceOnUse" color-interpolation-filters="sRGB">
<feFlood flood-opacity="0" result="BackgroundImageFix"/>
<feColorMatrix in="SourceAlpha" type="matrix" values="0 0 0 0 0 0 0 0 0 0 0 0 0 0 0 0 0 0 127 0" result="hardAlpha"/>
<feOffset/>
<feGaussianBlur stdDeviation="3.1"/>
<feComposite in2="hardAlpha" operator="out"/>
<feColorMatrix type="matrix" values="0 0 0 0 0.952941 0 0 0 0 0.580392 0 0 0 0 0.172549 0 0 0 1 0"/>
<feBlend mode="normal" in2="BackgroundImageFix" result="effect1_dropShadow_1378_460"/>
<feBlend mode="normal" in="SourceGraphic" in2="effect1_dropShadow_1378_460" result="shape"/>
</filter>
</defs>
</svg>
