<svg width="56" height="56" viewBox="0 0 56 56" fill="none" xmlns="http://www.w3.org/2000/svg">
<g filter="url(#filter0_d_178_22)">
<rect x="8" y="8" width="40" height="40" rx="4" fill="white"/>
<g clip-path="url(#clip0_178_22)">
<path d="M25.6736 24.8332C28.0788 24.8332 30.0283 22.8555 30.0283 20.4164C30.0283 17.9773 28.0785 16 25.6736 16C23.2687 16 21.3182 17.9776 21.3182 20.4168C21.3182 22.8559 23.2687 24.8332 25.6736 24.8332Z" fill="#F3942D"/>
<path d="M27.5208 25.1342H23.8257C20.7512 25.1342 18.25 27.6715 18.25 30.7897V35.373L18.2615 35.4448L18.5727 35.5436C21.5068 36.4734 24.0558 36.7835 26.1538 36.7835C26.8114 36.7835 27.3328 36.835 27.8995 36.7835C27.255 36.4376 26.9108 35.6924 26.9108 34.9312C26.9108 33.8128 27.8518 32.9062 29.0126 32.9062H30.6314V31.2162C30.6314 30.0978 31.5725 29.1912 32.7333 29.1912C32.7791 29.1912 32.8248 29.1926 32.8703 29.1954C32.1907 26.8508 30.0496 25.1342 27.5208 25.1342Z" fill="#F3942D"/>
<path d="M34.1191 31.4927C34.1191 30.8619 33.6082 30.3505 32.978 30.3505C32.3478 30.3505 31.8369 30.8619 31.8369 31.4927V34.0309H29.288C28.6578 34.0309 28.1469 34.5423 28.1469 35.1732C28.1469 35.804 28.6578 36.3154 29.288 36.3154H31.8369V38.8578C31.8369 39.4886 32.3478 40 32.978 40C33.6082 40 34.1191 39.4886 34.1191 38.8578V36.3154H36.6553C37.2855 36.3154 37.7964 35.804 37.7964 35.1732C37.7964 34.5423 37.2855 34.0309 36.6553 34.0309H34.1191V31.4927Z" fill="#F3942D"/>
</g>
</g>
<defs>
<filter id="filter0_d_178_22" x="0" y="0" width="56" height="56" filterUnits="userSpaceOnUse" color-interpolation-filters="sRGB">
<feFlood flood-opacity="0" result="BackgroundImageFix"/>
<feColorMatrix in="SourceAlpha" type="matrix" values="0 0 0 0 0 0 0 0 0 0 0 0 0 0 0 0 0 0 127 0" result="hardAlpha"/>
<feOffset/>
<feGaussianBlur stdDeviation="4"/>
<feComposite in2="hardAlpha" operator="out"/>
<feColorMatrix type="matrix" values="0 0 0 0 0 0 0 0 0 0.0784314 0 0 0 0 0.537255 0 0 0 0.15 0"/>
<feBlend mode="normal" in2="BackgroundImageFix" result="effect1_dropShadow_178_22"/>
<feBlend mode="normal" in="SourceGraphic" in2="effect1_dropShadow_178_22" result="shape"/>
</filter>
<clipPath id="clip0_178_22">
<rect width="24" height="24" fill="white" transform="translate(16 16)"/>
</clipPath>
</defs>
</svg>
