<svg width="16" height="16" viewBox="0 0 16 16" fill="none" xmlns="http://www.w3.org/2000/svg">
<g clip-path="url(#clip0_2422_8392)">
<path d="M7.99935 0.666748C6.54895 0.666748 5.13113 1.09684 3.92517 1.90264C2.71921 2.70843 1.77928 3.85374 1.22424 5.19374C0.669193 6.53373 0.523969 8.00822 0.806927 9.43074C1.08989 10.8533 1.78832 12.1599 2.8139 13.1855C3.83949 14.2111 5.14616 14.9095 6.56869 15.1925C7.99122 15.4755 9.4657 15.3302 10.8057 14.7752C12.1457 14.2202 13.291 13.2802 14.0968 12.0743C14.9026 10.8683 15.3327 9.45048 15.3327 8.00008C15.3304 6.05586 14.557 4.19193 13.1823 2.81716C11.8075 1.4424 9.94357 0.669042 7.99935 0.666748ZM10.4707 10.4714C10.3457 10.5964 10.1761 10.6666 9.99935 10.6666C9.82257 10.6666 9.65304 10.5964 9.52802 10.4714L7.52802 8.47141C7.40299 8.34642 7.33272 8.17688 7.33268 8.00008V4.00008C7.33268 3.82327 7.40292 3.6537 7.52795 3.52868C7.65297 3.40365 7.82254 3.33341 7.99935 3.33341C8.17616 3.33341 8.34573 3.40365 8.47076 3.52868C8.59578 3.6537 8.66602 3.82327 8.66602 4.00008V7.72408L10.4707 9.52875C10.5957 9.65377 10.6659 9.82331 10.6659 10.0001C10.6659 10.1769 10.5957 10.3464 10.4707 10.4714Z" fill="#E2DF31"/>
</g>
<defs>
<clipPath id="clip0_2422_8392">
<rect width="16" height="16" fill="white"/>
</clipPath>
</defs>
</svg>
