<svg width="24" height="22" viewBox="0 0 24 22" fill="none" xmlns="http://www.w3.org/2000/svg">
<path d="M20.894 0.411743H18.7764V2.52939C18.7764 2.95292 18.4235 3.23527 18.0705 3.23527C17.7176 3.23527 17.3646 2.95292 17.3646 2.52939V0.411743H6.07052V2.52939C6.07052 2.95292 5.71758 3.23527 5.36463 3.23527C5.01169 3.23527 4.65875 2.95292 4.65875 2.52939V0.411743H2.5411C1.48228 0.411743 0.705811 1.32939 0.705811 2.52939V5.07057H23.294V2.52939C23.294 1.32939 22.0235 0.411743 20.894 0.411743ZM0.705811 6.55292V19.4706C0.705811 20.7412 1.48228 21.5882 2.61169 21.5882H20.9646C22.094 21.5882 23.3646 20.6706 23.3646 19.4706V6.55292H0.705811ZM6.98816 18.4117H5.29405C5.01169 18.4117 4.72934 18.2 4.72934 17.847V16.0823C4.72934 15.8 4.9411 15.5176 5.29405 15.5176H7.05875C7.34111 15.5176 7.62346 15.7294 7.62346 16.0823V17.847C7.55287 18.2 7.3411 18.4117 6.98816 18.4117ZM6.98816 12.0588H5.29405C5.01169 12.0588 4.72934 11.847 4.72934 11.4941V9.72939C4.72934 9.44704 4.9411 9.16468 5.29405 9.16468H7.05875C7.34111 9.16468 7.62346 9.37645 7.62346 9.72939V11.4941C7.55287 11.847 7.3411 12.0588 6.98816 12.0588ZM12.6352 18.4117H10.8705C10.5882 18.4117 10.3058 18.2 10.3058 17.847V16.0823C10.3058 15.8 10.5176 15.5176 10.8705 15.5176H12.6352C12.9176 15.5176 13.1999 15.7294 13.1999 16.0823V17.847C13.1999 18.2 12.9882 18.4117 12.6352 18.4117ZM12.6352 12.0588H10.8705C10.5882 12.0588 10.3058 11.847 10.3058 11.4941V9.72939C10.3058 9.44704 10.5176 9.16468 10.8705 9.16468H12.6352C12.9176 9.16468 13.1999 9.37645 13.1999 9.72939V11.4941C13.1999 11.847 12.9882 12.0588 12.6352 12.0588ZM18.2823 18.4117H16.5176C16.2352 18.4117 15.9529 18.2 15.9529 17.847V16.0823C15.9529 15.8 16.1646 15.5176 16.5176 15.5176H18.2823C18.5646 15.5176 18.847 15.7294 18.847 16.0823V17.847C18.847 18.2 18.6352 18.4117 18.2823 18.4117ZM18.2823 12.0588H16.5176C16.2352 12.0588 15.9529 11.847 15.9529 11.4941V9.72939C15.9529 9.44704 16.1646 9.16468 16.5176 9.16468H18.2823C18.5646 9.16468 18.847 9.37645 18.847 9.72939V11.4941C18.847 11.847 18.6352 12.0588 18.2823 12.0588Z" fill="#F3942D"/>
</svg>
