<svg width="24" height="24" viewBox="0 0 24 24" fill="none" xmlns="http://www.w3.org/2000/svg">
<g id="calendar 1">
<g id="Group">
<path id="Vector" d="M20.894 1.41174H18.7764V3.52939C18.7764 3.95292 18.4235 4.23527 18.0705 4.23527C17.7176 4.23527 17.3646 3.95292 17.3646 3.52939V1.41174H6.07052V3.52939C6.07052 3.95292 5.71758 4.23527 5.36463 4.23527C5.01169 4.23527 4.65875 3.95292 4.65875 3.52939V1.41174H2.5411C1.48228 1.41174 0.705811 2.32939 0.705811 3.52939V6.07057H23.294V3.52939C23.294 2.32939 22.0235 1.41174 20.894 1.41174ZM0.705811 7.55292V20.4706C0.705811 21.7412 1.48228 22.5882 2.61169 22.5882H20.9646C22.094 22.5882 23.3646 21.6706 23.3646 20.4706V7.55292H0.705811ZM6.98816 19.4117H5.29405C5.01169 19.4117 4.72934 19.2 4.72934 18.847V17.0823C4.72934 16.8 4.9411 16.5176 5.29405 16.5176H7.05875C7.34111 16.5176 7.62346 16.7294 7.62346 17.0823V18.847C7.55287 19.2 7.3411 19.4117 6.98816 19.4117ZM6.98816 13.0588H5.29405C5.01169 13.0588 4.72934 12.847 4.72934 12.4941V10.7294C4.72934 10.447 4.9411 10.1647 5.29405 10.1647H7.05875C7.34111 10.1647 7.62346 10.3764 7.62346 10.7294V12.4941C7.55287 12.847 7.3411 13.0588 6.98816 13.0588ZM12.6352 19.4117H10.8705C10.5882 19.4117 10.3058 19.2 10.3058 18.847V17.0823C10.3058 16.8 10.5176 16.5176 10.8705 16.5176H12.6352C12.9176 16.5176 13.1999 16.7294 13.1999 17.0823V18.847C13.1999 19.2 12.9882 19.4117 12.6352 19.4117ZM12.6352 13.0588H10.8705C10.5882 13.0588 10.3058 12.847 10.3058 12.4941V10.7294C10.3058 10.447 10.5176 10.1647 10.8705 10.1647H12.6352C12.9176 10.1647 13.1999 10.3764 13.1999 10.7294V12.4941C13.1999 12.847 12.9882 13.0588 12.6352 13.0588ZM18.2823 19.4117H16.5176C16.2352 19.4117 15.9529 19.2 15.9529 18.847V17.0823C15.9529 16.8 16.1646 16.5176 16.5176 16.5176H18.2823C18.5646 16.5176 18.847 16.7294 18.847 17.0823V18.847C18.847 19.2 18.6352 19.4117 18.2823 19.4117ZM18.2823 13.0588H16.5176C16.2352 13.0588 15.9529 12.847 15.9529 12.4941V10.7294C15.9529 10.447 16.1646 10.1647 16.5176 10.1647H18.2823C18.5646 10.1647 18.847 10.3764 18.847 10.7294V12.4941C18.847 12.847 18.6352 13.0588 18.2823 13.0588Z" fill="#B0CF3E"/>
</g>
</g>
</svg>
