<svg width="24" height="24" viewBox="0 0 24 24" fill="none" xmlns="http://www.w3.org/2000/svg">
<path d="M20.8933 1.41174H18.7757V3.52939C18.7757 3.95292 18.4227 4.23527 18.0698 4.23527C17.7168 4.23527 17.3639 3.95292 17.3639 3.52939V1.41174H6.06978V3.52939C6.06978 3.95292 5.71684 4.23527 5.3639 4.23527C5.01096 4.23527 4.65802 3.95292 4.65802 3.52939V1.41174H2.54037C1.48155 1.41174 0.705078 2.32939 0.705078 3.52939V6.07057H23.2933V3.52939C23.2933 2.32939 22.0227 1.41174 20.8933 1.41174ZM0.705078 7.55292V20.4706C0.705078 21.7412 1.48155 22.5882 2.61096 22.5882H20.9639C22.0933 22.5882 23.3639 21.6706 23.3639 20.4706V7.55292H0.705078ZM6.98743 19.4117H5.29331C5.01096 19.4117 4.72861 19.2 4.72861 18.847V17.0823C4.72861 16.8 4.94037 16.5176 5.29331 16.5176H7.05802C7.34037 16.5176 7.62273 16.7294 7.62273 17.0823V18.847C7.55214 19.2 7.34037 19.4117 6.98743 19.4117ZM6.98743 13.0588H5.29331C5.01096 13.0588 4.72861 12.847 4.72861 12.4941V10.7294C4.72861 10.447 4.94037 10.1647 5.29331 10.1647H7.05802C7.34037 10.1647 7.62273 10.3764 7.62273 10.7294V12.4941C7.55214 12.847 7.34037 13.0588 6.98743 13.0588ZM12.6345 19.4117H10.8698C10.5874 19.4117 10.3051 19.2 10.3051 18.847V17.0823C10.3051 16.8 10.5168 16.5176 10.8698 16.5176H12.6345C12.9168 16.5176 13.1992 16.7294 13.1992 17.0823V18.847C13.1992 19.2 12.9874 19.4117 12.6345 19.4117ZM12.6345 13.0588H10.8698C10.5874 13.0588 10.3051 12.847 10.3051 12.4941V10.7294C10.3051 10.447 10.5168 10.1647 10.8698 10.1647H12.6345C12.9168 10.1647 13.1992 10.3764 13.1992 10.7294V12.4941C13.1992 12.847 12.9874 13.0588 12.6345 13.0588ZM18.2815 19.4117H16.5168C16.2345 19.4117 15.9521 19.2 15.9521 18.847V17.0823C15.9521 16.8 16.1639 16.5176 16.5168 16.5176H18.2815C18.5639 16.5176 18.8463 16.7294 18.8463 17.0823V18.847C18.8463 19.2 18.6345 19.4117 18.2815 19.4117ZM18.2815 13.0588H16.5168C16.2345 13.0588 15.9521 12.847 15.9521 12.4941V10.7294C15.9521 10.447 16.1639 10.1647 16.5168 10.1647H18.2815C18.5639 10.1647 18.8463 10.3764 18.8463 10.7294V12.4941C18.8463 12.847 18.6345 13.0588 18.2815 13.0588Z" fill="#E2DF31"/>
</svg>
