<svg width="148" height="80" viewBox="0 0 148 80" fill="none" xmlns="http://www.w3.org/2000/svg">
<path fillRule="evenodd" clip-rule="evenodd" d="M21.69 1.13207C21.9943 1.13207 22.2551 0.87082 22.2551 0.566033C22.2551 0.261246 21.9943 0 21.69 0C21.3858 0 21.125 0.261246 21.125 0.566033C21.125 0.87082 21.3858 1.13207 21.69 1.13207ZM70.5826 6.09584L71.1042 5.57335C71.365 5.31211 71.8866 4.92024 72.669 4.35421C73.4513 3.78817 74.3206 3.26568 75.2334 2.78673C76.1462 2.30778 77.2762 1.91591 78.7106 1.52404C80.1015 1.13217 81.5358 0.958008 82.9702 0.958008C87.9252 0.958008 91.924 2.61257 95.01 5.8346C98.096 9.10017 99.6173 13.4543 99.6173 18.984V42.9751H91.0546V18.984C91.0546 16.0232 90.0984 13.5849 88.2294 11.6255C86.3604 9.66621 84.0133 8.7083 81.2316 8.7083C77.9717 8.7083 75.3638 9.75329 73.4513 11.8868C71.5389 14.0203 70.5392 16.9375 70.5392 20.7256V42.9751H61.9766V1.82883H70.5392L70.5826 6.09584ZM115.441 25.3845C115.876 28.3017 117.31 30.7836 119.744 32.9171C122.135 35.0506 125.003 36.0956 128.35 36.0956C130.741 36.0956 132.957 35.5731 135.044 34.441C137.13 33.3525 138.564 32.3075 139.434 31.2625L140.738 29.6515L146.301 35.2683C146.229 35.3585 146.142 35.4636 146.04 35.5868C145.896 35.7609 145.722 35.9711 145.519 36.2262C145.171 36.6616 144.432 37.3147 143.302 38.2726C142.172 39.2305 140.955 40.1014 139.651 40.8416C138.347 41.5817 136.695 42.2784 134.653 42.888C132.61 43.4976 130.48 43.8459 128.307 43.8459C122.482 43.8459 117.484 41.7124 113.268 37.4018C109.052 33.0913 106.922 27.9534 106.922 21.9883C106.922 16.0232 108.965 11.2772 113.094 7.14083C117.18 3.04798 122.135 0.958008 127.872 0.958008C133.609 0.958008 138.391 2.87381 142.259 6.70542C146.127 10.537 147.996 15.3265 147.996 21.1175L147.518 25.3845H115.441ZM120.048 11.016C117.962 12.8447 116.528 15.1959 115.789 18.1132H139.564C139.086 15.1959 137.782 12.8447 135.696 11.016C133.609 9.18725 131.001 8.27289 127.872 8.27289C124.743 8.27289 122.178 9.18725 120.048 11.016ZM15.1245 79.5495C15.8634 79.5495 16.5154 79.2882 17.037 78.7657C17.5586 78.2868 17.8193 77.6337 17.8193 76.8499C17.8193 76.1097 17.5586 75.4566 17.037 74.9341C16.5154 74.4116 15.8634 74.1504 15.1245 74.1504C14.3856 74.1504 13.7336 74.4116 13.2121 74.9341C12.6905 75.4566 12.4297 76.1097 12.4297 76.8499C12.4297 77.5901 12.6905 78.2432 13.2121 78.7657C13.7336 79.2882 14.3856 79.5495 15.1245 79.5495ZM15.168 79.027C14.5595 79.027 14.0379 78.8528 13.6467 78.4174C13.2555 78.0255 13.0382 77.503 13.0382 76.8935C13.0382 76.2839 13.2555 75.8049 13.6467 75.3695C14.0814 74.9777 14.5595 74.76 15.168 74.76C15.7765 74.76 16.2981 74.9341 16.6893 75.3695C17.0804 75.7614 17.2978 76.2839 17.2978 76.8935C17.2978 77.503 17.0804 77.982 16.6893 78.4174C16.2546 78.8093 15.7765 79.027 15.168 79.027ZM20.4699 74.9781C20.9914 74.4556 21.6434 74.1943 22.3823 74.1943C22.6431 74.1943 22.9039 74.2379 23.1212 74.325C23.382 74.412 23.5558 74.4991 23.7296 74.5862L23.7297 74.5862C23.8412 74.642 23.9348 74.7158 24.022 74.7844C24.0708 74.8229 24.1176 74.8597 24.1644 74.891C24.2604 74.9551 24.3328 75.0428 24.3817 75.102L24.3819 75.1022L24.3822 75.1026L24.4023 75.1267L24.4129 75.139C24.4173 75.144 24.4214 75.1485 24.4252 75.1522L24.5121 75.2829L24.1209 75.6312C24.1209 75.6043 24.1043 75.594 24.0814 75.5798C24.0672 75.571 24.0506 75.5607 24.034 75.5441C24.0264 75.5365 24.0188 75.5275 24.0107 75.5174L23.9955 75.4981C23.9593 75.4517 23.9105 75.389 23.8167 75.3264C23.7297 75.2393 23.5994 75.1522 23.469 75.0652C23.393 75.0144 23.3023 74.9785 23.2055 74.9401L23.2054 74.9401L23.2053 74.94L23.2053 74.94L23.2052 74.94L23.2052 74.94L23.2051 74.94C23.1358 74.9125 23.0633 74.8838 22.9908 74.8475C22.7735 74.7604 22.5562 74.7604 22.3389 74.7604C21.7304 74.7604 21.2522 74.9781 20.8176 75.3699C20.4264 75.8054 20.2091 76.2843 20.2091 76.8939C20.2091 77.5035 20.4264 78.0259 20.8176 78.4178C21.2088 78.8532 21.7304 79.0274 22.3389 79.0274C22.5562 79.0274 22.7735 78.9838 22.9908 78.9403C23.2082 78.8968 23.382 78.8097 23.5124 78.7226C23.6428 78.6355 23.7732 78.5484 23.8601 78.4613L24.0775 78.2436L24.1644 78.1566L24.5556 78.5049C24.5556 78.5484 24.5121 78.592 24.4687 78.6355L24.2079 78.8968C24.1047 79.0001 24.0015 79.0762 23.8768 79.1682C23.8439 79.1925 23.8095 79.2178 23.7732 79.2451C23.5994 79.3322 23.4255 79.4193 23.1647 79.5063C22.9039 79.5934 22.6431 79.637 22.3823 79.637C21.6434 79.637 20.9914 79.3757 20.4699 78.8532C19.9483 78.3307 19.6875 77.6776 19.6875 76.9374C19.6875 76.1537 19.9483 75.5006 20.4699 74.9781ZM29.7746 74.8028V74.2803H25.9062V74.8028H27.5579V79.5052H28.123V74.8028H29.7746ZM31.8108 78.0254L31.2023 79.4622H30.5938L32.767 74.2373H33.2886L35.4618 79.4622H34.8533L34.2448 78.0254H31.8108ZM33.0278 75.0646L32.0281 77.5464H34.0275L33.0278 75.0646ZM40.5479 74.7602C40.2002 74.4554 39.809 74.2812 39.3309 74.2812H37.375V79.5062H37.8966V77.5904H39.3309C39.809 77.5904 40.2437 77.4162 40.5479 77.1114C40.8522 76.8066 41.0261 76.4147 41.0261 75.9358C41.0261 75.4568 40.8957 75.065 40.5479 74.7602ZM37.94 77.0243V74.8037V74.7602H39.3744C39.7221 74.7602 39.9829 74.8473 40.2002 75.065C40.4175 75.2827 40.5045 75.5439 40.5045 75.8923C40.5045 76.2406 40.4175 76.5018 40.2002 76.7195C39.9829 76.9372 39.7221 77.0243 39.3744 77.0243H37.94ZM43.1953 74.2812H43.7604V76.5889H46.6725V74.2812H47.2376V79.5062H46.6725V77.1114H43.7604V79.5062H43.1953V74.2812ZM49.7101 79.4622L50.3186 78.0254H52.7526L53.3611 79.4622H53.9696L51.7964 74.2373H51.2748L49.1016 79.4622H49.7101ZM50.5359 77.5464L51.5356 75.0646L52.5353 77.5464H50.5359ZM57.9769 74.2812C58.4551 74.2812 58.8028 74.4119 59.107 74.7167C59.4113 75.0214 59.5417 75.3698 59.5417 75.8487C59.5417 76.0664 59.4982 76.2841 59.4113 76.4583C59.3244 76.6325 59.2374 76.8066 59.1505 76.8937C59.107 76.9372 59.0527 76.9808 58.9984 77.0243C58.944 77.0679 58.8897 77.1114 58.8462 77.155C58.7593 77.242 58.6289 77.2856 58.5855 77.2856L58.4551 77.3291L59.6721 79.5062H59.107L57.9335 77.4162H56.4557V79.5062H55.8906V74.2812H57.9769ZM56.4557 76.8937H57.9769C58.2812 76.8937 58.542 76.8066 58.7159 76.6325C58.8897 76.4583 59.0201 76.1971 59.0201 75.8923C59.0201 75.5875 58.9332 75.3262 58.7159 75.1521C58.542 74.9779 58.2812 74.8908 57.9769 74.8908H56.4557V76.8937ZM62.4479 75.2821L64.5342 78.0252L66.6205 75.2821V79.5491H67.1855V74.3242H66.7074L64.5342 77.1544L62.3609 74.3242H61.8828V79.5491H62.4479V75.2821ZM70.2751 78.0254L69.6666 79.4622H69.1016L71.2748 74.2373H71.7964L73.9696 79.4622H73.3611L72.7526 78.0254H70.2751ZM71.5356 75.0646L70.5359 77.5464H72.5353L71.5356 75.0646ZM78.7994 74.2812H78.2344V79.5062H78.7994V77.1114H81.7116V79.5062H82.2766V74.2812H81.7116V76.5889H78.7994V74.2812ZM85.3967 78.0254L84.7882 79.4622H84.1797L86.3529 74.2373H86.8745L89.0478 79.4622H88.4393L87.8307 78.0254H85.3967ZM86.6137 75.0646L85.614 77.5029H87.6134L86.6137 75.0646ZM94.612 79.5062V78.9837H91.526V77.0243H93.96V76.5018H91.526V74.8037H94.5251V74.2812H90.9609V79.5062H94.612ZM99.3545 78.0252L97.2682 75.2821V79.5491H96.7031V74.3242H97.1812L99.3545 77.1544L101.528 74.3242H102.006V79.5491H101.441V75.2821L99.3545 78.0252ZM104.444 79.4622L105.053 78.0254H107.487L108.096 79.4622H108.704L106.531 74.2373H106.009L103.836 79.4622H104.444ZM105.27 77.5464L106.27 75.0646L107.27 77.5464H105.27ZM113.364 74.2803V74.8028H111.712V79.5052H111.147V74.8028H109.539V74.2803H113.364ZM117.265 79.5495C118.004 79.5495 118.656 79.2882 119.178 78.7657C119.699 78.2868 119.96 77.6337 119.96 76.8499C119.96 76.1097 119.699 75.4566 119.178 74.9341C118.656 74.4116 118.004 74.1504 117.265 74.1504C116.526 74.1504 115.874 74.4116 115.353 74.9341C114.831 75.4566 114.57 76.1097 114.57 76.8499C114.57 77.5901 114.831 78.2432 115.353 78.7657C115.874 79.2882 116.526 79.5495 117.265 79.5495ZM117.309 79.027C116.7 79.027 116.179 78.8528 115.787 78.4174C115.396 78.0255 115.179 77.503 115.179 76.8935C115.179 76.2839 115.396 75.8049 115.787 75.3695C116.222 74.9777 116.7 74.76 117.309 74.76C117.917 74.76 118.439 74.9341 118.83 75.3695C119.221 75.7614 119.438 76.2839 119.438 76.8935C119.438 77.503 119.221 77.982 118.83 78.4174C118.395 78.8093 117.917 79.027 117.309 79.027ZM122.18 79.5052V74.2803H122.745V78.9827H125.44V79.5052H122.18ZM129.312 79.5495C130.051 79.5495 130.703 79.2882 131.224 78.7657C131.746 78.2868 132.007 77.6337 132.007 76.8499C132.007 76.1097 131.746 75.4566 131.224 74.9341C130.703 74.4116 130.051 74.1504 129.312 74.1504C128.573 74.1504 127.921 74.4116 127.4 74.9341C126.878 75.4566 126.617 76.1097 126.617 76.8499C126.617 77.5901 126.878 78.2432 127.4 78.7657C127.921 79.2882 128.573 79.5495 129.312 79.5495ZM129.355 79.027C128.747 79.027 128.225 78.8528 127.834 78.4174C127.443 78.0255 127.226 77.503 127.226 76.8935C127.226 76.2839 127.443 75.8049 127.834 75.3695C128.269 74.9777 128.747 74.76 129.355 74.76C129.964 74.76 130.486 74.9341 130.877 75.3695C131.268 75.7614 131.485 76.2839 131.485 76.8935C131.485 77.503 131.268 77.982 130.877 78.4174C130.442 78.8093 129.964 79.027 129.355 79.027ZM134.657 74.9781C135.179 74.4556 135.831 74.1943 136.57 74.1943C136.831 74.1943 137.091 74.2379 137.309 74.325C137.57 74.412 137.743 74.4991 137.917 74.5862C138.029 74.642 138.122 74.7158 138.209 74.7844C138.258 74.8229 138.305 74.8597 138.352 74.891C138.448 74.9551 138.52 75.0428 138.569 75.102C138.587 75.1232 138.601 75.1408 138.613 75.1522L138.7 75.2829L138.308 75.6312C138.308 75.6043 138.292 75.594 138.269 75.5798C138.255 75.571 138.238 75.5607 138.221 75.5441C138.209 75.5319 138.197 75.5162 138.183 75.4981C138.147 75.4517 138.098 75.389 138.004 75.3264C137.939 75.2829 137.885 75.2393 137.83 75.1958C137.776 75.1522 137.722 75.1087 137.656 75.0652C137.58 75.0144 137.49 74.9785 137.393 74.9401C137.323 74.9126 137.251 74.8838 137.178 74.8475C136.961 74.7604 136.744 74.7604 136.526 74.7604C135.918 74.7604 135.44 74.9781 135.005 75.3699C134.614 75.8054 134.397 76.2843 134.397 76.8939C134.397 77.5035 134.614 78.0259 135.005 78.4178C135.396 78.8532 135.918 79.0274 136.526 79.0274C136.712 79.0274 136.866 78.9956 137.042 78.9592L137.043 78.9591L137.091 78.9492L137.135 78.9403C137.244 78.913 137.353 78.8685 137.452 78.8284C137.51 78.8046 137.564 78.7823 137.613 78.7661C137.648 78.7428 137.68 78.7226 137.709 78.7039C137.79 78.6526 137.854 78.6122 137.917 78.5484C137.968 78.4974 138.019 78.4613 138.061 78.4315C138.091 78.4103 138.117 78.3923 138.135 78.3743L138.178 78.2872V77.2858H137.004V76.7633H138.743V78.4614C138.743 78.5049 138.7 78.5484 138.656 78.592L138.395 78.8532C138.33 78.9185 138.254 78.973 138.178 79.0274C138.102 79.0818 138.026 79.1362 137.961 79.2015C137.787 79.2886 137.613 79.3757 137.352 79.4628C137.091 79.5499 136.831 79.5934 136.57 79.5934C135.831 79.5934 135.179 79.3322 134.657 78.8097C134.136 78.2872 133.875 77.6341 133.875 76.8939C133.875 76.1537 134.136 75.5006 134.657 74.9781ZM144.086 74.2803L142.521 77.0669L140.957 74.2803H140.305L142.217 77.6765V79.5052H142.782V77.6765L144.738 74.2803H144.086ZM21.6941 54.8181C21.6072 54.6875 21.4768 54.5133 21.3029 54.3392C21.1291 54.165 20.7379 53.9037 20.1728 53.599C19.5643 53.2942 18.9124 53.12 18.2604 53.12C17.3911 53.12 16.6522 53.3377 16.1306 53.8167C15.609 54.2956 15.3048 54.8181 15.3048 55.4277C15.3048 56.0373 15.609 56.5597 16.1741 56.9516C16.7391 57.3435 17.478 57.6483 18.3039 57.866C19.1297 58.0837 19.9555 58.3449 20.8248 58.6497C21.6941 58.9545 22.3896 59.4334 22.9546 60.0866C23.5197 60.7397 23.8239 61.6105 23.8239 62.6555C23.8239 64.0052 23.3023 65.1373 22.2592 66.0517C21.216 66.966 19.8251 67.4015 18.0431 67.4015C17.3042 67.4015 16.6087 67.3144 15.9133 67.0967C15.2178 66.879 14.6963 66.6612 14.2616 66.4C13.827 66.1388 13.4792 65.8775 13.1315 65.5727C12.8273 65.3115 12.5665 65.0502 12.4361 64.8761L12.2188 64.5713L13.8704 62.9167C13.8973 62.9436 13.9241 62.9872 13.9613 63.0473C13.9842 63.0845 14.0111 63.1281 14.0443 63.178L14.0443 63.178L14.0444 63.1781L14.0445 63.1781L14.0445 63.1782L14.0445 63.1782L14.0446 63.1783C14.1317 63.2655 14.3054 63.4396 14.5659 63.744C14.8267 64.0052 15.0874 64.223 15.3917 64.4407C15.696 64.6584 16.0871 64.8325 16.5653 65.0067C17.0434 65.1809 17.5215 65.2679 17.9996 65.2679C19.1297 65.2679 19.9555 65.0067 20.564 64.5277C21.1725 64.0488 21.4333 63.3957 21.4333 62.6555C21.4333 62.0024 21.1291 61.4799 20.564 61.0445C19.999 60.6091 19.2601 60.3043 18.4342 60.0866C17.7322 59.9015 17.0301 59.6535 16.3013 59.396C16.1729 59.3506 16.0436 59.305 15.9133 59.2593C15.044 58.9545 14.3485 58.4755 13.7835 57.866C13.2184 57.2564 12.9142 56.3856 12.9142 55.3841C12.9142 54.2085 13.3923 53.1635 14.4355 52.2492C15.4786 51.3348 16.6956 50.8994 18.2169 50.8994C18.8254 50.8994 19.4339 50.9865 19.999 51.1171C20.564 51.2477 21.0856 51.4219 21.4333 51.6396C21.7811 51.8573 22.1288 52.075 22.433 52.2927C22.7373 52.5104 22.9546 52.6846 23.085 52.8152L23.3023 53.0765L21.6941 54.8181ZM42.2129 51.0293C39.9962 51.0293 38.0837 51.813 36.519 53.424C34.9542 55.0351 34.1719 56.9944 34.1719 59.3021C34.1719 61.6098 34.9542 63.5256 36.519 65.1366C38.0837 66.7476 39.9962 67.5313 42.2129 67.5313C44.4296 67.5313 46.3421 66.7041 47.9068 65.1366C49.4716 63.5691 50.2539 61.6533 50.2539 59.3021C50.2539 56.9509 49.4716 55.0351 47.9068 53.424C46.3421 51.813 44.4296 51.0293 42.2129 51.0293ZM42.2564 53.1628C43.8211 53.1628 45.1685 53.7724 46.2986 54.948C47.4287 56.1236 47.9938 57.5604 47.9938 59.2585C47.9938 60.9566 47.3852 62.3935 46.2986 63.5691C45.212 64.7447 43.8211 65.3543 42.2564 65.3543C40.6916 65.3543 39.3442 64.7447 38.2141 63.5691C37.084 62.3935 36.519 60.9566 36.519 59.2585C36.519 57.5604 37.084 56.1236 38.2141 54.948C39.3007 53.7288 40.6916 53.1628 42.2564 53.1628ZM73.2839 65.0498C73.2658 65.0678 73.2478 65.1008 73.2267 65.1394C73.1969 65.1941 73.1609 65.26 73.11 65.311L72.5015 65.9206C72.1972 66.1819 71.8495 66.4431 71.4583 66.6608C71.0671 66.8785 70.6325 67.0962 70.024 67.2704C69.4155 67.4445 68.807 67.5316 68.1984 67.5316C66.3729 67.5316 64.8082 66.8785 63.5912 65.6158C62.3741 64.3531 61.7656 62.655 61.7656 60.6086V51.3779H64.0693V60.6086C64.0693 62.0019 64.5039 63.134 65.3732 64.0484C66.2425 64.9627 67.2857 65.3981 68.5027 65.3981C69.8501 65.3981 70.9802 64.9192 71.893 63.9177C72.8057 62.9163 73.2839 61.6536 73.2839 60.1297V51.3779H75.5875V67.1833H73.2839V65.0498ZM95.6761 53.337H96.6758V51.0293H96.0238C95.3284 51.0293 94.6764 51.1164 94.0679 51.2905C93.4594 51.4647 92.9813 51.6824 92.5901 51.9001C92.1989 52.1178 91.8512 52.3355 91.547 52.6403C91.4307 52.7567 91.3272 52.8541 91.2388 52.9373L91.2387 52.9373L91.2386 52.9374L91.2383 52.9377L91.2383 52.9377C91.0955 53.072 90.9921 53.1693 90.9384 53.2499C90.9052 53.2998 90.8784 53.337 90.8554 53.3687C90.8183 53.4201 90.7915 53.4573 90.7646 53.5111V51.3776H88.4609V67.183H90.7646V58.4313C90.7646 56.9073 91.2427 55.6446 92.1989 54.7303C93.1552 53.8159 94.3287 53.337 95.6761 53.337ZM108.363 53.424C109.927 51.813 111.753 51.0293 113.926 51.0293C115.143 51.0293 116.317 51.2905 117.36 51.813C118.403 52.3355 119.186 52.858 119.664 53.3805L120.359 54.1207L118.707 55.7753C118.689 55.7572 118.671 55.7243 118.65 55.6856C118.62 55.631 118.584 55.565 118.534 55.514C118.447 55.3834 118.273 55.1657 117.969 54.8609C117.664 54.5561 117.36 54.2949 117.012 54.0336C116.665 53.8159 116.23 53.5982 115.665 53.424C115.1 53.2499 114.535 53.1628 113.926 53.1628C112.405 53.1628 111.101 53.7288 110.014 54.948C108.884 56.1236 108.363 57.5604 108.363 59.2585C108.363 60.9566 108.928 62.3935 110.014 63.5691C111.145 64.7447 112.448 65.3543 113.926 65.3543C114.839 65.3543 115.708 65.1366 116.534 64.7012C117.36 64.2658 117.969 63.8303 118.316 63.3949L118.838 62.7418L120.489 64.2222C120.446 64.3093 120.316 64.4399 120.185 64.5705C120.072 64.7222 119.826 64.9399 119.507 65.2236L119.506 65.2237L119.359 65.3543C118.925 65.7462 118.49 66.0509 118.012 66.3122C117.534 66.5734 116.925 66.8782 116.186 67.0959C115.448 67.3572 114.665 67.4442 113.926 67.4442C111.753 67.4442 109.927 66.6605 108.363 65.0495C106.798 63.4385 106.016 61.5227 106.016 59.215C106.016 56.9073 106.798 55.0351 108.363 53.424ZM134.351 63.8303C133.265 62.7854 132.7 61.5662 132.613 60.1294H145.391L145.565 58.9538C145.565 56.6896 144.826 54.7738 143.392 53.2934C141.958 51.7695 140.089 51.0293 138.002 51.0293C135.916 51.0293 134.091 51.813 132.569 53.424C131.048 55.0351 130.266 56.9509 130.266 59.2585C130.266 61.5662 131.048 63.482 132.613 65.093C134.177 66.704 136.003 67.4878 138.176 67.4878C138.959 67.4878 139.741 67.3572 140.48 67.1395C141.219 66.9218 141.827 66.617 142.305 66.3557C142.784 66.0945 143.218 65.7897 143.653 65.3978C144.087 65.0495 144.392 64.7447 144.479 64.6141C144.519 64.5542 144.568 64.4943 144.613 64.4386C144.667 64.3728 144.716 64.3129 144.739 64.2658L143.262 62.7854L142.697 63.4385C142.349 63.8739 141.74 64.3093 140.915 64.7447C140.089 65.1801 139.176 65.3978 138.176 65.3978C136.698 65.3978 135.438 64.8753 134.351 63.8303ZM132.613 58.1265C132.787 56.7767 133.395 55.6011 134.438 54.6432C135.481 53.6853 136.698 53.2063 138.046 53.2063C139.393 53.2063 140.567 53.6853 141.567 54.5997C142.566 55.514 143.131 56.6896 143.305 58.1265H132.613ZM13.4312 31.6107C13.4312 32.3944 12.7792 33.0475 11.9968 33.0475C11.2145 33.0475 10.5625 32.3944 10.5625 31.6107C10.5625 30.8269 11.2145 30.1738 11.9968 30.1738C12.7792 30.1738 13.4312 30.8269 13.4312 31.6107ZM17.1212 5.18103C17.3385 5.18103 17.4689 5.00687 17.4689 4.8327C17.4689 4.65854 17.3385 4.48438 17.1212 4.48438C16.9038 4.48438 16.7734 4.615 16.7734 4.8327C16.7734 5.05041 16.9038 5.18103 17.1212 5.18103ZM13.9074 9.49148C13.9074 9.70918 13.7335 9.88335 13.5162 9.88335C13.2989 9.88335 13.125 9.70918 13.125 9.49148C13.125 9.27377 13.2989 9.09961 13.5162 9.09961C13.7335 9.09961 13.9074 9.27377 13.9074 9.49148ZM9.43664 28.3451C9.78436 28.3451 10.0451 28.0839 10.0451 27.7356C10.0451 27.3872 9.78436 27.126 9.43664 27.126C9.08892 27.126 8.82812 27.3872 8.82812 27.7356C8.82812 28.0839 9.08892 28.3451 9.43664 28.3451ZM12.215 28.4326C12.215 28.7374 11.9977 28.9551 11.6935 28.9551C11.3892 28.9551 11.1719 28.6939 11.1719 28.4326C11.1719 28.1714 11.3892 27.9102 11.6935 27.9102C11.9977 27.9102 12.215 28.1279 12.215 28.4326ZM8.25992 12.4965C8.73804 12.4965 9.12923 12.1047 9.12923 11.6257C9.12923 11.1468 8.73804 10.7549 8.25992 10.7549C7.78181 10.7549 7.39062 11.1468 7.39062 11.6257C7.39062 12.1047 7.78181 12.4965 8.25992 12.4965ZM12.8248 12.497C12.8248 12.7582 12.6075 13.0195 12.3032 12.976C12.0424 12.976 11.7816 12.7582 11.8251 12.4535C11.8251 12.1922 12.0424 11.931 12.3467 11.9745C12.6075 11.9745 12.8248 12.2358 12.8248 12.497ZM9.12786 17.9384C9.34519 17.9384 9.51905 17.8078 9.51905 17.5901C9.51905 17.3724 9.38865 17.1982 9.17133 17.1982C8.954 17.1982 8.82361 17.3289 8.78014 17.5466C8.73668 17.7643 8.91054 17.9384 9.12786 17.9384ZM14.1682 38.2285C14.1682 38.5333 13.9074 38.751 13.6466 38.751C13.3858 38.751 13.125 38.4898 13.125 38.2285C13.125 37.9673 13.3858 37.7061 13.6466 37.7061C13.9508 37.7061 14.1682 37.9238 14.1682 38.2285ZM13.8663 35.6606C14.214 35.6606 14.4748 35.3993 14.4748 35.051C14.4748 34.7027 14.214 34.4414 13.8663 34.4414C13.5186 34.4414 13.2578 34.7027 13.2578 35.051C13.2578 35.3993 13.5186 35.6606 13.8663 35.6606ZM4.82143 37.4016C4.82143 37.6193 4.64757 37.7935 4.43025 37.7935C4.21292 37.7935 4.03906 37.6193 4.03906 37.4016C4.03906 37.1839 4.21292 37.0098 4.43025 37.0098C4.64757 37.0098 4.82143 37.1839 4.82143 37.4016ZM9.82311 25.5154C10.9097 25.5154 11.779 24.6445 11.779 23.556C11.779 22.4675 10.9097 21.5967 9.82311 21.5967C8.73649 21.5967 7.86719 22.4675 7.86719 23.556C7.86719 24.6445 8.73649 25.5154 9.82311 25.5154ZM7.13108 19.4191C7.13108 19.7675 6.87029 20.0287 6.52257 20.0287C6.17485 20.0287 5.91406 19.7675 5.91406 19.4191C5.91406 19.0708 6.17485 18.8096 6.52257 18.8096C6.87029 18.8096 7.13108 19.0708 7.13108 19.4191ZM7.72979 26.3419C7.72979 26.8209 7.33861 27.1692 6.90396 27.1692C6.46931 27.1692 6.07812 26.7773 6.07812 26.3419C6.07812 25.9065 6.46931 25.5146 6.90396 25.5146C7.33861 25.5146 7.72979 25.863 7.72979 26.3419ZM12.4733 41.4073C12.9079 41.4073 13.2557 41.059 13.2557 40.6236C13.2557 40.2317 12.9514 39.8398 12.5167 39.8398C12.0821 39.8398 11.7344 40.1882 11.7344 40.6236C11.7344 41.059 12.0386 41.4073 12.4733 41.4073ZM7.47229 3.74481C7.47229 3.91898 7.34189 4.09314 7.12457 4.09314C6.90724 4.09314 6.82031 3.91898 6.82031 3.74481C6.82031 3.57065 6.95071 3.39648 7.16803 3.39648C7.38536 3.39648 7.47229 3.57065 7.47229 3.74481ZM10.4337 15.892C10.651 15.892 10.7814 15.7178 10.7814 15.5436C10.7814 15.3259 10.651 15.1953 10.4337 15.1953C10.2163 15.1953 10.0859 15.3259 10.0859 15.5436C10.0859 15.7613 10.2163 15.892 10.4337 15.892ZM4.13635 1.87217C4.13635 2.04633 4.00596 2.2205 3.78863 2.2205C3.57131 2.2205 3.48438 2.08987 3.48438 1.87217C3.48438 1.65446 3.61477 1.56738 3.8321 1.56738C4.04942 1.56738 4.13635 1.69801 4.13635 1.87217ZM21.379 3.13416C21.5963 3.13416 21.7267 2.95999 21.7267 2.78583C21.7267 2.61166 21.5963 2.4375 21.379 2.4375C21.1616 2.4375 21.0312 2.56812 21.0312 2.78583C21.0312 3.00353 21.1616 3.13416 21.379 3.13416ZM2.34388 33.7009C2.34388 33.875 2.21348 34.0492 1.99616 34.0492C1.77883 34.0492 1.64844 33.9186 1.64844 33.7009C1.64844 33.4832 1.77883 33.3525 1.99616 33.3525C2.21348 33.3525 2.34388 33.5267 2.34388 33.7009ZM0.304255 29.3031C0.52158 29.3031 0.651975 29.1289 0.651975 28.9548C0.651975 28.7806 0.565045 28.6064 0.34772 28.6064C0.130395 28.6064 0 28.7371 0 28.9548C0 29.1725 0.08693 29.3031 0.304255 29.3031ZM18.7775 39.1875C18.7775 39.4923 18.5602 39.71 18.256 39.71C17.9517 39.71 17.7344 39.4923 17.7344 39.1875C17.7344 38.8827 17.9517 38.665 18.256 38.665C18.5602 38.665 18.7775 38.9263 18.7775 39.1875ZM6.08991 40.7982C6.30723 40.7982 6.43763 40.6241 6.43763 40.4499C6.43763 40.2757 6.30723 40.1016 6.08991 40.1016C5.87258 40.1016 5.74219 40.2322 5.74219 40.4499C5.74219 40.6676 5.87258 40.7982 6.08991 40.7982ZM20.2145 41.7985C20.2145 41.9727 20.0841 42.1469 19.8668 42.1469C19.6494 42.1469 19.5625 41.9727 19.5625 41.7985C19.5625 41.6244 19.6929 41.4502 19.9102 41.4502C20.1275 41.4502 20.2145 41.6244 20.2145 41.7985ZM9.30525 20.4634C9.52257 20.4634 9.69643 20.2893 9.69643 20.0716C9.69643 19.8539 9.52257 19.6797 9.30525 19.6797C9.08792 19.6797 8.91406 19.8539 8.91406 20.0716C8.91406 20.2893 9.08792 20.4634 9.30525 20.4634ZM6.39175 12.1907C6.39175 12.4084 6.21789 12.5826 6.00056 12.5826C5.78324 12.5826 5.60938 12.4084 5.60938 12.1907C5.60938 11.973 5.78324 11.7988 6.00056 11.7988C6.21789 11.7988 6.39175 11.973 6.39175 12.1907ZM16.3937 37.7068C16.9153 37.7068 17.35 37.2714 17.35 36.7489C17.35 36.2264 16.9153 35.791 16.3937 35.791C15.8722 35.791 15.4375 36.2264 15.4375 36.7489C15.4375 37.2714 15.8722 37.7068 16.3937 37.7068ZM19.4701 2.30727C19.4701 2.91685 18.992 3.3958 18.3835 3.3958C17.775 3.3958 17.2969 2.91685 17.2969 2.30727C17.2969 1.6977 17.775 1.21875 18.3835 1.21875C18.992 1.21875 19.4701 1.6977 19.4701 2.30727ZM9.65439 34.0489C9.95865 34.0489 10.176 33.8312 10.176 33.5264C10.176 33.2216 9.95865 33.0039 9.65439 33.0039C9.35014 33.0039 9.13281 33.2652 9.13281 33.5264C9.13281 33.7876 9.35014 34.0489 9.65439 34.0489ZM4.87029 5.74751C4.87029 6.00875 4.65297 6.22646 4.39218 6.22646C4.13139 6.22646 3.91406 6.00875 3.91406 5.74751C3.91406 5.48626 4.13139 5.26855 4.39218 5.26855C4.65297 5.26855 4.87029 5.48626 4.87029 5.74751ZM11.2173 11.1469C11.5215 11.1904 11.7388 10.9291 11.7388 10.6679C11.7388 10.4067 11.5215 10.1454 11.2607 10.1454C10.9565 10.1019 10.7391 10.3631 10.7391 10.6244C10.6957 10.9291 10.9565 11.1469 11.2173 11.1469ZM10.6926 13.7154C10.6926 14.0202 10.4318 14.2815 10.1275 14.2815C9.82329 14.2815 9.5625 14.0638 9.5625 13.7154C9.5625 13.4107 9.82329 13.1494 10.1275 13.1494C10.4318 13.1494 10.6926 13.4107 10.6926 13.7154ZM5.649 9.49174C5.86632 9.49174 6.04018 9.31758 6.04018 9.09988C6.04018 8.92571 5.86632 8.70801 5.649 8.70801C5.43167 8.70801 5.25781 8.88217 5.25781 9.09988C5.25781 9.31758 5.43167 9.49174 5.649 9.49174ZM1.21206 15.9798C1.21206 16.1975 1.0382 16.3716 0.820873 16.3716C0.603548 16.3716 0.429688 16.1975 0.429688 15.9798C0.429688 15.7621 0.603548 15.5879 0.820873 15.5879C1.0382 15.5879 1.21206 15.8056 1.21206 15.9798ZM7.47669 15.283C7.86788 15.283 8.17213 14.9782 8.17213 14.5863C8.17213 14.1944 7.86788 13.8896 7.47669 13.8896C7.08551 13.8896 6.78125 14.1944 6.78125 14.5863C6.78125 14.9782 7.08551 15.283 7.47669 15.283ZM9.21504 1.30667C9.21504 1.61146 8.99771 1.82916 8.69346 1.82916C8.3892 1.82916 8.17188 1.61146 8.17188 1.30667C8.17188 1.00188 8.3892 0.78418 8.69346 0.78418C8.99771 0.78418 9.21504 1.00188 9.21504 1.30667ZM11.4322 36.2696C11.693 36.2696 11.9538 36.0519 11.9538 35.7471C11.9538 35.4423 11.6496 35.2246 11.3888 35.2246C11.128 35.2246 10.8672 35.4423 10.8672 35.7471C10.8672 36.0519 11.1714 36.2696 11.4322 36.2696ZM3.52214 25.6883C3.52214 25.9496 3.30482 26.1237 3.04403 26.1237C2.78324 26.1237 2.60938 25.9496 2.60938 25.6883C2.60938 25.4271 2.8267 25.2529 3.08749 25.2529C3.34828 25.2529 3.52214 25.4271 3.52214 25.6883ZM3.2115 14.2378C3.42882 14.2378 3.60268 14.0637 3.60268 13.846C3.60268 13.6283 3.42882 13.4541 3.2115 13.4541C2.99417 13.4541 2.82031 13.6283 2.82031 13.846C2.82031 14.0637 2.99417 14.2378 3.2115 14.2378ZM26.4699 0.521752C26.4699 0.739457 26.296 0.913621 26.0787 0.913621C25.8614 0.913621 25.6875 0.739457 25.6875 0.521752C25.6875 0.304047 25.8614 0.129883 26.0787 0.129883C26.296 0.129883 26.4699 0.304047 26.4699 0.521752ZM2.17684 10.1451C2.39416 10.1451 2.56802 9.9709 2.56802 9.7532C2.56802 9.53549 2.3507 9.36133 2.13337 9.36133C1.91605 9.36133 1.74219 9.53549 1.74219 9.7532C1.74219 9.9709 1.95951 10.1451 2.17684 10.1451ZM15.9933 40.8421C15.9933 41.0598 15.8194 41.2339 15.6021 41.2339C15.3848 41.2339 15.2109 41.0598 15.2109 40.8421C15.2109 40.6244 15.3848 40.4502 15.6021 40.4502C15.8194 40.4502 15.9933 40.6244 15.9933 40.8421ZM3.08408 19.8975C3.34487 19.8975 3.60566 19.6798 3.60566 19.375C3.60566 19.1138 3.34487 18.8525 3.08408 18.8525C2.82329 18.8525 2.5625 19.0702 2.5625 19.375C2.5625 19.6798 2.82329 19.8975 3.08408 19.8975ZM5.048 31.7415C5.048 31.9592 4.87414 32.1333 4.65681 32.1333C4.43949 32.1333 4.26562 31.9592 4.26562 31.7415C4.26562 31.5238 4.43949 31.3496 4.65681 31.3496C4.87414 31.3496 5.048 31.5238 5.048 31.7415ZM4.95368 28.8248C5.17101 28.8248 5.34487 28.6506 5.34487 28.4329C5.34487 28.2152 5.17101 28.041 4.95368 28.041C4.73636 28.041 4.5625 28.2152 4.5625 28.4329C4.5625 28.6506 4.73636 28.8248 4.95368 28.8248ZM9.95424 38.969C9.95424 39.1867 9.78039 39.3609 9.56306 39.3609C9.34573 39.3609 9.17188 39.1867 9.17188 38.969C9.17188 38.7513 9.34573 38.5771 9.56306 38.5771C9.78039 38.5771 9.95424 38.7513 9.95424 38.969ZM1.25837 38.0982C1.4757 38.0982 1.64956 37.924 1.64956 37.7063C1.64956 37.4886 1.4757 37.3145 1.25837 37.3145C1.04105 37.3145 0.867188 37.4886 0.867188 37.7063C0.867188 37.924 1.04105 38.0982 1.25837 38.0982ZM9.16816 36.5313C9.16816 36.8361 8.90737 37.0538 8.64658 37.0538C8.38579 37.0538 8.125 36.7925 8.125 36.5313C8.125 36.27 8.38579 36.0088 8.64658 36.0088C8.90737 36.0088 9.16816 36.2265 9.16816 36.5313ZM11.5636 4.74521C11.9983 4.74521 12.346 4.39688 12.346 3.96147C12.346 3.52606 11.9983 3.17773 11.5636 3.17773C11.129 3.17773 10.7812 3.52606 10.7812 3.96147C10.7812 4.39688 11.129 4.74521 11.5636 4.74521ZM11.3055 7.61926C11.3055 8.75133 10.3927 9.70923 9.21913 9.70923C8.04558 9.70923 7.13281 8.79487 7.13281 7.61926C7.13281 6.44366 8.04558 5.5293 9.21913 5.5293C10.3927 5.5293 11.3055 6.4872 11.3055 7.61926ZM6.65254 35.2677C7.21758 35.2677 7.6957 34.7887 7.6957 34.2227C7.6957 33.6131 7.21758 33.1777 6.65254 33.1777C6.08749 33.1777 5.60938 33.6567 5.60938 34.2227C5.60938 34.7887 6.08749 35.2677 6.65254 35.2677ZM6.69284 22.3799C6.69284 23.0765 6.1278 23.6426 5.43236 23.6426C4.73692 23.6426 4.17188 23.0765 4.17188 22.3799C4.17188 21.6832 4.73692 21.1172 5.43236 21.1172C6.1278 21.1172 6.69284 21.6832 6.69284 22.3799ZM7.3507 30.9145C7.69842 30.9145 7.95921 30.6532 7.95921 30.3049C7.95921 29.9566 7.69842 29.6953 7.3507 29.6953C7.00298 29.6953 6.74219 29.9566 6.74219 30.3049C6.74219 30.6532 7.00298 30.9145 7.3507 30.9145ZM6.30693 16.8511C6.30693 17.2865 5.95921 17.6349 5.52456 17.6349C5.08991 17.6349 4.74219 17.2865 4.74219 16.8511C4.74219 16.4157 5.08991 16.0674 5.52456 16.0674C5.95921 16.0674 6.30693 16.4157 6.30693 16.8511ZM14.69 4.61546C14.9943 4.61546 15.2551 4.35422 15.2551 4.04943C15.2551 3.74464 14.9943 3.4834 14.69 3.4834C14.3858 3.4834 14.125 3.74464 14.125 4.04943C14.125 4.35422 14.3858 4.61546 14.69 4.61546ZM14.9504 1.26232C14.9504 1.56711 14.6896 1.82835 14.3854 1.82835C14.0811 1.82835 13.8203 1.56711 13.8203 1.26232C13.8203 0.957535 14.0811 0.696289 14.3854 0.696289C14.6896 0.696289 14.9504 0.957535 14.9504 1.26232ZM13.1662 7.7934C13.6443 7.7934 14.0355 7.40153 14.0355 6.92258C14.0355 6.44363 13.6443 6.05176 13.1662 6.05176C12.6881 6.05176 12.2969 6.44363 12.2969 6.92258C12.2969 7.40153 12.6881 7.7934 13.1662 7.7934ZM16.2961 7.27168C16.2961 7.62001 15.9919 7.9248 15.6442 7.9248C15.2964 7.9248 14.9922 7.66355 14.9922 7.27168C14.9922 6.87981 15.2964 6.66211 15.6442 6.66211C15.9919 6.66211 16.2961 6.92336 16.2961 7.27168ZM25.426 1.95924C27.947 0.914261 30.7722 0.304688 33.6843 0.304688C45.5068 0.304688 55.0257 9.8837 55.0257 21.7269C55.0257 33.57 45.4634 43.149 33.6409 43.149C30.1637 43.149 26.9038 42.3217 23.9916 40.8413C23.9916 41.4074 23.5135 41.8863 22.9485 41.8863C22.3834 41.8863 21.9053 41.4074 21.9053 40.8413C21.9053 40.493 22.0792 40.1447 22.3834 39.9705C21.6445 39.5351 20.9491 39.0126 20.2971 38.4901C20.5144 38.3595 20.6448 38.0983 20.6448 37.837C20.6448 37.3581 20.2536 36.9662 19.7755 36.9662C19.4713 36.9662 19.167 37.1404 19.0366 37.4016C17.9065 36.2695 16.8634 35.0939 15.9506 33.7442C15.8202 33.8312 15.6898 33.8748 15.5594 33.8748C15.1248 33.8748 14.7771 33.5265 14.7771 33.091C14.7771 32.8298 14.9074 32.5686 15.1248 32.3944C14.864 31.959 14.6467 31.5236 14.4293 31.0882L14.4293 31.0882C14.7771 30.9575 15.0378 30.6528 15.0378 30.2609C15.0378 29.7819 14.6467 29.3901 14.1685 29.3901C13.9947 29.3901 13.8643 29.4336 13.7339 29.5207C13.4296 28.737 13.1688 27.9532 12.9515 27.1695C12.8646 27.213 12.7342 27.2566 12.6038 27.2566C12.1692 27.2566 11.778 26.8647 11.778 26.4293C11.778 25.9939 12.1257 25.602 12.6038 25.602C12.3865 24.4699 12.2561 23.2943 12.2561 22.1187C12.2995 22.1623 12.3865 22.1623 12.4734 22.1623C12.8646 22.1623 13.1688 21.8575 13.1688 21.4656C13.1688 21.0737 12.8646 20.7689 12.4734 20.7689C12.4225 20.7689 12.3716 20.7839 12.3294 20.7963C12.2995 20.805 12.2741 20.8125 12.2561 20.8125C12.2778 20.5512 12.2996 20.3008 12.3213 20.0504C12.343 19.8001 12.3647 19.5498 12.3865 19.2886C12.2561 19.3756 12.1257 19.4192 11.9518 19.4192C11.4737 19.4192 11.0391 18.9838 11.0391 18.4613C11.0391 17.9388 11.4302 17.5034 11.9518 17.5034C12.2126 17.5034 12.4299 17.634 12.6038 17.8082C12.6473 17.4163 12.7342 17.068 12.8211 16.7197L12.8211 16.7196C13.1688 17.1115 13.647 17.3292 14.1685 17.3292C15.1682 17.3292 15.9941 16.5019 15.9941 15.5005C15.9941 14.499 15.1682 13.6718 14.1685 13.6718C14.0381 13.6718 13.9078 13.6718 13.7774 13.7153C13.9947 13.1493 14.2555 12.5832 14.5163 12.0608C14.2555 11.843 14.0816 11.4947 14.0816 11.1029C14.0816 10.4062 14.6467 9.84016 15.3421 9.84016C15.4725 9.84016 15.6464 9.8837 15.7767 9.92724C15.8644 9.80176 15.9521 9.67266 16.0408 9.54203C16.26 9.21939 16.4855 8.8874 16.733 8.57747C16.9503 8.7081 17.2546 8.79518 17.5588 8.79518C18.515 8.79518 19.254 8.01144 19.254 7.09708C19.254 6.70521 19.167 6.35688 18.9497 6.09564C19.1774 5.86758 19.405 5.67271 19.6616 5.45308C19.6989 5.42112 19.7369 5.38863 19.7755 5.35544C19.6451 5.22482 19.5582 5.05065 19.5582 4.87649C19.5582 4.52816 19.8625 4.26692 20.2102 4.26692C20.471 4.26692 20.6883 4.39754 20.7752 4.61524C21.7315 3.87505 22.8181 3.22193 23.9047 2.6559C23.7743 2.52528 23.6874 2.35111 23.6874 2.13341C23.6874 1.65446 24.0786 1.26259 24.5567 1.26259C24.9913 1.26259 25.3391 1.56738 25.426 1.95924ZM30.946 1.74154C30.946 1.52383 30.7722 1.34967 30.5549 1.34967C30.3375 1.34967 30.1637 1.52383 30.1637 1.74154C30.1637 1.95924 30.3375 2.13341 30.5549 2.13341C30.7722 2.13341 30.946 1.95924 30.946 1.74154ZM28.9032 3.35256C28.9032 2.6559 28.3381 2.08987 27.6427 2.08987C26.9473 2.08987 26.3822 2.6559 26.3822 3.35256C26.3822 4.04921 26.9473 4.61524 27.6427 4.61524C28.3381 4.61524 28.9032 4.04921 28.9032 3.35256ZM27.295 7.18416C27.5123 7.18416 27.6427 7.01 27.6427 6.83583C27.6427 6.66167 27.5123 6.48751 27.295 6.48751C27.0777 6.48751 26.9473 6.61813 26.9473 6.83583C26.9473 7.05354 27.0777 7.18416 27.295 7.18416ZM24.6871 7.14062C24.9044 7.14062 25.0783 6.96646 25.0783 6.74875C25.0783 6.57459 24.9044 6.35688 24.6871 6.35688C24.4698 6.35688 24.2959 6.53105 24.2959 6.74875C24.2959 6.96646 24.4698 7.14062 24.6871 7.14062ZM24.6001 4.17984C24.6001 3.87505 24.3394 3.6138 24.0351 3.6138C23.7308 3.6138 23.4701 3.87505 23.4701 4.17984C23.4701 4.48462 23.7308 4.74587 24.0351 4.74587C24.3394 4.74587 24.6001 4.48462 24.6001 4.17984ZM21.8184 5.61669C21.8184 5.39898 21.6445 5.26836 21.4707 5.26836C21.2968 5.26836 21.1229 5.39898 21.1229 5.61669C21.1229 5.83439 21.2533 5.96501 21.4707 5.96501C21.688 5.96501 21.8184 5.83439 21.8184 5.61669ZM22.8181 8.01144C22.8181 7.31479 22.253 6.74875 21.5576 6.74875C20.8622 6.74875 20.2971 7.31479 20.2971 8.01144C20.2971 8.7081 20.8622 9.27413 21.5576 9.27413C22.253 9.27413 22.8181 8.7081 22.8181 8.01144ZM21.9488 11.2335C22.1661 11.2335 22.34 11.0593 22.34 10.8416C22.34 10.6674 22.1661 10.4497 21.9488 10.4497C21.7315 10.4497 21.5576 10.6239 21.5576 10.8416C21.5576 11.0593 21.7315 11.2335 21.9488 11.2335ZM20.2971 12.1914C20.2971 11.8866 20.0363 11.6253 19.7321 11.6253C19.3843 11.6253 19.167 11.8866 19.167 12.1914C19.167 12.4962 19.4278 12.7574 19.7321 12.7574C20.0363 12.7574 20.2971 12.4962 20.2971 12.1914ZM19.9059 25.4278C19.9059 24.9924 19.5582 24.6441 19.1236 24.6441C18.6889 24.6441 18.3412 24.9924 18.3412 25.4278C18.3412 25.8632 18.6889 26.2116 19.1236 26.2116C19.5582 26.2116 19.9059 25.8632 19.9059 25.4278ZM18.7324 20.1594C18.515 20.1594 18.3846 20.3335 18.3846 20.5077C18.3846 20.6819 18.515 20.856 18.7324 20.856C18.9497 20.856 19.0801 20.7254 19.0801 20.5077C19.0801 20.29 18.9497 20.1594 18.7324 20.1594ZM19.2974 14.499C19.2974 14.2813 19.1236 14.1507 18.9497 14.1507C18.7758 14.1507 18.602 14.2378 18.602 14.4555C18.602 14.6732 18.7758 14.8038 18.9497 14.8038C19.1236 14.8038 19.2974 14.7168 19.2974 14.499ZM18.7324 10.4062C18.7324 10.0143 18.4281 9.75308 18.0804 9.75308C17.7327 9.75308 17.4284 10.0143 17.4284 10.4062C17.4284 10.7981 17.7327 11.0593 18.0804 11.0593C18.4281 11.0593 18.7324 10.7981 18.7324 10.4062ZM17.95 15.8488C17.95 15.6311 17.7761 15.4569 17.5588 15.4569C17.3415 15.4569 17.1676 15.6311 17.1676 15.8488C17.1676 16.0665 17.3415 16.2407 17.5588 16.2407C17.7761 16.2407 17.95 16.0665 17.95 15.8488ZM17.6457 22.8154C17.8631 22.8154 17.9935 22.6412 17.9935 22.467C17.9935 22.2929 17.8631 22.1187 17.6457 22.1187C17.4284 22.1187 17.298 22.2493 17.298 22.467C17.298 22.6848 17.4284 22.8154 17.6457 22.8154ZM17.8631 18.4613C17.8631 18.2436 17.6892 18.0694 17.4719 18.0694C17.2546 18.0694 17.0807 18.2436 17.0807 18.4613C17.0807 18.679 17.2546 18.8531 17.4719 18.8531C17.6892 18.8531 17.8631 18.679 17.8631 18.4613ZM16.3418 12.3655C16.1245 12.3655 15.9071 12.5397 15.9071 12.8009C15.9071 13.0622 16.1245 13.2364 16.3418 13.2364C16.5591 13.2364 16.7764 13.0187 16.7764 12.8009C16.7764 12.5832 16.5591 12.3655 16.3418 12.3655ZM16.646 24.6441C16.646 24.4264 16.4722 24.2958 16.2983 24.2958C16.1245 24.2958 15.9506 24.4264 15.9506 24.6441C15.9506 24.8618 16.081 24.9924 16.2983 24.9924C16.5157 24.9924 16.646 24.8618 16.646 24.6441ZM15.2552 21.7704C15.5594 21.7704 15.7767 21.5527 15.7767 21.2479C15.7767 20.9431 15.5594 20.7254 15.2552 20.7254C14.9509 20.7254 14.7336 20.9431 14.7336 21.2479C14.7336 21.5527 14.9509 21.7704 15.2552 21.7704ZM13.4731 23.991C13.4731 24.2087 13.647 24.3393 13.8208 24.3393C14.0381 24.3393 14.1685 24.2087 14.1685 23.991C14.1685 23.7733 14.0381 23.6427 13.8208 23.6427C13.6035 23.6427 13.4731 23.7733 13.4731 23.991ZM14.4728 18.0694C14.0816 18.0694 13.7774 18.3742 13.7774 18.7661C13.7774 19.1579 14.0816 19.4627 14.4728 19.4627C14.864 19.4627 15.1682 19.1579 15.1682 18.7661C15.1682 18.3742 14.864 18.0694 14.4728 18.0694ZM14.3859 27.1695C14.3859 27.8226 14.9509 28.3886 15.6029 28.3886C16.2983 28.3886 16.8199 27.8226 16.8199 27.1695C16.8199 26.5164 16.2549 25.9503 15.6029 25.9503C14.9509 25.9503 14.3859 26.5164 14.3859 27.1695ZM17.1242 29.3901C16.8634 29.3901 16.646 29.6078 16.646 29.869C16.646 30.1303 16.8634 30.348 17.1242 30.348C17.385 30.348 17.6023 30.1303 17.6023 29.869C17.6023 29.6078 17.385 29.3901 17.1242 29.3901ZM17.9065 31.48C17.4284 31.48 17.0372 31.8719 17.0372 32.3509C17.0372 32.8298 17.4284 33.2217 17.9065 33.2217C18.3846 33.2217 18.7758 32.8298 18.7758 32.3509C18.7758 31.8719 18.3846 31.48 17.9065 31.48ZM18.3846 35.0504C18.3846 35.2681 18.5585 35.3987 18.7324 35.3987C18.9062 35.3987 19.0801 35.2681 19.0801 35.0504C19.0801 34.8327 18.9497 34.7021 18.7324 34.7021C18.515 34.7021 18.3846 34.8327 18.3846 35.0504ZM19.0801 29.0853C19.0801 29.4771 19.3409 29.7819 19.7321 29.7819C20.0798 29.7819 20.384 29.4771 20.384 29.0853C20.384 28.6934 20.0798 28.3886 19.7321 28.3886C19.3843 28.3886 19.0801 28.6934 19.0801 29.0853ZM20.7752 31.6107C20.5579 31.6107 20.384 31.7848 20.384 32.0025C20.384 32.2202 20.5579 32.3944 20.7752 32.3944C20.9925 32.3944 21.1664 32.2202 21.1664 32.0025C21.1664 31.7848 20.9925 31.6107 20.7752 31.6107ZM20.6448 34.7456C20.6448 35.181 20.9925 35.5293 21.4272 35.5293C21.8184 35.5293 22.2096 35.181 22.2096 34.7456C22.2096 34.3102 21.8619 33.9619 21.4272 33.9619C20.9925 33.9619 20.6448 34.3102 20.6448 34.7456ZM22.8615 38.1853C22.8615 38.4466 23.0789 38.7078 23.3831 38.7078C23.6874 38.7078 23.9047 38.4901 23.9047 38.1853C23.9047 37.8806 23.6874 37.6628 23.3831 37.6628C23.0789 37.6628 22.8615 37.9241 22.8615 38.1853ZM23.8612 34.5279C23.8612 34.7456 24.0351 34.8762 24.209 34.8762C24.3828 34.8762 24.5567 34.7456 24.5567 34.5279C24.5567 34.3102 24.4263 34.1796 24.209 34.1796C23.9916 34.1796 23.8612 34.3102 23.8612 34.5279ZM26.2084 40.3624C26.2084 40.5801 26.3822 40.7107 26.5561 40.7107C26.7299 40.7107 26.9038 40.5801 26.9038 40.3624C26.9038 40.1447 26.7734 40.0141 26.5561 40.0141C26.3387 40.0141 26.2084 40.1447 26.2084 40.3624ZM25.9041 37.4016C25.9041 37.837 26.2518 38.1853 26.6865 38.1853C27.1211 38.1853 27.4688 37.837 27.4688 37.4016C27.4688 36.9662 27.1211 36.6179 26.6865 36.6179C26.2518 36.6179 25.9041 36.9662 25.9041 37.4016ZM28.8163 39.927C28.8163 40.1447 28.9901 40.3189 29.2074 40.3189C29.4248 40.3189 29.5986 40.1447 29.5986 39.927C29.5986 39.7093 29.4248 39.5351 29.2074 39.5351C28.9901 39.5351 28.8163 39.7093 28.8163 39.927ZM20.8622 21.7269C20.8622 28.824 26.5995 34.615 33.6843 34.615C40.7691 34.615 46.5065 28.824 46.5065 21.7269C46.5065 14.6297 40.7691 8.88226 33.6843 8.88226C26.5995 8.88226 20.8622 14.6297 20.8622 21.7269Z" fill="#000D56" fill-opacity="0.35"/>
</svg>
