<svg width="72" height="72" viewBox="0 0 72 72" fill="none" xmlns="http://www.w3.org/2000/svg">
<g clip-path="url(#clip0_2422_9793)">
<path d="M46.6198 64.6201C46.0298 64.6182 45.4534 64.4425 44.9628 64.1148C44.4722 63.7871 44.0891 63.322 43.8615 62.7777C43.6338 62.2334 43.5717 61.634 43.683 61.0546C43.7942 60.4752 44.0738 59.9414 44.4868 59.5201C46.7368 57.259 47.9999 54.1989 47.9999 51.0091C47.9999 47.8193 46.7368 44.7592 44.4868 42.4981C43.9426 41.9294 43.6438 41.1696 43.6547 40.3825C43.6656 39.5955 43.9854 38.8443 44.5451 38.2909C45.1048 37.7374 45.8596 37.4262 46.6467 37.4242C47.4339 37.4221 48.1902 37.7296 48.7528 38.2801C52.1137 41.664 54 46.2398 54 51.0091C54 55.7784 52.1137 60.3542 48.7528 63.7381C48.4731 64.0187 48.1406 64.2411 47.7745 64.3924C47.4084 64.5438 47.0159 64.6212 46.6198 64.6201ZM27.4888 63.7531C28.0544 63.1937 28.3746 62.4326 28.3791 61.6371C28.3836 60.8416 28.072 60.0769 27.5128 59.5111C25.2627 57.25 23.9996 54.1899 23.9996 51.0001C23.9996 47.8102 25.2627 44.7502 27.5128 42.4891C27.7973 42.2106 28.0235 41.8783 28.1783 41.5115C28.3331 41.1448 28.4134 40.7508 28.4144 40.3527C28.4154 39.9546 28.3372 39.5603 28.1843 39.1927C28.0314 38.8251 27.8068 38.4917 27.5237 38.2118C27.2406 37.9318 26.9046 37.7111 26.5353 37.5623C26.1661 37.4136 25.7709 37.3398 25.3728 37.3453C24.9747 37.3509 24.5817 37.4356 24.2167 37.5945C23.8517 37.7534 23.522 37.9834 23.2468 38.2711C19.8858 41.655 17.9995 46.2308 17.9995 51.0001C17.9995 55.7694 19.8858 60.3452 23.2468 63.7291C23.8062 64.2947 24.5673 64.615 25.3628 64.6195C26.1583 64.624 26.923 64.3123 27.4888 63.7531ZM58.2958 71.0131C63.2543 65.5268 65.9995 58.3951 65.9995 51.0001C65.9995 43.6051 63.2543 36.4734 58.2958 30.9871C57.7619 30.3971 57.0155 30.0434 56.2208 30.0037C55.4261 29.9641 54.6482 30.2417 54.0583 30.7756C53.4683 31.3095 53.1146 32.0559 53.0749 32.8505C53.0352 33.6452 53.3129 34.4231 53.8468 35.0131C57.8069 39.3962 59.9993 45.093 59.9993 51.0001C59.9993 56.9072 57.8069 62.604 53.8468 66.9871C53.3129 67.5771 53.0352 68.355 53.0749 69.1497C53.1146 69.9443 53.4683 70.6907 54.0583 71.2246C54.6482 71.7585 55.4261 72.0361 56.2208 71.9965C57.0155 71.9568 57.7619 71.6031 58.2958 71.0131ZM17.9398 71.2231C18.5295 70.6895 18.8832 69.9435 18.9232 69.1492C18.9631 68.3549 18.686 67.5772 18.1528 66.9871C14.1927 62.604 12.0003 56.9072 12.0003 51.0001C12.0003 45.093 14.1927 39.3962 18.1528 35.0131C18.4171 34.721 18.6213 34.3796 18.7538 34.0086C18.8862 33.6375 18.9443 33.244 18.9246 32.8505C18.905 32.4571 18.808 32.0713 18.6393 31.7153C18.4706 31.3593 18.2334 31.0399 17.9413 30.7756C17.6491 30.5112 17.3078 30.307 16.9367 30.1746C16.5657 30.0421 16.1722 29.9841 15.7787 30.0037C14.984 30.0434 14.2376 30.3971 13.7038 30.9871C8.74526 36.4734 6 43.6051 6 51.0001C6 58.3951 8.74526 65.5268 13.7038 71.0131C14.2378 71.6024 14.984 71.9556 15.7783 71.995C16.5726 72.0344 17.3501 71.7567 17.9398 71.2231ZM35.9998 46.5001C35.1097 46.5001 34.2397 46.764 33.4997 47.2585C32.7597 47.753 32.1829 48.4558 31.8423 49.278C31.5017 50.1003 31.4126 51.0051 31.5862 51.878C31.7599 52.7509 32.1884 53.5527 32.8178 54.1821C33.4471 54.8114 34.2489 55.24 35.1219 55.4136C35.9948 55.5873 36.8996 55.4981 37.7218 55.1576C38.5441 54.817 39.2469 54.2402 39.7414 53.5002C40.2358 52.7601 40.4998 51.8901 40.4998 51.0001C40.4998 49.8066 40.0257 48.662 39.1817 47.8181C38.3378 46.9742 37.1932 46.5001 35.9998 46.5001Z" fill="#E94362" fill-opacity="0.5"/>
<path d="M20.1809 17.7781H24.7809V19.9981H17.3809V6.03812H20.1809V17.7781Z" fill="#E94362" fill-opacity="0.5"/>
<path d="M27.9805 7.59812C27.4872 7.59812 27.0739 7.44478 26.7405 7.13812C26.4205 6.81812 26.2605 6.42478 26.2605 5.95812C26.2605 5.49145 26.4205 5.10478 26.7405 4.79812C27.0739 4.47812 27.4872 4.31812 27.9805 4.31812C28.4739 4.31812 28.8805 4.47812 29.2005 4.79812C29.5339 5.10478 29.7005 5.49145 29.7005 5.95812C29.7005 6.42478 29.5339 6.81812 29.2005 7.13812C28.8805 7.44478 28.4739 7.59812 27.9805 7.59812ZM29.3605 8.91812V19.9981H26.5605V8.91812H29.3605Z" fill="#E94362" fill-opacity="0.5"/>
<path d="M36.747 17.4181L39.547 8.91812H42.527L38.427 19.9981H35.027L30.947 8.91812H33.947L36.747 17.4181Z" fill="#E94362" fill-opacity="0.5"/>
<path d="M54.3996 14.2181C54.3996 14.6181 54.3729 14.9781 54.3196 15.2981H46.2196C46.2863 16.0981 46.5663 16.7248 47.0596 17.1781C47.5529 17.6314 48.1596 17.8581 48.8796 17.8581C49.9196 17.8581 50.6596 17.4114 51.0996 16.5181H54.1196C53.7996 17.5848 53.1863 18.4648 52.2796 19.1581C51.3729 19.8381 50.2596 20.1781 48.9396 20.1781C47.8729 20.1781 46.9129 19.9448 46.0596 19.4781C45.2196 18.9981 44.5596 18.3248 44.0796 17.4581C43.6129 16.5914 43.3796 15.5914 43.3796 14.4581C43.3796 13.3114 43.6129 12.3048 44.0796 11.4381C44.5463 10.5714 45.1996 9.90478 46.0396 9.43812C46.8796 8.97145 47.8463 8.73812 48.9396 8.73812C49.9929 8.73812 50.9329 8.96478 51.7596 9.41812C52.5996 9.87145 53.2463 10.5181 53.6996 11.3581C54.1663 12.1848 54.3996 13.1381 54.3996 14.2181ZM51.4996 13.4181C51.4863 12.6981 51.2263 12.1248 50.7196 11.6981C50.2129 11.2581 49.5929 11.0381 48.8596 11.0381C48.1663 11.0381 47.5796 11.2514 47.0996 11.6781C46.6329 12.0914 46.3463 12.6714 46.2396 13.4181H51.4996Z" fill="#E94362" fill-opacity="0.5"/>
</g>
<defs>
<clipPath id="clip0_2422_9793">
<rect width="72" height="72" fill="white"/>
</clipPath>
</defs>
</svg>
