<svg width="16" height="16" viewBox="0 0 16 16" fill="none" xmlns="http://www.w3.org/2000/svg">
<path d="M8.00163 0C4.80647 0 2.20703 2.59944 2.20703 5.79456C2.20703 9.75981 7.39262 15.581 7.61341 15.8269C7.82078 16.0579 8.18284 16.0575 8.38984 15.8269C8.61063 15.581 13.7962 9.75981 13.7962 5.79456C13.7962 2.59944 11.1968 0 8.00163 0ZM8.00163 14.679C6.25641 12.606 3.25053 8.516 3.25053 5.79462C3.25053 3.17481 5.38184 1.0435 8.00163 1.0435C10.6214 1.0435 12.7527 3.17481 12.7527 5.79459C12.7527 8.51609 9.74728 12.6053 8.00163 14.679Z" fill="#6E7288"/>
<path d="M8.00131 2.87891C6.39375 2.87891 5.08594 4.18675 5.08594 5.79431C5.08594 7.40188 6.39378 8.70972 8.00131 8.70972C9.60884 8.70972 10.9167 7.40188 10.9167 5.79431C10.9167 4.18675 9.60884 2.87891 8.00131 2.87891ZM8.00131 7.66622C6.96913 7.66622 6.12944 6.8265 6.12944 5.79431C6.12944 4.76213 6.96916 3.92241 8.00131 3.92241C9.03347 3.92241 9.87319 4.76213 9.87319 5.79431C9.87319 6.8265 9.03347 7.66622 8.00131 7.66622Z" fill="#6E7288"/>
</svg>
