<svg width="864" height="699" viewBox="0 0 864 699" fill="none" xmlns="http://www.w3.org/2000/svg">
<path d="M630.946 513.634C630.134 525.277 639.159 535.656 650.802 536.468C662.444 537.281 672.823 528.256 673.636 516.613C674.448 504.971 665.423 494.592 653.78 493.779C642.138 492.967 631.759 501.992 630.946 513.634Z" fill="#001489" fill-opacity="0.04"/>
<path d="M598.548 111.652C598.367 114.239 600.127 116.961 603.361 117.187C606.595 117.413 608.671 115.608 608.897 112.374C609.122 109.14 607.317 107.064 604.083 106.838C600.849 106.612 598.728 109.064 598.548 111.652Z" fill="#001489" fill-opacity="0.04"/>
<path d="M646.756 184.561C646.53 187.795 648.937 190.562 652.171 190.788C655.405 191.014 658.173 188.607 658.398 185.373C658.624 182.139 656.217 179.371 652.983 179.146C649.749 178.92 646.982 181.327 646.756 184.561Z" fill="#001489" fill-opacity="0.04"/>
<path d="M685.406 459.584C685.045 464.759 688.655 468.911 693.829 469.272C699.004 469.633 703.155 466.023 703.517 460.848C703.878 455.674 700.268 451.522 695.093 451.161C689.919 450.8 685.767 454.41 685.406 459.584Z" fill="#001489" fill-opacity="0.04"/>
<path d="M652.357 467.681C652.041 472.209 655.049 475.669 659.577 475.985C664.105 476.301 667.609 472.645 667.88 468.765C668.151 464.884 665.188 460.777 660.66 460.461C656.133 460.145 652.673 463.154 652.357 467.681Z" fill="#001489" fill-opacity="0.04"/>
<path d="M715.694 221.222C715.197 228.336 720.612 234.564 727.727 235.06C734.842 235.557 741.07 230.142 741.566 223.027C742.063 215.912 736.648 209.685 729.533 209.188C722.418 208.692 716.19 214.107 715.694 221.222Z" fill="#001489" fill-opacity="0.04"/>
<path d="M659.811 230.313C659.54 234.194 662.503 238.3 667.076 237.97C670.957 238.24 675.063 235.277 674.732 230.704C675.003 226.824 672.04 222.717 667.467 223.048C663.586 222.777 660.081 226.432 659.811 230.313Z" fill="#001489" fill-opacity="0.04"/>
<path d="M703.67 309.427C703.445 312.661 705.896 314.782 709.13 315.008C712.364 315.233 715.132 312.827 714.711 309.547C714.29 306.268 712.485 304.192 709.251 303.967C706.017 303.741 703.896 306.193 703.67 309.427Z" fill="#001489" fill-opacity="0.04"/>
<path d="M613.084 611.18C612.768 615.708 616.423 619.213 620.304 619.484C624.184 619.754 628.336 616.144 628.607 612.264C628.878 608.383 625.268 604.231 621.387 603.96C616.859 603.644 613.399 606.653 613.084 611.18Z" fill="#001489" fill-opacity="0.04"/>
<path d="M611.851 563.652C611.49 568.826 615.1 572.978 620.275 573.339C625.449 573.7 629.601 570.09 629.962 564.916C630.323 559.741 626.713 555.59 621.538 555.228C616.364 554.867 612.212 558.477 611.851 563.652Z" fill="#001489" fill-opacity="0.04"/>
<path d="M752.99 608.597C752.765 611.831 755.171 614.599 758.405 614.824C761.639 615.05 764.407 612.643 764.633 609.409C764.859 606.175 762.452 603.407 759.218 603.182C755.984 602.956 753.216 605.363 752.99 608.597Z" fill="#001489" fill-opacity="0.04"/>
<path d="M663.874 395.691C662.745 411.861 674.779 425.7 690.949 426.828C707.119 427.956 720.958 415.923 722.086 399.753C723.214 383.583 711.181 369.744 695.011 368.615C678.841 367.487 665.002 379.52 663.874 395.691Z" fill="#001489" fill-opacity="0.04"/>
<path d="M737.344 339.071C736.982 344.245 740.592 348.397 745.767 348.758C750.941 349.119 755.093 345.509 755.454 340.335C755.815 335.16 752.205 331.008 747.031 330.647C741.856 330.286 737.705 333.896 737.344 339.071Z" fill="#001489" fill-opacity="0.04"/>
<path d="M531.838 43.3014C531.523 47.829 535.133 51.9807 539.66 52.2966C544.188 52.6125 548.339 49.0025 548.655 44.4749C548.971 39.9472 545.361 35.7956 540.834 35.4797C536.306 35.1637 532.154 38.7737 531.838 43.3014Z" fill="#001489" fill-opacity="0.04"/>
<path d="M721.119 441.282C720.622 448.397 726.082 453.978 732.55 454.429C739.018 454.88 745.246 449.465 745.697 442.997C746.148 436.529 740.733 430.302 734.265 429.85C727.797 429.399 721.615 434.167 721.119 441.282Z" fill="#001489" fill-opacity="0.04"/>
<path d="M624.182 647.702C623.731 654.171 628.544 659.706 635.012 660.157C641.48 660.609 646.369 655.75 646.82 649.282C647.272 642.814 642.458 637.279 635.99 636.827C629.522 636.376 624.588 641.881 624.182 647.702Z" fill="#001489" fill-opacity="0.04"/>
<path d="M748.445 105.863C748.264 108.45 750.024 111.173 753.258 111.398C756.492 111.624 757.966 109.127 758.147 106.54C758.327 103.952 756.567 101.23 753.333 101.004C750.099 100.778 748.625 103.275 748.445 105.863Z" fill="#001489" fill-opacity="0.04"/>
<path d="M687.048 277.722C686.867 280.309 688.627 283.032 691.861 283.257C695.095 283.483 697.171 281.678 697.397 278.444C697.622 275.21 695.817 273.134 692.583 272.908C689.349 272.683 687.274 274.488 687.048 277.722Z" fill="#001489" fill-opacity="0.04"/>
<path d="M800.193 81.5244C800.012 84.1117 801.772 86.8343 805.006 87.06C808.24 87.2856 809.669 85.4355 809.895 82.2015C810.121 78.9674 808.271 77.5384 805.036 77.3128C801.802 77.0871 800.373 78.9372 800.193 81.5244Z" fill="#001489" fill-opacity="0.04"/>
<path d="M537.274 76.8263C537.094 79.4135 538.854 82.1362 542.088 82.3618C545.322 82.5875 547.398 80.7825 547.623 77.5485C547.849 74.3144 546.044 72.2386 542.81 72.0129C539.576 71.7873 537.455 74.2391 537.274 76.8263Z" fill="#001489" fill-opacity="0.04"/>
<path d="M793.704 556.192C793.524 558.779 795.283 561.501 798.517 561.727C801.751 561.953 803.827 560.148 804.053 556.914C804.279 553.68 802.474 551.604 799.24 551.378C796.006 551.153 793.885 553.604 793.704 556.192Z" fill="#001489" fill-opacity="0.04"/>
<path d="M823.851 487.449C823.67 490.036 825.43 492.758 828.664 492.984C831.898 493.21 833.327 491.36 833.553 488.126C833.779 484.892 831.974 482.816 828.74 482.59C825.506 482.364 824.031 484.861 823.851 487.449Z" fill="#001489" fill-opacity="0.04"/>
<path d="M543.505 620.627C543.189 625.154 546.198 628.614 550.725 628.93C555.253 629.246 558.713 626.238 559.029 621.71C559.345 617.182 556.336 613.723 551.809 613.407C547.281 613.091 543.776 616.746 543.505 620.627Z" fill="#001489" fill-opacity="0.04"/>
<path d="M725.915 652.202C725.734 654.79 727.494 657.512 730.728 657.738C733.962 657.963 736.038 656.158 736.264 652.924C736.49 649.69 734.685 647.615 731.451 647.389C728.217 647.163 726.096 649.615 725.915 652.202Z" fill="#001489" fill-opacity="0.04"/>
<path d="M519.476 657.95C519.295 660.537 521.055 663.259 524.289 663.485C527.523 663.711 528.997 661.214 529.178 658.627C529.359 656.039 527.599 653.317 524.365 653.091C521.131 652.865 519.656 655.362 519.476 657.95Z" fill="#001489" fill-opacity="0.04"/>
<path d="M698.514 346.116C698.288 349.35 700.695 352.118 703.929 352.344C707.163 352.569 709.931 350.163 710.156 346.929C710.382 343.695 707.975 340.927 704.741 340.701C701.507 340.476 698.739 342.882 698.514 346.116Z" fill="#001489" fill-opacity="0.04"/>
<path d="M755.85 232.471C755.624 235.705 758.031 238.473 761.265 238.698C764.499 238.924 767.267 236.517 767.492 233.283C767.718 230.049 765.311 227.281 762.077 227.056C758.843 226.83 756.075 229.237 755.85 232.471Z" fill="#001489" fill-opacity="0.04"/>
<path d="M567.407 585.9C566.865 593.662 572.882 600.581 580.644 601.123C588.405 601.664 595.325 595.648 595.866 587.886C596.408 580.124 590.391 573.205 582.63 572.663C574.868 572.122 567.949 578.138 567.407 585.9Z" fill="#001489" fill-opacity="0.04"/>
<path d="M571.43 72.0589C570.798 81.1142 577.416 88.7255 586.472 89.3574C595.527 89.9893 603.138 83.3709 603.77 74.3156C604.402 65.2604 597.784 57.649 588.728 57.0171C579.673 56.3853 572.062 63.0036 571.43 72.0589Z" fill="#001489" fill-opacity="0.04"/>
<path d="M677.451 545.477C677.135 550.005 680.143 553.465 684.671 553.781C689.198 554.096 692.703 550.441 692.974 546.56C693.245 542.68 690.282 538.573 685.754 538.257C681.226 537.941 677.767 540.95 677.451 545.477Z" fill="#001489" fill-opacity="0.04"/>
<path d="M785.164 138.327C784.894 142.208 787.902 145.668 791.783 145.938C795.664 146.209 799.123 143.201 799.394 139.32C799.665 135.439 796.657 131.979 792.776 131.709C788.895 131.438 785.435 134.446 785.164 138.327Z" fill="#001489" fill-opacity="0.04"/>
<path d="M677.881 204.279C677.61 208.16 680.573 212.266 685.146 211.935C689.027 212.206 693.133 209.243 692.803 204.67C693.073 200.789 690.11 196.683 685.537 197.014C681.657 196.743 678.152 200.398 677.881 204.279Z" fill="#001489" fill-opacity="0.04"/>
<path d="M690.268 250.644C689.952 255.172 693.562 259.323 698.09 259.639C702.618 259.955 706.724 256.992 707.085 251.818C707.401 247.29 703.791 243.138 699.263 242.822C694.736 242.506 690.584 246.117 690.268 250.644Z" fill="#001489" fill-opacity="0.04"/>
<path d="M764.248 186.917C764.022 190.151 766.429 192.919 769.663 193.144C772.897 193.37 775.665 190.963 775.891 187.729C776.116 184.495 773.71 181.728 770.476 181.502C767.242 181.276 764.429 184.33 764.248 186.917Z" fill="#001489" fill-opacity="0.04"/>
<path d="M828.92 294.115C828.694 297.349 831.101 300.117 834.335 300.343C837.569 300.568 840.337 298.162 840.563 294.928C840.788 291.694 838.382 288.926 835.148 288.7C831.913 288.475 829.101 291.528 828.92 294.115Z" fill="#001489" fill-opacity="0.04"/>
<path d="M726.869 266.197C726.463 272.018 730.675 276.861 736.496 277.268C742.317 277.674 747.161 273.462 747.567 267.641C747.973 261.82 743.761 256.976 737.94 256.57C732.119 256.164 727.275 260.375 726.869 266.197Z" fill="#001489" fill-opacity="0.04"/>
<path d="M725.107 67.8405C724.791 72.3682 727.799 75.8279 732.327 76.1438C736.855 76.4598 740.314 73.4514 740.63 68.9238C740.946 64.3961 737.938 60.9364 733.41 60.6205C728.883 60.3046 725.423 63.3129 725.107 67.8405Z" fill="#001489" fill-opacity="0.04"/>
<path d="M648.663 576.615C648.347 581.142 652.002 584.647 655.883 584.918C659.764 585.189 664.517 582.271 664.833 577.743C665.149 573.215 661.494 569.711 657.613 569.44C653.732 569.169 648.979 572.087 648.663 576.615Z" fill="#001489" fill-opacity="0.04"/>
<path d="M784.552 435.958C784.281 439.839 787.334 442.651 791.215 442.922C795.096 443.193 797.864 440.786 798.135 436.906C798.405 433.025 795.352 430.212 791.471 429.941C787.59 429.67 784.822 432.077 784.552 435.958Z" fill="#001489" fill-opacity="0.04"/>
<path d="M795.537 259.94C795.312 263.174 797.718 265.942 800.952 266.168C804.186 266.394 806.954 263.987 807.18 260.753C807.405 257.519 804.999 254.751 801.765 254.525C798.531 254.3 795.763 256.706 795.537 259.94Z" fill="#001489" fill-opacity="0.04"/>
<path d="M469.115 38.2686C468.89 41.5026 471.296 44.2704 474.53 44.4961C477.764 44.7217 480.532 42.315 480.758 39.081C480.984 35.847 478.577 33.0792 475.343 32.8536C472.109 32.6279 469.341 35.0346 469.115 38.2686Z" fill="#001489" fill-opacity="0.04"/>
<path d="M815.304 200.218C815.079 203.452 817.485 206.219 820.72 206.445C823.954 206.671 827.368 204.309 827.594 201.075C827.819 197.841 825.413 195.073 822.179 194.848C818.945 194.622 815.53 196.984 815.304 200.218Z" fill="#001489" fill-opacity="0.04"/>
<path d="M583.209 648.09C582.983 651.324 585.39 654.092 588.624 654.317C591.858 654.543 594.626 652.136 594.852 648.902C595.077 645.668 592.671 642.901 589.437 642.675C586.203 642.449 583.435 644.856 583.209 648.09Z" fill="#001489" fill-opacity="0.04"/>
<path d="M789.787 342.079C789.471 346.606 793.126 350.111 797.007 350.382C800.887 350.653 804.994 347.69 805.31 343.162C805.626 338.634 801.971 335.13 798.09 334.859C794.209 334.588 790.057 338.198 789.787 342.079Z" fill="#001489" fill-opacity="0.04"/>
<path d="M755.654 524.29C755.429 527.524 757.835 530.292 761.069 530.518C764.303 530.743 767.071 528.337 767.297 525.103C767.523 521.868 765.116 519.101 761.882 518.875C758.648 518.649 755.88 521.056 755.654 524.29Z" fill="#001489" fill-opacity="0.04"/>
<path d="M754.568 474.814C754.343 478.049 756.749 480.816 759.984 481.042C763.218 481.268 765.985 478.861 766.211 475.627C766.437 472.393 764.03 469.625 760.796 469.399C757.562 469.174 754.794 471.58 754.568 474.814Z" fill="#001489" fill-opacity="0.04"/>
<path d="M675.061 626.562C674.835 629.796 677.242 632.563 680.476 632.789C683.71 633.015 686.477 630.608 686.703 627.374C686.929 624.14 684.522 621.372 681.288 621.147C678.054 620.921 675.286 623.328 675.061 626.562Z" fill="#001489" fill-opacity="0.04"/>
<path d="M799.889 616.417C799.663 619.651 802.07 622.419 805.304 622.645C808.538 622.87 811.306 620.463 811.531 617.229C811.757 613.995 809.35 611.228 806.116 611.002C802.882 610.776 800.114 613.183 799.889 616.417Z" fill="#001489" fill-opacity="0.04"/>
<path d="M689.24 591.142C688.924 595.67 692.579 599.175 696.46 599.446C700.341 599.716 704.492 596.106 704.763 592.226C705.034 588.345 701.424 584.193 697.543 583.922C693.662 583.651 689.556 586.615 689.24 591.142Z" fill="#001489" fill-opacity="0.04"/>
<path d="M675.801 104.047C675.35 110.515 680.163 116.051 686.631 116.502C693.099 116.953 698.635 112.14 699.086 105.672C699.537 99.2037 694.724 93.6682 688.256 93.2169C681.788 92.7655 676.252 97.5789 675.801 104.047Z" fill="#001489" fill-opacity="0.04"/>
<path d="M687.529 159.456C686.356 176.273 698.946 191.45 716.409 192.669C733.873 193.888 748.404 181.253 749.623 163.789C750.841 146.325 738.206 131.794 720.742 130.576C703.279 129.357 688.703 142.639 687.529 159.456Z" fill="#001489" fill-opacity="0.04"/>
<path d="M713.612 558.404C713.026 566.812 719.644 574.424 728.052 575.01C736.461 575.597 744.072 568.979 744.659 560.57C745.246 552.162 738.627 544.55 730.219 543.964C721.81 543.377 714.244 549.348 713.612 558.404Z" fill="#001489" fill-opacity="0.04"/>
<path d="M740.778 383.513C740.056 393.861 747.878 402.857 758.226 403.579C768.575 404.301 777.571 396.479 778.293 386.13C779.015 375.782 771.193 366.786 760.844 366.064C750.495 365.342 741.5 373.164 740.778 383.513Z" fill="#001489" fill-opacity="0.04"/>
<path d="M713.804 499.92C713.443 505.095 717.053 509.247 722.228 509.608C727.402 509.969 731.554 506.359 731.915 501.184C732.276 496.01 728.666 491.858 723.492 491.497C718.317 491.136 714.166 494.746 713.804 499.92Z" fill="#001489" fill-opacity="0.04"/>
<path d="M752.309 301.774C751.857 308.242 756.671 313.777 763.139 314.228C769.607 314.68 775.142 309.866 775.594 303.398C776.045 296.93 771.232 291.395 764.764 290.943C758.296 290.492 752.76 295.305 752.309 301.774Z" fill="#001489" fill-opacity="0.04"/>
<path d="M632.354 102.313C632.038 106.841 635.648 110.992 640.176 111.308C644.703 111.624 648.855 108.014 649.171 103.487C649.487 98.959 645.877 94.8073 641.349 94.4914C636.822 94.1754 632.67 97.7855 632.354 102.313Z" fill="#001489" fill-opacity="0.04"/>
<path d="M639.76 61.232C639.444 65.7597 643.054 69.9113 647.582 70.2273C652.11 70.5432 656.261 66.9332 656.577 62.4055C656.893 57.8779 653.283 53.7263 648.756 53.4103C644.228 53.0944 640.076 56.7044 639.76 61.232Z" fill="#001489" fill-opacity="0.04"/>
<path d="M647.499 146.266C647.002 153.381 652.417 159.609 659.532 160.105C666.647 160.602 672.874 155.187 673.371 148.072C673.867 140.957 668.452 134.73 661.337 134.233C654.222 133.737 647.995 139.152 647.499 146.266Z" fill="#001489" fill-opacity="0.04"/>
<path d="M613.464 149.087C613.103 154.261 617.315 159.105 622.489 159.466C627.663 159.827 632.462 156.262 632.868 150.441C633.274 144.62 628.972 141.07 623.798 140.709C618.623 140.348 613.825 143.913 613.464 149.087Z" fill="#001489" fill-opacity="0.04"/>
<path d="M361.999 27.5483C405.335 30.5723 446.745 42.5614 483.177 60.7025C484.876 54.9715 490.367 50.805 496.835 51.2563C503.95 51.7528 509.365 57.9803 508.868 65.0951C508.643 68.3291 507.168 70.8261 505.093 72.6311C520.676 82.1679 536.169 92.9984 549.632 104.987C551.151 101.843 554.52 100.129 558.401 100.399C563.576 100.76 567.832 104.957 567.471 110.132C567.291 112.719 565.817 115.216 563.741 117.021C567.998 121.218 571.653 124.722 575.263 128.874C571.758 132.529 570.103 137.613 569.697 143.435C568.749 157.018 578.933 169.427 593.162 170.42C597.69 170.736 602.308 169.759 605.677 168.044C610.4 174.873 614.432 182.304 618.508 189.088C620.493 188.576 623.126 188.11 625.066 188.246C635.415 188.968 643.237 197.963 642.515 208.312C642.108 214.133 639.16 219.127 635.054 222.09C638.393 230.123 641.687 238.802 644.334 247.436C642.439 246.654 640.498 246.518 638.558 246.383C623.682 245.345 610.535 256.777 609.497 271.653C608.458 286.53 619.89 299.677 634.767 300.715C642.528 301.256 649.869 298.519 655.45 293.059C656.382 298.323 657.315 303.588 657.555 309.454C660.323 307.048 663.692 305.333 667.573 305.604C675.335 306.145 680.705 313.02 680.163 320.781C679.622 328.543 672.702 334.56 665.587 334.063C663 333.883 661.105 333.1 659.255 331.671C659.36 339.478 659.51 346.638 659.615 354.445C658.969 354.4 657.72 353.663 656.426 353.573C650.605 353.166 645.762 357.378 645.355 363.199C644.949 369.021 649.161 373.864 654.982 374.27C656.276 374.361 657.569 374.451 658.261 373.849C657.043 391.313 653.884 408.641 649.476 425.233C656.591 425.729 661.359 431.911 660.908 438.379C660.457 444.848 654.229 450.263 647.761 449.811C645.821 449.676 643.925 448.894 642.677 448.157C638.63 459.573 633.937 470.945 628.597 482.272C626.747 480.843 624.852 480.06 622.264 479.88C615.15 479.383 608.922 484.798 608.426 491.913C608.019 497.735 611.584 502.533 616.623 504.834C612.938 511.077 609.253 517.319 604.92 523.516C607.974 526.329 609.643 530.346 609.373 534.226C608.921 540.694 603.386 545.508 596.918 545.057C594.977 544.921 593.082 544.139 591.232 542.71C576.25 561.813 559.508 578.194 541.517 593.837C539.848 589.821 535.501 586.918 530.973 586.602C523.858 586.105 517.631 591.52 517.134 598.635C516.863 602.516 518.533 606.532 521.632 608.698C511.388 615.783 500.497 622.822 489.05 628.523C493.398 631.426 495.624 636.781 495.263 641.956C494.676 650.364 487.065 656.983 478.656 656.396C470.248 655.809 463.629 648.198 464.216 639.789C419.345 658.757 369.977 667.661 318.233 664.05C142.302 651.773 9.9343 499.547 22.2109 323.615C34.4876 147.684 186.068 15.2717 361.999 27.5483ZM407.485 46.3213C404.251 46.0957 401.484 48.5024 401.258 51.7364C401.032 54.9704 403.439 57.7382 406.673 57.9638C409.907 58.1895 412.675 55.7828 412.9 52.5488C413.126 49.3148 410.719 46.547 407.485 46.3213ZM450.054 60.3411C439.705 59.6189 430.71 67.4406 429.988 77.7895C429.266 88.1384 437.087 97.1336 447.436 97.8558C457.785 98.5779 466.78 90.7562 467.503 80.4073C468.225 70.0584 460.403 61.0632 450.054 60.3411ZM445.134 130.843C444.954 133.43 446.714 136.153 449.948 136.378C453.182 136.604 455.258 134.799 455.483 131.565C455.709 128.331 453.904 126.255 450.67 126.029C447.436 125.804 445.315 128.256 445.134 130.843ZM483.386 132.212C483.161 135.446 485.567 138.214 488.801 138.44C492.035 138.665 494.803 136.259 495.029 133.025C495.254 129.791 492.848 127.023 489.614 126.797C486.38 126.571 483.567 129.625 483.386 132.212ZM502.159 86.7254C497.632 86.4095 493.48 90.0195 493.164 94.5471C492.848 99.0748 496.458 103.226 500.986 103.542C505.513 103.858 509.665 100.248 509.981 95.7206C510.297 91.193 506.687 87.0414 502.159 86.7254ZM538.606 113.967C536.018 113.786 533.296 115.546 533.07 118.78C532.844 122.014 534.649 124.09 537.884 124.316C541.118 124.542 543.193 122.737 543.419 119.503C543.645 116.268 541.193 114.148 538.606 113.967ZM535.778 135.868C525.429 135.146 516.433 142.968 515.711 153.317C514.989 163.665 522.811 172.661 533.16 173.383C543.509 174.105 552.504 166.283 553.226 155.934C553.948 145.585 546.126 136.59 535.778 135.868ZM519.892 195.855C519.667 199.089 522.073 201.857 525.307 202.083C528.541 202.309 531.309 199.902 531.535 196.668C531.761 193.434 529.354 190.666 526.12 190.44C522.886 190.215 520.073 193.268 519.892 195.855ZM557.888 210.206C553.361 209.89 549.209 213.5 548.893 218.028C548.577 222.555 552.187 226.707 556.715 227.023C561.242 227.339 565.394 223.729 565.71 219.201C566.026 214.674 563.063 210.567 557.888 210.206ZM553.448 404.233C546.98 403.781 541.445 408.595 540.993 415.063C540.542 421.531 545.355 427.066 551.823 427.518C558.291 427.969 563.827 423.156 564.278 416.688C564.73 410.22 559.916 404.684 553.448 404.233ZM568.732 343.553C568.912 340.966 567.152 338.244 563.918 338.018C560.684 337.792 558.609 339.597 558.383 342.831C558.157 346.065 559.962 348.141 563.196 348.367C566.43 348.592 568.551 346.141 568.732 343.553ZM566.913 248.533C564.326 248.353 561.603 250.112 561.377 253.346C561.152 256.58 563.649 258.055 566.236 258.235C568.823 258.416 571.546 256.656 571.771 253.422C571.997 250.188 569.5 248.714 566.913 248.533ZM584.408 184.108C579.233 183.747 574.435 187.312 574.029 193.134C573.622 198.955 577.879 203.152 583.054 203.513C588.228 203.874 593.027 200.309 593.433 194.488C593.839 188.666 589.582 184.47 584.408 184.108ZM586.257 269.382C583.023 269.156 580.255 271.563 580.029 274.797C579.804 278.031 582.21 280.798 585.444 281.024C588.678 281.25 591.446 278.843 591.672 275.609C591.897 272.375 589.491 269.607 586.257 269.382ZM572.522 373.066C572.341 375.653 574.101 378.376 577.335 378.601C580.569 378.827 582.645 377.022 582.871 373.788C583.097 370.554 581.291 368.478 578.057 368.253C574.823 368.027 572.702 370.479 572.522 373.066ZM584.842 308.28C581.608 308.055 578.84 310.461 578.615 313.695C578.389 316.929 580.796 319.697 584.03 319.923C587.264 320.148 590.032 317.742 590.257 314.508C590.483 311.274 588.076 308.506 584.842 308.28ZM613.589 231.642C613.859 227.761 610.806 224.948 607.572 224.722C604.338 224.496 600.878 227.505 600.652 230.739C600.427 233.973 603.435 237.433 606.669 237.658C609.903 237.884 613.318 235.522 613.589 231.642ZM595.852 401.992C593.264 401.811 590.542 403.571 590.316 406.805C590.091 410.039 591.896 412.115 595.13 412.341C598.364 412.567 600.439 410.762 600.665 407.528C600.891 404.293 598.439 402.173 595.852 401.992ZM606.773 357.257C606.457 361.785 609.465 365.245 613.993 365.561C618.52 365.876 621.98 362.868 622.296 358.34C622.612 353.813 619.604 350.353 615.076 350.037C610.548 349.721 607.089 352.73 606.773 357.257ZM632.674 405.211C635.262 405.392 637.984 403.632 638.21 400.398C638.436 397.164 636.631 395.088 633.397 394.863C630.163 394.637 628.087 396.442 627.861 399.676C627.635 402.91 629.44 404.986 632.674 405.211ZM639.099 322.465C639.505 316.644 635.293 311.801 629.472 311.394C623.651 310.988 618.807 315.2 618.401 321.021C617.995 326.842 622.206 331.686 628.027 332.092C633.849 332.498 638.692 328.287 639.099 322.465ZM601.958 463.514C611.66 464.191 620.655 456.369 621.332 446.667C622.009 436.965 614.188 427.97 604.485 427.293C594.783 426.616 585.788 434.437 585.111 444.14C584.434 453.842 591.609 462.792 601.958 463.514ZM584.9 484.422C585.171 480.541 582.162 477.081 578.282 476.811C574.401 476.54 570.941 479.548 570.67 483.429C570.399 487.31 573.408 490.77 577.289 491.04C581.17 491.311 584.629 488.303 584.9 484.422ZM576.506 520.884C577.003 513.769 571.588 507.541 564.473 507.045C557.358 506.548 551.13 511.963 550.634 519.078C550.137 526.193 555.552 532.421 562.667 532.917C569.782 533.414 576.01 527.999 576.506 520.884ZM548.121 564.4C550.708 564.58 553.431 562.821 553.657 559.587C553.882 556.352 552.077 554.277 548.843 554.051C545.609 553.825 543.534 555.63 543.308 558.864C543.082 562.098 545.534 564.219 548.121 564.4ZM539.067 479.924C544.888 480.33 549.085 476.073 549.491 470.252C549.898 464.431 545.686 459.587 540.511 459.226C535.337 458.865 530.493 463.077 530.087 468.898C529.681 474.719 533.893 479.563 539.067 479.924ZM527.063 512.234C527.289 509 524.882 506.232 521.648 506.006C518.414 505.781 515.646 508.187 515.421 511.421C515.195 514.656 517.602 517.423 520.836 517.649C524.07 517.875 526.837 515.468 527.063 512.234ZM507.884 563.542C514.352 563.993 519.887 559.18 520.339 552.712C520.79 546.244 515.977 540.708 509.509 540.257C503.041 539.806 497.505 544.619 497.054 551.087C496.602 557.555 502.063 563.136 507.884 563.542ZM475.483 608.728C480.01 609.044 483.515 605.388 483.786 601.508C484.057 597.627 481.094 593.52 476.566 593.204C472.038 592.888 468.579 595.897 468.263 600.424C467.947 604.952 470.955 608.412 475.483 608.728ZM467.165 550.951C469.753 551.132 472.475 549.372 472.701 546.138C472.927 542.904 471.122 540.828 467.888 540.602C464.653 540.377 462.578 542.182 462.352 545.416C462.126 548.65 464.578 550.771 467.165 550.951ZM426.19 635.186C428.777 635.366 431.5 633.607 431.725 630.372C431.951 627.138 430.146 625.063 426.912 624.837C423.678 624.611 421.602 626.416 421.376 629.65C421.151 632.884 423.603 635.005 426.19 635.186ZM426.867 597.536C433.335 597.987 438.871 593.174 439.322 586.706C439.774 580.238 434.96 574.702 428.492 574.251C422.024 573.799 416.488 578.613 416.037 585.081C415.586 591.549 420.399 597.084 426.867 597.536ZM387.141 626.611C390.375 626.837 393.143 624.43 393.368 621.196C393.594 617.962 391.187 615.195 387.953 614.969C384.719 614.743 381.952 617.15 381.726 620.384C381.5 623.618 383.907 626.386 387.141 626.611ZM326.433 537.231C431.862 544.588 523.243 464.521 530.6 359.091C537.957 253.662 458.536 162.326 353.107 154.969C247.678 147.612 156.342 227.033 148.985 332.462C141.628 437.891 221.003 529.874 326.433 537.231Z" fill="#001489" fill-opacity="0.04"/>
</svg>
