<svg width="730" height="589" viewBox="0 0 730 589" fill="none" xmlns="http://www.w3.org/2000/svg">
<path d="M195.813 156.618C196.448 146.753 188.756 138.003 178.891 137.368C169.026 136.733 160.276 144.424 159.641 154.289C159.006 164.154 166.697 172.904 176.562 173.539C186.427 174.175 195.178 166.483 195.813 156.618Z" fill="white" fill-opacity="0.08"/>
<path d="M225.082 496.954C225.224 494.761 223.721 492.463 220.98 492.287C218.24 492.11 216.49 493.649 216.314 496.389C216.137 499.129 217.675 500.879 220.416 501.056C223.156 501.232 224.941 499.146 225.082 496.954Z" fill="white" fill-opacity="0.08"/>
<path d="M183.913 435.418C184.09 432.677 182.038 430.344 179.298 430.167C176.558 429.991 174.224 432.042 174.048 434.782C173.872 437.523 175.923 439.856 178.663 440.032C181.403 440.209 183.737 438.158 183.913 435.418Z" fill="white" fill-opacity="0.08"/>
<path d="M149.926 202.647C150.208 198.263 147.131 194.763 142.747 194.48C138.362 194.198 134.862 197.275 134.58 201.659C134.298 206.044 137.374 209.544 141.759 209.826C146.143 210.108 149.643 207.032 149.926 202.647Z" fill="white" fill-opacity="0.08"/>
<path d="M177.881 195.637C178.129 191.801 175.565 188.884 171.728 188.637C167.892 188.39 164.94 191.502 164.728 194.79C164.516 198.079 167.045 201.544 170.881 201.791C174.718 202.038 177.634 199.474 177.881 195.637Z" fill="white" fill-opacity="0.08"/>
<path d="M125.355 404.681C125.743 398.652 121.128 393.402 115.099 393.014C109.071 392.626 103.82 397.241 103.432 403.269C103.044 409.298 107.659 414.548 113.688 414.936C119.716 415.324 124.966 410.709 125.355 404.681Z" fill="white" fill-opacity="0.08"/>
<path d="M172.651 396.725C172.863 393.437 170.335 389.972 166.463 390.273C163.175 390.062 159.71 392.59 160.011 396.462C159.799 399.75 162.328 403.215 166.199 402.914C169.488 403.126 172.44 400.014 172.651 396.725Z" fill="white" fill-opacity="0.08"/>
<path d="M135.145 329.915C135.321 327.175 133.235 325.389 130.495 325.213C127.754 325.037 125.421 327.088 125.793 329.863C126.164 332.639 127.703 334.389 130.443 334.565C133.183 334.742 134.968 332.655 135.145 329.915Z" fill="white" fill-opacity="0.08"/>
<path d="M210.499 73.9147C210.746 70.0783 207.634 67.1263 204.345 66.9146C201.057 66.7029 197.557 69.7795 197.345 73.0678C197.134 76.3562 200.21 79.8563 203.499 80.068C207.335 80.315 210.252 77.7511 210.499 73.9147Z" fill="white" fill-opacity="0.08"/>
<path d="M211.754 114.167C212.036 109.782 208.959 106.282 204.575 106C200.19 105.718 196.69 108.794 196.408 113.179C196.126 117.563 199.202 121.063 203.587 121.346C207.971 121.628 211.471 118.551 211.754 114.167Z" fill="white" fill-opacity="0.08"/>
<path d="M92.0029 76.7378C92.1794 73.9975 90.1283 71.6642 87.388 71.4877C84.6477 71.3113 82.3143 73.3624 82.1379 76.1026C81.9615 78.8429 84.0125 81.1763 86.7528 81.3527C89.4931 81.5292 91.8265 79.4781 92.0029 76.7378Z" fill="white" fill-opacity="0.08"/>
<path d="M168.456 256.666C169.338 242.964 159.083 231.297 145.381 230.415C131.68 229.533 120.013 239.788 119.131 253.49C118.249 267.191 128.504 278.858 142.206 279.74C155.907 280.622 167.574 270.367 168.456 256.666Z" fill="white" fill-opacity="0.08"/>
<path d="M106.484 304.96C106.766 300.575 103.69 297.075 99.3054 296.793C94.9209 296.511 91.4209 299.587 91.1386 303.972C90.8563 308.356 93.9329 311.856 98.3173 312.139C102.702 312.421 106.202 309.344 106.484 304.96Z" fill="white" fill-opacity="0.08"/>
<path d="M281.892 554.543C282.139 550.706 279.062 547.206 275.226 546.959C271.389 546.712 267.889 549.789 267.642 553.625C267.395 557.462 270.472 560.962 274.308 561.209C278.145 561.456 281.645 558.379 281.892 554.543Z" fill="white" fill-opacity="0.08"/>
<path d="M119.762 218.311C120.15 212.282 115.5 207.58 110.02 207.227C104.539 206.874 99.289 211.489 98.9361 216.97C98.5832 222.45 103.198 227.7 108.679 228.053C114.159 228.406 119.374 224.339 119.762 218.311Z" fill="white" fill-opacity="0.08"/>
<path d="M200.927 43.0302C201.279 37.5496 197.177 32.8829 191.697 32.53C186.216 32.1771 182.097 36.3146 181.745 41.7951C181.392 47.2757 185.494 51.9425 190.974 52.2953C196.455 52.6482 200.609 47.9627 200.927 43.0302Z" fill="white" fill-opacity="0.08"/>
<path d="M98.1438 502.539C98.2849 500.347 96.7819 498.049 94.0416 497.873C91.3013 497.696 90.0641 499.818 89.9229 502.01C89.7818 504.202 91.2848 506.5 94.0251 506.677C96.7654 506.853 98.0026 504.732 98.1438 502.539Z" fill="white" fill-opacity="0.08"/>
<path d="M149.36 356.692C149.501 354.5 147.998 352.202 145.258 352.025C142.517 351.849 140.767 353.387 140.591 356.127C140.414 358.868 141.953 360.618 144.693 360.794C147.433 360.97 149.183 359.432 149.36 356.692Z" fill="white" fill-opacity="0.08"/>
<path d="M54.421 523.388C54.5621 521.196 53.0591 518.898 50.3188 518.721C47.5786 518.545 46.3766 520.119 46.2001 522.859C46.0237 525.599 47.5973 526.801 50.3376 526.978C53.0779 527.154 54.2798 525.58 54.421 523.388Z" fill="white" fill-opacity="0.08"/>
<path d="M277.133 526.172C277.274 523.98 275.771 521.682 273.031 521.506C270.291 521.329 268.541 522.867 268.364 525.608C268.188 528.348 269.726 530.098 272.466 530.274C275.207 530.451 276.992 528.365 277.133 526.172Z" fill="white" fill-opacity="0.08"/>
<path d="M57.7543 121.313C57.8955 119.121 56.3925 116.823 53.6522 116.646C50.9119 116.47 49.1619 118.008 48.9854 120.748C48.809 123.489 50.3473 125.239 53.0876 125.415C55.8279 125.592 57.6132 123.505 57.7543 121.313Z" fill="white" fill-opacity="0.08"/>
<path d="M32.5305 179.676C32.6716 177.484 31.1686 175.186 28.4283 175.009C25.6881 174.833 24.4861 176.406 24.3096 179.147C24.1332 181.887 25.6715 183.637 28.4118 183.814C31.1521 183.99 32.3893 181.868 32.5305 179.676Z" fill="white" fill-opacity="0.08"/>
<path d="M269.382 65.5945C269.629 61.7581 267.065 58.8414 263.228 58.5943C259.392 58.3473 256.475 60.9112 256.228 64.7476C255.981 68.584 258.545 71.5007 262.381 71.7477C266.218 71.9947 269.17 68.8828 269.382 65.5945Z" fill="white" fill-opacity="0.08"/>
<path d="M114.735 39.6801C114.876 37.4879 113.373 35.1898 110.633 35.0134C107.892 34.837 106.142 36.3752 105.966 39.1155C105.789 41.8558 107.328 43.6059 110.068 43.7823C112.808 43.9587 114.594 41.8724 114.735 39.6801Z" fill="white" fill-opacity="0.08"/>
<path d="M289.57 33.8753C289.711 31.6831 288.208 29.385 285.467 29.2085C282.727 29.0321 281.49 31.1538 281.349 33.346C281.208 35.5382 282.711 37.8363 285.451 38.0128C288.191 38.1892 289.428 36.0675 289.57 33.8753Z" fill="white" fill-opacity="0.08"/>
<path d="M139.343 298.816C139.519 296.076 137.468 293.742 134.728 293.566C131.988 293.389 129.654 295.441 129.478 298.181C129.301 300.921 131.352 303.254 134.093 303.431C136.833 303.607 139.166 301.556 139.343 298.816Z" fill="white" fill-opacity="0.08"/>
<path d="M91.2881 395.332C91.4645 392.591 89.4134 390.258 86.6732 390.081C83.9329 389.905 81.5995 391.956 81.4231 394.696C81.2466 397.437 83.2977 399.77 86.038 399.946C88.7783 400.123 91.1116 398.072 91.2881 395.332Z" fill="white" fill-opacity="0.08"/>
<path d="M249.301 95.1204C249.724 88.5437 244.597 82.7103 238.02 82.2868C231.443 81.8634 225.61 86.9911 225.186 93.5677C224.763 100.144 229.891 105.978 236.467 106.401C243.044 106.825 248.878 101.697 249.301 95.1204Z" fill="white" fill-opacity="0.08"/>
<path d="M248.226 530.368C248.72 522.695 243.08 516.278 235.407 515.784C227.734 515.29 221.318 520.93 220.824 528.603C220.33 536.276 225.97 542.693 233.643 543.187C241.316 543.681 247.732 538.04 248.226 530.368Z" fill="white" fill-opacity="0.08"/>
<path d="M156.272 129.856C156.519 126.02 153.955 123.103 150.119 122.856C146.283 122.609 143.33 125.721 143.119 129.009C142.907 132.298 145.436 135.762 149.272 136.009C153.108 136.256 156.025 133.693 156.272 129.856Z" fill="white" fill-opacity="0.08"/>
<path d="M66.8946 475.209C67.1064 471.92 64.5425 469.004 61.2542 468.792C57.9658 468.58 55.0491 471.144 54.8374 474.432C54.6257 477.721 57.1895 480.637 60.4778 480.849C63.7662 481.061 66.6829 478.497 66.8946 475.209Z" fill="white" fill-opacity="0.08"/>
<path d="M157.464 418.858C157.676 415.57 155.147 412.105 151.275 412.406C147.987 412.194 144.522 414.723 144.823 418.595C144.612 421.883 147.14 425.348 151.012 425.047C154.3 425.259 157.252 422.147 157.464 418.858Z" fill="white" fill-opacity="0.08"/>
<path d="M146.759 379.644C147.006 375.808 143.929 372.308 140.093 372.061C136.257 371.814 132.792 374.342 132.51 378.727C132.263 382.563 135.339 386.063 139.176 386.31C143.012 386.557 146.512 383.481 146.759 379.644Z" fill="white" fill-opacity="0.08"/>
<path d="M84.3818 433.957C84.5583 431.216 82.5072 428.883 79.7669 428.706C77.0266 428.53 74.6932 430.581 74.5168 433.321C74.3404 436.062 76.3914 438.395 79.1317 438.571C81.872 438.748 84.2407 436.149 84.3818 433.957Z" fill="white" fill-opacity="0.08"/>
<path d="M29.1201 343.453C29.2965 340.712 27.2455 338.379 24.5052 338.203C21.7649 338.026 19.4315 340.077 19.2551 342.817C19.0787 345.558 21.1297 347.891 23.87 348.068C26.6103 348.244 28.979 345.645 29.1201 343.453Z" fill="white" fill-opacity="0.08"/>
<path d="M115.692 366.638C116.01 361.705 112.42 357.622 107.488 357.304C102.555 356.987 98.472 360.576 98.1544 365.508C97.8369 370.441 101.426 374.524 106.359 374.842C111.291 375.16 115.375 371.57 115.692 366.638Z" fill="white" fill-opacity="0.08"/>
<path d="M118.081 534.637C118.328 530.801 115.764 527.884 111.927 527.637C108.091 527.39 105.174 529.954 104.927 533.791C104.68 537.627 107.244 540.544 111.081 540.791C114.917 541.038 117.834 538.474 118.081 534.637Z" fill="white" fill-opacity="0.08"/>
<path d="M180.512 103.352C180.759 99.516 177.647 96.564 174.358 96.3522C171.07 96.1405 167.057 98.6338 166.81 102.47C166.563 106.307 169.675 109.259 172.963 109.47C176.252 109.682 180.265 107.189 180.512 103.352Z" fill="white" fill-opacity="0.08"/>
<path d="M66.0574 223.108C66.2691 219.82 63.67 217.451 60.3816 217.239C57.0933 217.028 54.7599 219.079 54.5482 222.367C54.3365 225.655 56.9356 228.024 60.2239 228.236C63.5123 228.448 65.8457 226.396 66.0574 223.108Z" fill="white" fill-opacity="0.08"/>
<path d="M57.5537 372.25C57.7301 369.509 55.6791 367.176 52.9388 366.999C50.1985 366.823 47.8651 368.874 47.6887 371.614C47.5122 374.355 49.5633 376.688 52.3036 376.864C55.0439 377.041 57.3773 374.99 57.5537 372.25Z" fill="white" fill-opacity="0.08"/>
<path d="M335.046 558.523C335.222 555.783 333.171 553.449 330.431 553.273C327.691 553.096 325.357 555.148 325.181 557.888C325.004 560.628 327.056 562.961 329.796 563.138C332.536 563.314 334.869 561.263 335.046 558.523Z" fill="white" fill-opacity="0.08"/>
<path d="M41.0822 422.922C41.2587 420.181 39.2076 417.848 36.4673 417.671C33.727 417.495 30.8456 419.511 30.6692 422.251C30.4927 424.991 32.5438 427.325 35.2841 427.501C38.0244 427.678 40.9058 425.662 41.0822 422.922Z" fill="white" fill-opacity="0.08"/>
<path d="M235.628 42.5152C235.804 39.7749 233.753 37.4415 231.013 37.2651C228.273 37.0887 225.939 39.1397 225.763 41.88C225.586 44.6203 227.638 46.9537 230.378 47.1301C233.118 47.3065 235.451 45.2554 235.628 42.5152Z" fill="white" fill-opacity="0.08"/>
<path d="M62.0495 302.649C62.2965 298.813 59.1846 295.861 55.8962 295.649C52.6079 295.437 49.1431 297.966 48.8961 301.802C48.6491 305.639 51.761 308.591 55.0493 308.802C58.3377 309.014 61.8377 305.937 62.0495 302.649Z" fill="white" fill-opacity="0.08"/>
<path d="M90.1318 148.16C90.3083 145.419 88.2572 143.086 85.5169 142.91C82.7766 142.733 80.4432 144.784 80.2668 147.525C80.0904 150.265 82.1414 152.598 84.8817 152.775C87.622 152.951 89.9554 150.9 90.1318 148.16Z" fill="white" fill-opacity="0.08"/>
<path d="M91.2764 190.058C91.4528 187.318 89.4017 184.985 86.6614 184.808C83.9212 184.632 81.5878 186.683 81.4113 189.423C81.2349 192.163 83.286 194.497 86.0263 194.673C88.7665 194.849 91.0999 192.798 91.2764 190.058Z" fill="white" fill-opacity="0.08"/>
<path d="M157.929 61.1675C158.105 58.4272 156.054 56.0938 153.314 55.9174C150.573 55.741 148.24 57.792 148.064 60.5323C147.887 63.2726 149.938 65.606 152.679 65.7824C155.419 65.9589 157.752 63.9078 157.929 61.1675Z" fill="white" fill-opacity="0.08"/>
<path d="M52.249 70.3277C52.4255 67.5874 50.3744 65.254 47.6341 65.0776C44.8938 64.9011 42.5604 66.9522 42.384 69.6925C42.2076 72.4328 44.2586 74.7662 46.9989 74.9426C49.7392 75.119 52.0726 73.0679 52.249 70.3277Z" fill="white" fill-opacity="0.08"/>
<path d="M146.081 91.2311C146.328 87.3947 143.216 84.4427 139.927 84.231C136.639 84.0193 133.139 87.0959 132.927 90.3842C132.716 93.6726 135.792 97.1727 139.081 97.3844C142.369 97.5961 145.834 95.0675 146.081 91.2311Z" fill="white" fill-opacity="0.08"/>
<path d="M159.678 503.745C160.031 498.265 155.928 493.598 150.448 493.245C144.967 492.892 140.301 496.994 139.948 502.475C139.595 507.955 143.697 512.622 149.178 512.975C154.658 513.328 159.325 509.226 159.678 503.745Z" fill="white" fill-opacity="0.08"/>
<path d="M149.491 456.866C150.408 442.617 139.675 429.818 124.878 428.866C110.08 427.913 97.8302 438.681 96.8774 453.478C95.9246 468.276 106.693 480.526 121.49 481.479C136.288 482.432 148.573 471.116 149.491 456.866Z" fill="white" fill-opacity="0.08"/>
<path d="M125.587 119.072C126.046 111.947 120.405 105.53 113.281 105.071C106.156 104.613 99.7392 110.253 99.2805 117.378C98.8218 124.503 104.462 130.919 111.587 131.378C118.712 131.837 125.093 126.744 125.587 119.072Z" fill="white" fill-opacity="0.08"/>
<path d="M103.373 267.333C103.938 258.564 97.2717 250.98 88.5028 250.416C79.7339 249.851 72.1505 256.517 71.5858 265.286C71.0212 274.055 77.6872 281.638 86.4561 282.203C95.225 282.768 102.809 276.102 103.373 267.333Z" fill="white" fill-opacity="0.08"/>
<path d="M125.683 168.608C125.966 164.224 122.889 160.724 118.505 160.441C114.12 160.159 110.62 163.236 110.338 167.62C110.055 172.005 113.132 175.505 117.517 175.787C121.901 176.069 125.401 172.993 125.683 168.608Z" fill="white" fill-opacity="0.08"/>
<path d="M93.9746 336.616C94.3275 331.136 90.2253 326.469 84.7448 326.116C79.2642 325.763 74.5974 329.865 74.2446 335.346C73.8917 340.826 77.9938 345.493 83.4744 345.846C88.955 346.199 93.6217 342.097 93.9746 336.616Z" fill="white" fill-opacity="0.08"/>
<path d="M196.486 505.015C196.733 501.179 193.656 497.679 189.82 497.432C185.983 497.185 182.483 500.262 182.236 504.098C181.989 507.934 185.066 511.434 188.902 511.681C192.738 511.928 196.239 508.852 196.486 505.015Z" fill="white" fill-opacity="0.08"/>
<path d="M190.4 539.847C190.647 536.011 187.57 532.511 183.734 532.264C179.897 532.017 176.397 535.094 176.15 538.93C175.903 542.766 178.98 546.266 182.816 546.513C186.653 546.76 190.153 543.684 190.4 539.847Z" fill="white" fill-opacity="0.08"/>
<path d="M183.452 467.857C183.84 461.828 179.225 456.578 173.197 456.19C167.168 455.802 161.918 460.417 161.53 466.445C161.142 472.474 165.757 477.724 171.785 478.112C177.814 478.5 183.064 473.885 183.452 467.857Z" fill="white" fill-opacity="0.08"/>
<path d="M212.272 465.312C212.554 460.927 208.965 456.844 204.58 456.561C200.196 456.279 196.148 459.32 195.83 464.253C195.512 469.185 199.172 472.173 203.557 472.455C207.941 472.737 211.989 469.696 212.272 465.312Z" fill="white" fill-opacity="0.08"/>
<path d="M425.823 567.115C389.103 564.751 353.973 554.785 323.033 539.585C321.619 544.447 316.988 548.001 311.507 547.648C305.478 547.26 300.864 542.009 301.252 535.981C301.428 533.241 302.665 531.119 304.415 529.581C291.173 521.574 278.001 512.471 266.543 502.377C265.271 505.047 262.425 506.515 259.136 506.303C254.752 506.021 251.127 502.485 251.409 498.101C251.551 495.909 252.788 493.787 254.538 492.249C250.913 488.713 247.801 485.761 244.725 482.261C247.677 479.149 249.055 474.836 249.373 469.903C250.114 458.394 241.432 447.929 229.375 447.153C225.538 446.906 221.631 447.755 218.785 449.222C214.754 443.46 211.305 437.184 207.822 431.456C206.142 431.899 203.915 432.305 202.271 432.2C193.502 431.635 186.836 424.052 187.4 415.283C187.718 410.35 190.193 406.107 193.657 403.578C190.792 396.79 187.963 389.453 185.681 382.152C187.29 382.806 188.934 382.912 190.579 383.018C203.184 383.829 214.267 374.087 215.079 361.482C215.891 348.876 206.148 337.793 193.543 336.981C186.966 336.558 180.761 338.91 176.059 343.56C175.245 339.105 174.431 334.65 174.201 329.682C171.867 331.733 169.021 333.201 165.733 332.989C159.156 332.566 154.577 326.768 155 320.191C155.424 313.614 161.257 308.487 167.286 308.875C169.478 309.016 171.087 309.67 172.66 310.872C172.536 304.26 172.376 298.196 172.251 291.584C172.799 291.619 173.86 292.238 174.956 292.308C179.889 292.626 183.972 289.037 184.29 284.104C184.607 279.172 181.018 275.088 176.085 274.771C174.989 274.7 173.893 274.629 173.31 275.142C174.263 260.345 176.86 245.653 180.517 231.58C174.489 231.192 170.422 225.977 170.775 220.496C171.128 215.016 176.378 210.401 181.858 210.754C183.502 210.86 185.111 211.514 186.172 212.132C189.548 202.444 193.471 192.79 197.943 183.172C199.516 184.374 201.125 185.028 203.317 185.169C209.346 185.558 214.596 180.943 214.984 174.914C215.302 169.982 212.261 165.933 207.982 164.007C211.075 158.703 214.168 153.399 217.81 148.13C215.21 145.761 213.778 142.367 213.99 139.079C214.343 133.598 219.009 129.496 224.49 129.849C226.134 129.955 227.743 130.609 229.317 131.811C241.92 115.562 256.026 101.611 271.193 88.2793C272.625 91.6735 276.32 94.1127 280.157 94.3597C286.185 94.7479 291.436 90.133 291.824 84.1044C292.035 80.816 290.603 77.4219 287.969 75.6012C296.613 69.5539 305.805 63.5418 315.475 58.6611C311.78 56.2219 309.87 51.6963 310.152 47.3118C310.611 40.1871 317.028 34.5467 324.152 35.0054C331.277 35.4642 336.918 41.8809 336.459 49.0056C374.379 32.736 416.153 24.9695 459.998 27.7926C609.069 37.3908 721.878 165.727 712.28 314.798C702.682 463.869 574.894 576.714 425.823 567.115ZM387.209 551.421C389.95 551.598 392.283 549.547 392.46 546.806C392.636 544.066 390.585 541.733 387.845 541.556C385.104 541.38 382.771 543.431 382.595 546.171C382.418 548.912 384.469 551.245 387.209 551.421ZM351.09 539.74C359.858 540.305 367.442 533.639 368.007 524.87C368.571 516.101 361.905 508.517 353.136 507.953C344.367 507.388 336.784 514.054 336.219 522.823C335.655 531.592 342.321 539.175 351.09 539.74ZM354.936 480.002C355.077 477.81 353.574 475.512 350.834 475.335C348.093 475.159 346.343 476.697 346.167 479.437C345.991 482.178 347.529 483.928 350.269 484.104C353.009 484.281 354.795 482.194 354.936 480.002ZM322.53 479.016C322.706 476.276 320.655 473.942 317.915 473.766C315.175 473.59 312.841 475.641 312.665 478.381C312.489 481.121 314.54 483.455 317.28 483.631C320.02 483.807 322.389 481.208 322.53 479.016ZM306.836 517.629C310.672 517.876 314.172 514.8 314.419 510.963C314.666 507.127 311.59 503.627 307.753 503.38C303.917 503.133 300.417 506.209 300.17 510.046C299.923 513.882 303 517.382 306.836 517.629ZM275.842 494.721C278.034 494.862 280.332 493.359 280.508 490.619C280.685 487.879 279.146 486.129 276.406 485.952C273.666 485.776 271.916 487.314 271.739 490.054C271.563 492.795 273.649 494.58 275.842 494.721ZM278.137 476.158C286.906 476.722 294.49 470.056 295.054 461.287C295.619 452.519 288.953 444.935 280.184 444.37C271.415 443.806 263.832 450.472 263.267 459.241C262.703 468.01 269.369 475.593 278.137 476.158ZM291.32 425.276C291.496 422.535 289.445 420.202 286.705 420.026C283.964 419.849 281.631 421.9 281.454 424.64C281.278 427.381 283.329 429.714 286.069 429.891C288.81 430.067 291.178 427.468 291.32 425.276ZM259.071 413.293C262.908 413.54 266.408 410.464 266.655 406.627C266.902 402.791 263.825 399.291 259.989 399.044C256.152 398.797 252.652 401.873 252.405 405.71C252.158 409.546 254.687 413.011 259.071 413.293ZM261.95 248.93C267.43 249.283 272.097 245.181 272.45 239.701C272.803 234.22 268.7 229.553 263.22 229.2C257.739 228.848 253.073 232.95 252.72 238.43C252.367 243.911 256.469 248.578 261.95 248.93ZM249.28 300.396C249.139 302.588 250.642 304.886 253.382 305.063C256.123 305.239 257.873 303.701 258.049 300.961C258.226 298.22 256.687 296.47 253.947 296.294C251.207 296.117 249.421 298.204 249.28 300.396ZM251.253 380.871C253.445 381.012 255.743 379.509 255.92 376.769C256.096 374.028 253.974 372.791 251.782 372.65C249.59 372.509 247.292 374.012 247.116 376.752C246.939 379.492 249.061 380.73 251.253 380.871ZM236.728 435.519C241.112 435.801 245.16 432.76 245.478 427.827C245.796 422.895 242.171 419.359 237.786 419.077C233.402 418.795 229.354 421.836 229.036 426.769C228.719 431.701 232.343 435.237 236.728 435.519ZM234.774 363.3C237.514 363.476 239.847 361.425 240.024 358.685C240.2 355.945 238.149 353.611 235.409 353.435C232.669 353.259 230.335 355.31 230.159 358.05C229.982 360.79 232.034 363.124 234.774 363.3ZM245.936 275.416C246.077 273.224 244.574 270.925 241.834 270.749C239.093 270.573 237.343 272.111 237.167 274.851C236.99 277.591 238.529 279.341 241.269 279.518C244.009 279.694 245.795 277.608 245.936 275.416ZM235.795 330.346C238.535 330.522 240.869 328.471 241.045 325.731C241.221 322.991 239.17 320.657 236.43 320.481C233.69 320.305 231.356 322.356 231.18 325.096C231.004 327.836 233.055 330.17 235.795 330.346ZM211.795 395.391C211.583 398.679 214.182 401.048 216.923 401.224C219.663 401.4 222.58 398.837 222.756 396.096C222.933 393.356 220.369 390.439 217.629 390.263C214.888 390.086 212.007 392.102 211.795 395.391ZM226.044 251.021C228.236 251.162 230.534 249.659 230.71 246.919C230.887 244.179 229.348 242.429 226.608 242.252C223.868 242.076 222.118 243.614 221.941 246.354C221.765 249.095 223.851 250.88 226.044 251.021ZM216.997 288.962C217.244 285.125 214.68 282.209 210.844 281.962C207.007 281.715 204.09 284.278 203.843 288.115C203.596 291.951 206.16 294.868 209.997 295.115C213.833 295.362 216.75 292.798 216.997 288.962ZM194.84 248.462C192.647 248.321 190.349 249.824 190.173 252.564C189.996 255.304 191.535 257.054 194.275 257.231C197.015 257.407 198.765 255.869 198.942 253.128C199.118 250.388 197.58 248.638 194.84 248.462ZM189.775 318.578C189.457 323.51 193.047 327.594 197.979 327.911C202.912 328.229 206.995 324.639 207.313 319.707C207.63 314.774 204.041 310.691 199.108 310.373C194.176 310.056 190.092 313.645 189.775 318.578ZM220.592 198.939C212.371 198.41 204.787 205.076 204.258 213.297C203.729 221.518 210.395 229.101 218.616 229.63C226.836 230.16 234.42 223.494 234.949 215.273C235.479 207.052 229.361 199.504 220.592 198.939ZM234.945 181.152C234.733 184.441 237.297 187.357 240.585 187.569C243.874 187.781 246.79 185.217 247.002 181.929C247.214 178.64 244.65 175.724 241.362 175.512C238.073 175.3 235.157 177.864 234.945 181.152ZM241.889 150.231C241.501 156.259 246.116 161.509 252.144 161.898C258.173 162.286 263.423 157.671 263.811 151.642C264.199 145.614 259.584 140.363 253.556 139.975C247.527 139.587 242.277 144.202 241.889 150.231ZM265.733 113.243C263.541 113.102 261.243 114.605 261.066 117.345C260.89 120.085 262.428 121.835 265.168 122.012C267.909 122.188 269.659 120.65 269.835 117.91C270.012 115.169 267.925 113.384 265.733 113.243ZM273.786 184.754C268.854 184.436 265.318 188.061 265.001 192.993C264.683 197.926 268.273 202.009 272.657 202.292C277.042 202.574 281.125 198.984 281.443 194.052C281.76 189.119 278.171 185.036 273.786 184.754ZM283.807 157.332C283.63 160.073 285.681 162.406 288.422 162.582C291.162 162.759 293.495 160.708 293.672 157.967C293.848 155.227 291.797 152.894 289.057 152.717C286.317 152.541 283.983 154.592 283.807 157.332ZM299.818 113.787C294.338 113.434 289.671 117.536 289.318 123.016C288.965 128.497 293.068 133.164 298.548 133.517C304.029 133.869 308.695 129.767 309.048 124.287C309.401 118.806 304.751 114.104 299.818 113.787ZM327.057 75.3664C323.221 75.1194 320.269 78.2313 320.057 81.5196C319.845 84.808 322.374 88.2727 326.21 88.5197C330.047 88.7668 332.963 86.2029 333.21 82.3665C333.457 78.5302 330.893 75.6134 327.057 75.3664ZM334.365 124.266C332.173 124.125 329.874 125.628 329.698 128.368C329.522 131.108 331.06 132.858 333.8 133.035C336.54 133.211 338.29 131.673 338.467 128.933C338.643 126.192 336.557 124.407 334.365 124.266ZM368.688 52.7318C366.496 52.5906 364.198 54.0937 364.022 56.834C363.845 59.5743 365.383 61.3242 368.124 61.5007C370.864 61.6771 372.614 60.1389 372.791 57.3986C372.967 54.6583 370.881 52.8729 368.688 52.7318ZM368.286 84.625C362.805 84.2721 358.139 88.3742 357.786 93.8548C357.433 99.3353 361.535 104.002 367.016 104.355C372.496 104.708 377.163 100.606 377.516 95.1251C377.869 89.6446 373.766 84.9778 368.286 84.625ZM401.802 59.8169C399.062 59.6404 396.729 61.6915 396.552 64.4318C396.376 67.1721 398.427 69.5054 401.167 69.6819C403.907 69.8583 406.241 67.8072 406.417 65.067C406.594 62.3267 404.543 59.9933 401.802 59.8169ZM453.629 135.247C364.296 129.495 287.259 197.729 281.508 287.062C275.756 376.395 343.441 453.396 432.774 459.148C522.107 464.9 599.109 397.215 604.861 307.882C610.613 218.548 542.963 140.999 453.629 135.247Z" fill="white" fill-opacity="0.08"/>
</svg>
