<svg width="859" height="691" viewBox="0 0 859 691" fill="none" xmlns="http://www.w3.org/2000/svg">
<path d="M210.808 481.834C210.111 493.484 199.823 502.612 188.173 501.916C176.523 501.22 167.395 490.931 168.091 479.281C168.787 467.631 179.076 458.503 190.726 459.199C202.376 459.895 211.504 470.184 210.808 481.834Z" fill="#001489" fill-opacity="0.04"/>
<path d="M294.788 87.3894C294.634 89.9783 292.537 92.4512 289.301 92.2578C286.065 92.0644 284.239 90.0067 284.433 86.7706C284.626 83.5344 286.684 81.7088 289.92 81.9022C293.156 82.0956 294.943 84.8005 294.788 87.3894Z" fill="#001489" fill-opacity="0.04"/>
<path d="M237.575 153.47C237.382 156.707 234.638 159.141 231.402 158.947C228.166 158.754 225.732 156.01 225.925 152.774C226.119 149.538 228.862 147.104 232.098 147.297C235.335 147.491 237.769 150.234 237.575 153.47Z" fill="#001489" fill-opacity="0.04"/>
<path d="M163.768 421.212C163.459 426.389 159.343 430.041 154.166 429.731C148.988 429.422 145.337 425.306 145.646 420.129C145.955 414.951 150.071 411.299 155.249 411.609C160.426 411.918 164.078 416.034 163.768 421.212Z" fill="#001489" fill-opacity="0.04"/>
<path d="M195.499 433.504C195.228 438.034 191.799 441.077 187.268 440.806C182.738 440.535 179.733 436.459 179.966 432.575C180.198 428.692 183.666 425.002 188.196 425.273C192.727 425.543 195.77 428.973 195.499 433.504Z" fill="#001489" fill-opacity="0.04"/>
<path d="M164.483 180.932C164.057 188.052 157.884 193.528 150.765 193.103C143.645 192.677 138.168 186.504 138.594 179.385C139.019 172.265 145.192 166.789 152.312 167.214C159.431 167.639 164.908 173.813 164.483 180.932Z" fill="#001489" fill-opacity="0.04"/>
<path d="M218.731 197.157C218.499 201.041 215.031 204.731 210.539 203.813C206.656 203.581 202.966 200.112 203.884 195.621C204.116 191.737 207.584 188.047 212.076 188.965C215.959 189.197 218.963 193.274 218.731 197.157Z" fill="#001489" fill-opacity="0.04"/>
<path d="M165.036 269.952C164.842 273.189 162.137 274.975 158.901 274.782C155.665 274.589 153.231 271.845 154.072 268.648C154.912 265.45 156.97 263.625 160.206 263.818C163.442 264.011 165.229 266.716 165.036 269.952Z" fill="#001489" fill-opacity="0.04"/>
<path d="M215.936 580.87C215.666 585.4 211.589 588.404 207.706 588.172C203.822 587.94 200.171 583.825 200.403 579.942C200.635 576.058 204.751 572.407 208.634 572.639C213.164 572.91 216.207 576.339 215.936 580.87Z" fill="#001489" fill-opacity="0.04"/>
<path d="M223.284 533.897C222.974 539.075 218.859 542.726 213.681 542.417C208.503 542.107 204.852 537.992 205.162 532.814C205.471 527.636 209.586 523.985 214.764 524.294C219.942 524.604 223.593 528.719 223.284 533.897Z" fill="#001489" fill-opacity="0.04"/>
<path d="M77.5285 560.26C77.3351 563.496 74.5915 565.93 71.3554 565.736C68.1192 565.543 65.6851 562.799 65.8785 559.563C66.0718 556.327 68.8155 553.893 72.0516 554.086C75.2877 554.28 77.7219 557.023 77.5285 560.26Z" fill="#001489" fill-opacity="0.04"/>
<path d="M193.369 360.629C192.402 376.809 178.684 388.98 162.503 388.013C146.323 387.046 134.152 373.328 135.119 357.148C136.086 340.967 149.804 328.796 165.984 329.763C182.165 330.73 194.336 344.448 193.369 360.629Z" fill="#001489" fill-opacity="0.04"/>
<path d="M127.815 295.003C127.506 300.181 123.39 303.833 118.213 303.523C113.035 303.214 109.383 299.098 109.693 293.92C110.002 288.743 114.118 285.091 119.296 285.401C124.473 285.71 128.125 289.826 127.815 295.003Z" fill="#001489" fill-opacity="0.04"/>
<path d="M369.755 28.2164C369.484 32.747 365.369 36.3983 360.838 36.1275C356.307 35.8568 352.656 31.7413 352.927 27.2108C353.198 22.6802 357.313 19.0289 361.844 19.2997C366.374 19.5704 370.025 23.6859 369.755 28.2164Z" fill="#001489" fill-opacity="0.04"/>
<path d="M130.719 398.456C130.294 405.575 124.159 410.405 117.687 410.018C111.215 409.631 105.738 403.458 106.124 396.986C106.511 390.513 112.684 385.037 119.157 385.423C125.629 385.81 131.144 391.336 130.719 398.456Z" fill="#001489" fill-opacity="0.04"/>
<path d="M200.214 615.655C199.828 622.127 194.34 626.996 187.868 626.609C181.396 626.222 177.175 620.774 177.562 614.301C177.948 607.829 183.436 602.961 189.908 603.348C196.38 603.734 200.563 609.83 200.214 615.655Z" fill="#001489" fill-opacity="0.04"/>
<path d="M146.891 62.3127C146.736 64.9016 144.64 67.3744 141.404 67.181C138.168 66.9876 137.028 64.3214 137.183 61.7325C137.337 59.1436 139.434 56.6707 142.67 56.8641C145.906 57.0575 147.046 59.7238 146.891 62.3127Z" fill="#001489" fill-opacity="0.04"/>
<path d="M185.601 240.655C185.446 243.244 183.35 245.717 180.114 245.523C176.877 245.33 175.052 243.272 175.245 240.036C175.439 236.8 177.496 234.974 180.732 235.168C183.969 235.361 185.794 237.419 185.601 240.655Z" fill="#001489" fill-opacity="0.04"/>
<path d="M98.711 31.5023C98.5563 34.0912 96.4599 36.5641 93.2238 36.3707C89.9877 36.1773 88.8093 34.1583 89.0027 30.9222C89.1961 27.6861 91.2151 26.5076 94.4512 26.701C97.6873 26.8944 98.8658 28.9135 98.711 31.5023Z" fill="#001489" fill-opacity="0.04"/>
<path d="M360.038 60.7595C359.884 63.3484 357.787 65.8213 354.551 65.6279C351.315 65.4345 349.489 63.3768 349.683 60.1407C349.876 56.9046 351.934 55.0789 355.17 55.2723C358.406 55.4657 360.193 58.1706 360.038 60.7595Z" fill="#001489" fill-opacity="0.04"/>
<path d="M43.9133 503.041C43.7586 505.63 41.6622 508.103 38.4261 507.909C35.19 507.716 33.3644 505.658 33.5578 502.422C33.7512 499.186 35.8089 497.36 39.045 497.554C42.2811 497.747 44.0681 500.452 43.9133 503.041Z" fill="#001489" fill-opacity="0.04"/>
<path d="M22.8833 430.983C22.7286 433.571 20.6322 436.044 17.3961 435.851C14.16 435.658 12.9816 433.639 13.1749 430.402C13.3683 427.166 15.426 425.341 18.6622 425.534C21.8983 425.727 23.038 428.394 22.8833 430.983Z" fill="#001489" fill-opacity="0.04"/>
<path d="M283.71 599.212C283.439 603.742 280.01 606.785 275.479 606.514C270.948 606.243 267.906 602.814 268.176 598.283C268.447 593.753 271.877 590.71 276.407 590.981C280.938 591.251 283.942 595.328 283.71 599.212Z" fill="#001489" fill-opacity="0.04"/>
<path d="M98.7493 606.994C98.5946 609.583 96.4982 612.056 93.2621 611.862C90.0259 611.669 88.2003 609.611 88.3937 606.375C88.5871 603.139 90.6448 601.313 93.8809 601.507C97.117 601.7 98.904 604.405 98.7493 606.994Z" fill="#001489" fill-opacity="0.04"/>
<path d="M302.727 639.323C302.572 641.912 300.476 644.385 297.24 644.192C294.004 643.998 292.864 641.332 293.019 638.743C293.173 636.154 295.27 633.681 298.506 633.875C301.742 634.068 302.882 636.735 302.727 639.323Z" fill="#001489" fill-opacity="0.04"/>
<path d="M165.411 307C165.218 310.236 162.474 312.67 159.238 312.477C156.002 312.283 153.568 309.54 153.761 306.304C153.955 303.067 156.698 300.633 159.934 300.827C163.171 301.02 165.605 303.764 165.411 307Z" fill="#001489" fill-opacity="0.04"/>
<path d="M123.208 186.908C123.015 190.144 120.271 192.578 117.035 192.385C113.799 192.191 111.365 189.448 111.558 186.212C111.752 182.976 114.495 180.541 117.731 180.735C120.967 180.928 123.402 183.672 123.208 186.908Z" fill="#001489" fill-opacity="0.04"/>
<path d="M264.494 561.693C264.03 569.459 257.171 575.545 249.404 575.081C241.638 574.617 235.552 567.758 236.016 559.991C236.48 552.224 243.339 546.139 251.106 546.603C258.873 547.067 264.958 553.926 264.494 561.693Z" fill="#001489" fill-opacity="0.04"/>
<path d="M326.785 51.6253C326.243 60.6864 318.698 67.3804 309.637 66.8389C300.576 66.2974 293.882 58.7525 294.424 49.6913C294.965 40.6302 302.51 33.9362 311.571 34.4777C320.632 35.0192 327.326 42.5641 326.785 51.6253Z" fill="#001489" fill-opacity="0.04"/>
<path d="M160.577 507.412C160.306 511.942 156.877 514.985 152.346 514.714C147.816 514.444 144.812 510.367 145.044 506.483C145.276 502.6 148.744 498.91 153.275 499.181C157.805 499.452 160.848 502.881 160.577 507.412Z" fill="#001489" fill-opacity="0.04"/>
<path d="M106.29 89.7682C106.058 93.6516 102.628 96.6943 98.7451 96.4622C94.8618 96.2302 91.819 92.8006 92.0511 88.9173C92.2832 85.034 95.7127 81.9912 99.596 82.2233C103.479 82.4554 106.522 85.8849 106.29 89.7682Z" fill="#001489" fill-opacity="0.04"/>
<path d="M204.169 169.009C203.936 172.892 200.468 176.582 195.976 175.664C192.093 175.432 188.403 171.964 189.321 167.472C189.553 163.589 193.021 159.899 197.513 160.817C201.397 161.049 204.401 165.126 204.169 169.009Z" fill="#001489" fill-opacity="0.04"/>
<path d="M185.903 213.389C185.632 217.92 181.517 221.571 176.986 221.3C172.456 221.03 168.766 217.561 169.075 212.384C169.346 207.853 173.461 204.202 177.992 204.473C182.523 204.743 186.174 208.859 185.903 213.389Z" fill="#001489" fill-opacity="0.04"/>
<path d="M120.755 140.65C120.562 143.886 117.818 146.32 114.582 146.127C111.346 145.934 108.912 143.19 109.105 139.954C109.298 136.718 112.042 134.284 115.278 134.477C118.514 134.67 120.91 138.061 120.755 140.65Z" fill="#001489" fill-opacity="0.04"/>
<path d="M42.8019 238.611C42.6085 241.847 39.8649 244.281 36.6288 244.088C33.3927 243.895 30.9585 241.151 31.1519 237.915C31.3453 234.679 34.0889 232.245 37.325 232.438C40.5611 232.631 42.9566 236.022 42.8019 238.611Z" fill="#001489" fill-opacity="0.04"/>
<path d="M147.608 224.09C147.26 229.915 142.459 234.175 136.633 233.827C130.808 233.479 126.549 228.678 126.897 222.853C127.245 217.028 132.046 212.768 137.871 213.116C143.696 213.464 147.956 218.265 147.608 224.09Z" fill="#001489" fill-opacity="0.04"/>
<path d="M174.936 27.6188C174.666 32.1494 171.236 35.1921 166.706 34.9213C162.175 34.6506 159.132 31.2211 159.403 26.6905C159.674 22.1599 163.103 19.1172 167.634 19.388C172.164 19.6587 175.207 23.0882 174.936 27.6188Z" fill="#001489" fill-opacity="0.04"/>
<path d="M185.107 542.003C184.836 546.534 180.76 549.538 176.876 549.306C172.993 549.074 168.656 545.567 168.926 541.036C169.197 536.506 173.274 533.502 177.157 533.734C181.041 533.966 185.378 537.473 185.107 542.003Z" fill="#001489" fill-opacity="0.04"/>
<path d="M68.5018 384.992C68.2697 388.876 64.8789 391.271 60.9955 391.039C57.1122 390.807 54.678 388.064 54.9101 384.18C55.1422 380.297 58.533 377.901 62.4163 378.133C66.2997 378.366 68.7339 381.109 68.5018 384.992Z" fill="#001489" fill-opacity="0.04"/>
<path d="M80.3175 209.028C80.1242 212.264 77.3805 214.698 74.1444 214.505C70.9083 214.312 68.4741 211.568 68.6675 208.332C68.8609 205.096 71.6045 202.662 74.8406 202.855C78.0768 203.048 80.5109 205.792 80.3175 209.028Z" fill="#001489" fill-opacity="0.04"/>
<path d="M432.607 31.3161C432.413 34.5523 429.67 36.9864 426.433 36.7931C423.197 36.5997 420.763 33.8561 420.957 30.6199C421.15 27.3838 423.894 24.9496 427.13 25.143C430.366 25.3364 432.8 28.08 432.607 31.3161Z" fill="#001489" fill-opacity="0.04"/>
<path d="M68.4179 147.255C68.2245 150.491 65.4809 152.926 62.2448 152.732C59.0087 152.539 55.9273 149.756 56.1206 146.52C56.314 143.284 59.0576 140.85 62.2938 141.043C65.5299 141.237 68.6113 144.019 68.4179 147.255Z" fill="#001489" fill-opacity="0.04"/>
<path d="M240.794 621.325C240.601 624.561 237.857 626.995 234.621 626.802C231.385 626.608 228.951 623.865 229.144 620.629C229.337 617.393 232.081 614.958 235.317 615.152C238.553 615.345 240.987 618.089 240.794 621.325Z" fill="#001489" fill-opacity="0.04"/>
<path d="M75.4208 291.222C75.15 295.753 71.0733 298.757 67.19 298.525C63.3066 298.293 59.6167 294.825 59.8874 290.294C60.1582 285.763 64.2349 282.759 68.1182 282.991C72.0016 283.224 75.6529 287.339 75.4208 291.222Z" fill="#001489" fill-opacity="0.04"/>
<path d="M85.7629 476.313C85.5695 479.549 82.8259 481.984 79.5897 481.79C76.3536 481.597 73.9194 478.853 74.1128 475.617C74.3062 472.381 77.0498 469.947 80.2859 470.14C83.5221 470.333 85.9562 473.077 85.7629 476.313Z" fill="#001489" fill-opacity="0.04"/>
<path d="M93.2238 427.392C93.0304 430.628 90.2868 433.063 87.0507 432.869C83.8146 432.676 81.3804 429.932 81.5738 426.696C81.7672 423.46 84.5108 421.026 87.7469 421.219C90.983 421.413 93.4172 424.156 93.2238 427.392Z" fill="#001489" fill-opacity="0.04"/>
<path d="M152.489 588.128C152.296 591.364 149.552 593.798 146.316 593.605C143.08 593.411 140.646 590.668 140.839 587.431C141.033 584.195 143.776 581.761 147.013 581.955C150.249 582.148 152.683 584.892 152.489 588.128Z" fill="#001489" fill-opacity="0.04"/>
<path d="M30.0207 561.966C29.8273 565.202 27.0837 567.636 23.8475 567.442C20.6114 567.249 18.1773 564.505 18.3706 561.269C18.564 558.033 21.3076 555.599 24.5438 555.792C27.7799 555.986 30.2141 558.729 30.0207 561.966Z" fill="#001489" fill-opacity="0.04"/>
<path d="M142.999 551.175C142.728 555.706 138.651 558.71 134.768 558.478C130.885 558.246 127.233 554.131 127.466 550.247C127.698 546.364 131.813 542.713 135.696 542.945C139.58 543.177 143.27 546.645 142.999 551.175Z" fill="#001489" fill-opacity="0.04"/>
<path d="M219.159 69.8823C218.772 76.3545 213.285 81.2229 206.812 80.8361C200.34 80.4493 195.472 74.9621 195.858 68.4899C196.245 62.0176 201.732 57.1493 208.205 57.5361C214.677 57.9228 219.545 63.4101 219.159 69.8823Z" fill="#001489" fill-opacity="0.04"/>
<path d="M200.378 123.316C199.373 140.144 184.93 153.57 167.455 152.526C149.98 151.482 137.201 137.078 138.245 119.603C139.289 102.128 153.693 89.3484 171.168 90.3927C188.643 91.437 201.384 106.488 200.378 123.316Z" fill="#001489" fill-opacity="0.04"/>
<path d="M123.053 515.567C122.55 523.981 115.005 530.675 106.591 530.172C98.177 529.669 91.483 522.124 91.9858 513.71C92.4886 505.296 100.034 498.602 108.447 499.105C116.861 499.608 123.594 506.506 123.053 515.567Z" fill="#001489" fill-opacity="0.04"/>
<path d="M118.675 338.632C118.056 348.988 109.14 356.899 98.7839 356.28C88.4284 355.661 80.5173 346.744 81.1361 336.389C81.755 326.033 90.6717 318.122 101.027 318.741C111.383 319.36 119.294 328.276 118.675 338.632Z" fill="#001489" fill-opacity="0.04"/>
<path d="M130.401 457.546C130.092 462.724 125.976 466.376 120.798 466.066C115.621 465.757 111.969 461.641 112.279 456.463C112.588 451.286 116.704 447.634 121.881 447.944C127.059 448.253 130.711 452.369 130.401 457.546Z" fill="#001489" fill-opacity="0.04"/>
<path d="M117.784 256.087C117.397 262.56 111.91 267.428 105.437 267.041C98.9651 266.654 94.0967 261.167 94.4835 254.695C94.8703 248.223 100.357 243.354 106.83 243.741C113.302 244.128 118.17 249.615 117.784 256.087Z" fill="#001489" fill-opacity="0.04"/>
<path d="M262.466 73.7682C262.195 78.2987 258.079 81.95 253.549 81.6793C249.018 81.4085 245.367 77.2931 245.638 72.7625C245.909 68.232 250.024 64.5807 254.555 64.8515C259.085 65.1222 262.736 69.2376 262.466 73.7682Z" fill="#001489" fill-opacity="0.04"/>
<path d="M260.419 32.0748C260.148 36.6054 256.033 40.2567 251.502 39.9859C246.971 39.7152 243.32 35.5997 243.591 31.0692C243.862 26.5386 247.977 22.8873 252.508 23.1581C257.038 23.4288 260.69 27.5443 260.419 32.0748Z" fill="#001489" fill-opacity="0.04"/>
<path d="M241.772 115.4C241.346 122.519 235.173 127.996 228.054 127.571C220.934 127.145 215.457 120.972 215.883 113.853C216.308 106.733 222.481 101.256 229.601 101.682C236.72 102.107 242.197 108.28 241.772 115.4Z" fill="#001489" fill-opacity="0.04"/>
<path d="M275.164 122.589C274.855 127.766 270.054 132.026 264.876 131.717C259.698 131.407 255.399 127.253 255.748 121.428C256.096 115.603 260.82 112.638 265.997 112.947C271.175 113.257 275.474 117.411 275.164 122.589Z" fill="#001489" fill-opacity="0.04"/>
<path d="M540.211 34.5031C496.847 31.9116 454.236 38.4586 415.769 51.7486C414.823 45.8463 409.916 41.0063 403.443 40.6195C396.324 40.194 390.151 45.6709 389.725 52.7904C389.532 56.0265 390.672 58.6928 392.497 60.7505C375.814 68.1974 359.053 76.9388 344.157 87.0907C343.056 83.7772 339.936 81.6421 336.052 81.4101C330.874 81.1006 326.112 84.7132 325.802 89.891C325.648 92.4799 326.787 95.1462 328.613 97.2039C323.85 100.816 319.774 103.821 315.658 107.472C318.662 111.549 319.647 116.804 319.299 122.629C318.487 136.22 306.788 147.213 292.549 146.362C288.019 146.091 283.565 144.526 280.445 142.391C274.881 148.554 269.925 155.402 265.007 161.604C263.104 160.841 260.554 160.039 258.612 159.923C248.257 159.304 239.34 167.215 238.721 177.571C238.373 183.396 240.653 188.728 244.343 192.196C239.995 199.731 235.609 207.913 231.87 216.133C233.85 215.602 235.792 215.718 237.734 215.834C252.62 216.724 264.182 229.756 263.293 244.642C262.403 259.528 249.371 271.09 234.485 270.201C226.718 269.737 219.792 266.075 214.962 259.941C213.358 265.041 211.754 270.142 210.759 275.928C208.325 273.184 205.205 271.049 201.322 270.817C193.555 270.353 187.343 276.477 186.879 284.244C186.415 292.011 192.5 298.87 199.62 299.295C202.209 299.45 204.189 298.918 206.208 297.74C205.097 305.468 204.024 312.549 202.913 320.277C203.56 320.316 204.893 319.746 206.187 319.823C212.012 320.171 216.272 324.972 215.924 330.797C215.576 336.623 210.775 340.882 204.95 340.534C203.655 340.457 202.361 340.379 201.752 339.694C200.708 357.169 201.605 374.76 203.836 391.781C196.716 391.355 191.19 396.871 190.804 403.343C190.417 409.816 195.894 415.989 202.366 416.375C204.308 416.491 206.288 415.96 207.621 415.39C210.161 427.234 213.348 439.116 217.182 451.037C219.201 449.858 221.182 449.327 223.771 449.482C230.89 449.907 236.367 456.08 235.942 463.2C235.593 469.025 231.439 473.323 226.146 474.956C228.995 481.621 231.844 488.287 235.341 494.991C231.95 497.387 229.776 501.154 229.544 505.037C229.157 511.51 234.026 516.997 240.498 517.384C242.44 517.5 244.42 516.968 246.439 515.79C258.832 536.666 273.321 555.07 289.143 572.903C291.317 569.136 296.002 566.818 300.533 567.088C307.652 567.514 313.129 573.687 312.703 580.806C312.471 584.69 310.298 588.457 306.945 590.205C316.19 598.552 326.081 606.938 336.697 614.067C332.012 616.386 329.114 621.409 328.804 626.586C328.301 635 334.995 642.545 343.409 643.048C351.823 643.551 359.368 636.857 359.871 628.443C401.92 653.04 449.727 668.238 501.505 671.332C677.549 681.853 828.448 547.973 838.968 371.928C849.489 195.883 716.256 45.0236 540.211 34.5031ZM492.683 47.2516C495.919 47.445 498.353 50.1886 498.16 53.4247C497.966 56.6608 495.223 59.095 491.987 58.9016C488.751 58.7082 486.316 55.9646 486.51 52.7285C486.703 49.4924 489.447 47.0582 492.683 47.2516ZM448.661 55.6629C459.017 56.2818 466.928 65.1985 466.309 75.5541C465.69 85.9097 456.774 93.8207 446.418 93.2019C436.063 92.583 428.151 83.6663 428.77 73.3107C429.389 62.9551 438.306 55.0441 448.661 55.6629ZM444.445 126.21C444.291 128.799 442.194 131.272 438.958 131.079C435.722 130.885 433.897 128.828 434.09 125.591C434.283 122.355 436.341 120.53 439.577 120.723C442.813 120.916 444.6 123.621 444.445 126.21ZM406.337 122.634C406.143 125.87 403.4 128.304 400.164 128.111C396.927 127.917 394.493 125.174 394.687 121.938C394.88 118.701 397.624 116.267 400.86 116.461C404.096 116.654 406.491 120.045 406.337 122.634ZM393.588 75.1054C398.119 75.3762 401.77 79.4916 401.499 84.0222C401.228 88.5527 397.113 92.204 392.583 91.9332C388.052 91.6625 384.401 87.5471 384.671 83.0165C384.942 78.486 389.058 74.8347 393.588 75.1054ZM353.932 97.4179C356.521 97.5726 358.994 99.669 358.801 102.905C358.607 106.141 356.549 107.967 353.313 107.773C350.077 107.58 348.252 105.522 348.445 102.286C348.638 99.0501 351.343 97.2632 353.932 97.4179ZM353.912 119.501C364.267 120.12 372.178 129.036 371.559 139.392C370.941 149.748 362.024 157.659 351.668 157.04C341.313 156.421 333.402 147.504 334.02 137.149C334.639 126.793 343.556 118.882 353.912 119.501ZM361.926 181.036C361.732 184.272 358.989 186.706 355.753 186.513C352.517 186.32 350.082 183.576 350.276 180.34C350.469 177.104 353.213 174.67 356.449 174.863C359.685 175.056 362.081 178.447 361.926 181.036ZM322.396 190.365C326.927 190.636 330.578 194.752 330.307 199.282C330.037 203.813 325.921 207.464 321.391 207.193C316.86 206.922 313.209 202.807 313.479 198.276C313.75 193.746 317.218 190.056 322.396 190.365ZM301.77 383.344C308.242 383.731 313.111 389.218 312.724 395.69C312.337 402.162 306.85 407.031 300.378 406.644C293.905 406.257 289.037 400.77 289.424 394.298C289.811 387.825 295.298 382.957 301.77 383.344ZM294.442 321.2C294.597 318.611 296.693 316.138 299.929 316.332C303.165 316.525 304.991 318.583 304.797 321.819C304.604 325.055 302.546 326.881 299.31 326.687C296.074 326.494 294.287 323.789 294.442 321.2ZM308.503 227.208C311.092 227.363 313.565 229.459 313.371 232.695C313.178 235.931 310.511 237.071 307.923 236.917C305.334 236.762 302.861 234.665 303.054 231.429C303.248 228.193 305.914 227.053 308.503 227.208ZM299.465 161.065C304.643 161.374 308.941 165.529 308.593 171.354C308.245 177.179 303.482 180.791 298.304 180.482C293.127 180.172 288.828 176.018 289.176 170.193C289.524 164.368 294.287 160.756 299.465 161.065ZM286.631 245.387C289.867 245.581 292.302 248.324 292.108 251.56C291.915 254.796 289.171 257.231 285.935 257.037C282.699 256.844 280.265 254.1 280.458 250.864C280.652 247.628 283.395 245.194 286.631 245.387ZM286.876 349.977C286.722 352.566 284.625 355.039 281.389 354.845C278.153 354.652 276.327 352.594 276.521 349.358C276.714 346.122 278.772 344.296 282.008 344.49C285.244 344.683 287.031 347.388 286.876 349.977ZM283.016 284.143C286.252 284.337 288.686 287.08 288.493 290.316C288.3 293.552 285.556 295.987 282.32 295.793C279.084 295.6 276.65 292.856 276.843 289.62C277.036 286.384 279.78 283.95 283.016 284.143ZM264.396 204.437C264.628 200.553 268.019 198.158 271.255 198.351C274.491 198.545 277.534 201.974 277.341 205.21C277.147 208.446 273.718 211.489 270.482 211.296C267.245 211.102 264.164 208.32 264.396 204.437ZM260.01 375.652C262.599 375.807 265.072 377.903 264.878 381.139C264.685 384.375 262.627 386.201 259.391 386.007C256.155 385.814 254.329 383.756 254.523 380.52C254.716 377.284 257.421 375.497 260.01 375.652ZM254.951 329.882C254.68 334.413 251.251 337.455 246.72 337.185C242.189 336.914 239.147 333.484 239.417 328.954C239.688 324.423 243.118 321.38 247.648 321.651C252.179 321.922 255.222 325.352 254.951 329.882ZM223.08 374.094C220.491 373.94 218.018 371.843 218.211 368.607C218.405 365.371 220.462 363.545 223.698 363.739C226.935 363.932 228.76 365.99 228.567 369.226C228.373 372.462 226.316 374.288 223.08 374.094ZM227.383 291.211C227.731 285.386 232.533 281.126 238.358 281.474C244.183 281.823 248.443 286.624 248.094 292.449C247.746 298.274 242.945 302.534 237.12 302.186C231.295 301.837 227.035 297.036 227.383 291.211ZM246.019 435.872C236.31 435.292 228.399 426.375 228.979 416.667C229.56 406.958 238.476 399.047 248.185 399.628C257.893 400.208 265.804 409.124 265.224 418.833C264.644 428.541 256.374 436.491 246.019 435.872ZM260.237 458.806C260.469 454.923 263.899 451.88 267.782 452.112C271.665 452.344 274.708 455.774 274.476 459.657C274.244 463.54 270.814 466.583 266.931 466.351C263.048 466.119 260.005 462.689 260.237 458.806ZM263.857 496.046C264.283 488.926 270.456 483.449 277.575 483.875C284.695 484.3 290.172 490.474 289.746 497.593C289.321 504.712 283.148 510.189 276.028 509.764C268.909 509.338 263.432 503.165 263.857 496.046ZM286.392 542.86C283.803 542.705 281.33 540.609 281.523 537.373C281.717 534.137 283.774 532.311 287.01 532.504C290.247 532.698 292.072 534.755 291.879 537.992C291.685 541.228 288.98 543.015 286.392 542.86ZM306.267 460.258C300.442 459.91 296.83 455.147 297.178 449.322C297.526 443.497 302.327 439.237 307.505 439.547C312.683 439.856 316.943 444.657 316.594 450.482C316.246 456.307 311.445 460.567 306.267 460.258ZM314.003 493.846C314.196 490.61 316.94 488.176 320.176 488.369C323.412 488.563 325.846 491.306 325.653 494.542C325.46 497.779 322.716 500.213 319.48 500.019C316.244 499.826 313.81 497.082 314.003 493.846ZM326.403 547.2C319.931 546.813 315.063 541.326 315.45 534.853C315.836 528.381 321.324 523.513 327.796 523.9C334.268 524.286 339.136 529.774 338.75 536.246C338.363 542.718 332.228 547.548 326.403 547.2ZM352.705 596.188C348.174 595.917 345.17 591.84 345.402 587.957C345.634 584.073 349.103 580.383 353.633 580.654C358.164 580.925 361.207 584.354 360.936 588.885C360.665 593.416 357.236 596.458 352.705 596.188ZM368.406 539.967C365.817 539.812 363.344 537.716 363.538 534.48C363.731 531.243 365.789 529.418 369.025 529.611C372.261 529.805 374.087 531.862 373.893 535.098C373.7 538.335 370.995 540.121 368.406 539.967ZM398.173 628.783C395.584 628.629 393.111 626.532 393.305 623.296C393.498 620.06 395.556 618.234 398.792 618.428C402.028 618.621 403.854 620.679 403.66 623.915C403.467 627.151 400.762 628.938 398.173 628.783ZM402.358 591.36C395.886 590.974 391.017 585.486 391.404 579.014C391.791 572.542 397.278 567.674 403.751 568.06C410.223 568.447 415.091 573.934 414.704 580.407C414.318 586.879 408.83 591.747 402.358 591.36ZM438.002 625.318C434.766 625.124 432.332 622.381 432.525 619.145C432.718 615.908 435.462 613.474 438.698 613.668C441.934 613.861 444.368 616.605 444.175 619.841C443.982 623.077 441.238 625.511 438.002 625.318ZM509.733 544.515C404.235 538.211 323.946 447.024 330.251 341.527C336.555 236.029 427.094 155.702 532.592 162.006C638.089 168.311 718.417 258.85 712.113 364.347C705.808 469.845 615.23 550.82 509.733 544.515Z" fill="#001489" fill-opacity="0.04"/>
</svg>
