<svg width="854" height="684" viewBox="0 0 854 684" fill="none" xmlns="http://www.w3.org/2000/svg">
<path d="M644.252 203.589C644.851 191.934 655.064 182.72 666.719 183.319C678.374 183.919 687.588 194.131 686.989 205.786C686.39 217.441 676.178 226.655 664.522 226.056C652.867 225.457 643.653 215.245 644.252 203.589Z" fill="#001489" fill-opacity="0.04"/>
<path d="M563.562 598.721C563.695 596.131 565.771 593.641 569.009 593.807C572.246 593.973 574.089 596.016 573.923 599.253C573.756 602.491 571.714 604.334 568.476 604.167C565.238 604.001 563.429 601.311 563.562 598.721Z" fill="#001489" fill-opacity="0.04"/>
<path d="M620.218 532.165C620.385 528.927 623.108 526.47 626.346 526.637C629.583 526.803 632.04 529.526 631.874 532.764C631.707 536.002 628.984 538.459 625.747 538.292C622.509 538.126 620.052 535.403 620.218 532.165Z" fill="#001489" fill-opacity="0.04"/>
<path d="M691.792 263.819C692.059 258.639 696.143 254.954 701.324 255.22C706.504 255.486 710.189 259.571 709.923 264.751C709.657 269.931 705.572 273.617 700.392 273.35C695.212 273.084 691.526 268.999 691.792 263.819Z" fill="#001489" fill-opacity="0.04"/>
<path d="M659.96 251.792C660.193 247.26 663.597 244.188 668.13 244.421C672.663 244.654 675.701 248.706 675.501 252.591C675.301 256.476 671.864 260.195 667.331 259.962C662.799 259.729 659.727 256.325 659.96 251.792Z" fill="#001489" fill-opacity="0.04"/>
<path d="M693.081 504.095C693.447 496.972 699.574 491.444 706.697 491.81C713.82 492.176 719.348 498.304 718.982 505.426C718.616 512.549 712.489 518.077 705.366 517.711C698.243 517.345 692.715 511.218 693.081 504.095Z" fill="#001489" fill-opacity="0.04"/>
<path d="M638.701 488.323C638.9 484.438 642.338 480.719 646.837 481.6C650.722 481.799 654.441 485.237 653.56 489.736C653.361 493.621 649.923 497.34 645.424 496.459C641.539 496.26 638.501 492.208 638.701 488.323Z" fill="#001489" fill-opacity="0.04"/>
<path d="M691.793 415.084C691.96 411.846 694.65 410.037 697.887 410.203C701.125 410.37 703.582 413.093 702.768 416.297C701.954 419.501 699.912 421.344 696.674 421.178C693.436 421.011 691.627 418.321 691.793 415.084Z" fill="#001489" fill-opacity="0.04"/>
<path d="M638.3 104.601C638.533 100.068 642.585 97.0303 646.47 97.23C650.355 97.4297 654.04 101.514 653.841 105.4C653.641 109.285 649.556 112.97 645.671 112.771C641.138 112.538 638.067 109.134 638.3 104.601Z" fill="#001489" fill-opacity="0.04"/>
<path d="M631.343 151.634C631.609 146.453 635.694 142.768 640.874 143.034C646.055 143.3 649.74 147.385 649.474 152.566C649.208 157.746 645.123 161.431 639.942 161.165C634.762 160.899 631.077 156.814 631.343 151.634Z" fill="#001489" fill-opacity="0.04"/>
<path d="M776.875 124.056C777.041 120.818 779.764 118.361 783.002 118.527C786.239 118.694 788.696 121.417 788.53 124.655C788.364 127.892 785.64 130.349 782.403 130.183C779.165 130.016 776.708 127.293 776.875 124.056Z" fill="#001489" fill-opacity="0.04"/>
<path d="M662.705 324.645C663.537 308.457 677.153 296.172 693.341 297.005C709.529 297.837 721.814 311.453 720.982 327.641C720.15 343.829 706.534 356.114 690.346 355.282C674.158 354.45 661.873 340.833 662.705 324.645Z" fill="#001489" fill-opacity="0.04"/>
<path d="M728.804 389.722C729.07 384.541 733.155 380.856 738.335 381.122C743.515 381.388 747.201 385.473 746.935 390.653C746.668 395.834 742.584 399.519 737.403 399.253C732.223 398.987 728.538 394.902 728.804 389.722Z" fill="#001489" fill-opacity="0.04"/>
<path d="M489.089 658.518C489.322 653.985 493.407 650.3 497.94 650.533C502.472 650.765 506.158 654.85 505.925 659.383C505.692 663.916 501.607 667.601 497.074 667.368C492.542 667.135 488.856 663.05 489.089 658.518Z" fill="#001489" fill-opacity="0.04"/>
<path d="M725.034 286.3C725.4 279.177 731.494 274.296 737.97 274.629C744.445 274.962 749.973 281.089 749.64 287.564C749.307 294.039 743.18 299.568 736.705 299.235C730.23 298.902 724.668 293.422 725.034 286.3Z" fill="#001489" fill-opacity="0.04"/>
<path d="M653.729 69.6856C654.062 63.2103 659.508 58.2964 665.983 58.6292C672.458 58.962 676.725 64.3752 676.392 70.8504C676.059 77.3257 670.613 82.2396 664.138 81.9068C657.662 81.574 653.429 75.5133 653.729 69.6856Z" fill="#001489" fill-opacity="0.04"/>
<path d="M711.663 622.565C711.796 619.975 713.872 617.484 717.109 617.651C720.347 617.817 721.509 620.474 721.376 623.064C721.243 625.654 719.167 628.144 715.929 627.978C712.692 627.811 711.53 625.155 711.663 622.565Z" fill="#001489" fill-opacity="0.04"/>
<path d="M671.468 444.551C671.602 441.961 673.677 439.471 676.915 439.637C680.152 439.803 681.995 441.846 681.829 445.083C681.662 448.321 679.62 450.164 676.382 449.997C673.145 449.831 671.302 447.789 671.468 444.551Z" fill="#001489" fill-opacity="0.04"/>
<path d="M760.098 652.972C760.231 650.382 762.307 647.892 765.545 648.058C768.782 648.224 769.978 650.234 769.811 653.471C769.645 656.709 767.636 657.904 764.398 657.738C761.16 657.571 759.965 655.562 760.098 652.972Z" fill="#001489" fill-opacity="0.04"/>
<path d="M498.535 625.895C498.668 623.305 500.744 620.814 503.981 620.981C507.219 621.147 509.062 623.19 508.895 626.427C508.729 629.665 506.686 631.508 503.449 631.341C500.211 631.175 498.402 628.485 498.535 625.895Z" fill="#001489" fill-opacity="0.04"/>
<path d="M810.964 180.994C811.098 178.404 813.173 175.914 816.411 176.08C819.649 176.247 821.491 178.289 821.325 181.527C821.158 184.764 819.116 186.607 815.878 186.441C812.641 186.274 810.831 183.584 810.964 180.994Z" fill="#001489" fill-opacity="0.04"/>
<path d="M832.592 252.873C832.726 250.283 834.801 247.793 838.039 247.959C841.277 248.126 842.472 250.135 842.305 253.373C842.139 256.61 840.096 258.453 836.859 258.286C833.621 258.12 832.459 255.463 832.592 252.873Z" fill="#001489" fill-opacity="0.04"/>
<path d="M570.374 86.8236C570.607 82.2909 574.011 79.2197 578.544 79.4527C583.077 79.6856 586.148 83.0896 585.915 87.6223C585.682 92.155 582.278 95.2262 577.745 94.9932C573.213 94.7602 570.175 90.7087 570.374 86.8236Z" fill="#001489" fill-opacity="0.04"/>
<path d="M755.261 77.5002C755.394 74.9101 757.47 72.4199 760.708 72.5863C763.945 72.7527 765.788 74.7951 765.622 78.0327C765.455 81.2703 763.413 83.113 760.175 82.9466C756.938 82.7802 755.128 80.0903 755.261 77.5002Z" fill="#001489" fill-opacity="0.04"/>
<path d="M551.022 46.8733C551.155 44.2832 553.231 41.7929 556.469 41.9593C559.706 42.1258 560.868 44.7824 560.735 47.3725C560.602 49.9626 558.526 52.4529 555.289 52.2865C552.051 52.1201 550.889 49.4634 551.022 46.8733Z" fill="#001489" fill-opacity="0.04"/>
<path d="M691.105 378.04C691.271 374.802 693.995 372.345 697.232 372.512C700.47 372.678 702.927 375.401 702.76 378.639C702.594 381.877 699.871 384.334 696.633 384.167C693.396 384.001 690.939 381.278 691.105 378.04Z" fill="#001489" fill-opacity="0.04"/>
<path d="M734.304 497.776C734.471 494.539 737.194 492.082 740.432 492.248C743.669 492.415 746.126 495.138 745.96 498.375C745.793 501.613 743.07 504.07 739.832 503.904C736.595 503.737 734.138 501.014 734.304 497.776Z" fill="#001489" fill-opacity="0.04"/>
<path d="M589.901 124.181C590.301 116.41 597.109 110.268 604.879 110.667C612.649 111.067 618.792 117.875 618.392 125.645C617.993 133.415 611.185 139.558 603.415 139.158C595.644 138.759 589.502 131.951 589.901 124.181Z" fill="#001489" fill-opacity="0.04"/>
<path d="M531.866 634.751C532.332 625.686 539.821 618.929 548.886 619.395C557.951 619.861 564.708 627.35 564.242 636.415C563.776 645.481 556.287 652.237 547.222 651.771C538.157 651.306 531.4 643.817 531.866 634.751Z" fill="#001489" fill-opacity="0.04"/>
<path d="M694.269 177.595C694.502 173.062 697.906 169.991 702.439 170.224C706.971 170.457 710.009 174.509 709.81 178.394C709.61 182.279 706.173 185.998 701.64 185.765C697.107 185.532 694.036 182.128 694.269 177.595Z" fill="#001489" fill-opacity="0.04"/>
<path d="M752.039 594.77C752.238 590.885 755.642 587.814 759.527 588.013C763.413 588.213 766.484 591.617 766.284 595.502C766.084 599.387 762.68 602.459 758.795 602.259C754.91 602.059 751.839 598.655 752.039 594.77Z" fill="#001489" fill-opacity="0.04"/>
<path d="M653.501 516.348C653.701 512.463 657.138 508.745 661.638 509.625C665.523 509.825 669.242 513.262 668.361 517.761C668.161 521.647 664.724 525.365 660.225 524.485C656.34 524.285 653.302 520.234 653.501 516.348Z" fill="#001489" fill-opacity="0.04"/>
<path d="M671.394 471.818C671.627 467.286 675.712 463.6 680.244 463.833C684.777 464.066 688.496 467.504 688.23 472.684C687.997 477.216 683.912 480.902 679.379 480.669C674.846 480.436 671.161 476.351 671.394 471.818Z" fill="#001489" fill-opacity="0.04"/>
<path d="M737.144 544.011C737.311 540.773 740.034 538.316 743.271 538.483C746.509 538.649 748.966 541.372 748.8 544.61C748.633 547.847 745.91 550.304 742.672 550.138C739.435 549.972 737.011 546.601 737.144 544.011Z" fill="#001489" fill-opacity="0.04"/>
<path d="M814.277 445.403C814.443 442.166 817.167 439.709 820.404 439.875C823.642 440.042 826.099 442.765 825.932 446.002C825.766 449.24 823.043 451.697 819.805 451.531C816.567 451.364 814.144 447.993 814.277 445.403Z" fill="#001489" fill-opacity="0.04"/>
<path d="M709.601 460.797C709.9 454.97 714.666 450.67 720.494 450.969C726.321 451.269 730.621 456.035 730.322 461.862C730.022 467.69 725.256 471.99 719.429 471.69C713.601 471.391 709.301 466.625 709.601 460.797Z" fill="#001489" fill-opacity="0.04"/>
<path d="M683.91 657.492C684.143 652.959 687.547 649.888 692.079 650.121C696.612 650.354 699.683 653.758 699.45 658.29C699.217 662.823 695.813 665.894 691.28 665.661C686.748 665.428 683.677 662.024 683.91 657.492Z" fill="#001489" fill-opacity="0.04"/>
<path d="M669.45 143.21C669.683 138.678 673.734 135.64 677.619 135.839C681.504 136.039 685.871 139.51 685.638 144.042C685.405 148.575 681.353 151.613 677.468 151.413C673.583 151.213 669.217 147.743 669.45 143.21Z" fill="#001489" fill-opacity="0.04"/>
<path d="M787.36 299.242C787.56 295.357 790.93 292.933 794.815 293.133C798.701 293.332 801.158 296.056 800.958 299.941C800.758 303.826 797.387 306.25 793.502 306.05C789.617 305.85 787.16 303.127 787.36 299.242Z" fill="#001489" fill-opacity="0.04"/>
<path d="M777.015 475.3C777.182 472.062 779.905 469.605 783.142 469.772C786.38 469.938 788.837 472.661 788.671 475.899C788.504 479.136 785.781 481.593 782.543 481.427C779.306 481.261 776.849 478.537 777.015 475.3Z" fill="#001489" fill-opacity="0.04"/>
<path d="M426.218 655.942C426.385 652.705 429.108 650.248 432.346 650.414C435.583 650.581 438.04 653.304 437.874 656.541C437.707 659.779 434.984 662.236 431.746 662.07C428.509 661.903 426.052 659.18 426.218 655.942Z" fill="#001489" fill-opacity="0.04"/>
<path d="M789.426 536.972C789.593 533.734 792.316 531.277 795.554 531.443C798.791 531.61 801.896 534.366 801.729 537.604C801.563 540.842 798.84 543.299 795.602 543.132C792.364 542.966 789.26 540.209 789.426 536.972Z" fill="#001489" fill-opacity="0.04"/>
<path d="M613.101 64.3545C613.268 61.1168 615.991 58.6599 619.228 58.8263C622.466 58.9927 624.923 61.7159 624.757 64.9535C624.59 68.1911 621.867 70.6481 618.629 70.4817C615.392 70.3153 612.935 67.5921 613.101 64.3545Z" fill="#001489" fill-opacity="0.04"/>
<path d="M781.222 393.066C781.455 388.533 785.507 385.495 789.392 385.695C793.277 385.894 796.996 389.332 796.763 393.864C796.53 398.397 792.478 401.435 788.593 401.235C784.708 401.036 781.022 396.951 781.222 393.066Z" fill="#001489" fill-opacity="0.04"/>
<path d="M769.339 208.069C769.506 204.832 772.229 202.375 775.467 202.541C778.704 202.708 781.161 205.431 780.995 208.668C780.828 211.906 778.105 214.363 774.868 214.197C771.63 214.03 769.173 211.307 769.339 208.069Z" fill="#001489" fill-opacity="0.04"/>
<path d="M762.285 257.05C762.451 253.812 765.174 251.355 768.412 251.522C771.65 251.688 774.107 254.411 773.94 257.649C773.774 260.886 771.051 263.343 767.813 263.177C764.575 263.011 762.118 260.287 762.285 257.05Z" fill="#001489" fill-opacity="0.04"/>
<path d="M701.683 96.8154C701.85 93.5778 704.573 91.1208 707.81 91.2872C711.048 91.4536 713.505 94.1768 713.339 97.4145C713.172 100.652 710.449 103.109 707.211 102.943C703.974 102.776 701.517 100.053 701.683 96.8154Z" fill="#001489" fill-opacity="0.04"/>
<path d="M824.367 121.954C824.533 118.716 827.256 116.259 830.494 116.426C833.732 116.592 836.189 119.316 836.022 122.553C835.856 125.791 833.133 128.248 829.895 128.081C826.657 127.915 824.2 125.192 824.367 121.954Z" fill="#001489" fill-opacity="0.04"/>
<path d="M711.48 133.687C711.713 129.154 715.764 126.116 719.65 126.316C723.535 126.516 727.22 130.6 727.02 134.486C726.821 138.371 722.736 142.056 718.851 141.856C714.966 141.657 711.247 138.219 711.48 133.687Z" fill="#001489" fill-opacity="0.04"/>
<path d="M639.335 615.598C639.668 609.122 645.114 604.208 651.59 604.541C658.065 604.874 662.979 610.321 662.646 616.796C662.313 623.271 656.867 628.185 650.391 627.852C643.916 627.519 639.002 622.073 639.335 615.598Z" fill="#001489" fill-opacity="0.04"/>
<path d="M657.67 562.009C658.535 545.173 672.865 531.627 690.348 532.525C707.831 533.424 720.731 547.721 719.832 565.204C718.933 582.687 704.636 595.586 687.153 594.688C669.67 593.789 656.804 578.845 657.67 562.009Z" fill="#001489" fill-opacity="0.04"/>
<path d="M731.722 169.128C732.154 160.71 739.643 153.953 748.061 154.386C756.479 154.818 763.235 162.307 762.803 170.725C762.37 179.143 754.881 185.9 746.463 185.467C738.046 185.034 731.256 178.193 731.722 169.128Z" fill="#001489" fill-opacity="0.04"/>
<path d="M737.573 346.02C738.105 335.66 746.956 327.674 757.316 328.207C767.677 328.739 775.662 337.59 775.129 347.95C774.597 358.311 765.746 366.296 755.386 365.763C745.026 365.231 737.04 356.38 737.573 346.02Z" fill="#001489" fill-opacity="0.04"/>
<path d="M724.855 227.208C725.121 222.028 729.206 218.342 734.386 218.608C739.566 218.875 743.252 222.96 742.985 228.14C742.719 233.32 738.634 237.005 733.454 236.739C728.274 236.473 724.589 232.388 724.855 227.208Z" fill="#001489" fill-opacity="0.04"/>
<path d="M739.155 428.553C739.488 422.077 744.935 417.164 751.41 417.496C757.885 417.829 762.799 423.276 762.466 429.751C762.133 436.226 756.687 441.14 750.212 440.807C743.737 440.474 738.823 435.028 739.155 428.553Z" fill="#001489" fill-opacity="0.04"/>
<path d="M595.995 612.072C596.228 607.54 600.313 603.854 604.846 604.087C609.379 604.32 613.064 608.405 612.831 612.938C612.598 617.47 608.513 621.156 603.981 620.923C599.448 620.69 595.763 616.605 595.995 612.072Z" fill="#001489" fill-opacity="0.04"/>
<path d="M598.39 653.748C598.623 649.215 602.708 645.53 607.24 645.763C611.773 645.996 615.459 650.081 615.226 654.613C614.993 659.146 610.908 662.832 606.375 662.599C601.843 662.366 598.157 658.281 598.39 653.748Z" fill="#001489" fill-opacity="0.04"/>
<path d="M616.339 570.269C616.705 563.146 622.832 557.618 629.955 557.984C637.078 558.35 642.606 564.478 642.24 571.6C641.874 578.723 635.747 584.251 628.624 583.885C621.501 583.519 615.973 577.392 616.339 570.269Z" fill="#001489" fill-opacity="0.04"/>
<path d="M582.888 563.36C583.154 558.18 587.92 553.88 593.1 554.146C598.28 554.413 602.613 558.531 602.314 564.358C602.014 570.186 597.315 573.191 592.135 572.925C586.955 572.658 582.622 568.54 582.888 563.36Z" fill="#001489" fill-opacity="0.04"/>
<path d="M318.589 653.652C361.973 655.882 404.528 648.98 442.884 635.37C443.879 641.264 448.826 646.063 455.302 646.396C462.424 646.762 468.552 641.234 468.918 634.111C469.084 630.874 467.922 628.217 466.079 626.175C482.7 618.589 499.388 609.708 514.199 599.432C515.327 602.736 518.465 604.845 522.35 605.045C527.531 605.311 532.263 601.659 532.529 596.479C532.662 593.889 531.5 591.232 529.658 589.19C534.39 585.538 538.442 582.5 542.526 578.814C539.488 574.763 538.46 569.516 538.759 563.688C539.458 550.09 551.065 539.001 565.311 539.733C569.843 539.966 574.309 541.494 577.447 543.603C582.96 537.394 587.859 530.504 592.724 524.262C594.634 525.009 597.191 525.79 599.133 525.89C609.493 526.422 618.344 518.437 618.876 508.077C619.176 502.249 616.852 496.936 613.133 493.498C617.418 485.928 621.736 477.71 625.406 469.458C623.43 470.006 621.488 469.906 619.545 469.806C604.652 469.041 592.981 456.105 593.747 441.212C594.512 426.319 607.448 414.649 622.341 415.414C630.111 415.814 637.067 419.417 641.948 425.511C643.509 420.398 645.071 415.284 646.018 409.49C648.475 412.213 651.612 414.322 655.498 414.521C663.268 414.921 669.428 408.745 669.828 400.975C670.227 393.205 664.085 386.397 656.962 386.03C654.372 385.897 652.396 386.445 650.387 387.64C651.434 379.903 652.447 372.814 653.494 365.077C652.847 365.043 651.518 365.624 650.223 365.558C644.396 365.258 640.096 360.493 640.395 354.665C640.695 348.837 645.461 344.538 651.288 344.837C652.583 344.904 653.878 344.97 654.493 345.651C655.391 328.168 654.347 310.585 651.975 293.583C659.098 293.949 664.578 288.388 664.91 281.912C665.243 275.437 659.715 269.31 653.24 268.977C651.297 268.877 649.321 269.425 647.993 270.006C645.354 258.184 642.068 246.329 638.135 234.44C636.126 235.636 634.15 236.183 631.56 236.05C624.437 235.684 618.909 229.557 619.275 222.434C619.574 216.606 623.693 212.273 628.973 210.597C626.068 203.955 623.163 197.314 619.611 190.639C622.981 188.215 625.124 184.43 625.323 180.545C625.656 174.069 620.742 168.623 614.267 168.29C612.324 168.19 610.349 168.738 608.339 169.933C595.773 149.161 581.131 130.879 565.161 113.178C563.019 116.964 558.353 119.321 553.82 119.088C546.697 118.722 541.169 112.594 541.535 105.472C541.735 101.586 543.877 97.8012 547.215 96.025C537.901 87.7555 527.94 79.4527 517.265 72.4117C521.931 70.0545 524.787 65.0075 525.054 59.8273C525.486 51.4095 518.73 43.9207 510.312 43.488C501.894 43.0553 494.405 49.812 493.972 58.2298C451.72 33.9841 403.788 19.185 351.986 16.5225C175.86 7.46986 26.0826 142.603 17.0299 318.729C7.97731 494.856 142.463 644.6 318.589 653.652ZM366.01 640.508C362.772 640.342 360.315 637.618 360.482 634.381C360.648 631.143 363.371 628.686 366.609 628.853C369.847 629.019 372.304 631.742 372.137 634.98C371.971 638.218 369.247 640.675 366.01 640.508ZM409.96 631.73C399.599 631.198 391.614 622.347 392.147 611.987C392.679 601.626 401.53 593.641 411.89 594.174C422.25 594.706 430.236 603.557 429.703 613.917C429.171 624.277 420.32 632.263 409.96 631.73ZM413.587 561.15C413.721 558.56 415.796 556.07 419.034 556.236C422.272 556.402 424.114 558.445 423.948 561.683C423.781 564.92 421.739 566.763 418.501 566.596C415.264 566.43 413.454 563.74 413.587 561.15ZM451.725 564.409C451.891 561.171 454.614 558.714 457.852 558.881C461.09 559.047 463.547 561.77 463.38 565.008C463.214 568.245 460.491 570.702 457.253 570.536C454.015 570.37 451.592 566.999 451.725 564.409ZM464.869 611.829C460.336 611.596 456.651 607.511 456.884 602.979C457.117 598.446 461.202 594.761 465.734 594.994C470.267 595.227 473.953 599.311 473.72 603.844C473.487 608.377 469.402 612.062 464.869 611.829ZM504.338 589.187C501.748 589.054 499.257 586.978 499.424 583.74C499.59 580.503 501.633 578.66 504.87 578.826C508.108 578.993 509.951 581.035 509.784 584.273C509.618 587.511 506.928 589.32 504.338 589.187ZM504.174 567.105C493.814 566.572 485.829 557.722 486.361 547.361C486.894 537.001 495.744 529.016 506.105 529.548C516.465 530.081 524.45 538.931 523.918 549.292C523.385 559.652 514.535 567.637 504.174 567.105ZM495.647 505.638C495.814 502.401 498.537 499.944 501.775 500.11C505.012 500.276 507.469 503 507.303 506.237C507.136 509.475 504.413 511.932 501.175 511.765C497.938 511.599 495.514 508.228 495.647 505.638ZM535.098 495.98C530.565 495.747 526.88 491.662 527.113 487.129C527.346 482.597 531.43 478.911 535.963 479.144C540.496 479.377 544.181 483.462 543.948 487.995C543.715 492.527 540.278 496.246 535.098 495.98ZM554.114 302.836C547.639 302.503 542.725 297.057 543.058 290.582C543.391 284.106 548.837 279.192 555.312 279.525C561.788 279.858 566.702 285.305 566.369 291.78C566.036 298.255 560.59 303.169 554.114 302.836ZM561.96 364.917C561.827 367.507 559.752 369.997 556.514 369.831C553.276 369.664 551.434 367.622 551.6 364.384C551.766 361.147 553.809 359.304 557.047 359.47C560.284 359.637 562.094 362.327 561.96 364.917ZM548.684 459.022C546.093 458.889 543.603 456.814 543.77 453.576C543.936 450.338 546.593 449.176 549.183 449.31C551.773 449.443 554.263 451.518 554.097 454.756C553.93 457.994 551.274 459.156 548.684 459.022ZM558.273 525.088C553.092 524.822 548.759 520.704 549.059 514.876C549.358 509.048 554.091 505.396 559.271 505.662C564.451 505.928 568.784 510.047 568.485 515.874C568.185 521.702 563.453 525.354 558.273 525.088ZM570.403 440.662C567.165 440.495 564.708 437.772 564.875 434.534C565.041 431.297 567.764 428.84 571.002 429.006C574.239 429.173 576.696 431.896 576.53 435.134C576.364 438.371 573.64 440.828 570.403 440.662ZM569.286 336.078C569.419 333.488 571.495 330.997 574.732 331.164C577.97 331.33 579.813 333.373 579.646 336.61C579.48 339.848 577.437 341.69 574.2 341.524C570.962 341.358 569.153 338.668 569.286 336.078ZM573.695 401.877C570.457 401.71 568 398.987 568.167 395.75C568.333 392.512 571.056 390.055 574.294 390.221C577.531 390.388 579.988 393.111 579.822 396.349C579.656 399.586 576.932 402.043 573.695 401.877ZM592.978 481.425C592.779 485.311 589.408 487.734 586.17 487.568C582.933 487.401 579.862 483.997 580.028 480.76C580.194 477.522 583.598 474.451 586.836 474.617C590.074 474.784 593.178 477.54 592.978 481.425ZM595.937 310.18C593.347 310.047 590.857 307.971 591.023 304.733C591.19 301.496 593.232 299.653 596.47 299.819C599.707 299.986 601.55 302.028 601.384 305.266C601.217 308.503 598.527 310.313 595.937 310.18ZM601.378 355.906C601.611 351.373 605.015 348.302 609.547 348.535C614.08 348.768 617.151 352.172 616.918 356.704C616.685 361.237 613.281 364.308 608.749 364.075C604.216 363.842 601.145 360.438 601.378 355.906ZM632.879 311.429C635.469 311.562 637.96 313.638 637.793 316.876C637.627 320.113 635.584 321.956 632.347 321.79C629.109 321.623 627.266 319.581 627.433 316.343C627.599 313.105 629.642 311.263 632.879 311.429ZM629.267 394.345C628.967 400.173 624.202 404.473 618.374 404.173C612.546 403.874 608.246 399.108 608.546 393.28C608.845 387.453 613.611 383.153 619.439 383.453C625.267 383.752 629.566 388.518 629.267 394.345ZM609.426 249.845C619.139 250.344 627.124 259.195 626.625 268.907C626.126 278.62 617.275 286.605 607.562 286.106C597.849 285.607 589.864 276.757 590.363 267.044C590.863 257.331 599.066 249.312 609.426 249.845ZM595.017 227.03C594.817 230.915 591.413 233.987 587.528 233.787C583.643 233.587 580.572 230.183 580.771 226.298C580.971 222.413 584.375 219.342 588.26 219.541C592.145 219.741 595.217 223.145 595.017 227.03ZM591.086 189.822C590.72 196.945 584.593 202.473 577.47 202.107C570.347 201.741 564.819 195.613 565.185 188.491C565.551 181.368 571.679 175.84 578.801 176.206C585.924 176.572 591.452 182.699 591.086 189.822ZM568.163 143.197C570.753 143.33 573.243 145.406 573.077 148.644C572.91 151.881 570.868 153.724 567.63 153.558C564.393 153.391 562.55 151.349 562.716 148.111C562.883 144.874 565.573 143.064 568.163 143.197ZM548.976 225.962C554.804 226.262 558.456 230.994 558.157 236.822C557.857 242.65 553.091 246.949 547.911 246.683C542.731 246.417 538.431 241.651 538.731 235.823C539.03 229.996 543.796 225.696 548.976 225.962ZM540.961 192.439C540.794 195.677 538.071 198.134 534.834 197.968C531.596 197.801 529.139 195.078 529.305 191.84C529.472 188.603 532.195 186.146 535.433 186.312C538.67 186.479 541.127 189.202 540.961 192.439ZM528.116 139.191C534.591 139.524 539.505 144.971 539.172 151.446C538.84 157.921 533.393 162.835 526.918 162.502C520.443 162.169 515.529 156.723 515.862 150.248C516.194 143.772 522.288 138.892 528.116 139.191ZM501.407 90.4244C505.94 90.6574 508.978 94.7089 508.778 98.594C508.578 102.479 505.141 106.198 500.608 105.965C496.076 105.732 493.004 102.328 493.237 97.7953C493.47 93.2626 496.874 90.1914 501.407 90.4244ZM486.175 146.774C488.765 146.907 491.256 148.983 491.089 152.221C490.923 155.458 488.88 157.301 485.643 157.134C482.405 156.968 480.562 154.926 480.729 151.688C480.895 148.45 483.585 146.641 486.175 146.774ZM455.669 58.2087C458.259 58.3418 460.749 60.4176 460.583 63.6552C460.416 66.8928 458.374 68.7355 455.136 68.5691C451.899 68.4027 450.056 66.3603 450.222 63.1227C450.389 59.8851 453.079 58.0756 455.669 58.2087ZM451.796 95.6652C458.271 95.9981 463.185 101.444 462.852 107.92C462.519 114.395 457.073 119.309 450.598 118.976C444.122 118.643 439.209 113.197 439.541 106.722C439.874 100.246 445.321 95.3324 451.796 95.6652ZM415.87 62.0063C419.108 62.1727 421.565 64.8959 421.398 68.1335C421.232 71.3711 418.509 73.8281 415.271 73.6617C412.034 73.4953 409.577 70.772 409.743 67.5344C409.909 64.2968 412.633 61.8399 415.87 62.0063ZM344.815 143.404C450.362 148.829 531.408 239.343 525.984 344.889C520.559 450.435 430.692 531.515 325.146 526.09C219.6 520.665 138.52 430.799 143.945 325.253C149.369 219.706 239.269 137.979 344.815 143.404Z" fill="#001489" fill-opacity="0.04"/>
</svg>
