<svg width="732" height="592" viewBox="0 0 732 592" fill="none" xmlns="http://www.w3.org/2000/svg">
<path d="M534.427 434.33C533.739 444.191 541.384 452.982 551.245 453.671C561.107 454.359 569.898 446.714 570.586 436.853C571.274 426.991 563.63 418.2 553.768 417.512C543.907 416.824 535.116 424.468 534.427 434.33Z" fill="white" fill-opacity="0.08"/>
<path d="M506.983 93.8415C506.83 96.0329 508.321 98.3391 511.06 98.5302C513.799 98.7214 515.558 97.1925 515.749 94.4532C515.94 91.7139 514.411 89.9556 511.672 89.7645C508.933 89.5733 507.136 91.6501 506.983 93.8415Z" fill="white" fill-opacity="0.08"/>
<path d="M547.818 155.598C547.627 158.337 549.665 160.682 552.405 160.873C555.144 161.064 557.488 159.025 557.679 156.286C557.871 153.547 555.832 151.203 553.093 151.011C550.353 150.82 548.009 152.859 547.818 155.598Z" fill="white" fill-opacity="0.08"/>
<path d="M580.554 388.549C580.249 392.932 583.306 396.448 587.689 396.754C592.072 397.06 595.589 394.002 595.894 389.619C596.2 385.236 593.143 381.72 588.76 381.414C584.377 381.108 580.86 384.166 580.554 388.549Z" fill="white" fill-opacity="0.08"/>
<path d="M552.561 395.407C552.293 399.242 554.841 402.172 558.676 402.44C562.511 402.707 565.48 399.611 565.709 396.324C565.939 393.037 563.429 389.559 559.594 389.291C555.759 389.024 552.828 391.572 552.561 395.407Z" fill="white" fill-opacity="0.08"/>
<path d="M606.208 186.651C605.787 192.677 610.374 197.952 616.4 198.372C622.427 198.793 627.702 194.206 628.122 188.18C628.543 182.153 623.956 176.879 617.93 176.458C611.903 176.038 606.628 180.624 606.208 186.651Z" fill="white" fill-opacity="0.08"/>
<path d="M558.876 194.353C558.647 197.64 561.157 201.118 565.03 200.838C568.317 201.067 571.795 198.557 571.515 194.684C571.744 191.397 569.235 187.919 565.361 188.199C562.074 187.969 559.105 191.065 558.876 194.353Z" fill="white" fill-opacity="0.08"/>
<path d="M596.023 261.361C595.832 264.1 597.909 265.897 600.648 266.088C603.388 266.279 605.732 264.24 605.375 261.463C605.019 258.685 603.49 256.927 600.75 256.736C598.011 256.545 596.215 258.622 596.023 261.361Z" fill="white" fill-opacity="0.08"/>
<path d="M519.295 516.954C519.027 520.789 522.123 523.757 525.411 523.987C528.698 524.216 532.214 521.158 532.444 517.871C532.673 514.584 529.615 511.067 526.328 510.838C522.493 510.571 519.563 513.119 519.295 516.954Z" fill="white" fill-opacity="0.08"/>
<path d="M518.25 476.697C517.944 481.08 521.002 484.597 525.385 484.903C529.767 485.208 533.284 482.151 533.59 477.768C533.896 473.385 530.838 469.868 526.455 469.562C522.072 469.257 518.556 472.314 518.25 476.697Z" fill="white" fill-opacity="0.08"/>
<path d="M637.798 514.766C637.607 517.505 639.646 519.85 642.385 520.041C645.124 520.232 647.469 518.193 647.66 515.454C647.851 512.715 645.812 510.371 643.073 510.179C640.334 509.988 637.99 512.027 637.798 514.766Z" fill="white" fill-opacity="0.08"/>
<path d="M562.316 334.428C561.36 348.124 571.553 359.846 585.249 360.802C598.946 361.758 610.668 351.565 611.623 337.869C612.579 324.172 602.387 312.45 588.69 311.494C574.994 310.539 563.272 320.731 562.316 334.428Z" fill="white" fill-opacity="0.08"/>
<path d="M624.547 286.471C624.241 290.854 627.299 294.37 631.681 294.676C636.064 294.982 639.581 291.924 639.887 287.541C640.192 283.158 637.135 279.642 632.752 279.336C628.369 279.03 624.852 282.088 624.547 286.471Z" fill="white" fill-opacity="0.08"/>
<path d="M450.477 35.9485C450.21 39.7835 453.268 43.3 457.103 43.5677C460.938 43.8353 464.454 40.7775 464.722 36.9425C464.989 33.1075 461.932 29.5909 458.097 29.3233C454.262 29.0557 450.745 32.1135 450.477 35.9485Z" fill="white" fill-opacity="0.08"/>
<path d="M610.803 373.046C610.382 379.073 615.007 383.8 620.486 384.182C625.964 384.564 631.239 379.978 631.621 374.499C632.004 369.021 627.417 363.746 621.938 363.363C616.46 362.981 611.223 367.02 610.803 373.046Z" fill="white" fill-opacity="0.08"/>
<path d="M528.695 547.891C528.313 553.369 532.39 558.058 537.869 558.44C543.347 558.822 547.488 554.707 547.87 549.229C548.253 543.75 544.176 539.061 538.697 538.679C533.219 538.297 529.039 542.96 528.695 547.891Z" fill="white" fill-opacity="0.08"/>
<path d="M633.949 88.9383C633.796 91.1298 635.287 93.4359 638.026 93.627C640.765 93.8182 642.014 91.7032 642.167 89.5118C642.32 87.3203 640.829 85.0142 638.09 84.8231C635.35 84.6319 634.102 86.7469 633.949 88.9383Z" fill="white" fill-opacity="0.08"/>
<path d="M581.944 234.506C581.791 236.697 583.282 239.003 586.021 239.194C588.76 239.385 590.519 237.857 590.71 235.117C590.901 232.378 589.372 230.62 586.633 230.429C583.893 230.237 582.135 231.766 581.944 234.506Z" fill="white" fill-opacity="0.08"/>
<path d="M677.78 68.3241C677.627 70.5155 679.118 72.8216 681.857 73.0128C684.596 73.2039 685.807 71.6368 685.998 68.8975C686.189 66.1582 684.622 64.9478 681.883 64.7567C679.143 64.5655 677.933 66.1326 677.78 68.3241Z" fill="white" fill-opacity="0.08"/>
<path d="M455.085 64.3454C454.932 66.5368 456.422 68.843 459.162 69.0341C461.901 69.2253 463.659 67.6964 463.85 64.9571C464.042 62.2178 462.513 60.4595 459.773 60.2684C457.034 60.0772 455.238 62.154 455.085 64.3454Z" fill="white" fill-opacity="0.08"/>
<path d="M672.284 470.377C672.131 472.568 673.622 474.874 676.361 475.065C679.1 475.257 680.858 473.728 681.05 470.988C681.241 468.249 679.712 466.491 676.973 466.3C674.233 466.108 672.437 468.185 672.284 470.377Z" fill="white" fill-opacity="0.08"/>
<path d="M697.82 412.149C697.667 414.341 699.158 416.647 701.897 416.838C704.636 417.029 705.847 415.462 706.038 412.723C706.229 409.983 704.7 408.225 701.961 408.034C699.222 407.843 697.973 409.958 697.82 412.149Z" fill="white" fill-opacity="0.08"/>
<path d="M460.361 524.954C460.094 528.789 462.642 531.719 466.477 531.987C470.312 532.254 473.242 529.706 473.51 525.871C473.778 522.036 471.229 519.106 467.394 518.838C463.559 518.571 460.591 521.666 460.361 524.954Z" fill="white" fill-opacity="0.08"/>
<path d="M614.866 551.701C614.713 553.892 616.204 556.198 618.943 556.39C621.682 556.581 623.441 555.052 623.632 552.313C623.823 549.573 622.294 547.815 619.555 547.624C616.815 547.433 615.019 549.509 614.866 551.701Z" fill="white" fill-opacity="0.08"/>
<path d="M440.008 556.567C439.855 558.759 441.345 561.065 444.085 561.256C446.824 561.447 448.072 559.332 448.225 557.141C448.378 554.949 446.888 552.643 444.148 552.452C441.409 552.261 440.16 554.376 440.008 556.567Z" fill="white" fill-opacity="0.08"/>
<path d="M591.658 292.438C591.467 295.177 593.505 297.522 596.244 297.713C598.984 297.904 601.328 295.865 601.519 293.126C601.71 290.387 599.672 288.042 596.933 287.851C594.193 287.66 591.849 289.699 591.658 292.438Z" fill="white" fill-opacity="0.08"/>
<path d="M640.22 196.18C640.029 198.919 642.068 201.264 644.807 201.455C647.546 201.646 649.891 199.608 650.082 196.868C650.273 194.129 648.234 191.785 645.495 191.593C642.756 191.402 640.411 193.441 640.22 196.18Z" fill="white" fill-opacity="0.08"/>
<path d="M480.608 495.543C480.149 502.117 485.245 507.978 491.82 508.437C498.394 508.895 504.255 503.799 504.714 497.225C505.172 490.65 500.076 484.79 493.502 484.331C486.927 483.872 481.067 488.968 480.608 495.543Z" fill="white" fill-opacity="0.08"/>
<path d="M484.015 60.3045C483.479 67.9745 489.085 74.4215 496.755 74.9567C504.425 75.492 510.872 69.886 511.408 62.216C511.943 54.546 506.337 48.099 498.667 47.5638C490.997 47.0286 484.55 52.6345 484.015 60.3045Z" fill="white" fill-opacity="0.08"/>
<path d="M573.814 461.301C573.547 465.136 576.095 468.067 579.93 468.334C583.765 468.602 586.734 465.506 586.963 462.219C587.192 458.932 584.683 455.453 580.848 455.186C577.013 454.918 574.082 457.466 573.814 461.301Z" fill="white" fill-opacity="0.08"/>
<path d="M665.05 116.435C664.821 119.723 667.369 122.653 670.656 122.882C673.943 123.112 676.874 120.564 677.103 117.276C677.332 113.989 674.784 111.059 671.497 110.829C668.21 110.6 665.279 113.148 665.05 116.435Z" fill="white" fill-opacity="0.08"/>
<path d="M574.181 172.298C573.951 175.585 576.461 179.063 580.335 178.783C583.622 179.012 587.1 176.503 586.82 172.629C587.049 169.342 584.539 165.864 580.666 166.144C577.379 165.915 574.41 169.011 574.181 172.298Z" fill="white" fill-opacity="0.08"/>
<path d="M584.673 211.573C584.405 215.409 587.463 218.925 591.298 219.193C595.133 219.46 598.611 216.95 598.917 212.567C599.185 208.732 596.127 205.216 592.292 204.948C588.457 204.681 584.94 207.738 584.673 211.573Z" fill="white" fill-opacity="0.08"/>
<path d="M647.334 157.594C647.142 160.333 649.181 162.678 651.92 162.869C654.659 163.06 657.004 161.022 657.195 158.282C657.386 155.543 655.348 153.199 652.608 153.007C649.869 152.816 647.486 155.403 647.334 157.594Z" fill="white" fill-opacity="0.08"/>
<path d="M702.115 248.391C701.924 251.13 703.962 253.475 706.701 253.666C709.441 253.857 711.785 251.818 711.976 249.079C712.167 246.34 710.129 243.996 707.39 243.804C704.65 243.613 702.268 246.2 702.115 248.391Z" fill="white" fill-opacity="0.08"/>
<path d="M615.673 224.746C615.329 229.676 618.897 233.779 623.827 234.123C628.758 234.467 632.861 230.9 633.205 225.969C633.549 221.038 629.981 216.936 625.051 216.591C620.12 216.247 616.017 219.815 615.673 224.746Z" fill="white" fill-opacity="0.08"/>
<path d="M614.182 56.731C613.914 60.566 616.462 63.4965 620.297 63.7641C624.132 64.0317 627.063 61.4835 627.33 57.6485C627.598 53.8135 625.05 50.8831 621.215 50.6155C617.38 50.3478 614.449 52.896 614.182 56.731Z" fill="white" fill-opacity="0.08"/>
<path d="M549.431 487.677C549.163 491.512 552.259 494.481 555.546 494.71C558.833 494.94 562.86 492.468 563.127 488.633C563.395 484.798 560.299 481.829 557.012 481.6C553.724 481.37 549.698 483.842 549.431 487.677Z" fill="white" fill-opacity="0.08"/>
<path d="M664.535 368.535C664.305 371.822 666.892 374.205 670.179 374.434C673.466 374.664 675.81 372.625 676.04 369.338C676.269 366.051 673.683 363.668 670.395 363.439C667.108 363.209 664.764 365.248 664.535 368.535Z" fill="white" fill-opacity="0.08"/>
<path d="M673.837 219.446C673.646 222.185 675.685 224.529 678.424 224.721C681.163 224.912 683.508 222.873 683.699 220.134C683.89 217.395 681.852 215.05 679.112 214.859C676.373 214.668 674.029 216.706 673.837 219.446Z" fill="white" fill-opacity="0.08"/>
<path d="M397.349 31.684C397.158 34.4233 399.197 36.7676 401.936 36.9588C404.675 37.1499 407.019 35.1114 407.211 32.3721C407.402 29.6328 405.363 27.2885 402.624 27.0973C399.885 26.9062 397.54 28.9447 397.349 31.684Z" fill="white" fill-opacity="0.08"/>
<path d="M690.583 168.861C690.391 171.6 692.43 173.944 695.169 174.135C697.909 174.327 700.801 172.326 700.992 169.587C701.183 166.848 699.145 164.503 696.405 164.312C693.666 164.121 690.774 166.121 690.583 168.861Z" fill="white" fill-opacity="0.08"/>
<path d="M493.99 548.219C493.799 550.958 495.837 553.303 498.576 553.494C501.316 553.685 503.66 551.647 503.851 548.907C504.042 546.168 502.004 543.824 499.265 543.632C496.525 543.441 494.181 545.48 493.99 548.219Z" fill="white" fill-opacity="0.08"/>
<path d="M668.967 289.02C668.699 292.855 671.795 295.824 675.082 296.053C678.37 296.283 681.848 293.773 682.115 289.938C682.383 286.103 679.287 283.134 676 282.905C672.713 282.675 669.196 285.733 668.967 289.02Z" fill="white" fill-opacity="0.08"/>
<path d="M640.056 443.356C639.865 446.095 641.904 448.44 644.643 448.631C647.382 448.822 649.726 446.783 649.918 444.044C650.109 441.305 648.07 438.96 645.331 438.769C642.592 438.578 640.247 440.617 640.056 443.356Z" fill="white" fill-opacity="0.08"/>
<path d="M639.138 401.45C638.947 404.189 640.986 406.533 643.725 406.724C646.464 406.916 648.809 404.877 649 402.138C649.191 399.398 647.152 397.054 644.413 396.863C641.674 396.672 639.329 398.71 639.138 401.45Z" fill="white" fill-opacity="0.08"/>
<path d="M571.791 529.981C571.599 532.72 573.638 535.065 576.377 535.256C579.117 535.447 581.461 533.408 581.652 530.669C581.843 527.93 579.805 525.585 577.065 525.394C574.326 525.203 571.982 527.242 571.791 529.981Z" fill="white" fill-opacity="0.08"/>
<path d="M677.525 521.391C677.334 524.13 679.372 526.475 682.112 526.666C684.851 526.857 687.195 524.818 687.386 522.079C687.578 519.34 685.539 516.996 682.8 516.804C680.06 516.613 677.716 518.652 677.525 521.391Z" fill="white" fill-opacity="0.08"/>
<path d="M583.803 499.981C583.535 503.816 586.631 506.785 589.918 507.014C593.205 507.243 596.722 504.186 596.951 500.899C597.181 497.611 594.123 494.095 590.836 493.865C587.549 493.636 584.07 496.146 583.803 499.981Z" fill="white" fill-opacity="0.08"/>
<path d="M572.417 87.3992C572.035 92.8778 576.112 97.5665 581.59 97.9488C587.069 98.3311 591.758 94.2541 592.14 88.7755C592.522 83.2969 588.445 78.6082 582.967 78.2259C577.488 77.8436 572.799 81.9207 572.417 87.3992Z" fill="white" fill-opacity="0.08"/>
<path d="M582.352 134.334C581.358 148.579 592.022 161.434 606.814 162.466C621.606 163.499 633.914 152.796 634.946 138.004C635.978 123.212 625.276 110.904 610.484 109.872C595.692 108.84 583.346 120.09 582.352 134.334Z" fill="white" fill-opacity="0.08"/>
<path d="M604.445 472.251C603.948 479.373 609.554 485.82 616.676 486.317C623.799 486.814 630.246 481.208 630.743 474.086C631.24 466.964 625.634 460.517 618.512 460.02C611.389 459.523 604.981 464.581 604.445 472.251Z" fill="white" fill-opacity="0.08"/>
<path d="M627.455 324.116C626.844 332.882 633.469 340.501 642.235 341.112C651 341.724 658.619 335.099 659.231 326.333C659.843 317.567 653.218 309.948 644.452 309.337C635.686 308.725 628.067 315.35 627.455 324.116Z" fill="white" fill-opacity="0.08"/>
<path d="M604.609 422.713C604.303 427.096 607.361 430.612 611.744 430.918C616.127 431.224 619.643 428.166 619.949 423.783C620.255 419.4 617.197 415.884 612.814 415.578C608.431 415.272 604.915 418.33 604.609 422.713Z" fill="white" fill-opacity="0.08"/>
<path d="M637.222 254.88C636.839 260.358 640.916 265.047 646.395 265.429C651.874 265.812 656.562 261.735 656.945 256.256C657.327 250.777 653.25 246.089 647.771 245.706C642.293 245.324 637.604 249.401 637.222 254.88Z" fill="white" fill-opacity="0.08"/>
<path d="M535.618 85.9329C535.35 89.7679 538.408 93.2844 542.243 93.552C546.078 93.8196 549.595 90.7619 549.862 86.9269C550.13 83.0918 547.072 79.5753 543.237 79.3077C539.402 79.0401 535.886 82.0979 535.618 85.9329Z" fill="white" fill-opacity="0.08"/>
<path d="M541.891 51.136C541.624 54.971 544.682 58.4875 548.517 58.7552C552.352 59.0228 555.868 55.965 556.136 52.13C556.403 48.295 553.346 44.7784 549.511 44.5108C545.676 44.2432 542.159 47.301 541.891 51.136Z" fill="white" fill-opacity="0.08"/>
<path d="M548.446 123.162C548.026 129.189 552.612 134.464 558.639 134.884C564.665 135.305 569.94 130.718 570.36 124.692C570.781 118.665 566.194 113.39 560.168 112.97C554.141 112.549 548.867 117.136 548.446 123.162Z" fill="white" fill-opacity="0.08"/>
<path d="M519.619 125.55C519.313 129.933 522.88 134.036 527.263 134.342C531.646 134.648 535.711 131.628 536.055 126.697C536.399 121.767 532.755 118.76 528.372 118.454C523.989 118.148 519.925 121.168 519.619 125.55Z" fill="white" fill-opacity="0.08"/>
<path d="M306.62 22.6056C343.327 25.167 378.402 35.322 409.261 50.6879C410.7 45.8336 415.351 42.3045 420.829 42.6868C426.856 43.1073 431.443 48.3821 431.022 54.4086C430.831 57.1479 429.582 59.2628 427.824 60.7917C441.023 68.8696 454.146 78.0433 465.549 88.1979C466.836 85.5351 469.69 84.0827 472.977 84.3121C477.36 84.6179 480.966 88.1727 480.66 92.5555C480.507 94.747 479.259 96.8619 477.5 98.3908C481.106 101.946 484.202 104.914 487.26 108.431C484.291 111.527 482.889 115.833 482.545 120.764C481.743 132.269 490.368 142.78 502.421 143.621C506.256 143.889 510.167 143.061 513.021 141.609C517.022 147.393 520.436 153.687 523.889 159.433C525.571 159 527.801 158.605 529.444 158.72C538.21 159.331 544.835 166.951 544.223 175.716C543.879 180.647 541.382 184.877 537.904 187.387C540.732 194.191 543.522 201.542 545.765 208.856C544.159 208.193 542.516 208.078 540.872 207.964C528.271 207.084 517.136 216.767 516.256 229.368C515.377 241.969 525.06 253.104 537.661 253.984C544.235 254.443 550.453 252.124 555.18 247.499C555.97 251.958 556.759 256.418 556.963 261.386C559.308 259.348 562.162 257.896 565.449 258.125C572.023 258.584 576.571 264.406 576.113 270.981C575.654 277.555 569.793 282.651 563.767 282.231C561.575 282.078 559.97 281.415 558.403 280.205C558.492 286.817 558.619 292.882 558.708 299.495C558.16 299.456 557.103 298.832 556.007 298.756C551.076 298.412 546.974 301.979 546.63 306.91C546.286 311.84 549.853 315.943 554.784 316.287C555.88 316.364 556.975 316.44 557.561 315.93C556.529 330.723 553.853 345.4 550.12 359.453C556.147 359.874 560.185 365.11 559.803 370.589C559.421 376.068 554.146 380.654 548.667 380.272C547.024 380.157 545.418 379.495 544.361 378.87C540.933 388.541 536.958 398.173 532.435 407.767C530.868 406.556 529.263 405.894 527.071 405.741C521.045 405.32 515.77 409.907 515.349 415.933C515.005 420.864 518.025 424.928 522.293 426.878C519.171 432.165 516.05 437.453 512.38 442.702C514.967 445.085 516.381 448.486 516.152 451.774C515.769 457.252 511.081 461.329 505.602 460.947C503.958 460.832 502.353 460.17 500.786 458.959C488.096 475.14 473.915 489.015 458.677 502.265C457.262 498.863 453.58 496.404 449.745 496.137C443.719 495.716 438.444 500.303 438.023 506.329C437.794 509.616 439.208 513.018 441.833 514.853C433.156 520.854 423.932 526.816 414.236 531.645C417.918 534.104 419.804 538.64 419.498 543.023C419.001 550.145 412.554 555.751 405.432 555.254C398.309 554.757 392.703 548.31 393.2 541.188C355.194 557.253 313.378 564.795 269.55 561.737C120.532 551.338 8.41346 422.399 18.812 273.381C29.2106 124.364 157.602 12.207 306.62 22.6056ZM345.148 38.5067C342.409 38.3156 340.065 40.3541 339.874 43.0934C339.682 45.8327 341.721 48.1771 344.46 48.3682C347.2 48.5594 349.544 46.5208 349.735 43.7815C349.926 41.0422 347.888 38.6979 345.148 38.5067ZM381.205 50.3818C372.439 49.7701 364.82 56.3953 364.208 65.161C363.597 73.9267 370.222 81.5459 378.988 82.1576C387.753 82.7693 395.373 76.1441 395.984 67.3783C396.596 58.6126 389.971 50.9934 381.205 50.3818ZM377.038 110.098C376.885 112.29 378.376 114.596 381.115 114.787C383.854 114.978 385.613 113.449 385.804 110.71C385.995 107.971 384.466 106.213 381.727 106.021C378.987 105.83 377.191 107.907 377.038 110.098ZM409.438 111.258C409.247 113.998 411.286 116.342 414.025 116.533C416.764 116.724 419.108 114.686 419.3 111.946C419.491 109.207 417.452 106.863 414.713 106.672C411.974 106.48 409.591 109.067 409.438 111.258ZM425.339 72.7299C421.504 72.4623 417.988 75.5201 417.72 79.3551C417.453 83.1901 420.51 86.7066 424.345 86.9743C428.18 87.2419 431.697 84.1841 431.964 80.3491C432.232 76.5141 429.174 72.9975 425.339 72.7299ZM456.21 95.8041C454.019 95.6512 451.713 97.1419 451.522 99.8812C451.33 102.62 452.859 104.379 455.599 104.57C458.338 104.761 460.096 103.232 460.287 100.493C460.478 97.7536 458.402 95.9571 456.21 95.8041ZM453.815 114.355C445.049 113.743 437.43 120.368 436.818 129.134C436.206 137.9 442.832 145.519 451.597 146.131C460.363 146.742 467.982 140.117 468.594 131.351C469.206 122.586 462.58 114.967 453.815 114.355ZM440.36 165.165C440.168 167.905 442.207 170.249 444.946 170.44C447.686 170.631 450.03 168.593 450.221 165.854C450.412 163.114 448.374 160.77 445.634 160.579C442.895 160.388 440.513 162.974 440.36 165.165ZM472.543 177.321C468.708 177.053 465.191 180.111 464.924 183.946C464.656 187.781 467.714 191.297 471.549 191.565C475.384 191.833 478.901 188.775 479.168 184.94C479.436 181.105 476.926 177.627 472.543 177.321ZM468.782 341.666C463.304 341.284 458.615 345.361 458.233 350.839C457.85 356.318 461.927 361.006 467.406 361.389C472.885 361.771 477.573 357.694 477.956 352.215C478.338 346.737 474.261 342.048 468.782 341.666ZM481.728 290.269C481.881 288.078 480.39 285.772 477.651 285.58C474.911 285.389 473.153 286.918 472.962 289.657C472.771 292.397 474.3 294.155 477.039 294.346C479.778 294.537 481.575 292.461 481.728 290.269ZM480.187 209.785C477.996 209.632 475.69 211.122 475.498 213.862C475.307 216.601 477.422 217.85 479.614 218.003C481.805 218.156 484.111 216.665 484.302 213.926C484.494 211.186 482.379 209.938 480.187 209.785ZM495.006 155.216C490.623 154.91 486.558 157.929 486.214 162.86C485.87 167.791 489.476 171.345 493.859 171.651C498.242 171.957 502.306 168.938 502.65 164.007C502.994 159.076 499.388 155.521 495.006 155.216ZM496.572 227.444C493.832 227.253 491.488 229.291 491.297 232.031C491.106 234.77 493.144 237.114 495.884 237.305C498.623 237.496 500.967 235.458 501.158 232.719C501.35 229.979 499.311 227.635 496.572 227.444ZM484.938 315.267C484.785 317.458 486.276 319.764 489.015 319.956C491.754 320.147 493.513 318.618 493.704 315.879C493.895 313.139 492.366 311.381 489.627 311.19C486.888 310.999 485.091 313.075 484.938 315.267ZM495.374 260.392C492.634 260.201 490.29 262.239 490.099 264.979C489.908 267.718 491.946 270.062 494.686 270.253C497.425 270.444 499.769 268.406 499.96 265.667C500.151 262.927 498.113 260.583 495.374 260.392ZM519.722 195.477C519.952 192.19 517.365 189.807 514.626 189.616C511.887 189.425 508.956 191.973 508.765 194.713C508.574 197.452 511.122 200.382 513.862 200.573C516.601 200.765 519.493 198.764 519.722 195.477ZM504.699 339.768C502.508 339.615 500.201 341.106 500.01 343.845C499.819 346.584 501.348 348.343 504.087 348.534C506.827 348.725 508.585 347.196 508.776 344.457C508.967 341.717 506.89 339.921 504.699 339.768ZM513.949 301.877C513.682 305.712 516.23 308.642 520.065 308.91C523.9 309.177 526.83 306.629 527.098 302.794C527.366 298.959 524.817 296.029 520.982 295.761C517.147 295.493 514.217 298.042 513.949 301.877ZM535.889 342.495C538.08 342.648 540.386 341.157 540.577 338.418C540.769 335.679 539.24 333.92 536.5 333.729C533.761 333.538 532.003 335.067 531.812 337.806C531.621 340.545 533.149 342.304 535.889 342.495ZM541.33 272.407C541.674 267.476 538.107 263.374 533.176 263.03C528.245 262.686 524.143 266.253 523.799 271.184C523.454 276.115 527.022 280.217 531.953 280.561C536.883 280.905 540.986 277.338 541.33 272.407ZM509.871 391.878C518.089 392.452 525.708 385.827 526.282 377.609C526.855 369.391 520.23 361.772 512.012 361.198C503.794 360.625 496.175 367.25 495.601 375.468C495.028 383.686 501.105 391.267 509.871 391.878ZM495.423 409.588C495.652 406.301 493.104 403.37 489.817 403.141C486.53 402.912 483.599 405.46 483.37 408.747C483.14 412.034 485.688 414.965 488.976 415.194C492.263 415.423 495.193 412.875 495.423 409.588ZM488.313 440.472C488.733 434.446 484.147 429.171 478.12 428.75C472.094 428.33 466.819 432.916 466.398 438.943C465.978 444.969 470.565 450.244 476.591 450.665C482.617 451.085 487.892 446.498 488.313 440.472ZM464.27 477.331C466.462 477.484 468.768 475.993 468.959 473.254C469.15 470.515 467.621 468.756 464.882 468.565C462.143 468.374 460.384 469.903 460.193 472.642C460.002 475.382 462.079 477.178 464.27 477.331ZM456.601 405.778C461.532 406.122 465.087 402.516 465.431 397.586C465.775 392.655 462.207 388.552 457.824 388.247C453.442 387.941 449.339 391.508 448.995 396.439C448.651 401.37 452.218 405.472 456.601 405.778ZM446.433 433.145C446.625 430.406 444.586 428.062 441.847 427.871C439.108 427.679 436.763 429.718 436.572 432.457C436.381 435.197 438.419 437.541 441.159 437.732C443.898 437.923 446.242 435.885 446.433 433.145ZM430.188 476.604C435.667 476.987 440.356 472.91 440.738 467.431C441.12 461.953 437.043 457.264 431.564 456.881C426.086 456.499 421.397 460.576 421.015 466.055C420.633 471.533 425.257 476.26 430.188 476.604ZM402.744 514.878C406.579 515.145 409.547 512.049 409.777 508.762C410.006 505.475 407.496 501.997 403.661 501.729C399.826 501.462 396.896 504.01 396.628 507.845C396.361 511.68 398.909 514.61 402.744 514.878ZM395.699 465.94C397.89 466.093 400.196 464.602 400.387 461.863C400.579 459.123 399.05 457.365 396.31 457.174C393.571 456.983 391.813 458.512 391.622 461.251C391.43 463.99 393.507 465.787 395.699 465.94ZM360.991 537.288C363.183 537.441 365.489 535.951 365.68 533.211C365.871 530.472 364.342 528.714 361.603 528.523C358.864 528.332 357.106 529.86 356.914 532.6C356.723 535.339 358.8 537.136 360.991 537.288ZM361.565 505.398C367.044 505.78 371.733 501.703 372.115 496.225C372.497 490.746 368.42 486.057 362.942 485.675C357.463 485.293 352.774 489.37 352.392 494.848C352.01 500.327 356.087 505.016 361.565 505.398ZM327.916 530.026C330.655 530.217 333 528.178 333.191 525.439C333.382 522.7 331.344 520.355 328.604 520.164C325.865 519.973 323.521 522.012 323.329 524.751C323.138 527.49 325.177 529.835 327.916 530.026ZM276.495 454.318C365.796 460.55 443.198 392.731 449.429 303.43C455.661 214.129 388.39 136.765 299.089 130.534C209.788 124.302 132.424 191.573 126.192 280.874C119.961 370.175 187.194 448.087 276.495 454.318Z" fill="white" fill-opacity="0.08"/>
</svg>
