<svg width="15" height="16" viewBox="0 0 15 16" fill="none" xmlns="http://www.w3.org/2000/svg">
<path fillRule="evenodd" clip-rule="evenodd" d="M7.03506 13.4517V14.2491C7.03506 14.8885 6.71638 15.4406 6.16259 15.7603C5.89616 15.9141 5.59878 15.9999 5.29047 16C4.98188 16.0002 4.68459 15.9142 4.41797 15.7603L0.872469 13.7133C0.318625 13.3935 0 12.8416 0 12.2021V1.74494C0 0.782719 0.78275 0 1.74494 0H9.55341C10.5157 0 11.2985 0.782656 11.2985 1.74494V3.94928C11.2985 4.2655 11.0417 4.52225 10.7255 4.52225C10.4092 4.52225 10.1527 4.26553 10.1527 3.94928V1.74494C10.1527 1.41453 9.88381 1.14569 9.55341 1.14569H2.71116L6.16259 3.13872C6.71619 3.45841 7.03506 4.01028 7.03506 4.64956V12.3059H9.55341C9.88378 12.3059 10.1527 12.0372 10.1527 11.7068V9.77441C10.1527 9.45797 10.409 9.20144 10.7255 9.20144C11.0418 9.20144 11.2985 9.45803 11.2985 9.77441V11.7068C11.2985 12.6691 10.5157 13.4517 9.55341 13.4517H7.03506ZM12.3439 7.29869L11.7129 7.92966C11.4892 8.15337 11.4893 8.51606 11.7129 8.73981C11.8206 8.84756 11.9658 8.90744 12.118 8.90744C12.2705 8.90744 12.4154 8.84772 12.5233 8.73981L14.132 7.13081C14.3557 6.90712 14.3557 6.54463 14.132 6.32094L12.5233 4.71219C12.2995 4.48844 11.9368 4.48853 11.713 4.71216C11.4893 4.93566 11.4894 5.2985 11.713 5.52206L12.3439 6.15287H8.11703C7.8005 6.15287 7.54419 6.40937 7.54419 6.72587C7.54419 7.04238 7.80053 7.29872 8.11703 7.29872H12.3439V7.29869Z" fill="#00A993"/>
</svg>
