<svg width="24" height="25" viewBox="0 0 24 25" fill="none" xmlns="http://www.w3.org/2000/svg">
<g id="maps-and-flags 1" clip-path="url(#clip0_695_2039)">
<g id="Group">
<g id="Group_2">
<path id="Vector" d="M12 0.672241C7.20726 0.672241 3.30811 4.5714 3.30811 9.36409C3.30811 15.312 11.0865 24.0438 11.4177 24.4126C11.7287 24.7591 12.2718 24.7584 12.5823 24.4126C12.9135 24.0438 20.6919 15.312 20.6919 9.36409C20.6918 4.5714 16.7927 0.672241 12 0.672241ZM12 13.7372C9.58865 13.7372 7.62693 11.7754 7.62693 9.36409C7.62693 6.95274 9.5887 4.99102 12 4.99102C14.4113 4.99102 16.373 6.95279 16.373 9.36413C16.373 11.7755 14.4113 13.7372 12 13.7372Z" fill="white"/>
</g>
</g>
</g>
<defs>
<clipPath id="clip0_695_2039">
<rect width="24" height="24" fill="white" transform="translate(0 0.672241)"/>
</clipPath>
</defs>
</svg>
