<svg width="40" height="40" viewBox="0 0 40 40" fill="none" xmlns="http://www.w3.org/2000/svg">
<path d="M20.0002 0C12.0123 0 5.51367 6.49859 5.51367 14.4864C5.51367 24.3995 18.4777 38.9526 19.0296 39.5673C19.548 40.1447 20.4532 40.1437 20.9707 39.5673C21.5227 38.9526 34.4866 24.3995 34.4866 14.4864C34.4865 6.49859 27.988 0 20.0002 0ZM20.0002 21.7749C15.9812 21.7749 12.7117 18.5053 12.7117 14.4864C12.7117 10.4675 15.9813 7.19797 20.0002 7.19797C24.019 7.19797 27.2885 10.4676 27.2885 14.4865C27.2885 18.5054 24.019 21.7749 20.0002 21.7749Z" fill="white"/>
</svg>
