<svg width="16" height="16" viewBox="0 0 16 16" fill="none" xmlns="http://www.w3.org/2000/svg">
<path d="M9.76221 7.99948L15.7444 2.01704C15.9089 1.85236 15.9997 1.63265 16 1.39837C16 1.16397 15.9092 0.944 15.7444 0.779577L15.2202 0.25548C15.0553 0.0904065 14.8356 0 14.6011 0C14.367 0 14.1473 0.0904065 13.9824 0.25548L8.00026 6.23753L2.01782 0.25548C1.85327 0.0904065 1.63343 0 1.39902 0C1.16488 0 0.945041 0.0904065 0.780488 0.25548L0.256 0.779577C-0.0853333 1.12091 -0.0853333 1.6761 0.256 2.01704L6.23831 7.99948L0.256 13.9817C0.0913171 14.1466 0.000650406 14.3663 0.000650406 14.6006C0.000650406 14.8349 0.0913171 15.0546 0.256 15.2194L0.780358 15.7435C0.944911 15.9084 1.16488 15.999 1.39889 15.999C1.6333 15.999 1.85314 15.9084 2.01769 15.7435L8.00013 9.7613L13.9823 15.7435C14.1471 15.9084 14.3668 15.999 14.601 15.999H14.6012C14.8355 15.999 15.0552 15.9084 15.22 15.7435L15.7443 15.2194C15.9088 15.0547 15.9996 14.8349 15.9996 14.6006C15.9996 14.3663 15.9088 14.1466 15.7443 13.9818L9.76221 7.99948Z" fill="#6E7288" fill-opacity="0.4"/>
</svg>
