<svg width="911" height="102" viewBox="0 0 911 102" fill="none" xmlns="http://www.w3.org/2000/svg">
<g filter="url(#filter0_d_146_322)">
<path d="M912.5 94C912.5 94 155 86.4851 108.5 86.4851C62 86.4851 54 14.9991 33.5 15C28.4184 15.0002 20.424 21.3927 14.5 28" stroke="#E94362" stroke-opacity="0.5" stroke-width="4" shape-rendering="crispEdges"/>
</g>
<g filter="url(#filter1_d_146_322)">
<path d="M912.5 92.5C912.5 92.5 150 86.4851 110.5 86.4851C71 86.4851 54 14.9991 33.5 15C28.5477 15.0002 22.9404 18.6721 17 25L14 28" stroke="#E94362" stroke-opacity="0.5" stroke-width="4" shape-rendering="crispEdges"/>
</g>
<path fill-rule="evenodd" clip-rule="evenodd" d="M82.3322 76.0597C89.9244 82.8723 98.8083 87.4851 109.5 87.4851C130.245 87.4851 330.738 88.9888 526.055 90.4925C623.711 91.2444 720.07 91.9963 792.016 92.5602C827.988 92.8421 857.857 93.077 878.733 93.2415L911.483 93.4999C911.489 93.4999 911.492 93.5 911.5 92.5C911.508 91.5 911.505 91.5 911.499 91.5L878.749 91.2416C857.873 91.0771 828.004 90.8422 792.031 90.5602C720.086 89.9963 623.727 89.2445 526.07 88.4926C330.762 86.9889 130.255 85.4851 109.5 85.4851C99.4418 85.4851 91.0132 81.1622 83.6679 74.5712C76.3074 67.9665 70.0865 59.1296 64.4714 50.2095C62.5336 47.1312 60.6622 44.0325 58.8409 41.0168C55.4189 35.3505 52.1738 29.9774 48.998 25.5834C46.5554 22.2038 44.1038 19.329 41.5767 17.2927C39.0458 15.2534 36.3693 13.9999 33.5 14C32.0189 14.0001 30.3706 14.4899 28.6833 15.2631C26.9834 16.0421 25.1742 17.1413 23.3517 18.4355C19.7065 21.024 15.9339 24.4461 12.7709 27.8156L14.2292 29.1844C17.3225 25.8891 20.9959 22.5613 24.5096 20.0661C26.2666 18.8185 27.9651 17.7923 29.5165 17.0813C31.0805 16.3646 32.4272 16 33.5001 16C35.7559 15.9999 38.0012 16.9802 40.3218 18.85C42.6463 20.723 44.976 23.4329 47.3771 26.755C50.5078 31.0865 53.6754 36.3326 57.0646 41.9458C58.895 44.9772 60.79 48.1157 62.7787 51.275C68.4136 60.2263 74.7552 69.2608 82.3322 76.0597Z" fill="white"/>
<path d="M12.7709 27.8156L14.2292 29.1844L13.5 30H10.5L12.7709 27.8156Z" fill="white"/>
<g filter="url(#filter2_d_146_322)">
<path d="M918 70.4851C918 70.4851 163.5 70.4851 118.5 70.4851C73.5 70.4851 54 7.99911 33.5 8C26.3504 8.00031 18.6535 15.6007 9.34863 25.5" stroke="#F3942D" stroke-opacity="0.5" stroke-width="4" shape-rendering="crispEdges"/>
</g>
<g filter="url(#filter3_d_146_322)">
<path d="M912.5 70.4851C912.5 70.4851 157.5 70.4851 112.5 70.4851C67.5 70.4851 54 7.99911 33.5 8C26.4845 8.00031 16.8248 16.8728 8 26.5" stroke="#F3942D" stroke-opacity="0.5" stroke-width="4" shape-rendering="crispEdges"/>
</g>
<path fill-rule="evenodd" clip-rule="evenodd" d="M64.5911 39.8632C77.0026 55.5305 93.2623 71.4851 118.5 71.4851H911.492C911.497 71.4851 911.5 71.4851 911.5 70.4851C911.5 69.4851 911.497 69.4851 911.492 69.4851H118.5C94.2377 69.4851 78.4974 54.1967 66.1589 38.6213C63.485 35.2459 60.9812 31.8709 58.585 28.6409C58.2196 28.1483 57.8567 27.6591 57.496 27.1738C54.7767 23.5145 52.1835 20.0712 49.6502 17.1125C47.1199 14.1573 44.6143 11.6431 42.0576 9.86385C39.4946 8.08028 36.8291 6.99988 33.9999 7C31.9585 7.00009 29.7504 7.72248 27.4904 8.88829C25.2202 10.0593 22.8272 11.7147 20.3975 13.6673C15.5385 17.5722 10.4406 22.7411 5.76416 27.8228L7.23584 29.1772C11.8926 24.1167 16.91 19.0358 21.6503 15.2263C24.0202 13.3218 26.2979 11.7538 28.4072 10.6657C30.5266 9.57248 32.4067 9.00007 34.0001 9C36.2959 8.9999 38.5679 9.87199 40.9151 11.5055C43.2686 13.1432 45.6458 15.5107 48.131 18.4133C50.6134 21.3126 53.1686 24.7036 55.8907 28.3667C56.251 28.8515 56.6141 29.341 56.9802 29.8346C59.3743 33.0617 61.8973 36.4626 64.5911 39.8632Z" fill="white"/>
<path d="M5.76416 27.8228L7.23584 29.1772L6.5 30H4L5.76416 27.8228Z" fill="white"/>
<defs>
<filter id="filter0_d_146_322" x="7.01074" y="7" width="911.505" height="95" filterUnits="userSpaceOnUse" color-interpolation-filters="sRGB">
<feFlood flood-opacity="0" result="BackgroundImageFix"/>
<feColorMatrix in="SourceAlpha" type="matrix" values="0 0 0 0 0 0 0 0 0 0 0 0 0 0 0 0 0 0 127 0" result="hardAlpha"/>
<feOffset/>
<feGaussianBlur stdDeviation="3"/>
<feComposite in2="hardAlpha" operator="out"/>
<feColorMatrix type="matrix" values="0 0 0 0 0.913725 0 0 0 0 0.270588 0 0 0 0 0.384314 0 0 0 1 0"/>
<feBlend mode="normal" in2="BackgroundImageFix" result="effect1_dropShadow_146_322"/>
<feBlend mode="normal" in="SourceGraphic" in2="effect1_dropShadow_146_322" result="shape"/>
</filter>
<filter id="filter1_d_146_322" x="6.58594" y="7" width="911.926" height="93.5" filterUnits="userSpaceOnUse" color-interpolation-filters="sRGB">
<feFlood flood-opacity="0" result="BackgroundImageFix"/>
<feColorMatrix in="SourceAlpha" type="matrix" values="0 0 0 0 0 0 0 0 0 0 0 0 0 0 0 0 0 0 127 0" result="hardAlpha"/>
<feOffset/>
<feGaussianBlur stdDeviation="3"/>
<feComposite in2="hardAlpha" operator="out"/>
<feColorMatrix type="matrix" values="0 0 0 0 0.913725 0 0 0 0 0.270588 0 0 0 0 0.384314 0 0 0 1 0"/>
<feBlend mode="normal" in2="BackgroundImageFix" result="effect1_dropShadow_146_322"/>
<feBlend mode="normal" in="SourceGraphic" in2="effect1_dropShadow_146_322" result="shape"/>
</filter>
<filter id="filter2_d_146_322" x="1.8916" y="0" width="922.108" height="78.4854" filterUnits="userSpaceOnUse" color-interpolation-filters="sRGB">
<feFlood flood-opacity="0" result="BackgroundImageFix"/>
<feColorMatrix in="SourceAlpha" type="matrix" values="0 0 0 0 0 0 0 0 0 0 0 0 0 0 0 0 0 0 127 0" result="hardAlpha"/>
<feOffset/>
<feGaussianBlur stdDeviation="3"/>
<feComposite in2="hardAlpha" operator="out"/>
<feColorMatrix type="matrix" values="0 0 0 0 0.952941 0 0 0 0 0.580392 0 0 0 0 0.176471 0 0 0 1 0"/>
<feBlend mode="normal" in2="BackgroundImageFix" result="effect1_dropShadow_146_322"/>
<feBlend mode="normal" in="SourceGraphic" in2="effect1_dropShadow_146_322" result="shape"/>
</filter>
<filter id="filter3_d_146_322" x="0.525879" y="0" width="917.974" height="78.4854" filterUnits="userSpaceOnUse" color-interpolation-filters="sRGB">
<feFlood flood-opacity="0" result="BackgroundImageFix"/>
<feColorMatrix in="SourceAlpha" type="matrix" values="0 0 0 0 0 0 0 0 0 0 0 0 0 0 0 0 0 0 127 0" result="hardAlpha"/>
<feOffset/>
<feGaussianBlur stdDeviation="3"/>
<feComposite in2="hardAlpha" operator="out"/>
<feColorMatrix type="matrix" values="0 0 0 0 0.952941 0 0 0 0 0.580392 0 0 0 0 0.176471 0 0 0 1 0"/>
<feBlend mode="normal" in2="BackgroundImageFix" result="effect1_dropShadow_146_322"/>
<feBlend mode="normal" in="SourceGraphic" in2="effect1_dropShadow_146_322" result="shape"/>
</filter>
</defs>
</svg>
