<svg width="99" height="53" viewBox="0 0 99 53" fill="none" xmlns="http://www.w3.org/2000/svg">
<path d="M14.513 0.753449C14.7165 0.753449 14.891 0.579575 14.891 0.376724C14.891 0.173872 14.7165 0 14.513 0C14.3095 0 14.135 0.173872 14.135 0.376724C14.135 0.579575 14.3095 0.753449 14.513 0.753449Z" fill="#001489" fill-opacity="0.42"/>
<path d="M47.2151 4.05803L47.564 3.71029C47.7385 3.53642 48.0874 3.27561 48.6107 2.89889C49.1341 2.52217 49.7156 2.17442 50.3262 1.85566C50.9368 1.53689 51.6928 1.27609 52.6523 1.01528C53.5827 0.754474 54.5422 0.63856 55.5017 0.63856C58.8164 0.63856 61.4914 1.73974 63.5558 3.88416C65.6202 6.05755 66.6378 8.9554 66.6378 12.6357V28.6029H60.9099V12.6357C60.9099 10.6651 60.2702 9.04234 59.0199 7.73831C57.7697 6.43427 56.1996 5.79674 54.3387 5.79674C52.158 5.79674 50.4134 6.49223 49.1341 7.91218C47.8548 9.33213 47.186 11.2737 47.186 13.7948V28.6029H41.458V1.21813H47.186L47.2151 4.05803Z" fill="#001489" fill-opacity="0.42"/>
<path fill-rule="evenodd" clip-rule="evenodd" d="M77.2221 16.8955C77.5128 18.8371 78.4724 20.4889 80.1006 21.9088C81.6998 23.3288 83.6188 24.0243 85.8576 24.0243C87.4568 24.0243 88.9397 23.6765 90.3354 22.9231C91.731 22.1986 92.6905 21.5031 93.272 20.8076L94.1443 19.7354L97.866 23.4737C97.8179 23.5336 97.7598 23.6035 97.6918 23.6853L97.6912 23.686C97.5949 23.8019 97.4788 23.9416 97.3427 24.1112C97.1101 24.401 96.6158 24.8357 95.8598 25.4732C95.1038 26.1107 94.2897 26.6903 93.4174 27.1829C92.5451 27.6755 91.4402 28.1392 90.0737 28.5449C88.7071 28.9506 87.2824 29.1824 85.8286 29.1824C81.9324 29.1824 78.5887 27.7625 75.7683 24.8936C72.9479 22.0247 71.5232 18.6053 71.5232 14.6352C71.5232 10.6651 72.8898 7.50648 75.652 4.75351C78.3851 2.02953 81.6998 0.63856 85.5378 0.63856C89.3758 0.63856 92.5742 1.91362 95.162 4.46373C97.7497 7.01384 99 10.2015 99 14.0556L98.6802 16.8955H77.2221ZM80.3041 7.33261C78.9085 8.5497 77.949 10.1145 77.4547 12.0561H93.3593C93.0394 10.1145 92.1671 8.5497 90.7715 7.33261C89.3758 6.11551 87.6313 5.50696 85.5378 5.50696C83.4443 5.50696 81.7289 6.11551 80.3041 7.33261Z" fill="#001489" fill-opacity="0.42"/>
<path fill-rule="evenodd" clip-rule="evenodd" d="M10.1186 52.9425C10.6129 52.9425 11.049 52.7687 11.3979 52.4209C11.7469 52.1021 11.9213 51.6675 11.9213 51.1458C11.9213 50.6532 11.7469 50.2185 11.3979 49.8708C11.049 49.523 10.6129 49.3492 10.1186 49.3492C9.62429 49.3492 9.18815 49.523 8.83923 49.8708C8.49032 50.2185 8.31586 50.6532 8.31586 51.1458C8.31586 51.6385 8.49032 52.0732 8.83923 52.4209C9.18815 52.7687 9.62429 52.9425 10.1186 52.9425ZM10.1477 52.5948C9.7406 52.5948 9.39168 52.4789 9.12999 52.1891C8.86831 51.9283 8.72293 51.5805 8.72293 51.1748C8.72293 50.7691 8.86831 50.4503 9.12999 50.1606C9.42076 49.8998 9.7406 49.7549 10.1477 49.7549C10.5547 49.7549 10.9036 49.8708 11.1653 50.1606C11.427 50.4214 11.5724 50.7691 11.5724 51.1748C11.5724 51.5805 11.427 51.8993 11.1653 52.1891C10.8746 52.4499 10.5547 52.5948 10.1477 52.5948Z" fill="#001489" fill-opacity="0.42"/>
<path d="M13.697 49.8993C14.046 49.5515 14.4821 49.3777 14.9764 49.3777C15.1509 49.3777 15.3253 49.4066 15.4707 49.4646C15.6451 49.5225 15.7614 49.5805 15.8777 49.6384C15.9523 49.6756 16.0149 49.7247 16.0733 49.7704C16.1059 49.7959 16.1373 49.8206 16.1685 49.8413C16.2327 49.884 16.2812 49.9424 16.3139 49.9818C16.3208 49.9901 16.3271 49.9976 16.3326 50.0039L16.3371 50.009L16.343 50.0152L16.4011 50.1021L16.1395 50.334C16.1395 50.316 16.1283 50.3092 16.113 50.2997C16.1035 50.2939 16.0924 50.2871 16.0813 50.276L16.0776 50.2721L16.0719 50.2657C16.0669 50.2598 16.0617 50.2532 16.056 50.2461C16.0318 50.2151 15.9987 50.1728 15.9359 50.1311C15.8778 50.0732 15.7905 50.0152 15.7033 49.9572C15.6525 49.9235 15.5919 49.8996 15.5271 49.874C15.4806 49.8557 15.432 49.8365 15.3835 49.8123C15.2381 49.7544 15.0927 49.7544 14.9473 49.7544C14.5403 49.7544 14.2204 49.8993 13.9297 50.1601C13.668 50.4499 13.5226 50.7686 13.5226 51.1743C13.5226 51.58 13.668 51.9278 13.9297 52.1886C14.1913 52.4784 14.5403 52.5943 14.9473 52.5943C15.0927 52.5943 15.238 52.5653 15.3834 52.5364C15.5287 52.5074 15.6452 52.4494 15.7324 52.3914C15.8196 52.3335 15.9068 52.2755 15.965 52.2176L16.1685 52.0147L16.4302 52.2466C16.4302 52.2755 16.4011 52.3045 16.3721 52.3335L16.1976 52.5074C16.1286 52.5762 16.0595 52.6268 15.9761 52.688C15.9541 52.7042 15.9311 52.7211 15.9068 52.7392C15.7906 52.7971 15.6742 52.8551 15.4998 52.9131C15.3253 52.971 15.1509 53 14.9764 53C14.4821 53 14.046 52.8261 13.697 52.4784C13.3481 52.1306 13.1737 51.696 13.1737 51.2033C13.1737 50.6817 13.3481 50.247 13.697 49.8993Z" fill="#001489" fill-opacity="0.42"/>
<path d="M19.9135 49.7834V49.4357H17.3257V49.7834H18.4306V52.9131H18.8086V49.7834H19.9135Z" fill="#001489" fill-opacity="0.42"/>
<path fill-rule="evenodd" clip-rule="evenodd" d="M21.2755 51.9316L20.8685 52.8879H20.4614L21.9152 49.4104H22.2641L23.7179 52.8879H23.3109L22.9038 51.9316H21.2755ZM22.0897 49.961L21.4209 51.6128H22.7584L22.0897 49.961Z" fill="#001489" fill-opacity="0.42"/>
<path fill-rule="evenodd" clip-rule="evenodd" d="M27.1195 49.7577C26.8869 49.5548 26.6252 49.4389 26.3054 49.4389H24.9969V52.9164H25.3459V51.6413H26.3054C26.6252 51.6413 26.916 51.5254 27.1195 51.3225C27.323 51.1197 27.4393 50.8589 27.4393 50.5401C27.4393 50.2213 27.3521 49.9605 27.1195 49.7577ZM25.3749 51.2646V49.7577H26.3344C26.5671 49.7577 26.7415 49.8156 26.8869 49.9605C27.0323 50.1054 27.0904 50.2793 27.0904 50.5111C27.0904 50.743 27.0323 50.9168 26.8869 51.0617C26.7415 51.2066 26.5671 51.2646 26.3344 51.2646H25.3749Z" fill="#001489" fill-opacity="0.42"/>
<path d="M28.8888 49.4389H29.2668V50.9748H31.2149V49.4389H31.5929V52.9164H31.2149V51.3225H29.2668V52.9164H28.8888V49.4389Z" fill="#001489" fill-opacity="0.42"/>
<path fill-rule="evenodd" clip-rule="evenodd" d="M33.2505 52.8879L33.6576 51.9316H35.2859L35.6929 52.8879H36.1L34.6462 49.4104H34.2973L32.8435 52.8879H33.2505ZM33.803 51.6128L34.4717 49.961L35.1405 51.6128H33.803Z" fill="#001489" fill-opacity="0.42"/>
<path fill-rule="evenodd" clip-rule="evenodd" d="M38.7802 49.4389C39.1001 49.4389 39.3327 49.5259 39.5362 49.7287C39.7397 49.9316 39.827 50.1634 39.827 50.4822C39.827 50.6271 39.7979 50.7719 39.7397 50.8879C39.6816 51.0038 39.6234 51.1197 39.5653 51.1777C39.5362 51.2066 39.4999 51.2356 39.4635 51.2646C39.4272 51.2935 39.3908 51.3226 39.3618 51.3515C39.3036 51.4095 39.2164 51.4385 39.1873 51.4385L39.1001 51.4674L39.9142 52.9164H39.5362L38.7512 51.5254H37.7626V52.9164H37.3846V49.4389H38.7802ZM37.7626 51.1777H38.7802C38.9838 51.1777 39.1582 51.1197 39.2745 51.0038C39.3908 50.8879 39.4781 50.714 39.4781 50.5111C39.4781 50.3083 39.4199 50.1344 39.2745 50.0185C39.1582 49.9026 38.9838 49.8446 38.7802 49.8446H37.7626V51.1777Z" fill="#001489" fill-opacity="0.42"/>
<path d="M41.7698 50.1073L43.1654 51.933L44.5611 50.1073V52.9473H44.9391V49.4698H44.6192L43.1654 51.3534L41.7116 49.4698H41.3918V52.9473H41.7698V50.1073Z" fill="#001489" fill-opacity="0.42"/>
<path fill-rule="evenodd" clip-rule="evenodd" d="M47.0052 51.9316L46.5981 52.8879H46.2201L47.674 49.4104H48.0229L49.4767 52.8879H49.0696L48.6626 51.9316H47.0052ZM47.8484 49.961L47.1797 51.6128H48.5172L47.8484 49.961Z" fill="#001489" fill-opacity="0.42"/>
<path d="M52.7076 49.4389H52.3296V52.9164H52.7076V51.3225H54.6557V52.9164H55.0337V49.4389H54.6557V50.9748H52.7076V49.4389Z" fill="#001489" fill-opacity="0.42"/>
<path fill-rule="evenodd" clip-rule="evenodd" d="M57.1247 51.9316L56.7176 52.8879H56.3106L57.7644 49.4104H58.1133L59.5671 52.8879H59.16L58.753 51.9316H57.1247ZM57.9388 49.961L57.2701 51.5838H58.6076L57.9388 49.961Z" fill="#001489" fill-opacity="0.42"/>
<path d="M63.2861 52.9164V52.5686H61.2217V51.2646H62.85V50.9168H61.2217V49.7867H63.228V49.4389H60.8437V52.9164H63.2861Z" fill="#001489" fill-opacity="0.42"/>
<path d="M66.4591 51.933L65.0634 50.1073V52.9473H64.6854V49.4698H65.0053L66.4591 51.3534L67.9129 49.4698H68.2327V52.9473H67.8547V50.1073L66.4591 51.933Z" fill="#001489" fill-opacity="0.42"/>
<path fill-rule="evenodd" clip-rule="evenodd" d="M69.8615 52.8879L70.2686 51.9316H71.8968L72.3039 52.8879H72.711L71.2572 49.4104H70.9082L69.4544 52.8879H69.8615ZM70.4139 51.6128L71.0827 49.961L71.7515 51.6128H70.4139Z" fill="#001489" fill-opacity="0.42"/>
<path d="M75.8338 49.4357V49.7834H74.7289V52.9131H74.3509V49.7834H73.2751V49.4357H75.8338Z" fill="#001489" fill-opacity="0.42"/>
<path fill-rule="evenodd" clip-rule="evenodd" d="M78.4473 52.9425C78.9416 52.9425 79.3777 52.7687 79.7266 52.4209C80.0755 52.1021 80.25 51.6675 80.25 51.1458C80.25 50.6532 80.0755 50.2185 79.7266 49.8708C79.3777 49.523 78.9416 49.3492 78.4473 49.3492C77.953 49.3492 77.5168 49.523 77.1679 49.8708C76.819 50.2185 76.6445 50.6532 76.6445 51.1458C76.6445 51.6385 76.819 52.0732 77.1679 52.4209C77.5168 52.7687 77.953 52.9425 78.4473 52.9425ZM78.4763 52.5948C78.0693 52.5948 77.7204 52.4789 77.4587 52.1891C77.197 51.9283 77.0516 51.5805 77.0516 51.1748C77.0516 50.7691 77.197 50.4503 77.4587 50.1606C77.7494 49.8998 78.0693 49.7549 78.4763 49.7549C78.8834 49.7549 79.2323 49.8708 79.494 50.1606C79.7557 50.4214 79.9011 50.7691 79.9011 51.1748C79.9011 51.5805 79.7557 51.8993 79.494 52.1891C79.2033 52.4499 78.8834 52.5948 78.4763 52.5948Z" fill="#001489" fill-opacity="0.42"/>
<path d="M81.7303 52.9131V49.4357H82.1083V52.5654H83.9111V52.9131H81.7303Z" fill="#001489" fill-opacity="0.42"/>
<path fill-rule="evenodd" clip-rule="evenodd" d="M86.5023 52.9425C86.9965 52.9425 87.4327 52.7687 87.7816 52.4209C88.1305 52.1021 88.305 51.6675 88.305 51.1458C88.305 50.6532 88.1305 50.2185 87.7816 49.8708C87.4327 49.523 86.9965 49.3492 86.5023 49.3492C86.0079 49.3492 85.5718 49.523 85.2229 49.8708C84.874 50.2185 84.6995 50.6532 84.6995 51.1458C84.6995 51.6385 84.874 52.0732 85.2229 52.4209C85.5718 52.7687 86.0079 52.9425 86.5023 52.9425ZM86.5313 52.5948C86.1243 52.5948 85.7753 52.4789 85.5137 52.1891C85.252 51.9283 85.1066 51.5805 85.1066 51.1748C85.1066 50.7691 85.252 50.4503 85.5137 50.1606C85.8044 49.8998 86.1243 49.7549 86.5313 49.7549C86.9384 49.7549 87.2873 49.8708 87.549 50.1606C87.8107 50.4214 87.9561 50.7691 87.9561 51.1748C87.9561 51.5805 87.8107 51.8993 87.549 52.1891C87.2582 52.4499 86.9384 52.5948 86.5313 52.5948Z" fill="#001489" fill-opacity="0.42"/>
<path d="M90.0838 49.9037C90.4327 49.556 90.8689 49.3821 91.3632 49.3821C91.5376 49.3821 91.7121 49.4111 91.8575 49.469C92.0319 49.527 92.1482 49.585 92.2645 49.6429C92.3391 49.6801 92.4017 49.7291 92.46 49.7748C92.4927 49.8004 92.524 49.825 92.5553 49.8458C92.6195 49.8884 92.6679 49.9468 92.7006 49.9862C92.7123 50.0003 92.7221 50.012 92.7297 50.0196L92.7879 50.1066L92.5262 50.3384L92.526 50.3348C92.5259 50.3332 92.5256 50.3317 92.5253 50.3304L92.5244 50.3273C92.5239 50.3259 92.5233 50.3246 92.5226 50.3234L92.5215 50.3217L92.5205 50.3203L92.5179 50.3172L92.5152 50.3147C92.5138 50.3135 92.5123 50.3124 92.5107 50.3113L92.5057 50.308L92.501 50.305L92.5002 50.3045C92.4907 50.2987 92.4791 50.2915 92.468 50.2805C92.4599 50.2723 92.4517 50.2619 92.4423 50.2498C92.4181 50.2189 92.3854 50.1773 92.3227 50.1356C92.2791 50.1066 92.2427 50.0776 92.2064 50.0486C92.17 50.0196 92.1337 49.9907 92.0901 49.9617C92.0392 49.9279 91.9786 49.904 91.9137 49.8784C91.8673 49.8601 91.8188 49.841 91.7702 49.8168C91.6248 49.7588 91.4795 49.7588 91.3341 49.7588C90.927 49.7588 90.6072 49.9037 90.3164 50.1645C90.0547 50.4543 89.9093 50.7731 89.9093 51.1788C89.9093 51.5845 90.0547 51.9322 90.3164 52.1931C90.5781 52.4828 90.927 52.5988 91.3341 52.5988C91.4582 52.5988 91.5612 52.5776 91.6792 52.5534L91.7411 52.5408C91.8142 52.5226 91.8872 52.493 91.953 52.4663C91.9717 52.4587 91.99 52.4513 92.0074 52.4445L92.0256 52.4375C92.0379 52.4329 92.0497 52.4286 92.061 52.4249C92.0844 52.4094 92.1056 52.3959 92.1254 52.3834C92.1794 52.3493 92.2219 52.3224 92.2645 52.28C92.2807 52.2638 92.2969 52.2499 92.3125 52.2377C92.3297 52.2241 92.3461 52.2126 92.3609 52.2021C92.3808 52.1881 92.3979 52.1761 92.4099 52.1641L92.439 52.1061V51.4396H91.6539V51.0919H92.817V52.222C92.817 52.251 92.7879 52.28 92.7588 52.309L92.5843 52.4828C92.5407 52.5263 92.4899 52.5625 92.439 52.5988C92.3881 52.635 92.3372 52.6712 92.2936 52.7147C92.1773 52.7726 92.061 52.8306 91.8865 52.8885C91.7121 52.9465 91.5376 52.9755 91.3632 52.9755C90.8689 52.9755 90.4327 52.8016 90.0838 52.4539C89.7349 52.1061 89.5604 51.6714 89.5604 51.1788C89.5604 50.6862 89.7349 50.2515 90.0838 49.9037Z" fill="#001489" fill-opacity="0.42"/>
<path d="M96.3889 49.4357L95.3422 51.2903L94.2955 49.4357H93.8593L95.1387 51.696V52.9131H95.5167V51.696L96.8251 49.4357H96.3889Z" fill="#001489" fill-opacity="0.42"/>
<path d="M14.5106 36.4841C14.4524 36.3971 14.3652 36.2812 14.2489 36.1653C14.1326 36.0494 13.8709 35.8755 13.4929 35.6726C13.0858 35.4698 12.6497 35.3539 12.2136 35.3539C11.632 35.3539 11.1377 35.4988 10.7888 35.8175C10.4399 36.1363 10.2364 36.4841 10.2364 36.8898C10.2364 37.2955 10.4399 37.6432 10.8179 37.904C11.1959 38.1648 11.6902 38.3677 12.2426 38.5126C12.7951 38.6575 13.3475 38.8313 13.929 39.0342C14.5106 39.237 14.9758 39.5558 15.3538 39.9905C15.7318 40.4252 15.9353 41.0047 15.9353 41.7002C15.9353 42.5986 15.5864 43.352 14.8886 43.9606C14.1907 44.5691 13.2603 44.8589 12.0682 44.8589C11.5739 44.8589 11.1087 44.801 10.6434 44.6561C10.1782 44.5112 9.8293 44.3663 9.53854 44.1924C9.24778 44.0185 9.01516 43.8447 8.78255 43.6418C8.57902 43.4679 8.40456 43.2941 8.31734 43.1782L8.17195 42.9753L9.27685 41.8741C9.29482 41.892 9.31279 41.921 9.33762 41.961C9.35287 41.9856 9.37116 42.0151 9.39316 42.048C9.45134 42.106 9.56771 42.222 9.74207 42.4247C9.91653 42.5986 10.091 42.7435 10.2945 42.8884C10.4981 43.0333 10.7597 43.1492 11.0796 43.2651C11.3994 43.381 11.7193 43.439 12.0391 43.439C12.7951 43.439 13.3475 43.2651 13.7546 42.9463C14.1617 42.6276 14.3361 42.1929 14.3361 41.7002C14.3361 41.2656 14.1326 40.9178 13.7546 40.628C13.3766 40.3382 12.8823 40.1354 12.3299 39.9905C11.8602 39.8673 11.3905 39.7022 10.9029 39.5309C10.817 39.5007 10.7306 39.4703 10.6434 39.4399C10.0619 39.237 9.59669 38.9183 9.2187 38.5126C8.84071 38.1069 8.63717 37.5273 8.63717 36.8608C8.63717 36.0784 8.95701 35.3829 9.65484 34.7743C10.3527 34.1657 11.1668 33.876 12.1845 33.876C12.5915 33.876 12.9986 33.9339 13.3766 34.0209C13.7546 34.1078 14.1035 34.2237 14.3361 34.3686C14.5687 34.5135 14.8013 34.6584 15.0049 34.8033C15.2084 34.9482 15.3538 35.0641 15.441 35.151L15.5864 35.3249L14.5106 36.4841Z" fill="#001489" fill-opacity="0.42"/>
<path fill-rule="evenodd" clip-rule="evenodd" d="M28.2375 33.9613C26.7546 33.9613 25.4753 34.4829 24.4285 35.5552C23.3818 36.6274 22.8584 37.9314 22.8584 39.4673C22.8584 41.0032 23.3818 42.2783 24.4285 43.3505C25.4753 44.4227 26.7546 44.9443 28.2375 44.9443C29.7204 44.9443 30.9998 44.3937 32.0465 43.3505C33.0933 42.3072 33.6166 41.0322 33.6166 39.4673C33.6166 37.9025 33.0933 36.6274 32.0465 35.5552C30.9998 34.4829 29.7204 33.9613 28.2375 33.9613ZM28.2666 35.3813C29.3134 35.3813 30.2147 35.787 30.9707 36.5694C31.7267 37.3519 32.1047 38.3082 32.1047 39.4383C32.1047 40.5685 31.6976 41.5248 30.9707 42.3072C30.2438 43.0897 29.3134 43.4954 28.2666 43.4954C27.2199 43.4954 26.3185 43.0897 25.5625 42.3072C24.8065 41.5248 24.4285 40.5685 24.4285 39.4383C24.4285 38.3082 24.8065 37.3519 25.5625 36.5694C26.2894 35.758 27.2199 35.3813 28.2666 35.3813Z" fill="#001489" fill-opacity="0.42"/>
<path d="M49.0233 43.2926C49.0113 43.3046 48.9992 43.3266 48.9851 43.3523C48.9652 43.3887 48.9411 43.4326 48.907 43.4665L48.5 43.8722C48.2964 44.0461 48.0638 44.22 47.8021 44.3649C47.5404 44.5097 47.2497 44.6546 46.8426 44.7706C46.4355 44.8865 46.0285 44.9444 45.6214 44.9444C44.4002 44.9444 43.3535 44.5097 42.5393 43.6694C41.7252 42.829 41.3181 41.6988 41.3181 40.3368V34.1933H42.8592V40.3368C42.8592 41.2641 43.1499 42.0176 43.7314 42.6261C44.313 43.2347 45.0108 43.5245 45.8249 43.5245C46.7263 43.5245 47.4823 43.2057 48.0929 42.5392C48.7035 41.8727 49.0233 41.0323 49.0233 40.018V34.1933H50.5644V44.7126H49.0233V43.2926Z" fill="#001489" fill-opacity="0.42"/>
<path d="M63.9997 35.4972H64.6685V33.9613H64.2324C63.7671 33.9613 63.331 34.0193 62.9239 34.1352C62.5169 34.2511 62.197 34.396 61.9353 34.5409C61.6736 34.6858 61.441 34.8307 61.2375 35.0335C61.1598 35.111 61.0905 35.1758 61.0314 35.2312C60.9358 35.3206 60.8663 35.3856 60.8304 35.4393C60.8082 35.4725 60.7903 35.4972 60.7749 35.5183C60.7501 35.5525 60.7321 35.5773 60.7141 35.6131V34.1932H59.1731V44.7125H60.7141V38.8877C60.7141 37.8735 61.034 37.0331 61.6736 36.4245C62.3133 35.816 63.0984 35.4972 63.9997 35.4972Z" fill="#001489" fill-opacity="0.42"/>
<path d="M72.4887 35.5552C73.5354 34.4829 74.7567 33.9613 76.2105 33.9613C77.0246 33.9613 77.8097 34.1352 78.5075 34.4829C79.2053 34.8307 79.7287 35.1784 80.0485 35.5262L80.5137 36.0188L79.4088 37.12C79.3968 37.108 79.3848 37.0861 79.3707 37.0604C79.3507 37.024 79.3266 36.9801 79.2925 36.9462C79.2344 36.8592 79.1181 36.7143 78.9145 36.5115C78.711 36.3086 78.5075 36.1347 78.2749 35.9609C78.0423 35.816 77.7515 35.6711 77.3735 35.5552C76.9955 35.4392 76.6175 35.3813 76.2105 35.3813C75.1928 35.3813 74.3205 35.758 73.5936 36.5694C72.8376 37.3519 72.4887 38.3082 72.4887 39.4383C72.4887 40.5685 72.8667 41.5248 73.5936 42.3072C74.3496 43.0897 75.2219 43.4954 76.2105 43.4954C76.8211 43.4954 77.4026 43.3505 77.955 43.0607C78.5075 42.7709 78.9146 42.4811 79.1472 42.1913L79.4961 41.7566L80.601 42.7419C80.5719 42.7999 80.4847 42.8868 80.3975 42.9737C80.3215 43.0746 80.1573 43.2196 79.9433 43.4084L79.845 43.4954C79.5542 43.7562 79.2635 43.959 78.9436 44.1329C78.6238 44.3068 78.2167 44.5096 77.7224 44.6545C77.2281 44.8284 76.7048 44.8863 76.2105 44.8863C74.7567 44.8863 73.5354 44.3647 72.4887 43.2925C71.442 42.2203 70.9186 40.9452 70.9186 39.4093C70.9186 37.8735 71.442 36.6274 72.4887 35.5552Z" fill="#001489" fill-opacity="0.42"/>
<path fill-rule="evenodd" clip-rule="evenodd" d="M89.8723 42.4811C89.1454 41.7856 88.7674 40.9742 88.7093 40.0179H97.2577L97.374 39.2355C97.374 37.7286 96.8797 36.4535 95.9202 35.4682C94.9607 34.454 93.7104 33.9613 92.3147 33.9613C90.9191 33.9613 89.6979 34.4829 88.6802 35.5552C87.6625 36.6274 87.1392 37.9025 87.1392 39.4383C87.1392 40.9742 87.6625 42.2493 88.7093 43.3215C89.756 44.3937 90.9772 44.9153 92.431 44.9153C92.9544 44.9153 93.4778 44.8284 93.9721 44.6835C94.4664 44.5386 94.8734 44.3357 95.1933 44.1619C95.5131 43.988 95.8039 43.7851 96.0946 43.5243C96.3854 43.2925 96.5889 43.0897 96.6471 43.0027C96.6738 42.9628 96.7065 42.923 96.737 42.8859C96.773 42.8421 96.8058 42.8023 96.8215 42.7709L95.833 41.7856L95.455 42.2203C95.2224 42.5101 94.8153 42.7999 94.2628 43.0897C93.7104 43.3794 93.0998 43.5243 92.431 43.5243C91.4424 43.5243 90.5992 43.1766 89.8723 42.4811ZM88.7093 38.6849C88.8256 37.7865 89.2326 37.0041 89.9305 36.3666C90.6283 35.729 91.4424 35.4103 92.3438 35.4103C93.2452 35.4103 94.0302 35.729 94.699 36.3376C95.3677 36.9462 95.7457 37.7286 95.862 38.6849H88.7093Z" fill="#001489" fill-opacity="0.42"/>
<path d="M8.98415 21.0392C8.98415 21.5608 8.54801 21.9955 8.02464 21.9955C7.50126 21.9955 7.06512 21.5608 7.06512 21.0392C7.06512 20.5175 7.50126 20.0829 8.02464 20.0829C8.54801 20.0829 8.98415 20.5175 8.98415 21.0392Z" fill="#001489" fill-opacity="0.42"/>
<path d="M11.4529 3.44901C11.5983 3.44901 11.6855 3.3331 11.6855 3.21718C11.6855 3.10127 11.5983 2.98535 11.4529 2.98535C11.3076 2.98535 11.2203 3.07229 11.2203 3.21718C11.2203 3.36208 11.3076 3.44901 11.4529 3.44901Z" fill="#001489" fill-opacity="0.42"/>
<path d="M9.30166 6.31622C9.30166 6.46112 9.18535 6.57703 9.03997 6.57703C8.89459 6.57703 8.77829 6.46112 8.77829 6.31622C8.77829 6.17133 8.89459 6.05541 9.03997 6.05541C9.18535 6.05541 9.30166 6.17133 9.30166 6.31622Z" fill="#001489" fill-opacity="0.42"/>
<path d="M6.31522 18.8652C6.54783 18.8652 6.72229 18.6914 6.72229 18.4595C6.72229 18.2277 6.54783 18.0538 6.31522 18.0538C6.08261 18.0538 5.90815 18.2277 5.90815 18.4595C5.90815 18.6914 6.08261 18.8652 6.31522 18.8652Z" fill="#001489" fill-opacity="0.42"/>
<path d="M8.16956 18.9233C8.16956 19.1261 8.02417 19.271 7.82064 19.271C7.61711 19.271 7.47173 19.0972 7.47173 18.9233C7.47173 18.7494 7.61711 18.5755 7.82064 18.5755C8.02417 18.5755 8.16956 18.7204 8.16956 18.9233Z" fill="#001489" fill-opacity="0.42"/>
<path d="M5.52369 8.31656C5.84353 8.31656 6.10521 8.05575 6.10521 7.73698C6.10521 7.41822 5.84353 7.15741 5.52369 7.15741C5.20385 7.15741 4.94216 7.41822 4.94216 7.73698C4.94216 8.05575 5.20385 8.31656 5.52369 8.31656Z" fill="#001489" fill-opacity="0.42"/>
<path d="M8.57893 8.31741C8.57893 8.49129 8.43355 8.66516 8.23002 8.63618C8.05556 8.63618 7.8811 8.49129 7.91018 8.28843C7.91018 8.11456 8.05556 7.94069 8.25909 7.96967C8.43355 7.96967 8.57893 8.14354 8.57893 8.31741Z" fill="#001489" fill-opacity="0.42"/>
<path d="M6.10626 11.9385C6.25164 11.9385 6.36795 11.8515 6.36795 11.7066C6.36795 11.5617 6.28072 11.4458 6.13534 11.4458C5.98996 11.4458 5.90273 11.5328 5.87365 11.6777C5.84457 11.8226 5.96088 11.9385 6.10626 11.9385Z" fill="#001489" fill-opacity="0.42"/>
<path d="M9.47612 25.4442C9.47612 25.647 9.30166 25.7919 9.1272 25.7919C8.95274 25.7919 8.77829 25.6181 8.77829 25.4442C8.77829 25.2703 8.95274 25.0964 9.1272 25.0964C9.33073 25.0964 9.47612 25.2413 9.47612 25.4442Z" fill="#001489" fill-opacity="0.42"/>
<path d="M9.27527 23.7355C9.50788 23.7355 9.68233 23.5617 9.68233 23.3298C9.68233 23.098 9.50788 22.9241 9.27527 22.9241C9.04266 22.9241 8.8682 23.098 8.8682 23.3298C8.8682 23.5617 9.04266 23.7355 9.27527 23.7355Z" fill="#001489" fill-opacity="0.42"/>
<path d="M3.22163 24.8933C3.22163 25.0382 3.10532 25.1541 2.95994 25.1541C2.81456 25.1541 2.69826 25.0382 2.69826 24.8933C2.69826 24.7484 2.81456 24.6325 2.95994 24.6325C3.10532 24.6325 3.22163 24.7484 3.22163 24.8933Z" fill="#001489" fill-opacity="0.42"/>
<path d="M6.57286 16.9823C7.29976 16.9823 7.88129 16.4027 7.88129 15.6782C7.88129 14.9538 7.29976 14.3742 6.57286 14.3742C5.84595 14.3742 5.26442 14.9538 5.26442 15.6782C5.26442 16.4027 5.84595 16.9823 6.57286 16.9823Z" fill="#001489" fill-opacity="0.42"/>
<path d="M4.76882 12.9258C4.76882 13.1576 4.59436 13.3315 4.36175 13.3315C4.12914 13.3315 3.95468 13.1576 3.95468 12.9258C3.95468 12.694 4.12914 12.5201 4.36175 12.5201C4.59436 12.5201 4.76882 12.694 4.76882 12.9258Z" fill="#001489" fill-opacity="0.42"/>
<path d="M5.1678 17.5317C5.1678 17.8505 4.90611 18.0823 4.61535 18.0823C4.32459 18.0823 4.0629 17.8215 4.0629 17.5317C4.0629 17.2419 4.32459 16.9811 4.61535 16.9811C4.90611 16.9811 5.1678 17.213 5.1678 17.5317Z" fill="#001489" fill-opacity="0.42"/>
<path d="M8.34558 27.5575C8.63634 27.5575 8.86895 27.3257 8.86895 27.0359C8.86895 26.7751 8.66542 26.5143 8.37465 26.5143C8.08389 26.5143 7.85128 26.7461 7.85128 27.0359C7.85128 27.3257 8.05481 27.5575 8.34558 27.5575Z" fill="#001489" fill-opacity="0.42"/>
<path d="M4.99796 2.49202C4.99796 2.60794 4.91073 2.72385 4.76535 2.72385C4.61996 2.72385 4.56181 2.60794 4.56181 2.49202C4.56181 2.37611 4.64904 2.26019 4.79442 2.26019C4.9398 2.26019 4.99796 2.37611 4.99796 2.49202Z" fill="#001489" fill-opacity="0.42"/>
<path d="M6.98024 10.5771C7.12562 10.5771 7.21285 10.4612 7.21285 10.3453C7.21285 10.2004 7.12562 10.1135 6.98024 10.1135C6.83486 10.1135 6.74763 10.2004 6.74763 10.3453C6.74763 10.4902 6.83486 10.5771 6.98024 10.5771Z" fill="#001489" fill-opacity="0.42"/>
<path d="M2.76758 1.24547C2.76758 1.36138 2.68035 1.4773 2.53497 1.4773C2.38959 1.4773 2.33143 1.39036 2.33143 1.24547C2.33143 1.10057 2.41866 1.04262 2.56404 1.04262C2.70942 1.04262 2.76758 1.12955 2.76758 1.24547Z" fill="#001489" fill-opacity="0.42"/>
<path d="M14.304 2.08577C14.4493 2.08577 14.5366 1.96986 14.5366 1.85394C14.5366 1.73803 14.4493 1.62211 14.304 1.62211C14.1586 1.62211 14.0714 1.70905 14.0714 1.85394C14.0714 1.99884 14.1586 2.08577 14.304 2.08577Z" fill="#001489" fill-opacity="0.42"/>
<path d="M1.57126 22.4292C1.57126 22.5451 1.48403 22.661 1.33865 22.661C1.19327 22.661 1.10604 22.5741 1.10604 22.4292C1.10604 22.2843 1.19327 22.1974 1.33865 22.1974C1.48403 22.1974 1.57126 22.3133 1.57126 22.4292Z" fill="#001489" fill-opacity="0.42"/>
<path d="M0.203533 19.5031C0.348914 19.5031 0.436144 19.3872 0.436144 19.2713C0.436144 19.1554 0.37799 19.0394 0.232611 19.0394C0.0872294 19.0394 0 19.1264 0 19.2713C0 19.4162 0.0581519 19.5031 0.203533 19.5031Z" fill="#001489" fill-opacity="0.42"/>
<path d="M12.5595 26.0823C12.5595 26.2851 12.4141 26.43 12.2106 26.43C12.007 26.43 11.8617 26.2851 11.8617 26.0823C11.8617 25.8794 12.007 25.7345 12.2106 25.7345C12.4141 25.7345 12.5595 25.9084 12.5595 26.0823Z" fill="#001489" fill-opacity="0.42"/>
<path d="M4.07351 27.1537C4.21889 27.1537 4.30612 27.0378 4.30612 26.9219C4.30612 26.806 4.21889 26.6901 4.07351 26.6901C3.92813 26.6901 3.8409 26.777 3.8409 26.9219C3.8409 27.0668 3.92813 27.1537 4.07351 27.1537Z" fill="#001489" fill-opacity="0.42"/>
<path d="M13.52 27.8196C13.52 27.9355 13.4328 28.0515 13.2874 28.0515C13.142 28.0515 13.0839 27.9355 13.0839 27.8196C13.0839 27.7037 13.1711 27.5878 13.3165 27.5878C13.4619 27.5878 13.52 27.7037 13.52 27.8196Z" fill="#001489" fill-opacity="0.42"/>
<path d="M6.22315 13.6196C6.36853 13.6196 6.48484 13.5037 6.48484 13.3588C6.48484 13.2139 6.36853 13.098 6.22315 13.098C6.07777 13.098 5.96147 13.2139 5.96147 13.3588C5.96147 13.5037 6.07777 13.6196 6.22315 13.6196Z" fill="#001489" fill-opacity="0.42"/>
<path d="M4.27754 8.11329C4.27754 8.25819 4.16123 8.3741 4.01585 8.3741C3.87047 8.3741 3.75417 8.25819 3.75417 8.11329C3.75417 7.9684 3.87047 7.85248 4.01585 7.85248C4.16123 7.85248 4.27754 7.9684 4.27754 8.11329Z" fill="#001489" fill-opacity="0.42"/>
<path d="M10.9648 25.0969C11.3137 25.0969 11.6045 24.8071 11.6045 24.4594C11.6045 24.1117 11.3137 23.8219 10.9648 23.8219C10.6159 23.8219 10.3251 24.1117 10.3251 24.4594C10.3251 24.8071 10.6159 25.0969 10.9648 25.0969Z" fill="#001489" fill-opacity="0.42"/>
<path d="M13.025 1.53592C13.025 1.94163 12.7052 2.26039 12.2981 2.26039C11.8911 2.26039 11.5712 1.94163 11.5712 1.53592C11.5712 1.13022 11.8911 0.811452 12.2981 0.811452C12.7052 0.811452 13.025 1.13022 13.025 1.53592Z" fill="#001489" fill-opacity="0.42"/>
<path d="M6.45838 22.6617C6.66192 22.6617 6.8073 22.5168 6.8073 22.314C6.8073 22.1111 6.66192 21.9662 6.45838 21.9662C6.25485 21.9662 6.10947 22.1401 6.10947 22.314C6.10947 22.4878 6.25485 22.6617 6.45838 22.6617Z" fill="#001489" fill-opacity="0.42"/>
<path d="M3.25836 3.82503C3.25836 3.99891 3.11298 4.1438 2.93852 4.1438C2.76407 4.1438 2.61869 3.99891 2.61869 3.82503C2.61869 3.65116 2.76407 3.50627 2.93852 3.50627C3.11298 3.50627 3.25836 3.65116 3.25836 3.82503Z" fill="#001489" fill-opacity="0.42"/>
<path d="M7.50114 7.4186C7.70468 7.44758 7.85006 7.27371 7.85006 7.09984C7.85006 6.92596 7.70468 6.75209 7.53022 6.75209C7.32668 6.72311 7.1813 6.89699 7.1813 7.07086C7.15223 7.27371 7.32668 7.4186 7.50114 7.4186Z" fill="#001489" fill-opacity="0.42"/>
<path d="M7.15589 9.12854C7.15589 9.33139 6.98143 9.50526 6.77789 9.50526C6.57436 9.50526 6.3999 9.36037 6.3999 9.12854C6.3999 8.92568 6.57436 8.75181 6.77789 8.75181C6.98143 8.75181 7.15589 8.92568 7.15589 9.12854Z" fill="#001489" fill-opacity="0.42"/>
<path d="M3.78112 6.31737C3.9265 6.31737 4.0428 6.20145 4.0428 6.05656C4.0428 5.94064 3.9265 5.79575 3.78112 5.79575C3.63574 5.79575 3.51943 5.91166 3.51943 6.05656C3.51943 6.20145 3.63574 6.31737 3.78112 6.31737Z" fill="#001489" fill-opacity="0.42"/>
<path d="M0.808238 10.6363C0.808238 10.7812 0.691932 10.8971 0.546551 10.8971C0.40117 10.8971 0.284864 10.7812 0.284864 10.6363C0.284864 10.4914 0.40117 10.3755 0.546551 10.3755C0.691932 10.3755 0.808238 10.5204 0.808238 10.6363Z" fill="#001489" fill-opacity="0.42"/>
<path d="M5.00077 10.1715C5.26246 10.1715 5.46599 9.9687 5.46599 9.70789C5.46599 9.44708 5.26246 9.24422 5.00077 9.24422C4.73909 9.24422 4.53555 9.44708 4.53555 9.70789C4.53555 9.9687 4.73909 10.1715 5.00077 10.1715Z" fill="#001489" fill-opacity="0.42"/>
<path d="M6.16277 0.870242C6.16277 1.07309 6.01739 1.21799 5.81386 1.21799C5.61033 1.21799 5.46494 1.07309 5.46494 0.870242C5.46494 0.667391 5.61033 0.522496 5.81386 0.522496C6.01739 0.522496 6.16277 0.667391 6.16277 0.870242Z" fill="#001489" fill-opacity="0.42"/>
<path d="M7.6484 24.1397C7.82286 24.1397 7.99732 23.9948 7.99732 23.792C7.99732 23.5891 7.79379 23.4442 7.61933 23.4442C7.44487 23.4442 7.27041 23.5891 7.27041 23.792C7.27041 23.9948 7.47395 24.1397 7.6484 24.1397Z" fill="#001489" fill-opacity="0.42"/>
<path d="M2.35321 17.096C2.35321 17.2698 2.20783 17.3857 2.03337 17.3857C1.85891 17.3857 1.74261 17.2698 1.74261 17.096C1.74261 16.9221 1.88799 16.8062 2.06245 16.8062C2.2369 16.8062 2.35321 16.9221 2.35321 17.096Z" fill="#001489" fill-opacity="0.42"/>
<path d="M2.14911 9.47609C2.29449 9.47609 2.4108 9.36018 2.4108 9.21528C2.4108 9.07039 2.29449 8.95447 2.14911 8.95447C2.00373 8.95447 1.88743 9.07039 1.88743 9.21528C1.88743 9.36018 2.00373 9.47609 2.14911 9.47609Z" fill="#001489" fill-opacity="0.42"/>
<path d="M17.7052 0.346308C17.7052 0.491203 17.5889 0.607117 17.4435 0.607117C17.2981 0.607117 17.1818 0.491203 17.1818 0.346308C17.1818 0.201414 17.2981 0.0855 17.4435 0.0855C17.5889 0.0855 17.7052 0.201414 17.7052 0.346308Z" fill="#001489" fill-opacity="0.42"/>
<path d="M1.45489 6.75199C1.60027 6.75199 1.71657 6.63607 1.71657 6.49118C1.71657 6.34629 1.57119 6.23037 1.42581 6.23037C1.28043 6.23037 1.16413 6.34629 1.16413 6.49118C1.16413 6.63607 1.30951 6.75199 1.45489 6.75199Z" fill="#001489" fill-opacity="0.42"/>
<path d="M10.6981 27.182C10.6981 27.3269 10.5818 27.4428 10.4364 27.4428C10.2911 27.4428 10.1748 27.3269 10.1748 27.182C10.1748 27.0371 10.2911 26.9212 10.4364 26.9212C10.5818 26.9212 10.6981 27.0371 10.6981 27.182Z" fill="#001489" fill-opacity="0.42"/>
<path d="M2.06208 13.2425C2.23654 13.2425 2.411 13.0976 2.411 12.8948C2.411 12.7209 2.23654 12.547 2.06208 12.547C1.88762 12.547 1.71317 12.6919 1.71317 12.8948C1.71317 13.0976 1.88762 13.2425 2.06208 13.2425Z" fill="#001489" fill-opacity="0.42"/>
<path d="M3.37759 21.125C3.37759 21.2699 3.26128 21.3858 3.1159 21.3858C2.97052 21.3858 2.85422 21.2699 2.85422 21.125C2.85422 20.9801 2.97052 20.8642 3.1159 20.8642C3.26128 20.8642 3.37759 20.9801 3.37759 21.125Z" fill="#001489" fill-opacity="0.42"/>
<path d="M3.31324 19.185C3.45862 19.185 3.57492 19.0691 3.57492 18.9242C3.57492 18.7793 3.45862 18.6634 3.31324 18.6634C3.16786 18.6634 3.05155 18.7793 3.05155 18.9242C3.05155 19.0691 3.16786 19.185 3.31324 19.185Z" fill="#001489" fill-opacity="0.42"/>
<path d="M6.66149 25.936C6.66149 26.0809 6.54518 26.1968 6.3998 26.1968C6.25442 26.1968 6.13812 26.0809 6.13812 25.936C6.13812 25.7911 6.25442 25.6751 6.3998 25.6751C6.54518 25.6751 6.66149 25.7911 6.66149 25.936Z" fill="#001489" fill-opacity="0.42"/>
<path d="M0.840167 25.356C0.985549 25.356 1.10185 25.2401 1.10185 25.0952C1.10185 24.9503 0.985549 24.8344 0.840167 24.8344C0.694788 24.8344 0.578482 24.9503 0.578482 25.0952C0.578482 25.2401 0.694788 25.356 0.840167 25.356Z" fill="#001489" fill-opacity="0.42"/>
<path d="M6.13333 24.3145C6.13333 24.5173 5.95887 24.6622 5.78442 24.6622C5.60996 24.6622 5.4355 24.4884 5.4355 24.3145C5.4355 24.1406 5.60996 23.9667 5.78442 23.9667C5.95887 23.9667 6.13333 24.1116 6.13333 24.3145Z" fill="#001489" fill-opacity="0.42"/>
<path d="M7.73331 3.15776C8.02407 3.15776 8.25668 2.92593 8.25668 2.63614C8.25668 2.34636 8.02407 2.11453 7.73331 2.11453C7.44255 2.11453 7.20994 2.34636 7.20994 2.63614C7.20994 2.92593 7.44255 3.15776 7.73331 3.15776Z" fill="#001489" fill-opacity="0.42"/>
<path d="M7.56161 5.07062C7.56161 5.82407 6.95101 6.46161 6.16595 6.46161C5.38089 6.46161 4.77029 5.85305 4.77029 5.07062C4.77029 4.28819 5.38089 3.67964 6.16595 3.67964C6.95101 3.67964 7.56161 4.31717 7.56161 5.07062Z" fill="#001489" fill-opacity="0.42"/>
<path d="M4.452 23.4728C4.82999 23.4728 5.14983 23.154 5.14983 22.7773C5.14983 22.3716 4.82999 22.0818 4.452 22.0818C4.074 22.0818 3.75417 22.4006 3.75417 22.7773C3.75417 23.154 4.074 23.4728 4.452 23.4728Z" fill="#001489" fill-opacity="0.42"/>
<path d="M4.47698 14.8955C4.47698 15.3592 4.09899 15.7359 3.63377 15.7359C3.16855 15.7359 2.79056 15.3592 2.79056 14.8955C2.79056 14.4319 3.16855 14.0551 3.63377 14.0551C4.09899 14.0551 4.47698 14.4319 4.47698 14.8955Z" fill="#001489" fill-opacity="0.42"/>
<path d="M4.91636 20.5752C5.14897 20.5752 5.32343 20.4014 5.32343 20.1695C5.32343 19.9377 5.14897 19.7638 4.91636 19.7638C4.68375 19.7638 4.50929 19.9377 4.50929 20.1695C4.50929 20.4014 4.68375 20.5752 4.91636 20.5752Z" fill="#001489" fill-opacity="0.42"/>
<path d="M4.22004 11.2162C4.22004 11.506 3.98743 11.7378 3.69667 11.7378C3.40591 11.7378 3.1733 11.506 3.1733 11.2162C3.1733 10.9264 3.40591 10.6945 3.69667 10.6945C3.98743 10.6945 4.22004 10.9264 4.22004 11.2162Z" fill="#001489" fill-opacity="0.42"/>
<path d="M9.82706 3.07143C10.0306 3.07143 10.2051 2.89756 10.2051 2.69471C10.2051 2.49186 10.0306 2.31798 9.82706 2.31798C9.62353 2.31798 9.44907 2.49186 9.44907 2.69471C9.44907 2.89756 9.62353 3.07143 9.82706 3.07143Z" fill="#001489" fill-opacity="0.42"/>
<path d="M10.0014 0.839055C10.0014 1.04191 9.82689 1.21578 9.62336 1.21578C9.41983 1.21578 9.24537 1.04191 9.24537 0.839055C9.24537 0.636204 9.41983 0.462329 9.62336 0.462329C9.82689 0.462329 10.0014 0.636204 10.0014 0.839055Z" fill="#001489" fill-opacity="0.42"/>
<path d="M8.81077 5.18712C9.13061 5.18712 9.39229 4.92631 9.39229 4.60755C9.39229 4.28878 9.13061 4.02797 8.81077 4.02797C8.49093 4.02797 8.22924 4.28878 8.22924 4.60755C8.22924 4.92631 8.49093 5.18712 8.81077 5.18712Z" fill="#001489" fill-opacity="0.42"/>
<path d="M10.899 4.83821C10.899 5.07004 10.6955 5.2729 10.4629 5.2729C10.2303 5.2729 10.0268 5.09902 10.0268 4.83821C10.0268 4.5774 10.2303 4.43251 10.4629 4.43251C10.6955 4.43251 10.899 4.60638 10.899 4.83821Z" fill="#001489" fill-opacity="0.42"/>
<path fill-rule="evenodd" clip-rule="evenodd" d="M17.006 1.30306C18.6924 0.607574 20.5823 0.201874 22.5304 0.201874C30.4391 0.201874 36.8067 6.57715 36.8067 14.4593C36.8067 22.3415 30.41 28.7168 22.5013 28.7168C20.1752 28.7168 17.9945 28.1662 16.0465 27.1809C16.0465 27.5576 15.7266 27.8764 15.3486 27.8764C14.9706 27.8764 14.6508 27.5576 14.6508 27.1809C14.6508 26.9491 14.7671 26.7172 14.9706 26.6013C14.4764 26.3115 14.0111 25.9638 13.575 25.6161C13.7204 25.5291 13.8076 25.3553 13.8076 25.1814C13.8076 24.8626 13.5459 24.6018 13.2261 24.6018C13.0226 24.6018 12.819 24.7177 12.7318 24.8916C11.9758 24.1382 11.278 23.3557 10.6674 22.4574C10.5802 22.5154 10.4929 22.5443 10.4057 22.5443C10.115 22.5443 9.88235 22.3125 9.88235 22.0227C9.88235 21.8489 9.96958 21.675 10.115 21.5591C9.9405 21.2693 9.79512 20.9795 9.64974 20.6897C9.88235 20.6028 10.0568 20.3999 10.0568 20.1391C10.0568 19.8204 9.79512 19.5595 9.47528 19.5595C9.35898 19.5595 9.27175 19.5885 9.18452 19.6465C8.98099 19.1249 8.80653 18.6033 8.66116 18.0816C8.603 18.1106 8.51578 18.1396 8.42855 18.1396C8.13779 18.1396 7.87611 17.8788 7.87611 17.589C7.87611 17.2992 8.10871 17.0384 8.42855 17.0384C8.28317 16.285 8.19594 15.5025 8.19594 14.7201C8.22502 14.7491 8.28317 14.7491 8.34132 14.7491C8.603 14.7491 8.80653 14.5463 8.80653 14.2854C8.80653 14.0246 8.603 13.8218 8.34132 13.8218C8.30725 13.8218 8.27319 13.8317 8.24497 13.84C8.22502 13.8458 8.20799 13.8508 8.19594 13.8508C8.21048 13.6769 8.22501 13.5103 8.23955 13.3437C8.25409 13.177 8.26863 13.0104 8.28317 12.8365C8.19594 12.8945 8.10871 12.9235 7.99241 12.9235C7.67257 12.9235 7.38181 12.6337 7.38181 12.2859C7.38181 11.9382 7.6435 11.6484 7.99241 11.6484C8.16686 11.6484 8.31224 11.7353 8.42855 11.8513C8.45762 11.5904 8.51578 11.3586 8.57393 11.1268C8.80653 11.3876 9.12637 11.5325 9.47528 11.5325C10.144 11.5325 10.6965 10.9819 10.6965 10.3154C10.6965 9.64888 10.144 9.09829 9.47528 9.09829C9.38805 9.09829 9.30083 9.09829 9.2136 9.12727C9.35898 8.75055 9.53344 8.37382 9.70789 8.02608C9.53344 7.88119 9.41713 7.64936 9.41713 7.38855C9.41713 6.9249 9.79512 6.54818 10.2603 6.54818C10.3476 6.54818 10.4639 6.57715 10.5511 6.60613C10.6098 6.52261 10.6684 6.43669 10.7278 6.34974C10.8744 6.13501 11.0252 5.91406 11.1908 5.7078C11.3361 5.79473 11.5397 5.85269 11.7432 5.85269C12.3829 5.85269 12.8772 5.33108 12.8772 4.72253C12.8772 4.46172 12.819 4.22989 12.6736 4.05602C12.8259 3.90423 12.9782 3.77453 13.1499 3.62835C13.1749 3.60708 13.2002 3.58547 13.2261 3.56339C13.1389 3.47645 13.0807 3.36054 13.0807 3.24462C13.0807 3.01279 13.2842 2.83892 13.5168 2.83892C13.6913 2.83892 13.8367 2.92586 13.8948 3.07075C14.5345 2.57811 15.2614 2.14344 15.9883 1.76671C15.9011 1.67978 15.8429 1.56386 15.8429 1.41897C15.8429 1.10021 16.1046 0.839401 16.4244 0.839401C16.7152 0.839401 16.9478 1.04225 17.006 1.30306ZM20.6986 1.15817C20.6986 1.01327 20.5823 0.897359 20.4369 0.897359C20.2915 0.897359 20.1752 1.01327 20.1752 1.15817C20.1752 1.30306 20.2915 1.41897 20.4369 1.41897C20.5823 1.41897 20.6986 1.30306 20.6986 1.15817ZM19.332 2.23037C19.332 1.76671 18.9541 1.38999 18.4888 1.38999C18.0236 1.38999 17.6456 1.76671 17.6456 2.23037C17.6456 2.69403 18.0236 3.07075 18.4888 3.07075C18.9541 3.07075 19.332 2.69403 19.332 2.23037ZM18.2562 4.78048C18.4016 4.78048 18.4888 4.66457 18.4888 4.54866C18.4888 4.43274 18.4016 4.31683 18.2562 4.31683C18.1109 4.31683 18.0236 4.40376 18.0236 4.54866C18.0236 4.69355 18.1109 4.78048 18.2562 4.78048ZM16.5117 4.75151C16.6571 4.75151 16.7734 4.63559 16.7734 4.4907C16.7734 4.37478 16.6571 4.22989 16.5117 4.22989C16.3663 4.22989 16.25 4.34581 16.25 4.4907C16.25 4.63559 16.3663 4.75151 16.5117 4.75151ZM16.4535 2.78097C16.4535 2.57811 16.2791 2.40424 16.0755 2.40424C15.872 2.40424 15.6975 2.57811 15.6975 2.78097C15.6975 2.98382 15.872 3.15769 16.0755 3.15769C16.2791 3.15769 16.4535 2.98382 16.4535 2.78097ZM14.5927 3.73726C14.5927 3.59236 14.4764 3.50543 14.3601 3.50543C14.2437 3.50543 14.1274 3.59236 14.1274 3.73726C14.1274 3.88215 14.2147 3.96909 14.3601 3.96909C14.5054 3.96909 14.5927 3.88215 14.5927 3.73726ZM15.2614 5.33108C15.2614 4.86742 14.8834 4.4907 14.4182 4.4907C13.953 4.4907 13.575 4.86742 13.575 5.33108C13.575 5.79473 13.953 6.17145 14.4182 6.17145C14.8834 6.17145 15.2614 5.79473 15.2614 5.33108ZM14.6799 7.47549C14.8253 7.47549 14.9416 7.35958 14.9416 7.21468C14.9416 7.09877 14.8253 6.95388 14.6799 6.95388C14.5345 6.95388 14.4182 7.06979 14.4182 7.21468C14.4182 7.35958 14.5345 7.47549 14.6799 7.47549ZM13.575 8.11302C13.575 7.91017 13.4005 7.7363 13.197 7.7363C12.9644 7.7363 12.819 7.91017 12.819 8.11302C12.819 8.31587 12.9935 8.48974 13.197 8.48974C13.4005 8.48974 13.575 8.31587 13.575 8.11302ZM13.3133 16.9225C13.3133 16.6327 13.0807 16.4009 12.7899 16.4009C12.4992 16.4009 12.2666 16.6327 12.2666 16.9225C12.2666 17.2123 12.4992 17.4441 12.7899 17.4441C13.0807 17.4441 13.3133 17.2123 13.3133 16.9225ZM12.5283 13.4161C12.3829 13.4161 12.2957 13.532 12.2957 13.6479C12.2957 13.7638 12.3829 13.8798 12.5283 13.8798C12.6736 13.8798 12.7609 13.7928 12.7609 13.6479C12.7609 13.503 12.6736 13.4161 12.5283 13.4161ZM12.9063 9.64888C12.9063 9.50399 12.7899 9.41705 12.6736 9.41705C12.5573 9.41705 12.441 9.47501 12.441 9.6199C12.441 9.7648 12.5573 9.85173 12.6736 9.85173C12.7899 9.85173 12.9063 9.79377 12.9063 9.64888ZM12.5283 6.9249C12.5283 6.66409 12.3247 6.49022 12.0921 6.49022C11.8595 6.49022 11.656 6.66409 11.656 6.9249C11.656 7.18571 11.8595 7.35958 12.0921 7.35958C12.3247 7.35958 12.5283 7.18571 12.5283 6.9249ZM12.0049 10.5472C12.0049 10.4023 11.8886 10.2864 11.7432 10.2864C11.5978 10.2864 11.4815 10.4023 11.4815 10.5472C11.4815 10.6921 11.5978 10.808 11.7432 10.808C11.8886 10.808 12.0049 10.6921 12.0049 10.5472ZM11.8014 15.1838C11.9467 15.1838 12.034 15.0679 12.034 14.952C12.034 14.836 11.9467 14.7201 11.8014 14.7201C11.656 14.7201 11.5688 14.8071 11.5688 14.952C11.5688 15.0968 11.656 15.1838 11.8014 15.1838ZM11.9467 12.2859C11.9467 12.141 11.8304 12.0251 11.6851 12.0251C11.5397 12.0251 11.4234 12.141 11.4234 12.2859C11.4234 12.4308 11.5397 12.5467 11.6851 12.5467C11.8304 12.5467 11.9467 12.4308 11.9467 12.2859ZM10.9291 8.22893C10.7837 8.22893 10.6383 8.34485 10.6383 8.51872C10.6383 8.69259 10.7837 8.8085 10.9291 8.8085C11.0745 8.8085 11.2198 8.66361 11.2198 8.51872C11.2198 8.37382 11.0745 8.22893 10.9291 8.22893ZM11.1326 16.4009C11.1326 16.256 11.0163 16.1691 10.9 16.1691C10.7837 16.1691 10.6674 16.256 10.6674 16.4009C10.6674 16.5458 10.7546 16.6327 10.9 16.6327C11.0454 16.6327 11.1326 16.5458 11.1326 16.4009ZM10.2022 14.4883C10.4057 14.4883 10.5511 14.3434 10.5511 14.1406C10.5511 13.9377 10.4057 13.7928 10.2022 13.7928C9.99865 13.7928 9.85327 13.9377 9.85327 14.1406C9.85327 14.3434 9.99865 14.4883 10.2022 14.4883ZM9.01007 15.9662C9.01007 16.1111 9.12637 16.198 9.24267 16.198C9.38805 16.198 9.47528 16.1111 9.47528 15.9662C9.47528 15.8213 9.38805 15.7344 9.24267 15.7344C9.09729 15.7344 9.01007 15.8213 9.01007 15.9662ZM9.67882 12.0251C9.41713 12.0251 9.2136 12.228 9.2136 12.4888C9.2136 12.7496 9.41713 12.9524 9.67882 12.9524C9.9405 12.9524 10.144 12.7496 10.144 12.4888C10.144 12.228 9.9405 12.0251 9.67882 12.0251ZM9.62066 18.0816C9.62066 18.5163 9.99865 18.893 10.4348 18.893C10.9 18.893 11.2489 18.5163 11.2489 18.0816C11.2489 17.647 10.8709 17.2702 10.4348 17.2702C9.99865 17.2702 9.62066 17.647 9.62066 18.0816ZM11.4525 19.5595C11.278 19.5595 11.1326 19.7044 11.1326 19.8783C11.1326 20.0522 11.278 20.1971 11.4525 20.1971C11.6269 20.1971 11.7723 20.0522 11.7723 19.8783C11.7723 19.7044 11.6269 19.5595 11.4525 19.5595ZM11.9758 20.9505C11.656 20.9505 11.3943 21.2113 11.3943 21.5301C11.3943 21.8489 11.656 22.1097 11.9758 22.1097C12.2957 22.1097 12.5573 21.8489 12.5573 21.5301C12.5573 21.2113 12.2957 20.9505 11.9758 20.9505ZM12.2957 23.3268C12.2957 23.4717 12.412 23.5586 12.5283 23.5586C12.6446 23.5586 12.7609 23.4717 12.7609 23.3268C12.7609 23.1819 12.6736 23.0949 12.5283 23.0949C12.3829 23.0949 12.2957 23.1819 12.2957 23.3268ZM12.7609 19.3567C12.7609 19.6175 12.9353 19.8204 13.197 19.8204C13.4296 19.8204 13.6331 19.6175 13.6331 19.3567C13.6331 19.0959 13.4296 18.893 13.197 18.893C12.9644 18.893 12.7609 19.0959 12.7609 19.3567ZM13.8948 21.0375C13.7495 21.0375 13.6331 21.1534 13.6331 21.2983C13.6331 21.4431 13.7495 21.5591 13.8948 21.5591C14.0402 21.5591 14.1565 21.4431 14.1565 21.2983C14.1565 21.1534 14.0402 21.0375 13.8948 21.0375ZM13.8076 23.1239C13.8076 23.4137 14.0402 23.6455 14.331 23.6455C14.5927 23.6455 14.8543 23.4137 14.8543 23.1239C14.8543 22.8341 14.6217 22.6023 14.331 22.6023C14.0402 22.6023 13.8076 22.8341 13.8076 23.1239ZM15.2905 25.4132C15.2905 25.5871 15.4359 25.761 15.6394 25.761C15.8429 25.761 15.9883 25.6161 15.9883 25.4132C15.9883 25.2104 15.8429 25.0655 15.6394 25.0655C15.4359 25.0655 15.2905 25.2393 15.2905 25.4132ZM15.9592 22.979C15.9592 23.1239 16.0755 23.2108 16.1918 23.2108C16.3081 23.2108 16.4244 23.1239 16.4244 22.979C16.4244 22.8341 16.3372 22.7472 16.1918 22.7472C16.0465 22.7472 15.9592 22.8341 15.9592 22.979ZM17.5293 26.8621C17.5293 27.007 17.6456 27.094 17.7619 27.094C17.8782 27.094 17.9945 27.007 17.9945 26.8621C17.9945 26.7172 17.9073 26.6303 17.7619 26.6303C17.6166 26.6303 17.5293 26.7172 17.5293 26.8621ZM17.3258 24.8916C17.3258 25.1814 17.5584 25.4132 17.8492 25.4132C18.1399 25.4132 18.3725 25.1814 18.3725 24.8916C18.3725 24.6018 18.1399 24.37 17.8492 24.37C17.5584 24.37 17.3258 24.6018 17.3258 24.8916ZM19.2739 26.5724C19.2739 26.7172 19.3902 26.8332 19.5356 26.8332C19.681 26.8332 19.7973 26.7172 19.7973 26.5724C19.7973 26.4275 19.681 26.3115 19.5356 26.3115C19.3902 26.3115 19.2739 26.4275 19.2739 26.5724ZM13.953 14.4593C13.953 19.1828 17.791 23.037 22.5304 23.037C27.2698 23.037 31.1078 19.1828 31.1078 14.4593C31.1078 9.73582 27.2698 5.91065 22.5304 5.91065C17.791 5.91065 13.953 9.73582 13.953 14.4593Z" fill="#001489" fill-opacity="0.42"/>
</svg>
