<svg width="215" height="34" viewBox="0 0 215 34" fill="none" xmlns="http://www.w3.org/2000/svg">
<path fill-rule="evenodd" clip-rule="evenodd" d="M108.682 0H106.074H106.003V27.2154H108.61V17.215C108.61 15.4292 108.682 14.1791 108.824 13.4648C108.967 12.7505 109.182 12.1076 109.503 11.5362C110.039 10.6076 110.753 9.92897 111.646 9.46466C112.575 9.00036 113.646 8.75035 114.825 8.75035C116.825 8.75035 118.289 9.32181 119.253 10.429C120.218 11.5362 120.682 13.2863 120.682 15.6435V27.2154H123.289V15.4649C123.289 12.5005 122.575 10.2147 121.146 8.64321C119.753 7.036 117.682 6.25025 115.003 6.25025C113.682 6.25025 112.467 6.50026 111.396 6.96456C110.36 7.42887 109.432 8.14319 108.682 9.0718V0ZM87.8608 11.104C89.4323 9.46106 91.2181 8.6396 93.2539 8.6396C95.4683 8.6396 97.3612 9.46106 98.897 11.0683C100.433 12.7112 101.219 14.7113 101.219 17.1399C101.219 19.4257 100.468 21.3901 98.897 22.9616C97.3255 24.5331 95.4683 25.3188 93.3253 25.3188C91.1824 25.3188 89.3609 24.4974 87.8251 22.8545C86.2893 21.2115 85.5393 19.1757 85.5393 16.8185C85.5393 14.6398 86.3251 12.7112 87.8608 11.104ZM85.575 6.71096H83.0035V33.9978H85.6822V27.8904C85.6822 27.6392 85.6645 27.2644 85.6416 26.7783C85.6319 26.5732 85.6213 26.3484 85.6107 26.1046L85.6015 25.8811V25.8809C85.5686 25.0862 85.5331 24.2294 85.4679 23.283C86.3965 24.7474 87.5394 25.8546 88.8966 26.6403C90.2538 27.3904 91.7896 27.7832 93.4682 27.7832C96.5398 27.7832 99.0398 26.7475 101.04 24.676C103.004 22.5687 104.004 19.9258 104.004 16.7828C104.004 13.8541 102.969 11.3897 100.933 9.3182C98.897 7.24669 96.3969 6.21094 93.4682 6.21094C91.7896 6.21094 90.2538 6.56809 88.8966 7.35383C87.5394 8.13958 86.3965 9.24677 85.4679 10.7111L85.575 6.71096ZM144.043 10.7837L143.793 6.64064H146.435V27.2129H143.793L144.007 23.2127C143.185 24.6771 142.078 25.82 140.721 26.57C139.364 27.3558 137.757 27.7129 135.971 27.7129C132.935 27.7129 130.435 26.6772 128.399 24.6057C126.399 22.5341 125.399 19.9983 125.399 16.9625C125.399 13.8552 126.435 11.2837 128.47 9.2479C130.542 7.17639 133.114 6.14062 136.185 6.14062C137.828 6.14062 139.364 6.5335 140.721 7.35496C142.078 8.21214 143.185 9.31932 144.043 10.7837ZM136.114 8.64073C133.899 8.64073 132.006 9.46218 130.471 11.1051C128.935 12.7123 128.149 14.7481 128.149 17.1411C128.149 19.4269 128.935 21.3912 130.471 22.9627C132.042 24.5342 133.899 25.32 136.042 25.32C138.149 25.32 139.971 24.4985 141.507 22.8199C143.042 21.1412 143.828 19.1411 143.828 16.7839C143.828 14.6052 143.042 12.7123 141.471 11.0694C139.935 9.46218 138.149 8.64073 136.114 8.64073ZM157.507 9.20101V6.34375C156.507 6.34375 155.614 6.55804 154.828 6.98663C154.078 7.41522 153.364 8.09382 152.685 9.02243V6.62947H150.221V27.2017H152.864V14.8084C152.864 12.9154 153.221 11.5225 153.935 10.7011C154.649 9.84388 155.864 9.34387 157.507 9.20101ZM175.969 9.8584C176.826 8.64407 177.862 7.75117 179.076 7.14401C180.326 6.53684 181.684 6.21541 183.219 6.21541C185.791 6.21541 187.755 7.00114 189.148 8.60835C190.541 10.1798 191.22 12.4657 191.22 15.3943V27.2163H188.648V15.6086C188.648 13.2871 188.184 11.5728 187.219 10.4299C186.291 9.32267 184.826 8.75121 182.898 8.75121C181.755 8.75121 180.719 9.00122 179.826 9.46553C178.933 9.92983 178.219 10.6084 177.719 11.537C177.398 12.1085 177.183 12.7514 177.04 13.4657C176.898 14.18 176.826 15.4301 176.826 17.2158V27.2163H174.326V15.6801C174.326 13.3228 173.862 11.5728 172.897 10.4299C171.933 9.28695 170.469 8.71551 168.469 8.71551C167.254 8.71551 166.219 8.96552 165.326 9.42982C164.433 9.89413 163.718 10.5727 163.183 11.5013C162.861 12.0728 162.611 12.7514 162.468 13.5371C162.326 14.2872 162.254 15.5015 162.254 17.1801V27.1805H159.683V6.60827H162.29V8.92979C163.076 8.00118 164.004 7.32259 165.076 6.85828C166.147 6.39398 167.326 6.17969 168.647 6.17969C170.219 6.17969 171.647 6.50112 172.933 7.17972C174.326 7.89404 175.326 8.75122 175.969 9.8584ZM211.645 6.64064L211.895 10.7837C211.037 9.31932 209.93 8.21214 208.573 7.35496C207.216 6.5335 205.68 6.14062 204.037 6.14062C200.966 6.14062 198.394 7.17639 196.323 9.2479C194.287 11.2837 193.251 13.8552 193.251 16.9625C193.251 19.9983 194.251 22.5341 196.251 24.6057C198.287 26.6772 200.823 27.7129 203.823 27.7129C205.609 27.7129 207.216 27.3558 208.573 26.57C209.93 25.82 211.037 24.6771 211.859 23.2127L211.645 27.2129H214.288V6.64064H211.645ZM198.323 11.1051C199.858 9.46218 201.751 8.64073 203.966 8.64073C206.001 8.64073 207.787 9.46218 209.359 11.0694C210.895 12.7123 211.68 14.6052 211.68 16.7839C211.68 19.1411 210.895 21.1412 209.359 22.8199C207.823 24.4985 206.001 25.32 203.894 25.32C201.751 25.32 199.894 24.5342 198.323 22.9627C196.787 21.3912 196.001 19.4269 196.001 17.1411C196.001 14.7481 196.787 12.7123 198.323 11.1051ZM10.5361 10.9684C8.89322 10.9684 7.53602 11.5398 6.46455 12.6827C5.39307 13.8256 4.89305 15.29 4.89305 17.1115C4.89305 18.933 5.42879 20.3973 6.50026 21.5045C7.57173 22.6117 9.00036 23.1832 10.7147 23.1832C12.5005 23.1832 13.8934 22.6117 14.9292 21.5045C15.9649 20.3616 16.5007 18.8258 16.5007 16.8972C16.5007 15.1471 15.9292 13.7542 14.822 12.647C13.7148 11.5041 12.2862 10.9684 10.5361 10.9684ZM0 17.0401C0 14.0757 1.03576 11.5398 3.14298 9.43261C5.25021 7.32539 7.75031 6.25391 10.6433 6.25391C13.7148 6.25391 16.2864 7.28967 18.3579 9.3969C20.4651 11.4684 21.5009 13.9685 21.5009 16.9329C21.5009 20.0759 20.4651 22.6831 18.3936 24.7547C16.3221 26.8619 13.7863 27.8976 10.7147 27.8976C7.7146 27.8976 5.17878 26.8619 3.10727 24.7547C1.03576 22.6474 0 20.0759 0 17.0401ZM38.7467 14.1755C38.1396 13.1041 37.4253 12.2826 36.5324 11.7826C35.6395 11.2468 34.6037 10.9968 33.3894 10.9968C31.7822 10.9968 30.425 11.5683 29.3178 12.7469C28.2463 13.9255 27.7106 15.3899 27.7106 17.1399C27.7106 18.8543 28.282 20.3186 29.3535 21.4615C30.4607 22.6044 31.8536 23.1759 33.5322 23.1759C34.818 23.1759 35.9252 22.8902 36.7467 22.3544C37.6038 21.783 38.2467 20.9615 38.6753 19.8543H43.7827C43.2112 22.3187 42.0326 24.2831 40.1754 25.7474C38.3539 27.1761 36.1752 27.8904 33.6037 27.8904C30.5678 27.8904 27.9963 26.8546 25.8891 24.7117C23.8176 22.6045 22.7461 20.0686 22.7461 17.1042C22.7461 14.1041 23.7819 11.5683 25.8891 9.42535C27.9963 7.28241 30.4964 6.21094 33.3894 6.21094C36.0323 6.21094 38.2824 6.92525 40.1397 8.31816C41.9969 9.71108 43.2112 11.6397 43.8184 14.1041H38.7467V14.1755ZM71.9279 27.3089L71.927 27.3446V27.3089H71.9279ZM76.5344 27.3089H71.9279L71.9985 24.5231C71.3199 25.6302 70.427 26.4874 69.3912 27.0232C68.3555 27.5589 67.0697 27.8089 65.5696 27.8089C62.5338 27.8089 59.998 26.7731 57.9622 24.7016C55.9264 22.6301 54.8906 20.0586 54.8906 17.0227C54.8906 14.0226 55.8907 11.4868 57.8907 9.45101C59.8908 7.3795 62.3909 6.34375 65.4268 6.34375C66.7482 6.34375 67.9626 6.59375 69.034 7.12949C70.1055 7.66523 71.1056 8.45098 71.9985 9.55817L71.8913 6.84377H76.5344V27.3089ZM61.5337 21.3086C60.3551 20.1657 59.7837 18.7014 59.7837 16.9513C59.7837 15.3084 60.3551 13.9155 61.498 12.8083C62.6767 11.7011 64.0696 11.1297 65.7125 11.1297C67.4626 11.1297 68.8912 11.7011 70.0698 12.8797C71.2484 14.0226 71.8199 15.487 71.8199 17.2013C71.8199 18.7728 71.2484 20.1657 70.1055 21.3086C68.9626 22.4515 67.5697 23.023 65.9625 23.023C64.1767 23.023 62.7124 22.4515 61.5337 21.3086ZM45.8945 11.1623V27.4129H50.6804V11.1623L54.1806 11.198L57.1093 6.94781H50.6804V0.304688H45.8945V6.94781V11.1623Z" fill="white" fill-opacity="0.2"/>
</svg>
