<svg width="202" height="32" viewBox="0 0 202 32" fill="none" xmlns="http://www.w3.org/2000/svg">
<path d="M88.0156 5.83301C90.7733 5.83301 93.128 6.80801 95.0449 8.75879C96.9616 10.7095 97.9365 13.0303 97.9365 15.7881C97.9365 18.7479 96.9952 21.2373 95.1455 23.2217C93.2622 25.1725 90.9078 26.1475 88.0156 26.1475C86.4351 26.1474 84.9888 25.7776 83.7109 25.0713C82.4331 24.3314 81.3567 23.289 80.4824 21.9102C80.5497 22.8854 80.5836 23.7603 80.6172 24.5674C80.6508 25.3407 80.6846 25.9128 80.6846 26.249V32H78.1621V6.30371H80.584L80.4824 10.0703C81.3567 8.69143 82.4331 7.64911 83.7109 6.90918C84.9888 6.16925 86.4351 5.83303 88.0156 5.83301ZM10.0186 5.89453C12.9096 5.8946 15.3305 6.86896 17.2803 8.85254C19.2637 10.8025 20.2383 13.1568 20.2383 15.9473C20.2382 18.9057 19.2631 21.3597 17.3135 23.3096C15.3637 25.2931 12.9769 26.2685 10.0859 26.2686C7.262 26.2686 4.87466 25.2932 2.9248 23.3096C0.975083 21.326 2.20748e-05 18.9055 0 16.0479C0 13.2575 0.974756 10.8703 2.95801 8.88672C4.94149 6.90307 7.29547 5.89453 10.0186 5.89453ZM31.4375 5.83301C33.9252 5.83301 36.0429 6.50526 37.791 7.81641C39.5391 9.12759 40.6824 10.943 41.2539 13.2627H36.4805V13.3301C35.909 12.3214 35.236 11.5478 34.3955 11.0771C33.5552 10.573 32.5803 10.3379 31.4375 10.3379C29.9248 10.3379 28.6476 10.876 27.6055 11.9854C26.5969 13.0949 26.0918 14.4737 26.0918 16.1211C26.0919 17.7347 26.6303 19.1127 27.6387 20.1885C28.6808 21.2644 29.9922 21.8027 31.5723 21.8027C32.7824 21.8027 33.8245 21.5336 34.5977 21.0293C35.4044 20.4914 36.0097 19.718 36.4131 18.6758H41.2207C40.6828 20.9956 39.5733 22.8452 37.8252 24.2236C36.1108 25.5684 34.06 26.2401 31.6396 26.2402C28.7821 26.2402 26.3614 25.2653 24.3779 23.248C22.4281 21.2644 21.4189 18.8775 21.4189 16.0869C21.419 13.2628 22.3945 10.8756 24.3779 8.8584C26.3614 6.84128 28.7145 5.83301 31.4375 5.83301ZM61.5986 5.95801C62.8425 5.95802 63.9856 6.19296 64.9941 6.69727C66.0026 7.20156 66.9438 7.94126 67.7842 8.9834L67.6836 6.42871H72.0537V25.6934H67.7178L67.7842 23.0713C67.1455 24.1134 66.3049 24.9205 65.3301 25.4248C64.3553 25.929 63.1451 26.164 61.7334 26.1641C58.8759 26.1641 56.4885 25.1892 54.5723 23.2393C52.6561 21.2893 51.6807 18.8684 51.6807 16.0107C51.6807 13.1866 52.6224 10.7992 54.5049 8.88281C56.3875 6.93278 58.7411 5.95801 61.5986 5.95801ZM128.249 5.79102C129.795 5.79106 131.241 6.16132 132.519 6.93457C133.796 7.74144 134.838 8.78378 135.645 10.1621L135.409 6.26172H137.897V25.6279H135.409L135.611 21.8623C134.838 23.2407 133.796 24.3164 132.519 25.0225C131.241 25.7621 129.728 26.0986 128.047 26.0986C125.189 26.0986 122.836 25.1237 120.92 23.1738C119.037 21.2238 118.096 18.8363 118.096 15.9785C118.096 13.0536 119.071 10.6332 120.987 8.7168C122.937 6.76677 125.358 5.79102 128.249 5.79102ZM192.144 5.79102C193.69 5.79102 195.136 6.16128 196.413 6.93457C197.691 7.74147 198.733 8.78366 199.54 10.1621L199.305 6.26172H201.792V25.6279H199.305L199.506 21.8623C198.733 23.2407 197.691 24.3164 196.413 25.0225C195.136 25.7621 193.622 26.0986 191.941 26.0986C189.118 26.0985 186.731 25.1237 184.814 23.1738C182.932 21.2238 181.991 18.8363 181.991 15.9785C181.991 13.0536 182.966 10.6332 184.882 8.7168C186.832 6.76677 189.252 5.79102 192.144 5.79102ZM47.7314 6.56152H53.7842L51.0273 10.5635L47.7314 10.5303V25.832H43.2256V0.306641H47.7314V6.56152ZM102.324 8.54199C103.03 7.66777 103.905 6.99476 104.88 6.55762C105.888 6.1206 107.032 5.88579 108.275 5.88574C110.797 5.88574 112.748 6.62531 114.06 8.13867C115.405 9.61844 116.077 11.7711 116.077 14.5625V25.627H113.622V14.7305C113.622 12.5108 113.185 10.8629 112.277 9.82031C111.369 8.77775 109.991 8.23926 108.107 8.23926C106.998 8.23929 105.989 8.47505 105.115 8.91211C104.275 9.34931 103.602 9.98887 103.098 10.8633C102.795 11.4013 102.593 12.0062 102.458 12.6787C102.324 13.3513 102.257 14.5285 102.257 16.21V25.627H99.8018V0H102.324V8.54199ZM158.823 5.81445C160.303 5.81445 161.649 6.11688 162.859 6.75586C164.171 7.42855 165.112 8.23663 165.718 9.2793C166.525 8.13585 167.5 7.29444 168.644 6.72266C169.821 6.15092 171.099 5.84868 172.545 5.84863C174.966 5.84863 176.816 6.5881 178.128 8.10156C179.44 9.58147 180.079 11.7342 180.079 14.4922V25.625H177.657V14.6943C177.657 12.5081 177.22 10.8937 176.312 9.81738C175.437 8.77472 174.058 8.23633 172.242 8.23633C171.166 8.23639 170.191 8.47202 169.351 8.90918C168.51 9.34638 167.837 9.98504 167.366 10.8594C167.064 11.3975 166.861 12.0031 166.727 12.6758C166.592 13.3485 166.525 14.5263 166.525 16.208V25.625H164.171V14.7617C164.171 12.5421 163.734 10.8937 162.826 9.81738C161.918 8.74108 160.539 8.20215 158.655 8.20215C157.512 8.20218 156.537 8.43791 155.696 8.875C154.855 9.31225 154.182 9.95168 153.678 10.8262C153.375 11.3642 153.14 12.0034 153.006 12.7432C152.871 13.4495 152.804 14.593 152.804 16.1738V25.5918H150.382V6.21777H152.837V8.4043C153.577 7.5298 154.452 6.89037 155.461 6.45312C156.47 6.01608 157.579 5.8145 158.823 5.81445ZM148.329 8.64746C146.783 8.78195 145.639 9.25266 144.967 10.0596C144.295 10.8329 143.959 12.1441 143.959 13.9258V25.5928H141.471V6.22656H143.791V8.47949C144.43 7.60537 145.102 6.96595 145.808 6.5625C146.547 6.15908 147.388 5.95801 148.329 5.95801V8.64746ZM128.182 8.14453C126.097 8.14453 124.316 8.9183 122.87 10.4648C121.425 11.9778 120.685 13.8939 120.685 16.1465C120.685 18.2982 121.425 20.1476 122.87 21.627C124.349 23.1062 126.097 23.8457 128.114 23.8457C130.098 23.8457 131.812 23.0724 133.258 21.4922C134.703 19.912 135.443 18.0295 135.443 15.8105C135.443 13.7597 134.704 11.9772 133.225 10.4307C131.779 8.91776 130.098 8.14456 128.182 8.14453ZM192.076 8.14453C189.992 8.14457 188.21 8.9183 186.765 10.4648C185.319 11.9777 184.579 13.894 184.579 16.1465C184.579 18.2982 185.319 20.1476 186.765 21.627C188.244 23.1062 189.992 23.8456 192.009 23.8457C193.992 23.8457 195.707 23.0724 197.152 21.4922C198.598 19.912 199.338 18.0295 199.338 15.8105C199.338 13.7597 198.598 11.9772 197.152 10.4307C195.673 8.91795 193.992 8.14453 192.076 8.14453ZM87.8145 8.12012C85.8977 8.12012 84.216 8.89345 82.7363 10.4404C81.2902 11.954 80.5498 13.7706 80.5498 15.8223C80.5499 18.0419 81.2562 19.9588 82.7021 21.5059C84.1481 23.0529 85.8632 23.827 87.8809 23.8271C89.8987 23.8271 91.6482 23.0873 93.1279 21.6074C94.6076 20.1276 95.3134 18.2775 95.3135 16.125C95.3135 13.8381 94.5738 11.9543 93.1279 10.4072C91.6819 8.8938 89.8993 8.12023 87.8145 8.12012ZM9.91699 10.332C8.37073 10.3321 7.09342 10.8705 6.08496 11.9463C5.07651 13.0221 4.60547 14.4006 4.60547 16.1152C4.60551 17.8296 5.10991 19.2078 6.11816 20.25C7.12671 21.2923 8.47226 21.8311 10.0859 21.8311C11.7666 21.831 13.0779 21.2922 14.0527 20.25C15.0274 19.1742 15.5312 17.7284 15.5312 15.9131C15.5312 14.2657 14.9933 12.9543 13.9512 11.9121C12.909 10.8365 11.5641 10.332 9.91699 10.332ZM61.8672 10.4629C60.3209 10.463 59.0097 11.0008 57.9004 12.043C56.8246 13.0852 56.2871 14.3968 56.2871 15.9434C56.2872 17.5907 56.8252 18.9691 57.9346 20.0449C59.0439 21.1206 60.4219 21.6591 62.1025 21.6592C63.6154 21.6592 64.9271 21.1208 66.0029 20.0449C67.0785 18.9691 67.6162 17.6579 67.6162 16.1787C67.6162 14.5649 67.0782 13.1862 65.9688 12.1104C64.8594 11.0009 63.5145 10.4629 61.8672 10.4629Z" fill="white"/>
</svg>
