<svg xmlns="http://www.w3.org/2000/svg" xmlns:xlink="http://www.w3.org/1999/xlink" width="187px" height="30px" viewBox="0 0 187 30" version="1.1">
    <!-- Generator: Sketch 53.2 (72643) - https://sketchapp.com -->
    <title>logo-blue</title>
    <desc>Created with Sketch.</desc>
    <defs>
        <polygon id="path-1" points="0.222787879 0.118484848 15.2212727 0.118484848 15.2212727 23.8314242 0.222787879 23.8314242"/>
        <polygon id="path-3" points="0 0.132454545 18.7192121 0.132454545 18.7192121 18.9648788 0 18.9648788"/>
        <polygon id="path-5" points="0 0.132454545 18.7192121 0.132454545 18.7192121 18.9648788 0 18.9648788"/>
    </defs>
    <g id="logo-blue" stroke="none" stroke-width="1" fill="none" fill-rule="evenodd">
        <g id="logo">
            <path d="M81.2017272,7.84396969 C79.4305151,7.84396969 77.8683938,8.55548484 76.5126363,9.97851514 C75.1659696,11.3885151 74.4935454,13.0445757 74.4935454,14.9439697 C74.4935454,17.0088182 75.1547575,18.7603333 76.479909,20.2051818 C77.8029393,21.6391212 79.3977878,22.3551818 81.2668787,22.3551818 C83.1447575,22.3551818 84.7571817,21.6718485 86.1041514,20.3033636 C87.4596059,18.9257879 88.1383938,17.2351818 88.140515,15.237606 C88.140515,13.1315454 87.4596059,11.3733636 86.1041514,9.96124241 C84.7571817,8.5491212 83.1229393,7.84396969 81.2017272,7.84396969 L81.2017272,7.84396969 Z M72.2283938,6.16639393 L74.4935454,6.16639393 L74.3956666,9.63699999 C75.1983938,8.35518181 76.1905151,7.38275757 77.3744544,6.72124242 C78.5689999,6.04881817 79.8983938,5.71154545 81.3650605,5.71154545 C83.9171817,5.71154545 86.0823332,6.61245454 87.8620302,8.41396969 C89.6420302,10.2048788 90.5320302,12.3721515 90.5341514,14.9112424 C90.5341514,17.6594242 89.670212,19.9442727 87.9447575,21.7697272 C86.2171817,23.5824545 84.0238484,24.487606 81.3650605,24.4897272 C79.8983938,24.4897272 78.5689999,24.1524545 77.3744544,23.4779091 C76.179606,22.7945757 75.1874848,21.817606 74.3956666,20.547 C74.4477878,21.4391212 74.4868787,22.2527575 74.5086969,22.9903333 C74.5414241,23.7194242 74.5586969,24.2394242 74.5586969,24.5527575 L74.5586969,29.8815454 L72.2283938,29.8815454 L72.2283938,6.16639393 Z" id="Fill-1" fill="#001489"/>
            <g id="Group-5" transform="translate(92.121212, 0.184576)">
                <mask id="mask-2" fill="white">
                    <use xlink:href="#path-1"/>
                </mask>
                <g id="Clip-4"/>
                <path d="M0.222787879,0.118393939 L2.48581818,0.118393939 L2.48581818,8.01687878 C3.1470303,7.20324242 3.94127272,6.58960605 4.86399999,6.17627272 C5.79733333,5.76475757 6.83975757,5.56021211 7.99096969,5.5580909 C10.3255151,5.5580909 12.1118788,6.2480909 13.3479394,7.62748484 C14.5970303,8.99596969 15.2212727,10.9717273 15.2212727,13.5544545 L15.2212727,23.8314242 L12.9582424,23.8314242 L12.9582424,13.7656666 C12.9582424,11.7138485 12.5403636,10.199303 11.7052121,9.22233332 C10.8782424,8.24536363 9.59854544,7.7580909 7.86036363,7.7580909 C6.81824242,7.7580909 5.90187878,7.96899999 5.10763636,8.39354544 C4.32672727,8.80475756 3.70854545,9.40081817 3.25157575,10.1841515 C2.97975757,10.6714242 2.78369697,11.2329394 2.66612121,11.8617273 C2.54672727,12.479606 2.48581818,13.5653636 2.48581818,15.119 L2.48581818,23.8314242 L0.222787879,23.8314242 L0.222787879,0.118393939 Z" id="Fill-3" fill="#001489" mask="url(#mask-2)"/>
            </g>
            <path d="M125.39,9.70003029 L125.161515,6.10124242 L127.457273,6.10124242 L127.457273,24.0151818 L125.161515,24.0151818 L125.357576,20.5491212 C124.641515,21.8285151 123.684242,22.8054848 122.489697,23.4779091 C121.294848,24.1524545 119.917576,24.487606 118.35303,24.4897272 C115.72697,24.4897272 113.533636,23.5866969 111.775454,21.7848788 C110.028485,19.9833636 109.153636,17.7682121 109.153636,15.1418485 C109.153636,12.4482121 110.043333,10.2048788 111.823333,8.41396969 C113.61606,6.61245454 115.857576,5.70942424 118.551515,5.70942424 C119.993636,5.70942424 121.307879,6.05760605 122.489697,6.75184848 C123.675454,7.44790908 124.641515,8.42942423 125.39,9.70003029 M118.483939,7.84396969 C116.564545,7.84396969 114.923939,8.55548484 113.56606,9.97851514 C112.221515,11.3885151 111.54697,13.1424545 111.54697,15.237606 C111.54697,17.2351818 112.221515,18.9236666 113.56606,20.3033636 C114.923939,21.6718485 116.540909,22.3551818 118.420606,22.3551818 C120.244242,22.3551818 121.828182,21.6327575 123.174848,20.1900303 C124.522121,18.7342727 125.194242,16.987 125.194242,14.9439697 C125.194242,13.0445757 124.517576,11.3885151 123.16,9.97851514 C121.812727,8.55548484 120.252727,7.84396969 118.483939,7.84396969" id="Fill-6" fill="#001489"/>
            <path d="M137.133606,5.84066666 L137.133606,8.33218181 C135.688757,8.46248484 134.653,8.89763635 134.024212,9.63551514 C133.403909,10.364303 133.095121,11.5524848 133.095121,13.2018788 L133.095121,24.0161212 L130.799666,24.0161212 L130.799666,6.10187878 L132.932091,6.10187878 L132.932091,8.16884847 C133.519363,7.3661212 134.141788,6.78066666 134.805424,6.41066666 C135.466939,6.04096969 136.243606,5.85157575 137.133606,5.84066666" id="Fill-8" fill="#001489"/>
            <path d="M153.200424,8.90263635 C153.938303,7.86051514 154.843454,7.07475757 155.920424,6.54172726 C156.994969,6.00869696 158.200727,5.74324242 159.534363,5.74324242 C161.771333,5.74324242 163.492545,6.43718181 164.697697,7.82778787 C165.903454,9.20718181 166.506182,11.178697 166.506182,13.739606 L166.506182,24.0162727 L164.275879,24.0162727 L164.275879,13.9026363 C164.275879,11.8835454 163.862545,10.3844545 163.037697,9.40748484 C162.221939,8.43051514 160.968606,7.94081817 159.275576,7.94081817 C158.266182,7.94081817 157.373757,8.1541515 156.603454,8.57627272 C155.833151,8.98960605 155.219818,9.58566665 154.762848,10.369 C154.490727,10.8565757 154.297091,11.4156667 154.177697,12.0465757 C154.057697,12.6647576 153.999212,13.7505151 153.999212,15.3041515 L153.999212,24.0162727 L151.831636,24.0162727 L151.831636,13.9832424 C151.831636,11.9205151 151.41406,10.4017273 150.578606,9.42263635 C149.753757,8.43687878 148.472242,7.94081817 146.733757,7.94081817 C145.691636,7.94081817 144.775273,8.1541515 143.983454,8.57627272 C143.200121,8.98960605 142.582242,9.58566665 142.12497,10.369 C141.831333,10.8783939 141.627091,11.4656667 141.507091,12.1271818 C141.387697,12.7799091 141.326485,13.8374848 141.326485,15.3041515 L141.326485,24.0162727 L139.096182,24.0162727 L139.096182,6.10233333 L141.361636,6.10233333 L141.361636,8.13657575 C142.044666,7.33384848 142.847697,6.73748484 143.770121,6.34596969 C144.692848,5.94566666 145.73497,5.74324242 146.896788,5.74324242 C148.254666,5.74324242 149.499212,6.03021211 150.628606,6.60687878 C151.766788,7.17051514 152.62406,7.93657575 153.200424,8.90263635" id="Fill-10" fill="#001489"/>
            <path d="M184.487121,9.70003029 L184.258636,6.10124242 L186.554091,6.10124242 L186.554091,24.0151818 L184.258636,24.0151818 L184.454697,20.5491212 C183.736212,21.8285151 182.78106,22.8054848 181.586818,23.4779091 C180.391969,24.1524545 179.014697,24.487606 177.450151,24.4897272 C174.823788,24.4897272 172.630454,23.5866969 170.872273,21.7848788 C169.123182,19.9833636 168.250454,17.7682121 168.250454,15.1418485 C168.250454,12.4482121 169.140454,10.2048788 170.920151,8.41396969 C172.713182,6.61245454 174.954394,5.70942424 177.646212,5.70942424 C179.090757,5.70942424 180.405,6.05760605 181.586818,6.75184848 C182.770454,7.44790908 183.736212,8.42942423 184.487121,9.70003029 M177.580757,7.84396969 C175.659545,7.84396969 174.018939,8.55548484 172.663182,9.97851514 C171.316212,11.3885151 170.643788,13.1424545 170.643788,15.237606 C170.643788,17.2351818 171.316212,18.9236666 172.663182,20.3033636 C174.018939,21.6718485 175.637727,22.3551818 177.515606,22.3551818 C179.341363,22.3551818 180.925,21.6327575 182.271969,20.1900303 C183.618939,18.7342727 184.291363,16.987 184.291363,14.9439697 C184.291363,13.0445757 183.612272,11.3885151 182.254697,9.97851514 C180.907727,8.55548484 179.349848,7.84396969 177.580757,7.84396969" id="Fill-12" fill="#001489"/>
            <g id="Group-16" transform="translate(0.000000, 5.639121)">
                <mask id="mask-4" fill="white">
                    <use xlink:href="#path-3"/>
                </mask>
                <g id="Clip-15"/>
                <path d="M9.19103029,4.21669696 C7.75254544,4.21669696 6.57557575,4.71275757 5.65739393,5.70730302 C4.73921212,6.70154545 4.27981818,7.98760605 4.27981818,9.56518181 C4.27981818,11.1424545 4.74345454,12.417606 5.67254545,13.3903333 C6.61254545,14.3627576 7.83981817,14.8503333 9.35193938,14.8503333 C10.8967879,14.8503333 12.1240606,14.3585151 13.0313333,13.3751818 C13.9498182,12.3806363 14.4089091,11.0445757 14.4089091,9.37154544 C14.4089091,7.8591212 13.9170909,6.62124242 12.9334545,5.65942424 C11.9631515,4.69760605 10.7140606,4.21669696 9.19103029,4.21669696 M-0.000181818182,9.49972726 C-0.000181818182,6.92790908 0.907393938,4.72366666 2.72436363,2.88730303 C4.54981818,1.05093939 6.72557575,0.132454545 9.25406059,0.132454545 C11.9128485,0.132454545 14.1540606,1.0400303 15.9819394,2.85457575 C17.8076969,4.65851515 18.7192121,6.8430606 18.7192121,9.40184847 C18.7192121,12.1260909 17.818303,14.4021515 16.0146666,16.227606 C14.2195151,18.0533636 11.9892121,18.9648788 9.31921211,18.9648788 C6.70618181,18.9648788 4.49527272,18.0533636 2.69163636,16.227606 C0.896484847,14.3912424 -0.000181818182,12.1479091 -0.000181818182,9.49972726" id="Fill-14" fill="#001489" mask="url(#mask-4)"/>
            </g>
            <g id="Group-19" transform="translate(0.000000, 5.639121)">
                <mask id="mask-6" fill="white">
                    <use xlink:href="#path-5"/>
                </mask>
                <g id="Clip-18"/>
                <path d="M9.19103029,4.21669696 C7.75254544,4.21669696 6.57557575,4.71275757 5.65739393,5.70730302 C4.73921212,6.70154545 4.27981818,7.98760605 4.27981818,9.56518181 C4.27981818,11.1424545 4.74345454,12.417606 5.67254545,13.3903333 C6.61254545,14.3627576 7.83981817,14.8503333 9.35193938,14.8503333 C10.8967879,14.8503333 12.1240606,14.3585151 13.0313333,13.3751818 C13.9498182,12.3806363 14.4089091,11.0445757 14.4089091,9.37154544 C14.4089091,7.8591212 13.9170909,6.62124242 12.9334545,5.65942424 C11.9631515,4.69760605 10.7140606,4.21669696 9.19103029,4.21669696 M-0.000181818182,9.49972726 C-0.000181818182,6.92790908 0.907393938,4.72366666 2.72436363,2.88730303 C4.54981818,1.05093939 6.72557575,0.132454545 9.25406059,0.132454545 C11.9128485,0.132454545 14.1540606,1.0400303 15.9819394,2.85457575 C17.8076969,4.65851515 18.7192121,6.8430606 18.7192121,9.40184847 C18.7192121,12.1260909 17.818303,14.4021515 16.0146666,16.227606 C14.2195151,18.0533636 11.9892121,18.9648788 9.31921211,18.9648788 C6.70618181,18.9648788 4.49527272,18.0533636 2.69163636,16.227606 C0.896484847,14.3912424 -0.000181818182,12.1479091 -0.000181818182,9.49972726" id="Fill-17" fill="#001489" mask="url(#mask-6)"/>
            </g>
            <path d="M33.7490606,12.6434848 C33.2311818,11.7034848 32.5872424,11.0071212 31.8211818,10.5525757 C31.053303,10.0868182 30.1457272,9.85621211 29.0969394,9.85621211 C27.6914848,9.85621211 26.5142121,10.3631818 25.563303,11.3792424 C24.623303,12.395303 24.1554242,13.6704545 24.1554242,15.2043939 C24.1554242,16.7059091 24.6342121,17.965606 25.5960303,18.9819697 C26.5684545,19.985 27.7848181,20.4874242 29.2426969,20.4874242 C30.3784545,20.4874242 31.3120909,20.2504545 32.0475454,19.7762121 C32.793909,19.2886363 33.3487575,18.5662121 33.7163333,17.6043939 L38.1248181,17.6043939 C37.6396666,19.765 36.5951212,21.4731818 34.9981515,22.7243939 C33.4096666,23.9777272 31.5014848,24.6043939 29.2754242,24.6043939 C26.6275454,24.6043939 24.3926969,23.6862121 22.5648182,21.8495454 C20.7502727,20.0131818 19.8426969,17.8089394 19.8426969,15.2371212 C19.8426969,12.6325757 20.7566363,10.4086364 22.5823939,8.55924241 C24.4187575,6.7010606 26.5902727,5.77196969 29.0969394,5.77196969 C31.3990606,5.77196969 33.3551212,6.38772726 34.9654242,7.61924241 C36.5863333,8.83984847 37.6505757,10.515606 38.1572424,12.6434848 L33.7490606,12.6434848 Z" id="Fill-20" fill="#001489"/>
            <path d="M33.7490606,12.6434848 C33.2311818,11.7034848 32.5872424,11.0071212 31.8211818,10.5525757 C31.053303,10.0868182 30.1457272,9.85621211 29.0969394,9.85621211 C27.6914848,9.85621211 26.5142121,10.3631818 25.563303,11.3792424 C24.623303,12.395303 24.1554242,13.6704545 24.1554242,15.2043939 C24.1554242,16.7059091 24.6342121,17.965606 25.5960303,18.9819697 C26.5684545,19.985 27.7848181,20.4874242 29.2426969,20.4874242 C30.3784545,20.4874242 31.3120909,20.2504545 32.0475454,19.7762121 C32.793909,19.2886363 33.3487575,18.5662121 33.7163333,17.6043939 L38.1248181,17.6043939 C37.6396666,19.765 36.5951212,21.4731818 34.9981515,22.7243939 C33.4096666,23.9777272 31.5014848,24.6043939 29.2754242,24.6043939 C26.6275454,24.6043939 24.3926969,23.6862121 22.5648182,21.8495454 C20.7502727,20.0131818 19.8426969,17.8089394 19.8426969,15.2371212 C19.8426969,12.6325757 20.7566363,10.4086364 22.5823939,8.55924241 C24.4187575,6.7010606 26.5902727,5.77196969 29.0969394,5.77196969 C31.3990606,5.77196969 33.3551212,6.38772726 34.9654242,7.61924241 C36.5863333,8.83984847 37.6505757,10.515606 38.1572424,12.6434848 L33.7490606,12.6434848 Z" id="Fill-22" fill="#001489"/>
            <path d="M62.6121211,24.1353939 L62.6751514,21.6723636 C62.070303,22.6450909 61.3087878,23.3672121 60.3927272,23.8438788 C59.4833333,24.3072121 58.3757575,24.5399394 57.0678787,24.5399394 C54.4330302,24.5399394 52.2266666,23.6393333 50.4554545,21.8332727 C48.6842424,20.0296363 47.7987878,17.7969091 47.7987878,15.1402424 C47.7987878,12.5247879 48.6733333,10.3272121 50.4227272,8.54296969 C52.1742424,6.74993939 54.3566666,5.85145454 56.9699999,5.85145454 C58.1275757,5.85145454 59.1699999,6.08418181 60.0990908,6.54993939 C61.0390908,7.00236363 61.8984848,7.71175757 62.6751514,8.67145453 L62.5796969,6.30630302 L66.630909,6.30630302 L66.630909,24.1353939 L62.6121211,24.1353939 Z M52.0612121,15.0750909 C52.0612121,16.5981212 52.5681818,17.8623636 53.5842424,18.8675151 C54.6115151,19.8617576 55.890909,20.3581212 57.4248484,20.3581212 C58.830606,20.3581212 60.0336363,19.8553939 61.0390908,18.8523636 C62.0442423,17.8472121 62.5469696,16.6526666 62.5469696,15.2687273 C62.5469696,13.7672121 62.0399999,12.5075151 61.0236363,11.4935757 C60.0075757,10.4772121 58.7433333,9.97024241 57.231212,9.9681212 C55.7930302,9.9681212 54.5721211,10.4599394 53.5669696,11.4432727 C52.5639393,12.4269091 52.0612121,13.6387273 52.0612121,15.0750909 L52.0612121,15.0750909 Z" id="Fill-24" fill="#001489"/>
            <path d="M62.6121211,24.1353939 L62.6751514,21.6723636 C62.070303,22.6450909 61.3087878,23.3672121 60.3927272,23.8438788 C59.4833333,24.3072121 58.3757575,24.5399394 57.0678787,24.5399394 C54.4330302,24.5399394 52.2266666,23.6393333 50.4554545,21.8332727 C48.6842424,20.0296363 47.7987878,17.7969091 47.7987878,15.1402424 C47.7987878,12.5247879 48.6733333,10.3272121 50.4227272,8.54296969 C52.1742424,6.74993939 54.3566666,5.85145454 56.9699999,5.85145454 C58.1275757,5.85145454 59.1699999,6.08418181 60.0990908,6.54993939 C61.0390908,7.00236363 61.8984848,7.71175757 62.6751514,8.67145453 L62.5796969,6.30630302 L66.630909,6.30630302 L66.630909,24.1353939 L62.6121211,24.1353939 Z M52.0612121,15.0750909 C52.0612121,16.5981212 52.5681818,17.8623636 53.5842424,18.8675151 C54.6115151,19.8617576 55.890909,20.3581212 57.4248484,20.3581212 C58.830606,20.3581212 60.0336363,19.8553939 61.0390908,18.8523636 C62.0442423,17.8472121 62.5469696,16.6526666 62.5469696,15.2687273 C62.5469696,13.7672121 62.0399999,12.5075151 61.0236363,11.4935757 C60.0075757,10.4772121 58.7433333,9.97024241 57.231212,9.9681212 C55.7930302,9.9681212 54.5721211,10.4599394 53.5669696,11.4432727 C52.5639393,12.4269091 52.0612121,13.6387273 52.0612121,15.0750909 L52.0612121,15.0750909 Z" id="Fill-26" fill="#001489"/>
            <polygon id="Fill-28" fill="#001489" points="39.9620909 0.556727272 39.9620909 6.32703029 39.9620909 10.024 39.9620909 24.1564242 44.1114848 24.1564242 44.1114848 10.024 47.1578484 10.043697 49.7145151 6.32703029 44.1114848 6.32703029 44.1114848 0.556727272"/>
            <polygon id="Fill-30" fill="#001489" points="39.9620909 0.556727272 39.9620909 6.32703029 39.9620909 10.024 39.9620909 24.1564242 44.1114848 24.1564242 44.1114848 10.024 47.1578484 10.043697 49.7145151 6.32703029 44.1114848 6.32703029 44.1114848 0.556727272"/>
        </g>
    </g>
</svg>