<svg width="148" height="80" viewBox="0 0 148 80" fill="none" xmlns="http://www.w3.org/2000/svg">
<path d="M70.5826 6.09584L71.1042 5.57335C71.365 5.31211 71.8866 4.92024 72.669 4.3542C73.4513 3.78817 74.3206 3.26568 75.2334 2.78673C76.1462 2.30778 77.2762 1.91591 78.7106 1.52404C80.1015 1.13217 81.5358 0.958008 82.9702 0.958008C87.9252 0.958008 91.924 2.61257 95.01 5.8346C98.096 9.10017 99.6173 13.4543 99.6173 18.984V42.9751H91.0547V18.984C91.0547 16.0232 90.0984 13.5849 88.2294 11.6255C86.3604 9.66621 84.0133 8.7083 81.2316 8.7083C77.9717 8.7083 75.3638 9.75329 73.4513 11.8868C71.5389 14.0203 70.5392 16.9375 70.5392 20.7256V42.9751H61.9766V1.82883H70.5392L70.5826 6.09584Z" fill="url(#paint0_linear_1618_6018)"/>
<path d="M115.441 25.3845C115.876 28.3017 117.31 30.7836 119.744 32.9171C122.135 35.0506 125.003 36.0956 128.35 36.0956C130.741 36.0956 132.957 35.5731 135.044 34.441C137.13 33.3525 138.564 32.3075 139.434 31.2625L140.738 29.6515L146.301 35.2683C146.127 35.486 145.867 35.7908 145.519 36.2262C145.171 36.6616 144.432 37.3147 143.302 38.2726C142.172 39.2305 140.955 40.1014 139.651 40.8416C138.347 41.5817 136.695 42.2784 134.653 42.888C132.61 43.4976 130.48 43.8459 128.307 43.8459C122.482 43.8459 117.484 41.7124 113.268 37.4018C109.052 33.0913 106.922 27.9534 106.922 21.9883C106.922 16.0232 108.965 11.2772 113.094 7.14083C117.18 3.04798 122.135 0.958008 127.872 0.958008C133.609 0.958008 138.391 2.87381 142.259 6.70542C146.127 10.537 147.996 15.3265 147.996 21.1175L147.518 25.3845H115.441ZM120.048 11.016C117.962 12.8447 116.528 15.1959 115.789 18.1132H139.564C139.086 15.1959 137.782 12.8447 135.696 11.016C133.609 9.18725 131.001 8.27289 127.872 8.27289C124.743 8.27289 122.178 9.18725 120.048 11.016Z" fill="url(#paint1_linear_1618_6018)"/>
<path d="M17.037 78.7657C16.5154 79.2882 15.8634 79.5495 15.1245 79.5495C14.3856 79.5495 13.7336 79.2882 13.2121 78.7657C12.6905 78.2432 12.4297 77.5901 12.4297 76.8499C12.4297 76.1097 12.6905 75.4566 13.2121 74.9341C13.7336 74.4116 14.3856 74.1504 15.1245 74.1504C15.8634 74.1504 16.5154 74.4116 17.037 74.9341C17.5586 75.4566 17.8193 76.1097 17.8193 76.8499C17.8193 77.6337 17.5586 78.2868 17.037 78.7657ZM13.6467 78.4174C14.0379 78.8528 14.5595 79.027 15.168 79.027C15.7765 79.027 16.2546 78.8093 16.6893 78.4174C17.0804 77.982 17.2978 77.503 17.2978 76.8935C17.2978 76.2839 17.0804 75.7614 16.6893 75.3695C16.2981 74.9341 15.7765 74.76 15.168 74.76C14.5595 74.76 14.0814 74.9777 13.6467 75.3695C13.2555 75.8049 13.0382 76.2839 13.0382 76.8935C13.0382 77.503 13.2555 78.0255 13.6467 78.4174Z" fill="#001489"/>
<path d="M20.4699 74.9781C20.9915 74.4556 21.6434 74.1943 22.3823 74.1943C22.6431 74.1943 22.9039 74.2379 23.1212 74.325C23.382 74.412 23.5559 74.4991 23.7297 74.5862C23.9036 74.6733 24.034 74.8039 24.1644 74.891C24.2948 74.9781 24.3817 75.1087 24.4252 75.1522L24.5121 75.2829L24.1209 75.6312C24.1209 75.5876 24.0775 75.5876 24.034 75.5441C23.9905 75.5006 23.9471 75.4135 23.8167 75.3264C23.7297 75.2393 23.5994 75.1522 23.469 75.0652C23.3386 74.9781 23.1647 74.9345 22.9908 74.8475C22.7735 74.7604 22.5562 74.7604 22.3389 74.7604C21.7304 74.7604 21.2522 74.9781 20.8176 75.3699C20.4264 75.8054 20.2091 76.2843 20.2091 76.8939C20.2091 77.5035 20.4264 78.0259 20.8176 78.4178C21.2088 78.8532 21.7304 79.0274 22.3389 79.0274C22.5562 79.0274 22.7735 78.9838 22.9908 78.9403C23.2082 78.8968 23.382 78.8097 23.5124 78.7226C23.6428 78.6355 23.7732 78.5484 23.8601 78.4614C23.9471 78.3743 24.034 78.2872 24.0775 78.2436L24.1644 78.1566L24.5556 78.5049C24.5556 78.5484 24.5121 78.592 24.4687 78.6355C24.4252 78.6791 24.3383 78.7661 24.2079 78.8968C24.0775 79.0274 23.9471 79.1145 23.7732 79.2451C23.5994 79.3322 23.4255 79.4193 23.1647 79.5063C22.9039 79.5934 22.6431 79.637 22.3823 79.637C21.6434 79.637 20.9915 79.3757 20.4699 78.8532C19.9483 78.3307 19.6875 77.6776 19.6875 76.9374C19.6875 76.1537 19.9483 75.5006 20.4699 74.9781Z" fill="#001489"/>
<path d="M29.7746 74.2803V74.8028H28.123V79.5052H27.5579V74.8028H25.9062V74.2803H29.7746Z" fill="#001489"/>
<path d="M31.8108 78.0254L31.2023 79.4622H30.5938L32.767 74.2373H33.2886L35.4618 79.4622H34.8533L34.2448 78.0254H31.8108ZM33.0278 75.0646L32.0281 77.5464H34.0275L33.0278 75.0646Z" fill="#001489"/>
<path d="M39.3309 74.2812C39.809 74.2812 40.2002 74.4554 40.5479 74.7602C40.8957 75.065 41.0261 75.4569 41.0261 75.9358C41.0261 76.4148 40.8522 76.8066 40.5479 77.1114C40.2437 77.4162 39.809 77.5904 39.3309 77.5904H37.8966V79.5062H37.375V74.2812H39.3309ZM37.94 74.8037V77.0243H39.3744C39.7221 77.0243 39.9829 76.9372 40.2002 76.7195C40.4176 76.5018 40.5045 76.2406 40.5045 75.8923C40.5045 75.5439 40.4176 75.2827 40.2002 75.065C39.9829 74.8473 39.7221 74.7602 39.3744 74.7602H37.94V74.8037Z" fill="#001489"/>
<path d="M43.1953 74.2812H43.7604V76.5889H46.6725V74.2812H47.2376V79.5062H46.6725V77.1114H43.7604V79.5062H43.1953V74.2812Z" fill="#001489"/>
<path d="M50.3186 78.0254L49.7101 79.4622H49.1016L51.2748 74.2373H51.7964L53.9696 79.4622H53.3611L52.7526 78.0254H50.3186ZM51.5356 75.0646L50.5359 77.5464H52.5353L51.5356 75.0646Z" fill="#001489"/>
<path d="M57.9769 74.2812C58.4551 74.2812 58.8028 74.4119 59.107 74.7167C59.4113 75.0214 59.5417 75.3698 59.5417 75.8487C59.5417 76.0664 59.4982 76.2841 59.4113 76.4583C59.3244 76.6325 59.2374 76.8066 59.1505 76.8937C59.0636 76.9808 58.9332 77.0679 58.8462 77.155C58.7593 77.242 58.6289 77.2856 58.5855 77.2856L58.4551 77.3291L59.6721 79.5062H59.107L57.9335 77.4162H56.4557V79.5062H55.8906V74.2812H57.9769ZM56.4557 74.8037V76.8937H57.9769C58.2812 76.8937 58.542 76.8066 58.7159 76.6325C58.8897 76.4583 59.0201 76.1971 59.0201 75.8923C59.0201 75.5875 58.9332 75.3262 58.7159 75.1521C58.542 74.9779 58.2812 74.8908 57.9769 74.8908H56.4557V74.8037Z" fill="#001489"/>
<path d="M64.5342 78.0252L62.4479 75.2821V79.5491H61.8828V74.3242H62.3609L64.5342 77.1544L66.7074 74.3242H67.1855V79.5491H66.6205V75.2821L64.5342 78.0252Z" fill="#001489"/>
<path d="M70.2751 78.0254L69.6666 79.4622H69.1016L71.2748 74.2373H71.7964L73.9696 79.4622H73.3611L72.7526 78.0254H70.2751ZM71.5356 75.0646L70.5359 77.5464H72.5353L71.5356 75.0646Z" fill="#001489"/>
<path d="M78.2344 74.2812H78.7994V76.5889H81.7116V74.2812H82.2766V79.5062H81.7116V77.1114H78.7994V79.5062H78.2344V74.2812Z" fill="#001489"/>
<path d="M85.3967 78.0254L84.7882 79.4622H84.1797L86.3529 74.2373H86.8745L89.0478 79.4622H88.4393L87.8308 78.0254H85.3967ZM86.6137 75.0646L85.614 77.5029H87.6134L86.6137 75.0646Z" fill="#001489"/>
<path d="M94.612 78.9837V79.5062H90.9609V74.2812H94.5251V74.8037H91.526V76.5018H93.96V77.0243H91.526V78.9837H94.612Z" fill="#001489"/>
<path d="M99.3545 78.0252L97.2682 75.2821V79.5491H96.7031V74.3242H97.1812L99.3545 77.1544L101.528 74.3242H102.006V79.5491H101.441V75.2821L99.3545 78.0252Z" fill="#001489"/>
<path d="M105.053 78.0254L104.444 79.4622H103.836L106.009 74.2373H106.531L108.704 79.4622H108.096L107.487 78.0254H105.053ZM106.27 75.0646L105.27 77.5464H107.27L106.27 75.0646Z" fill="#001489"/>
<path d="M113.364 74.2803V74.8028H111.712V79.5052H111.147V74.8028H109.539V74.2803H113.364Z" fill="#001489"/>
<path d="M119.178 78.7657C118.656 79.2882 118.004 79.5495 117.265 79.5495C116.526 79.5495 115.874 79.2882 115.353 78.7657C114.831 78.2432 114.57 77.5901 114.57 76.8499C114.57 76.1097 114.831 75.4566 115.353 74.9341C115.874 74.4116 116.526 74.1504 117.265 74.1504C118.004 74.1504 118.656 74.4116 119.178 74.9341C119.699 75.4566 119.96 76.1097 119.96 76.8499C119.96 77.6337 119.699 78.2868 119.178 78.7657ZM115.787 78.4174C116.179 78.8528 116.7 79.027 117.309 79.027C117.917 79.027 118.395 78.8093 118.83 78.4174C119.221 77.982 119.438 77.503 119.438 76.8935C119.438 76.2839 119.221 75.7614 118.83 75.3695C118.439 74.9341 117.917 74.76 117.309 74.76C116.7 74.76 116.222 74.9777 115.787 75.3695C115.396 75.8049 115.179 76.2839 115.179 76.8935C115.179 77.503 115.396 78.0255 115.787 78.4174Z" fill="#001489"/>
<path d="M122.18 79.5052V74.2803H122.745V78.9827H125.44V79.5052H122.18Z" fill="#001489"/>
<path d="M131.224 78.7657C130.703 79.2882 130.051 79.5495 129.312 79.5495C128.573 79.5495 127.921 79.2882 127.4 78.7657C126.878 78.2432 126.617 77.5901 126.617 76.8499C126.617 76.1097 126.878 75.4566 127.4 74.9341C127.921 74.4116 128.573 74.1504 129.312 74.1504C130.051 74.1504 130.703 74.4116 131.224 74.9341C131.746 75.4566 132.007 76.1097 132.007 76.8499C132.007 77.6337 131.746 78.2868 131.224 78.7657ZM127.834 78.4174C128.225 78.8528 128.747 79.027 129.355 79.027C129.964 79.027 130.442 78.8093 130.877 78.4174C131.268 77.982 131.485 77.503 131.485 76.8935C131.485 76.2839 131.268 75.7614 130.877 75.3695C130.486 74.9341 129.964 74.76 129.355 74.76C128.747 74.76 128.269 74.9777 127.834 75.3695C127.443 75.8049 127.226 76.2839 127.226 76.8935C127.226 77.503 127.443 78.0255 127.834 78.4174Z" fill="#001489"/>
<path d="M134.657 74.9781C135.179 74.4556 135.831 74.1943 136.57 74.1943C136.831 74.1943 137.091 74.2379 137.309 74.325C137.57 74.412 137.743 74.4991 137.917 74.5862C138.091 74.6733 138.221 74.8039 138.352 74.891C138.482 74.9781 138.569 75.1087 138.613 75.1522L138.7 75.2829L138.308 75.6312C138.308 75.5876 138.265 75.5877 138.222 75.5441C138.178 75.5006 138.135 75.4135 138.004 75.3264C137.874 75.2393 137.787 75.1522 137.656 75.0652C137.526 74.9781 137.352 74.9345 137.178 74.8475C136.961 74.7604 136.744 74.7604 136.526 74.7604C135.918 74.7604 135.44 74.9781 135.005 75.3699C134.614 75.8054 134.397 76.2843 134.397 76.8939C134.397 77.5035 134.614 78.0259 135.005 78.4178C135.396 78.8532 135.918 79.0274 136.526 79.0274C136.744 79.0274 136.918 78.9838 137.135 78.9403C137.309 78.8968 137.483 78.8097 137.613 78.7661C137.743 78.6791 137.83 78.6355 137.917 78.5484C138.004 78.4614 138.091 78.4178 138.135 78.3743L138.178 78.2872V77.2857H137.004V76.7633H138.743V78.4614C138.743 78.5049 138.7 78.5484 138.656 78.592C138.613 78.6355 138.526 78.7226 138.395 78.8532C138.265 78.9838 138.091 79.0709 137.961 79.2015C137.787 79.2886 137.613 79.3757 137.352 79.4628C137.091 79.5499 136.831 79.5934 136.57 79.5934C135.831 79.5934 135.179 79.3322 134.657 78.8097C134.136 78.2872 133.875 77.6341 133.875 76.8939C133.875 76.1537 134.136 75.5006 134.657 74.9781Z" fill="#001489"/>
<path d="M142.521 77.0669L144.086 74.2803H144.738L142.782 77.6765V79.5052H142.217V77.6765L140.305 74.2803H140.957L142.521 77.0669Z" fill="#001489"/>
<path d="M21.6941 54.8181C21.6072 54.6875 21.4768 54.5133 21.3029 54.3392C21.1291 54.165 20.7379 53.9037 20.1728 53.599C19.5643 53.2942 18.9124 53.12 18.2604 53.12C17.3911 53.12 16.6522 53.3377 16.1306 53.8167C15.609 54.2956 15.3048 54.8181 15.3048 55.4277C15.3048 56.0373 15.609 56.5597 16.1741 56.9516C16.7391 57.3435 17.478 57.6483 18.3039 57.866C19.1297 58.0837 19.9555 58.3449 20.8248 58.6497C21.6941 58.9545 22.3896 59.4334 22.9546 60.0866C23.5197 60.7397 23.8239 61.6105 23.8239 62.6555C23.8239 64.0052 23.3023 65.1373 22.2592 66.0517C21.216 66.966 19.8251 67.4014 18.0431 67.4014C17.3042 67.4014 16.6087 67.3144 15.9133 67.0967C15.2178 66.879 14.6963 66.6613 14.2616 66.4C13.827 66.1388 13.4792 65.8775 13.1315 65.5727C12.8273 65.3115 12.5665 65.0502 12.4361 64.8761L12.2188 64.5713L13.8704 62.9167C13.9139 62.9603 13.9573 63.0474 14.0443 63.178C14.1312 63.2651 14.3051 63.4392 14.5659 63.744C14.8267 64.0052 15.0874 64.223 15.3917 64.4407C15.696 64.6584 16.0871 64.8325 16.5652 65.0067C17.0434 65.1809 17.5215 65.2679 17.9996 65.2679C19.1297 65.2679 19.9555 65.0067 20.564 64.5277C21.1725 64.0488 21.4333 63.3957 21.4333 62.6555C21.4333 62.0024 21.1291 61.4799 20.564 61.0445C19.999 60.6091 19.2601 60.3043 18.4342 60.0866C17.6084 59.8689 16.7826 59.5641 15.9133 59.2593C15.044 58.9545 14.3485 58.4755 13.7835 57.866C13.2184 57.2564 12.9142 56.3856 12.9142 55.3841C12.9142 54.2085 13.3923 53.1635 14.4355 52.2492C15.4786 51.3348 16.6956 50.8994 18.2169 50.8994C18.8254 50.8994 19.4339 50.9865 19.999 51.1171C20.564 51.2477 21.0856 51.4219 21.4333 51.6396C21.7811 51.8573 22.1288 52.075 22.433 52.2927C22.7373 52.5104 22.9546 52.6846 23.085 52.8152L23.3023 53.0765L21.6941 54.8181Z" fill="url(#paint2_linear_1618_6018)"/>
<path d="M36.519 53.4241C38.0837 51.813 39.9962 51.0293 42.2129 51.0293C44.4296 51.0293 46.3421 51.813 47.9068 53.4241C49.4716 55.0351 50.2539 56.9509 50.2539 59.3021C50.2539 61.6533 49.4716 63.5691 47.9068 65.1366C46.3421 66.7041 44.4296 67.5313 42.2129 67.5313C39.9962 67.5313 38.0837 66.7476 36.519 65.1366C34.9542 63.5256 34.1719 61.6098 34.1719 59.3021C34.1719 56.9944 34.9542 55.0351 36.519 53.4241ZM46.2986 54.948C45.1685 53.7724 43.8211 53.1628 42.2564 53.1628C40.6916 53.1628 39.3007 53.7288 38.2141 54.948C37.084 56.1236 36.519 57.5604 36.519 59.2585C36.519 60.9566 37.084 62.3935 38.2141 63.5691C39.3442 64.7447 40.6916 65.3543 42.2564 65.3543C43.8211 65.3543 45.212 64.7447 46.2986 63.5691C47.3852 62.3935 47.9938 60.9566 47.9938 59.2585C47.9938 57.5604 47.4287 56.1236 46.2986 54.948Z" fill="url(#paint3_linear_1618_6018)"/>
<path d="M73.2839 65.0498C73.2404 65.0933 73.1969 65.224 73.11 65.311C73.0231 65.3981 72.8057 65.6158 72.5015 65.9206C72.1972 66.1819 71.8495 66.4431 71.4583 66.6608C71.0671 66.8785 70.6325 67.0962 70.024 67.2704C69.4155 67.4446 68.807 67.5316 68.1984 67.5316C66.3729 67.5316 64.8082 66.8785 63.5912 65.6158C62.3741 64.3531 61.7656 62.655 61.7656 60.6086V51.3779H64.0693V60.6086C64.0693 62.0019 64.5039 63.134 65.3732 64.0484C66.2425 64.9627 67.2857 65.3981 68.5027 65.3981C69.8501 65.3981 70.9802 64.9192 71.893 63.9177C72.8057 62.9163 73.2839 61.6536 73.2839 60.1297V51.3779H75.5875V67.1833H73.2839V65.0498Z" fill="url(#paint4_linear_1618_6018)"/>
<path d="M96.6758 53.337H95.6761C94.3287 53.337 93.1552 53.8159 92.1989 54.7303C91.2427 55.6446 90.7646 56.9073 90.7646 58.4313V67.183H88.4609V51.3776H90.7646V53.5111C90.808 53.4241 90.8515 53.3805 90.9384 53.2499C91.0254 53.1193 91.2427 52.9451 91.547 52.6403C91.8512 52.3355 92.1989 52.1178 92.5901 51.9001C92.9813 51.6824 93.4594 51.4647 94.0679 51.2905C94.6764 51.1164 95.3284 51.0293 96.0238 51.0293H96.6758V53.337Z" fill="url(#paint5_linear_1618_6018)"/>
<path d="M108.363 53.4241C109.927 51.813 111.753 51.0293 113.926 51.0293C115.143 51.0293 116.317 51.2905 117.36 51.813C118.403 52.3355 119.186 52.858 119.664 53.3805L120.359 54.1207L118.707 55.7753C118.664 55.7317 118.62 55.6011 118.534 55.514C118.447 55.3834 118.273 55.1657 117.969 54.8609C117.664 54.5561 117.36 54.2949 117.012 54.0336C116.665 53.8159 116.23 53.5982 115.665 53.4241C115.1 53.2499 114.535 53.1628 113.926 53.1628C112.405 53.1628 111.101 53.7288 110.014 54.948C108.884 56.1236 108.363 57.5604 108.363 59.2585C108.363 60.9566 108.928 62.3935 110.014 63.5691C111.145 64.7447 112.448 65.3543 113.926 65.3543C114.839 65.3543 115.708 65.1366 116.534 64.7012C117.36 64.2658 117.969 63.8303 118.316 63.3949L118.838 62.7418L120.489 64.2222C120.446 64.3093 120.316 64.4399 120.185 64.5705C120.055 64.7447 119.751 65.006 119.359 65.3543C118.925 65.7462 118.49 66.0509 118.012 66.3122C117.534 66.5734 116.925 66.8782 116.186 67.0959C115.448 67.3572 114.665 67.4442 113.926 67.4442C111.753 67.4442 109.927 66.6605 108.363 65.0495C106.798 63.4385 106.016 61.5227 106.016 59.215C106.016 56.9073 106.798 55.0351 108.363 53.4241Z" fill="url(#paint6_linear_1618_6018)"/>
<path d="M132.613 60.1294C132.7 61.5662 133.265 62.7854 134.351 63.8303C135.438 64.8753 136.698 65.3978 138.176 65.3978C139.176 65.3978 140.089 65.1801 140.915 64.7447C141.74 64.3093 142.349 63.8739 142.697 63.4385L143.262 62.7854L144.739 64.2658C144.696 64.3528 144.566 64.4835 144.479 64.6141C144.392 64.7447 144.087 65.0495 143.653 65.3978C143.218 65.7897 142.784 66.0945 142.305 66.3557C141.827 66.617 141.219 66.9218 140.48 67.1395C139.741 67.3572 138.959 67.4878 138.176 67.4878C136.003 67.4878 134.177 66.7041 132.613 65.093C131.048 63.482 130.266 61.5662 130.266 59.2585C130.266 56.9509 131.048 55.0351 132.569 53.4241C134.091 51.813 135.916 51.0293 138.002 51.0293C140.089 51.0293 141.958 51.7695 143.392 53.2934C144.826 54.7738 145.565 56.6896 145.565 58.9538L145.391 60.1294H132.613ZM134.438 54.6432C133.395 55.6011 132.787 56.7767 132.613 58.1265H143.305C143.131 56.6896 142.566 55.514 141.567 54.5997C140.567 53.6853 139.393 53.2063 138.046 53.2063C136.698 53.2063 135.481 53.6853 134.438 54.6432Z" fill="url(#paint7_linear_1618_6018)"/>
<path d="M13.4312 31.6107C13.4312 32.3944 12.7792 33.0475 11.9968 33.0475C11.2145 33.0475 10.5625 32.3944 10.5625 31.6107C10.5625 30.8269 11.2145 30.1738 11.9968 30.1738C12.7792 30.1738 13.4312 30.8269 13.4312 31.6107Z" fill="#001489"/>
<path d="M17.4689 4.8327C17.4689 5.00687 17.3385 5.18103 17.1212 5.18103C16.9038 5.18103 16.7734 5.05041 16.7734 4.8327C16.7734 4.615 16.9038 4.48438 17.1212 4.48438C17.3385 4.48438 17.4689 4.65854 17.4689 4.8327Z" fill="#001489"/>
<path d="M13.9074 9.49148C13.9074 9.70918 13.7335 9.88335 13.5162 9.88335C13.2989 9.88335 13.125 9.70918 13.125 9.49148C13.125 9.27377 13.2989 9.09961 13.5162 9.09961C13.7335 9.09961 13.9074 9.27377 13.9074 9.49148Z" fill="#001489"/>
<path d="M10.0451 27.7356C10.0451 28.0839 9.78436 28.3451 9.43664 28.3451C9.08892 28.3451 8.82812 28.0839 8.82812 27.7356C8.82812 27.3872 9.08892 27.126 9.43664 27.126C9.78436 27.126 10.0451 27.3872 10.0451 27.7356Z" fill="#001489"/>
<path d="M12.215 28.4327C12.215 28.7374 11.9977 28.9551 11.6935 28.9551C11.3892 28.9551 11.1719 28.6939 11.1719 28.4327C11.1719 28.1714 11.3892 27.9102 11.6935 27.9102C11.9977 27.9102 12.215 28.1279 12.215 28.4327Z" fill="#001489"/>
<path d="M9.12923 11.6257C9.12923 12.1047 8.73804 12.4965 8.25993 12.4965C7.78181 12.4965 7.39062 12.1047 7.39062 11.6257C7.39062 11.1468 7.78181 10.7549 8.25993 10.7549C8.73804 10.7549 9.12923 11.1468 9.12923 11.6257Z" fill="#001489"/>
<path d="M12.8248 12.497C12.8248 12.7582 12.6075 13.0195 12.3032 12.976C12.0424 12.976 11.7816 12.7582 11.8251 12.4535C11.8251 12.1922 12.0424 11.931 12.3467 11.9745C12.6075 11.9745 12.8248 12.2358 12.8248 12.497Z" fill="#001489"/>
<path d="M9.51905 17.5901C9.51905 17.8078 9.34519 17.9384 9.12786 17.9384C8.91054 17.9384 8.73668 17.7643 8.78014 17.5466C8.82361 17.3289 8.954 17.1982 9.17133 17.1982C9.38865 17.1982 9.51905 17.3724 9.51905 17.5901Z" fill="#001489"/>
<path d="M14.1682 38.2285C14.1682 38.5333 13.9074 38.751 13.6466 38.751C13.3858 38.751 13.125 38.4898 13.125 38.2285C13.125 37.9673 13.3858 37.7061 13.6466 37.7061C13.9508 37.7061 14.1682 37.9238 14.1682 38.2285Z" fill="#001489"/>
<path d="M14.4748 35.051C14.4748 35.3993 14.214 35.6606 13.8663 35.6606C13.5186 35.6606 13.2578 35.3993 13.2578 35.051C13.2578 34.7027 13.5186 34.4414 13.8663 34.4414C14.214 34.4414 14.4748 34.7027 14.4748 35.051Z" fill="#001489"/>
<path d="M4.82143 37.4016C4.82143 37.6193 4.64757 37.7935 4.43025 37.7935C4.21292 37.7935 4.03906 37.6193 4.03906 37.4016C4.03906 37.1839 4.21292 37.0098 4.43025 37.0098C4.64757 37.0098 4.82143 37.1839 4.82143 37.4016Z" fill="#001489"/>
<path d="M11.779 23.556C11.779 24.6445 10.9097 25.5154 9.82311 25.5154C8.73649 25.5154 7.86719 24.6445 7.86719 23.556C7.86719 22.4675 8.73649 21.5967 9.82311 21.5967C10.9097 21.5967 11.779 22.4675 11.779 23.556Z" fill="#001489"/>
<path d="M7.13108 19.4191C7.13108 19.7675 6.87029 20.0287 6.52257 20.0287C6.17485 20.0287 5.91406 19.7675 5.91406 19.4191C5.91406 19.0708 6.17485 18.8096 6.52257 18.8096C6.87029 18.8096 7.13108 19.0708 7.13108 19.4191Z" fill="#001489"/>
<path d="M22.2551 0.566033C22.2551 0.87082 21.9943 1.13207 21.69 1.13207C21.3858 1.13207 21.125 0.87082 21.125 0.566033C21.125 0.261246 21.3858 0 21.69 0C21.9943 0 22.2551 0.261246 22.2551 0.566033Z" fill="#001489"/>
<path d="M7.72979 26.3419C7.72979 26.8209 7.33861 27.1692 6.90396 27.1692C6.46931 27.1692 6.07812 26.7773 6.07812 26.3419C6.07812 25.9065 6.46931 25.5146 6.90396 25.5146C7.33861 25.5146 7.72979 25.863 7.72979 26.3419Z" fill="#001489"/>
<path d="M13.2557 40.6236C13.2557 41.059 12.9079 41.4073 12.4733 41.4073C12.0386 41.4073 11.7344 41.059 11.7344 40.6236C11.7344 40.1882 12.0821 39.8398 12.5167 39.8398C12.9514 39.8398 13.2557 40.2317 13.2557 40.6236Z" fill="#001489"/>
<path d="M7.47229 3.74481C7.47229 3.91898 7.34189 4.09314 7.12457 4.09314C6.90724 4.09314 6.82031 3.91898 6.82031 3.74481C6.82031 3.57065 6.95071 3.39648 7.16803 3.39648C7.38536 3.39648 7.47229 3.57065 7.47229 3.74481Z" fill="#001489"/>
<path d="M10.7814 15.5436C10.7814 15.7178 10.651 15.892 10.4337 15.892C10.2163 15.892 10.0859 15.7613 10.0859 15.5436C10.0859 15.3259 10.2163 15.1953 10.4337 15.1953C10.651 15.1953 10.7814 15.3259 10.7814 15.5436Z" fill="#001489"/>
<path d="M4.13635 1.87217C4.13635 2.04633 4.00596 2.2205 3.78863 2.2205C3.5713 2.2205 3.48438 2.08987 3.48438 1.87217C3.48438 1.65446 3.61477 1.56738 3.8321 1.56738C4.04942 1.56738 4.13635 1.69801 4.13635 1.87217Z" fill="#001489"/>
<path d="M21.7267 2.78583C21.7267 2.95999 21.5963 3.13416 21.379 3.13416C21.1616 3.13416 21.0312 3.00353 21.0312 2.78583C21.0312 2.56812 21.1616 2.4375 21.379 2.4375C21.5963 2.4375 21.7267 2.61166 21.7267 2.78583Z" fill="#001489"/>
<path d="M2.34388 33.7009C2.34388 33.875 2.21348 34.0492 1.99616 34.0492C1.77883 34.0492 1.64844 33.9186 1.64844 33.7009C1.64844 33.4832 1.77883 33.3525 1.99616 33.3525C2.21348 33.3525 2.34388 33.5267 2.34388 33.7009Z" fill="#001489"/>
<path d="M0.651975 28.9548C0.651975 29.1289 0.52158 29.3031 0.304255 29.3031C0.08693 29.3031 0 29.1725 0 28.9548C0 28.7371 0.130395 28.6064 0.34772 28.6064C0.565045 28.6064 0.651975 28.7806 0.651975 28.9548Z" fill="#001489"/>
<path d="M18.7775 39.1875C18.7775 39.4923 18.5602 39.71 18.256 39.71C17.9517 39.71 17.7344 39.4923 17.7344 39.1875C17.7344 38.8827 17.9517 38.665 18.256 38.665C18.5602 38.665 18.7775 38.9263 18.7775 39.1875Z" fill="#001489"/>
<path d="M6.43763 40.4499C6.43763 40.6241 6.30723 40.7982 6.08991 40.7982C5.87258 40.7982 5.74219 40.6676 5.74219 40.4499C5.74219 40.2322 5.87258 40.1016 6.08991 40.1016C6.30723 40.1016 6.43763 40.2757 6.43763 40.4499Z" fill="#001489"/>
<path d="M20.2145 41.7985C20.2145 41.9727 20.0841 42.1469 19.8668 42.1469C19.6494 42.1469 19.5625 41.9727 19.5625 41.7985C19.5625 41.6244 19.6929 41.4502 19.9102 41.4502C20.1275 41.4502 20.2145 41.6244 20.2145 41.7985Z" fill="#001489"/>
<path d="M9.69643 20.0716C9.69643 20.2893 9.52257 20.4634 9.30525 20.4634C9.08792 20.4634 8.91406 20.2893 8.91406 20.0716C8.91406 19.8539 9.08792 19.6797 9.30525 19.6797C9.52257 19.6797 9.69643 19.8539 9.69643 20.0716Z" fill="#001489"/>
<path d="M6.39175 12.1907C6.39175 12.4084 6.21789 12.5826 6.00056 12.5826C5.78324 12.5826 5.60938 12.4084 5.60938 12.1907C5.60938 11.973 5.78324 11.7988 6.00056 11.7988C6.21789 11.7988 6.39175 11.973 6.39175 12.1907Z" fill="#001489"/>
<path d="M17.35 36.7489C17.35 37.2714 16.9153 37.7068 16.3937 37.7068C15.8722 37.7068 15.4375 37.2714 15.4375 36.7489C15.4375 36.2264 15.8722 35.791 16.3937 35.791C16.9153 35.791 17.35 36.2264 17.35 36.7489Z" fill="#001489"/>
<path d="M19.4701 2.30727C19.4701 2.91685 18.992 3.3958 18.3835 3.3958C17.775 3.3958 17.2969 2.91685 17.2969 2.30727C17.2969 1.6977 17.775 1.21875 18.3835 1.21875C18.992 1.21875 19.4701 1.6977 19.4701 2.30727Z" fill="#001489"/>
<path d="M10.176 33.5264C10.176 33.8312 9.95865 34.0489 9.65439 34.0489C9.35014 34.0489 9.13281 33.7876 9.13281 33.5264C9.13281 33.2652 9.35014 33.0039 9.65439 33.0039C9.95865 33.0039 10.176 33.2216 10.176 33.5264Z" fill="#001489"/>
<path d="M4.87029 5.74751C4.87029 6.00875 4.65297 6.22646 4.39218 6.22646C4.13139 6.22646 3.91406 6.00875 3.91406 5.74751C3.91406 5.48626 4.13139 5.26855 4.39218 5.26855C4.65297 5.26855 4.87029 5.48626 4.87029 5.74751Z" fill="#001489"/>
<path d="M11.7388 10.6679C11.7388 10.9291 11.5215 11.1904 11.2173 11.1469C10.9565 11.1469 10.6957 10.9291 10.7391 10.6244C10.7391 10.3631 10.9565 10.1019 11.2607 10.1454C11.5215 10.1454 11.7388 10.4067 11.7388 10.6679Z" fill="#001489"/>
<path d="M10.6926 13.7154C10.6926 14.0202 10.4318 14.2815 10.1275 14.2815C9.82329 14.2815 9.5625 14.0638 9.5625 13.7154C9.5625 13.4107 9.82329 13.1494 10.1275 13.1494C10.4318 13.1494 10.6926 13.4107 10.6926 13.7154Z" fill="#001489"/>
<path d="M6.04018 9.09988C6.04018 9.31758 5.86632 9.49175 5.649 9.49175C5.43167 9.49175 5.25781 9.31758 5.25781 9.09988C5.25781 8.88217 5.43167 8.70801 5.649 8.70801C5.86632 8.70801 6.04018 8.92571 6.04018 9.09988Z" fill="#001489"/>
<path d="M1.21206 15.9798C1.21206 16.1975 1.0382 16.3716 0.820873 16.3716C0.603548 16.3716 0.429688 16.1975 0.429688 15.9798C0.429688 15.7621 0.603548 15.5879 0.820873 15.5879C1.0382 15.5879 1.21206 15.8056 1.21206 15.9798Z" fill="#001489"/>
<path d="M8.17213 14.5863C8.17213 14.9782 7.86788 15.283 7.47669 15.283C7.08551 15.283 6.78125 14.9782 6.78125 14.5863C6.78125 14.1944 7.08551 13.8896 7.47669 13.8896C7.86788 13.8896 8.17213 14.1944 8.17213 14.5863Z" fill="#001489"/>
<path d="M9.21504 1.30667C9.21504 1.61146 8.99771 1.82916 8.69346 1.82916C8.3892 1.82916 8.17188 1.61146 8.17188 1.30667C8.17188 1.00188 8.3892 0.78418 8.69346 0.78418C8.99771 0.78418 9.21504 1.00188 9.21504 1.30667Z" fill="#001489"/>
<path d="M11.9538 35.7471C11.9538 36.0519 11.693 36.2696 11.4322 36.2696C11.1714 36.2696 10.8672 36.0519 10.8672 35.7471C10.8672 35.4423 11.128 35.2246 11.3888 35.2246C11.6496 35.2246 11.9538 35.4423 11.9538 35.7471Z" fill="#001489"/>
<path d="M3.52214 25.6883C3.52214 25.9496 3.30482 26.1237 3.04403 26.1237C2.78324 26.1237 2.60938 25.9496 2.60938 25.6883C2.60938 25.4271 2.8267 25.2529 3.08749 25.2529C3.34828 25.2529 3.52214 25.4271 3.52214 25.6883Z" fill="#001489"/>
<path d="M3.60268 13.846C3.60268 14.0637 3.42882 14.2378 3.2115 14.2378C2.99417 14.2378 2.82031 14.0637 2.82031 13.846C2.82031 13.6283 2.99417 13.4541 3.2115 13.4541C3.42882 13.4541 3.60268 13.6283 3.60268 13.846Z" fill="#001489"/>
<path d="M26.4699 0.521752C26.4699 0.739457 26.296 0.913621 26.0787 0.913621C25.8614 0.913621 25.6875 0.739457 25.6875 0.521752C25.6875 0.304047 25.8614 0.129883 26.0787 0.129883C26.296 0.129883 26.4699 0.304047 26.4699 0.521752Z" fill="#001489"/>
<path d="M2.56802 9.7532C2.56802 9.9709 2.39416 10.1451 2.17684 10.1451C1.95951 10.1451 1.74219 9.9709 1.74219 9.7532C1.74219 9.53549 1.91605 9.36133 2.13337 9.36133C2.3507 9.36133 2.56802 9.53549 2.56802 9.7532Z" fill="#001489"/>
<path d="M15.9933 40.8421C15.9933 41.0598 15.8194 41.2339 15.6021 41.2339C15.3848 41.2339 15.2109 41.0598 15.2109 40.8421C15.2109 40.6244 15.3848 40.4502 15.6021 40.4502C15.8194 40.4502 15.9933 40.6244 15.9933 40.8421Z" fill="#001489"/>
<path d="M3.60566 19.375C3.60566 19.6798 3.34487 19.8975 3.08408 19.8975C2.82329 19.8975 2.5625 19.6798 2.5625 19.375C2.5625 19.0702 2.82329 18.8525 3.08408 18.8525C3.34487 18.8525 3.60566 19.1138 3.60566 19.375Z" fill="#001489"/>
<path d="M5.048 31.7415C5.048 31.9592 4.87413 32.1333 4.65681 32.1333C4.43948 32.1333 4.26562 31.9592 4.26562 31.7415C4.26562 31.5238 4.43948 31.3496 4.65681 31.3496C4.87413 31.3496 5.048 31.5238 5.048 31.7415Z" fill="#001489"/>
<path d="M5.34487 28.4329C5.34487 28.6506 5.17101 28.8248 4.95368 28.8248C4.73636 28.8248 4.5625 28.6506 4.5625 28.4329C4.5625 28.2152 4.73636 28.041 4.95368 28.041C5.17101 28.041 5.34487 28.2152 5.34487 28.4329Z" fill="#001489"/>
<path d="M9.95424 38.969C9.95424 39.1867 9.78038 39.3609 9.56306 39.3609C9.34573 39.3609 9.17188 39.1867 9.17188 38.969C9.17188 38.7513 9.34573 38.5771 9.56306 38.5771C9.78038 38.5771 9.95424 38.7513 9.95424 38.969Z" fill="#001489"/>
<path d="M1.64956 37.7063C1.64956 37.924 1.4757 38.0982 1.25837 38.0982C1.04105 38.0982 0.867188 37.924 0.867188 37.7063C0.867188 37.4886 1.04105 37.3145 1.25837 37.3145C1.4757 37.3145 1.64956 37.4886 1.64956 37.7063Z" fill="#001489"/>
<path d="M9.16816 36.5313C9.16816 36.8361 8.90737 37.0538 8.64658 37.0538C8.38579 37.0538 8.125 36.7925 8.125 36.5313C8.125 36.27 8.38579 36.0088 8.64658 36.0088C8.90737 36.0088 9.16816 36.2265 9.16816 36.5313Z" fill="#001489"/>
<path d="M12.346 3.96147C12.346 4.39688 11.9983 4.74521 11.5636 4.74521C11.129 4.74521 10.7812 4.39688 10.7812 3.96147C10.7812 3.52606 11.129 3.17773 11.5636 3.17773C11.9983 3.17773 12.346 3.52606 12.346 3.96147Z" fill="#001489"/>
<path d="M11.3055 7.61926C11.3055 8.75133 10.3927 9.70923 9.21913 9.70923C8.04558 9.70923 7.13281 8.79487 7.13281 7.61926C7.13281 6.44366 8.04558 5.5293 9.21913 5.5293C10.3927 5.5293 11.3055 6.4872 11.3055 7.61926Z" fill="#001489"/>
<path d="M7.6957 34.2227C7.6957 34.7888 7.21758 35.2677 6.65254 35.2677C6.08749 35.2677 5.60938 34.7888 5.60938 34.2227C5.60938 33.6567 6.08749 33.1777 6.65254 33.1777C7.21758 33.1777 7.6957 33.6131 7.6957 34.2227Z" fill="#001489"/>
<path d="M6.69285 22.3799C6.69285 23.0765 6.1278 23.6426 5.43236 23.6426C4.73692 23.6426 4.17188 23.0765 4.17188 22.3799C4.17188 21.6832 4.73692 21.1172 5.43236 21.1172C6.1278 21.1172 6.69285 21.6832 6.69285 22.3799Z" fill="#001489"/>
<path d="M7.95921 30.3049C7.95921 30.6532 7.69842 30.9145 7.3507 30.9145C7.00298 30.9145 6.74219 30.6532 6.74219 30.3049C6.74219 29.9566 7.00298 29.6953 7.3507 29.6953C7.69842 29.6953 7.95921 29.9566 7.95921 30.3049Z" fill="#001489"/>
<path d="M6.30693 16.8511C6.30693 17.2865 5.95921 17.6349 5.52456 17.6349C5.08991 17.6349 4.74219 17.2865 4.74219 16.8511C4.74219 16.4157 5.08991 16.0674 5.52456 16.0674C5.95921 16.0674 6.30693 16.4157 6.30693 16.8511Z" fill="#001489"/>
<path d="M15.2551 4.04943C15.2551 4.35422 14.9943 4.61546 14.69 4.61546C14.3858 4.61546 14.125 4.35422 14.125 4.04943C14.125 3.74464 14.3858 3.4834 14.69 3.4834C14.9943 3.4834 15.2551 3.74464 15.2551 4.04943Z" fill="#001489"/>
<path d="M14.9504 1.26232C14.9504 1.56711 14.6896 1.82835 14.3854 1.82835C14.0811 1.82835 13.8203 1.56711 13.8203 1.26232C13.8203 0.957535 14.0811 0.696289 14.3854 0.696289C14.6896 0.696289 14.9504 0.957535 14.9504 1.26232Z" fill="#001489"/>
<path d="M14.0355 6.92258C14.0355 7.40153 13.6443 7.7934 13.1662 7.7934C12.6881 7.7934 12.2969 7.40153 12.2969 6.92258C12.2969 6.44363 12.6881 6.05176 13.1662 6.05176C13.6443 6.05176 14.0355 6.44363 14.0355 6.92258Z" fill="#001489"/>
<path d="M16.2961 7.27168C16.2961 7.62001 15.9919 7.9248 15.6442 7.9248C15.2964 7.9248 14.9922 7.66355 14.9922 7.27168C14.9922 6.87981 15.2964 6.66211 15.6442 6.66211C15.9919 6.66211 16.2961 6.92336 16.2961 7.27168Z" fill="#001489"/>
<path d="M33.6843 0.304688C30.7722 0.304688 27.947 0.914261 25.426 1.95924C25.3391 1.56738 24.9913 1.26259 24.5567 1.26259C24.0786 1.26259 23.6874 1.65446 23.6874 2.13341C23.6874 2.35111 23.7743 2.52528 23.9047 2.6559C22.8181 3.22193 21.7315 3.87505 20.7752 4.61524C20.6883 4.39754 20.471 4.26692 20.2102 4.26692C19.8625 4.26692 19.5582 4.52816 19.5582 4.87649C19.5582 5.05065 19.6451 5.22482 19.7755 5.35544C19.4713 5.61669 19.2105 5.83439 18.9497 6.09564C19.167 6.35688 19.254 6.70521 19.254 7.09708C19.254 8.01144 18.515 8.79518 17.5588 8.79518C17.2546 8.79518 16.9503 8.7081 16.733 8.57747C16.3853 9.01288 16.081 9.49183 15.7767 9.92724C15.6464 9.8837 15.4725 9.84016 15.3421 9.84016C14.6467 9.84016 14.0816 10.4062 14.0816 11.1029C14.0816 11.4947 14.2555 11.843 14.5163 12.0608C14.2555 12.5832 13.9947 13.1493 13.7774 13.7153C13.9078 13.6718 14.0381 13.6718 14.1685 13.6718C15.1682 13.6718 15.9941 14.499 15.9941 15.5005C15.9941 16.5019 15.1682 17.3292 14.1685 17.3292C13.647 17.3292 13.1688 17.1115 12.8211 16.7196C12.7342 17.068 12.6473 17.4163 12.6038 17.8082C12.4299 17.634 12.2126 17.5034 11.9518 17.5034C11.4302 17.5034 11.0391 17.9388 11.0391 18.4613C11.0391 18.9838 11.4737 19.4192 11.9518 19.4192C12.1257 19.4192 12.2561 19.3756 12.3865 19.2886C12.343 19.811 12.2995 20.29 12.2561 20.8125C12.2995 20.8125 12.3865 20.7689 12.4734 20.7689C12.8646 20.7689 13.1688 21.0737 13.1688 21.4656C13.1688 21.8575 12.8646 22.1623 12.4734 22.1623C12.3865 22.1623 12.2995 22.1623 12.2561 22.1187C12.2561 23.2943 12.3865 24.4699 12.6038 25.602C12.1257 25.602 11.778 25.9939 11.778 26.4293C11.778 26.8647 12.1692 27.2566 12.6038 27.2566C12.7342 27.2566 12.8646 27.213 12.9515 27.1695C13.1688 27.9532 13.4296 28.737 13.7339 29.5207C13.8643 29.4336 13.9947 29.3901 14.1685 29.3901C14.6467 29.3901 15.0378 29.7819 15.0378 30.2609C15.0378 30.6528 14.7771 30.9575 14.4293 31.0882C14.6467 31.5236 14.864 31.959 15.1248 32.3944C14.9074 32.5686 14.7771 32.8298 14.7771 33.091C14.7771 33.5265 15.1248 33.8748 15.5594 33.8748C15.6898 33.8748 15.8202 33.8312 15.9506 33.7442C16.8634 35.0939 17.9065 36.2695 19.0366 37.4016C19.167 37.1404 19.4713 36.9662 19.7755 36.9662C20.2536 36.9662 20.6448 37.3581 20.6448 37.837C20.6448 38.0983 20.5144 38.3595 20.2971 38.4901C20.9491 39.0126 21.6445 39.5351 22.3834 39.9705C22.0792 40.1447 21.9053 40.493 21.9053 40.8413C21.9053 41.4074 22.3834 41.8863 22.9485 41.8863C23.5135 41.8863 23.9916 41.4074 23.9916 40.8413C26.9038 42.3217 30.1637 43.149 33.6409 43.149C45.4634 43.149 55.0257 33.57 55.0257 21.7269C55.0257 9.8837 45.5068 0.304688 33.6843 0.304688ZM30.5549 1.34967C30.7722 1.34967 30.946 1.52383 30.946 1.74154C30.946 1.95924 30.7722 2.13341 30.5549 2.13341C30.3375 2.13341 30.1637 1.95924 30.1637 1.74154C30.1637 1.52383 30.3375 1.34967 30.5549 1.34967ZM27.6427 2.08987C28.3381 2.08987 28.9032 2.6559 28.9032 3.35256C28.9032 4.04921 28.3381 4.61524 27.6427 4.61524C26.9473 4.61524 26.3822 4.04921 26.3822 3.35256C26.3822 2.6559 26.9473 2.08987 27.6427 2.08987ZM27.6427 6.83583C27.6427 7.01 27.5123 7.18416 27.295 7.18416C27.0777 7.18416 26.9473 7.05354 26.9473 6.83583C26.9473 6.61813 27.0777 6.48751 27.295 6.48751C27.5123 6.48751 27.6427 6.66167 27.6427 6.83583ZM25.0783 6.74875C25.0783 6.96646 24.9044 7.14062 24.6871 7.14062C24.4698 7.14062 24.2959 6.96646 24.2959 6.74875C24.2959 6.53105 24.4698 6.35688 24.6871 6.35688C24.9044 6.35688 25.0783 6.57459 25.0783 6.74875ZM24.0351 3.6138C24.3394 3.6138 24.6001 3.87505 24.6001 4.17984C24.6001 4.48462 24.3394 4.74587 24.0351 4.74587C23.7308 4.74587 23.4701 4.48462 23.4701 4.17984C23.4701 3.87505 23.7308 3.6138 24.0351 3.6138ZM21.4707 5.26836C21.6445 5.26836 21.8184 5.39898 21.8184 5.61669C21.8184 5.83439 21.688 5.96501 21.4707 5.96501C21.2533 5.96501 21.1229 5.83439 21.1229 5.61669C21.1229 5.39898 21.2968 5.26836 21.4707 5.26836ZM21.5576 6.74875C22.253 6.74875 22.8181 7.31479 22.8181 8.01144C22.8181 8.7081 22.253 9.27413 21.5576 9.27413C20.8622 9.27413 20.2971 8.7081 20.2971 8.01144C20.2971 7.31479 20.8622 6.74875 21.5576 6.74875ZM22.34 10.8416C22.34 11.0593 22.1661 11.2335 21.9488 11.2335C21.7315 11.2335 21.5576 11.0593 21.5576 10.8416C21.5576 10.6239 21.7315 10.4497 21.9488 10.4497C22.1661 10.4497 22.34 10.6674 22.34 10.8416ZM19.7321 11.6253C20.0363 11.6253 20.2971 11.8866 20.2971 12.1914C20.2971 12.4962 20.0363 12.7574 19.7321 12.7574C19.4278 12.7574 19.167 12.4962 19.167 12.1914C19.167 11.8866 19.3843 11.6253 19.7321 11.6253ZM19.1236 24.6441C19.5582 24.6441 19.9059 24.9924 19.9059 25.4278C19.9059 25.8632 19.5582 26.2116 19.1236 26.2116C18.6889 26.2116 18.3412 25.8632 18.3412 25.4278C18.3412 24.9924 18.6889 24.6441 19.1236 24.6441ZM18.3846 20.5077C18.3846 20.3335 18.515 20.1594 18.7324 20.1594C18.9497 20.1594 19.0801 20.29 19.0801 20.5077C19.0801 20.7254 18.9497 20.856 18.7324 20.856C18.515 20.856 18.3846 20.6819 18.3846 20.5077ZM18.9497 14.1507C19.1236 14.1507 19.2974 14.2813 19.2974 14.499C19.2974 14.7168 19.1236 14.8038 18.9497 14.8038C18.7758 14.8038 18.602 14.6732 18.602 14.4555C18.602 14.2378 18.7758 14.1507 18.9497 14.1507ZM18.0804 9.75308C18.4281 9.75308 18.7324 10.0143 18.7324 10.4062C18.7324 10.7981 18.4281 11.0593 18.0804 11.0593C17.7327 11.0593 17.4284 10.7981 17.4284 10.4062C17.4284 10.0143 17.7327 9.75308 18.0804 9.75308ZM17.5588 15.4569C17.7761 15.4569 17.95 15.6311 17.95 15.8488C17.95 16.0665 17.7761 16.2407 17.5588 16.2407C17.3415 16.2407 17.1676 16.0665 17.1676 15.8488C17.1676 15.6311 17.3415 15.4569 17.5588 15.4569ZM17.9935 22.467C17.9935 22.6412 17.8631 22.8154 17.6457 22.8154C17.4284 22.8154 17.298 22.6848 17.298 22.467C17.298 22.2493 17.4284 22.1187 17.6457 22.1187C17.8631 22.1187 17.9935 22.2929 17.9935 22.467ZM17.4719 18.0694C17.6892 18.0694 17.8631 18.2436 17.8631 18.4613C17.8631 18.679 17.6892 18.8531 17.4719 18.8531C17.2546 18.8531 17.0807 18.679 17.0807 18.4613C17.0807 18.2436 17.2546 18.0694 17.4719 18.0694ZM15.9071 12.8009C15.9071 12.5397 16.1245 12.3655 16.3418 12.3655C16.5591 12.3655 16.7764 12.5832 16.7764 12.8009C16.7764 13.0187 16.5591 13.2364 16.3418 13.2364C16.1245 13.2364 15.9071 13.0622 15.9071 12.8009ZM16.2983 24.2958C16.4722 24.2958 16.646 24.4264 16.646 24.6441C16.646 24.8618 16.5157 24.9924 16.2983 24.9924C16.081 24.9924 15.9506 24.8618 15.9506 24.6441C15.9506 24.4264 16.1245 24.2958 16.2983 24.2958ZM15.7767 21.2479C15.7767 21.5527 15.5594 21.7704 15.2552 21.7704C14.9509 21.7704 14.7336 21.5527 14.7336 21.2479C14.7336 20.9431 14.9509 20.7254 15.2552 20.7254C15.5594 20.7254 15.7767 20.9431 15.7767 21.2479ZM13.8208 24.3393C13.647 24.3393 13.4731 24.2087 13.4731 23.991C13.4731 23.7733 13.6035 23.6427 13.8208 23.6427C14.0381 23.6427 14.1685 23.7733 14.1685 23.991C14.1685 24.2087 14.0381 24.3393 13.8208 24.3393ZM13.7774 18.7661C13.7774 18.3742 14.0816 18.0694 14.4728 18.0694C14.864 18.0694 15.1682 18.3742 15.1682 18.7661C15.1682 19.1579 14.864 19.4627 14.4728 19.4627C14.0816 19.4627 13.7774 19.1579 13.7774 18.7661ZM15.6029 28.3886C14.9509 28.3886 14.3859 27.8226 14.3859 27.1695C14.3859 26.5164 14.9509 25.9503 15.6029 25.9503C16.2549 25.9503 16.8199 26.5164 16.8199 27.1695C16.8199 27.8226 16.2983 28.3886 15.6029 28.3886ZM16.646 29.869C16.646 29.6078 16.8634 29.3901 17.1242 29.3901C17.385 29.3901 17.6023 29.6078 17.6023 29.869C17.6023 30.1303 17.385 30.348 17.1242 30.348C16.8634 30.348 16.646 30.1303 16.646 29.869ZM17.0372 32.3509C17.0372 31.8719 17.4284 31.48 17.9065 31.48C18.3847 31.48 18.7758 31.8719 18.7758 32.3509C18.7758 32.8298 18.3847 33.2217 17.9065 33.2217C17.4284 33.2217 17.0372 32.8298 17.0372 32.3509ZM18.7324 35.3987C18.5585 35.3987 18.3846 35.2681 18.3846 35.0504C18.3846 34.8327 18.515 34.7021 18.7324 34.7021C18.9497 34.7021 19.0801 34.8327 19.0801 35.0504C19.0801 35.2681 18.9062 35.3987 18.7324 35.3987ZM19.7321 29.7819C19.3409 29.7819 19.0801 29.4771 19.0801 29.0853C19.0801 28.6934 19.3843 28.3886 19.7321 28.3886C20.0798 28.3886 20.384 28.6934 20.384 29.0853C20.384 29.4771 20.0798 29.7819 19.7321 29.7819ZM20.384 32.0025C20.384 31.7848 20.5579 31.6107 20.7752 31.6107C20.9925 31.6107 21.1664 31.7848 21.1664 32.0025C21.1664 32.2202 20.9925 32.3944 20.7752 32.3944C20.5579 32.3944 20.384 32.2202 20.384 32.0025ZM21.4272 35.5293C20.9925 35.5293 20.6448 35.181 20.6448 34.7456C20.6448 34.3102 20.9925 33.9619 21.4272 33.9619C21.8619 33.9619 22.2096 34.3102 22.2096 34.7456C22.2096 35.181 21.8184 35.5293 21.4272 35.5293ZM23.3831 38.7078C23.0789 38.7078 22.8615 38.4466 22.8615 38.1853C22.8615 37.9241 23.0789 37.6628 23.3831 37.6628C23.6874 37.6628 23.9047 37.8806 23.9047 38.1853C23.9047 38.4901 23.6874 38.7078 23.3831 38.7078ZM24.209 34.8762C24.0351 34.8762 23.8612 34.7456 23.8612 34.5279C23.8612 34.3102 23.9916 34.1796 24.209 34.1796C24.4263 34.1796 24.5567 34.3102 24.5567 34.5279C24.5567 34.7456 24.3828 34.8762 24.209 34.8762ZM26.5561 40.7107C26.3822 40.7107 26.2084 40.5801 26.2084 40.3624C26.2084 40.1447 26.3387 40.0141 26.5561 40.0141C26.7734 40.0141 26.9038 40.1447 26.9038 40.3624C26.9038 40.5801 26.7299 40.7107 26.5561 40.7107ZM26.6865 38.1853C26.2518 38.1853 25.9041 37.837 25.9041 37.4016C25.9041 36.9662 26.2518 36.6179 26.6865 36.6179C27.1211 36.6179 27.4688 36.9662 27.4688 37.4016C27.4688 37.837 27.1211 38.1853 26.6865 38.1853ZM29.2074 40.3189C28.9901 40.3189 28.8163 40.1447 28.8163 39.927C28.8163 39.7093 28.9901 39.5351 29.2074 39.5351C29.4248 39.5351 29.5986 39.7093 29.5986 39.927C29.5986 40.1447 29.4248 40.3189 29.2074 40.3189ZM33.6843 34.615C26.5995 34.615 20.8622 28.824 20.8622 21.7269C20.8622 14.6297 26.5995 8.88226 33.6843 8.88226C40.7691 8.88226 46.5065 14.6297 46.5065 21.7269C46.5065 28.824 40.7691 34.615 33.6843 34.615Z" fill="#001489"/>
<defs>
<linearGradient id="paint0_linear_1618_6018" x1="54.7223" y1="21.9731" x2="143.578" y2="21.9731" gradientUnits="userSpaceOnUse">
<stop stop-color="#001489"/>
<stop offset="1" stop-color="#33BAA8"/>
</linearGradient>
<linearGradient id="paint1_linear_1618_6018" x1="54.7247" y1="22.3889" x2="143.58" y2="22.3889" gradientUnits="userSpaceOnUse">
<stop stop-color="#001489"/>
<stop offset="1" stop-color="#33BAA8"/>
</linearGradient>
<linearGradient id="paint2_linear_1618_6018" x1="54.7319" y1="59.2811" x2="143.587" y2="59.2811" gradientUnits="userSpaceOnUse">
<stop stop-color="#001489"/>
<stop offset="1" stop-color="#33BAA8"/>
</linearGradient>
<linearGradient id="paint3_linear_1618_6018" x1="54.7352" y1="59.276" x2="143.591" y2="59.276" gradientUnits="userSpaceOnUse">
<stop stop-color="#001489"/>
<stop offset="1" stop-color="#33BAA8"/>
</linearGradient>
<linearGradient id="paint4_linear_1618_6018" x1="54.7286" y1="59.4461" x2="143.584" y2="59.4461" gradientUnits="userSpaceOnUse">
<stop stop-color="#001489"/>
<stop offset="1" stop-color="#33BAA8"/>
</linearGradient>
<linearGradient id="paint5_linear_1618_6018" x1="54.7364" y1="59.1127" x2="143.592" y2="59.1127" gradientUnits="userSpaceOnUse">
<stop stop-color="#001489"/>
<stop offset="1" stop-color="#33BAA8"/>
</linearGradient>
<linearGradient id="paint6_linear_1618_6018" x1="54.7312" y1="59.2738" x2="143.587" y2="59.2738" gradientUnits="userSpaceOnUse">
<stop stop-color="#001489"/>
<stop offset="1" stop-color="#33BAA8"/>
</linearGradient>
<linearGradient id="paint7_linear_1618_6018" x1="54.7278" y1="59.2629" x2="143.583" y2="59.2629" gradientUnits="userSpaceOnUse">
<stop stop-color="#001489"/>
<stop offset="1" stop-color="#33BAA8"/>
</linearGradient>
</defs>
</svg>
