<svg width="241" height="132" viewBox="0 0 241 132" fill="none" xmlns="http://www.w3.org/2000/svg">
<path d="M27.7447 128.104C26.8953 128.954 25.8337 129.379 24.6304 129.379C23.4272 129.379 22.3655 128.954 21.5162 128.104C20.6669 127.254 20.2422 126.192 20.2422 124.988C20.2422 123.784 20.6669 122.722 21.5162 121.872C22.3655 121.023 23.4272 120.598 24.6304 120.598C25.8337 120.598 26.8953 121.023 27.7447 121.872C28.594 122.722 29.0187 123.784 29.0187 124.988C29.0187 126.263 28.594 127.325 27.7447 128.104ZM22.224 127.538C22.861 128.246 23.7103 128.529 24.7012 128.529C25.6921 128.529 26.4707 128.175 27.1785 127.538C27.8155 126.829 28.1694 126.05 28.1694 125.059C28.1694 124.068 27.8155 123.218 27.1785 122.58C26.5415 121.872 25.6921 121.589 24.7012 121.589C23.7103 121.589 22.9318 121.943 22.224 122.58C21.587 123.289 21.2331 124.068 21.2331 125.059C21.2331 126.05 21.587 126.9 22.224 127.538Z" fill="white"/>
<path d="M33.3365 121.943C34.1858 121.093 35.2475 120.668 36.4508 120.668C36.8754 120.668 37.3001 120.739 37.654 120.88C38.0787 121.022 38.3618 121.164 38.6449 121.305C38.928 121.447 39.1403 121.659 39.3527 121.801C39.565 121.943 39.7066 122.155 39.7773 122.226L39.9189 122.438L39.2819 123.005C39.2819 122.934 39.2111 122.934 39.1403 122.863C39.0695 122.792 38.9988 122.651 38.7864 122.509C38.6449 122.368 38.4325 122.226 38.2202 122.084C38.0079 121.943 37.7248 121.872 37.4416 121.73C37.0878 121.589 36.7339 121.589 36.38 121.589C35.3891 121.589 34.6105 121.943 33.9027 122.58C33.2657 123.288 32.9118 124.067 32.9118 125.059C32.9118 126.05 33.2657 126.9 33.9027 127.537C34.5397 128.245 35.3891 128.528 36.38 128.528C36.7339 128.528 37.0878 128.458 37.4416 128.387C37.7955 128.316 38.0787 128.174 38.291 128.033C38.5033 127.891 38.7157 127.75 38.8572 127.608C38.9988 127.466 39.1403 127.325 39.2111 127.254L39.3527 127.112L39.9897 127.679C39.9897 127.75 39.9189 127.82 39.8481 127.891C39.7773 127.962 39.6358 128.104 39.4234 128.316C39.2111 128.528 38.9988 128.67 38.7157 128.883C38.4325 129.024 38.1494 129.166 37.7248 129.307C37.3001 129.449 36.8754 129.52 36.4508 129.52C35.2475 129.52 34.1858 129.095 33.3365 128.245C32.4872 127.395 32.0625 126.333 32.0625 125.129C32.0625 123.855 32.4872 122.792 33.3365 121.943Z" fill="white"/>
<path d="M48.4829 120.812V121.662H45.7933V129.31H44.8732V121.662H42.1836V120.812H48.4829Z" fill="white"/>
<path d="M51.8099 126.903L50.819 129.24H49.8281L53.367 120.742H54.2164L57.7553 129.24H56.7644L55.7735 126.903H51.8099ZM53.7917 122.088L52.1638 126.124H55.4196L53.7917 122.088Z" fill="white"/>
<path d="M64.0542 120.812C64.8327 120.812 65.4697 121.096 66.036 121.591C66.6022 122.087 66.8145 122.725 66.8145 123.503C66.8145 124.282 66.5314 124.92 66.036 125.416C65.5405 125.911 64.8327 126.194 64.0542 126.194H61.7185V129.31H60.8691V120.812H64.0542ZM61.7893 121.662V125.274H64.1249C64.6912 125.274 65.1158 125.132 65.4697 124.778C65.8236 124.424 65.9652 123.999 65.9652 123.433C65.9652 122.866 65.8236 122.441 65.4697 122.087C65.1158 121.733 64.6912 121.591 64.1249 121.591H61.7893V121.662Z" fill="white"/>
<path d="M70.3535 120.812H71.2736V124.566H76.0158V120.812H76.9359V129.31H76.0158V125.416H71.2736V129.31H70.3535V120.812Z" fill="white"/>
<path d="M81.9613 126.903L80.9704 129.24H79.9795L83.5184 120.742H84.3677L87.9067 129.24H86.9158L85.9249 126.903H81.9613ZM83.9431 122.088L82.3152 126.124H85.571L83.9431 122.088Z" fill="white"/>
<path d="M94.4188 120.812C95.1974 120.812 95.7636 121.025 96.2591 121.521C96.7545 122.016 96.9669 122.583 96.9669 123.362C96.9669 123.716 96.8961 124.07 96.7545 124.353C96.613 124.637 96.4714 124.92 96.3299 125.061C96.1883 125.203 95.976 125.345 95.8344 125.486C95.6928 125.628 95.4805 125.699 95.4097 125.699L95.1974 125.77L97.1792 129.31H96.2591L94.3481 125.911H91.9416V129.31H91.0215V120.812H94.4188ZM91.9416 121.662V125.061H94.4188C94.9143 125.061 95.339 124.92 95.6221 124.637C95.9052 124.353 96.1175 123.928 96.1175 123.433C96.1175 122.937 95.976 122.512 95.6221 122.229C95.339 121.946 94.9143 121.804 94.4188 121.804H91.9416V121.662Z" fill="white"/>
<path d="M105.106 126.902L101.708 122.441V129.381H100.788V120.883H101.567L105.106 125.486L108.644 120.883H109.423V129.381H108.503V122.441L105.106 126.902Z" fill="white"/>
<path d="M114.449 126.903L113.458 129.24H112.538L116.077 120.742H116.926L120.465 129.24H119.474L118.483 126.903H114.449ZM116.502 122.088L114.874 126.124H118.13L116.502 122.088Z" fill="white"/>
<path d="M127.401 120.812H128.321V124.566H133.064V120.812H133.984V129.31H133.064V125.416H128.321V129.31H127.401V120.812Z" fill="white"/>
<path d="M139.079 126.903L138.089 129.24H137.098L140.637 120.742H141.486L145.025 129.24H144.034L143.043 126.903H139.079ZM141.061 122.088L139.433 126.053H142.689L141.061 122.088Z" fill="white"/>
<path d="M154.084 128.461V129.31H148.139V120.812H153.942V121.662H149.059V124.424H153.022V125.274H149.059V128.461H154.084Z" fill="white"/>
<path d="M161.799 126.902L158.402 122.441V129.381H157.481V120.883H158.26L161.799 125.486L165.338 120.883H166.116V129.381H165.196V122.441L161.799 126.902Z" fill="white"/>
<path d="M171.071 126.903L170.08 129.24H169.089L172.628 120.742H173.477L177.016 129.24H176.025L175.034 126.903H171.071ZM173.052 122.088L171.425 126.124H174.68L173.052 122.088Z" fill="white"/>
<path d="M184.59 120.812V121.662H181.9V129.31H180.98V121.662H178.361V120.812H184.59Z" fill="white"/>
<path d="M194.074 128.104C193.224 128.954 192.163 129.379 190.96 129.379C189.756 129.379 188.695 128.954 187.845 128.104C186.996 127.254 186.571 126.192 186.571 124.988C186.571 123.784 186.996 122.722 187.845 121.872C188.695 121.023 189.756 120.598 190.96 120.598C192.163 120.598 193.224 121.023 194.074 121.872C194.923 122.722 195.348 123.784 195.348 124.988C195.348 126.263 194.923 127.325 194.074 128.104ZM188.553 127.538C189.19 128.246 190.039 128.529 191.03 128.529C192.021 128.529 192.8 128.175 193.508 127.538C194.145 126.829 194.498 126.05 194.498 125.059C194.498 124.068 194.145 123.218 193.508 122.58C192.871 121.872 192.021 121.589 191.03 121.589C190.039 121.589 189.261 121.943 188.553 122.58C187.916 123.289 187.562 124.068 187.562 125.059C187.562 126.05 187.916 126.9 188.553 127.538Z" fill="white"/>
<path d="M198.958 129.31V120.812H199.878V128.461H204.266V129.31H198.958Z" fill="white"/>
<path d="M213.679 128.104C212.83 128.954 211.768 129.379 210.565 129.379C209.362 129.379 208.3 128.954 207.451 128.104C206.601 127.254 206.177 126.192 206.177 124.988C206.177 123.784 206.601 122.722 207.451 121.872C208.3 121.023 209.362 120.598 210.565 120.598C211.768 120.598 212.83 121.023 213.679 121.872C214.529 122.722 214.953 123.784 214.953 124.988C214.953 126.263 214.529 127.325 213.679 128.104ZM208.159 127.538C208.796 128.246 209.645 128.529 210.636 128.529C211.627 128.529 212.405 128.175 213.113 127.538C213.75 126.829 214.104 126.05 214.104 125.059C214.104 124.068 213.75 123.218 213.113 122.58C212.476 121.872 211.627 121.589 210.636 121.589C209.645 121.589 208.866 121.943 208.159 122.58C207.522 123.289 207.168 124.068 207.168 125.059C207.168 126.05 207.522 126.9 208.159 127.538Z" fill="white"/>
<path d="M219.271 121.943C220.12 121.093 221.182 120.668 222.385 120.668C222.81 120.668 223.235 120.739 223.589 120.88C224.013 121.022 224.296 121.164 224.579 121.305C224.863 121.447 225.075 121.659 225.287 121.801C225.5 121.943 225.641 122.155 225.712 122.226L225.853 122.438L225.216 123.005C225.216 122.934 225.146 122.934 225.075 122.863C225.004 122.792 224.933 122.651 224.721 122.509C224.509 122.368 224.367 122.226 224.155 122.084C223.942 121.943 223.659 121.872 223.376 121.73C223.022 121.589 222.668 121.589 222.315 121.589C221.324 121.589 220.545 121.943 219.837 122.58C219.2 123.288 218.846 124.067 218.846 125.059C218.846 126.05 219.2 126.9 219.837 127.537C220.474 128.245 221.324 128.528 222.315 128.528C222.668 128.528 222.952 128.458 223.305 128.387C223.589 128.316 223.872 128.174 224.084 128.104C224.296 127.962 224.438 127.891 224.579 127.75C224.721 127.608 224.863 127.537 224.933 127.466L225.004 127.325V125.696H223.093V124.846H225.924V127.608C225.924 127.679 225.853 127.75 225.783 127.82C225.712 127.891 225.57 128.033 225.358 128.245C225.146 128.458 224.863 128.599 224.65 128.812C224.367 128.953 224.084 129.095 223.659 129.237C223.235 129.378 222.81 129.449 222.385 129.449C221.182 129.449 220.12 129.024 219.271 128.174C218.422 127.325 217.997 126.262 217.997 125.059C217.997 123.855 218.422 122.792 219.271 121.943Z" fill="white"/>
<path d="M232.082 125.345L234.63 120.812H235.692L232.507 126.336V129.31H231.587V126.336L228.473 120.812H229.534L232.082 125.345Z" fill="white"/>
<path fill-rule="evenodd" clip-rule="evenodd" d="M115.793 9.06503L114.944 9.91482L114.873 2.9749H100.93V69.8955H114.873V33.7088C114.873 27.5479 116.501 22.8032 119.615 19.3333C122.729 15.8633 126.976 14.1637 132.284 14.1637C136.814 14.1637 140.636 15.7217 143.68 18.9084C146.723 22.0951 148.28 26.0607 148.28 30.8762V69.8955H162.224V30.8762C162.224 21.8826 159.746 14.8011 154.721 9.48992C149.696 4.24958 143.184 1.55859 135.116 1.55859C132.78 1.55859 130.444 1.84186 128.179 2.47919C125.844 3.11653 124.003 3.75387 122.517 4.53284C121.031 5.31181 119.615 6.1616 118.341 7.0822C117.067 8.0028 116.218 8.64014 115.793 9.06503ZM194.994 53.5371C191.03 50.0672 188.695 46.0307 187.987 41.2861H240.221L241 34.3461C241 24.9277 237.956 17.138 231.657 10.9062C225.358 4.67447 217.572 1.55859 208.229 1.55859C198.887 1.55859 190.818 4.95774 184.165 11.6144C177.441 18.3419 174.114 26.0607 174.114 35.7625C174.114 45.4642 177.582 53.8204 184.448 60.8311C191.313 67.8419 199.453 71.3118 208.937 71.3118C212.476 71.3118 215.944 70.7453 219.271 69.7539C222.597 68.7625 225.287 67.6294 227.41 66.4256C229.534 65.2217 231.515 63.8054 233.356 62.2474C235.196 60.6895 236.399 59.6273 236.965 58.9191C237.297 58.5043 237.58 58.1623 237.815 57.8791C237.981 57.6788 238.122 57.5078 238.239 57.3612L229.18 48.226L227.056 50.8461C225.641 52.5457 223.305 54.2453 219.908 56.0157C216.51 57.8569 212.901 58.7067 209.008 58.7067C203.558 58.7067 198.887 57.0071 194.994 53.5371ZM188.553 29.4599C189.756 24.7152 192.092 20.8912 195.489 17.917C198.957 14.9427 203.133 13.4556 208.229 13.4556C213.325 13.4556 217.572 14.9427 220.969 17.917C224.367 20.8912 226.49 24.7152 227.269 29.4599H188.553Z" fill="url(#paint0_linear_5949_257)"/>
<path fill-rule="evenodd" clip-rule="evenodd" d="M34.6813 88.3796C34.9644 88.6628 35.1768 88.9461 35.3183 89.1585L37.9371 86.3259L37.5832 85.901C37.3709 85.6886 37.017 85.4053 36.5216 85.0512C36.0261 84.6972 35.4599 84.3431 34.8937 83.989C34.3274 83.6349 33.4781 83.3517 32.558 83.1392C31.6379 82.9268 30.647 82.7852 29.6561 82.7852C27.1788 82.7852 25.197 83.4933 23.4984 84.9804C21.7997 86.4676 21.0211 88.1671 21.0211 90.0791C21.0211 91.7079 21.5166 93.1242 22.4367 94.1156C23.3568 95.107 24.4893 95.886 25.9048 96.3817C26.117 96.456 26.3275 96.5303 26.5367 96.6041C27.7235 97.0228 28.8667 97.4262 30.01 97.7272C31.3548 98.0813 32.558 98.577 33.4781 99.2852C34.3982 99.9933 34.8937 100.843 34.8937 101.905C34.8937 103.109 34.469 104.171 33.4781 104.95C32.4872 105.729 31.1424 106.154 29.3022 106.154C28.5236 106.154 27.7451 106.013 26.9665 105.729C26.1879 105.446 25.5509 105.163 25.0555 104.809C24.56 104.455 24.1354 104.101 23.7107 103.676C23.2861 103.18 23.003 102.897 22.8614 102.755L22.8614 102.755C22.8073 102.674 22.7635 102.603 22.7262 102.543C22.6657 102.445 22.622 102.374 22.5782 102.33L19.8887 105.021L20.2426 105.517C20.4549 105.8 20.8796 106.225 21.375 106.65C21.9412 107.146 22.5075 107.571 23.2153 107.995C23.923 108.42 24.7724 108.774 25.9048 109.129C27.0373 109.483 28.1697 109.624 29.373 109.624C32.2749 109.624 34.5398 108.916 36.2385 107.429C37.9371 105.942 38.7865 104.101 38.7865 101.905C38.7865 100.206 38.291 98.7894 37.3709 97.7272C36.4508 96.665 35.3183 95.886 33.9028 95.3903C32.4872 94.8946 31.1424 94.4697 29.7976 94.1156C28.4528 93.7615 27.2496 93.2658 26.3295 92.6285C25.4094 91.9912 24.9139 91.1414 24.9139 90.15C24.9139 89.1585 25.4094 88.3088 26.2587 87.5298C27.1081 86.7508 28.3113 86.3967 29.7269 86.3967C30.7885 86.3967 31.8502 86.68 32.8411 87.1757C33.7612 87.6714 34.3982 88.0963 34.6813 88.3796ZM68.7258 82.9961C65.1161 82.9961 62.0019 84.2708 59.4539 86.8909C56.9058 89.5111 55.6318 92.6978 55.6318 96.451C55.6318 100.204 56.9058 103.32 59.4539 105.94C62.0019 108.56 65.1161 109.835 68.7258 109.835C72.3355 109.835 75.4497 108.49 77.9978 105.94C80.5458 103.391 81.8198 100.275 81.8198 96.451C81.8198 92.627 80.5458 89.5111 77.9978 86.8909C75.4497 84.2708 72.3355 82.9961 68.7258 82.9961ZM68.7966 86.4661C71.3446 86.4661 73.5387 87.4575 75.379 89.3695C77.2192 91.2815 78.1393 93.6184 78.1393 96.3802C78.1393 99.142 77.1484 101.479 75.379 103.391C73.6095 105.303 71.3446 106.294 68.7966 106.294C66.2486 106.294 64.0545 105.303 62.2142 103.391C60.374 101.479 59.4539 99.142 59.4539 96.3802C59.4539 93.6184 60.374 91.2815 62.2142 89.3695C63.9837 87.3867 66.2486 86.4661 68.7966 86.4661ZM119.332 105.799C119.303 105.828 119.273 105.882 119.239 105.944C119.19 106.033 119.132 106.14 119.049 106.223L118.058 107.215C117.562 107.64 116.996 108.065 116.359 108.419C115.722 108.773 115.014 109.127 114.024 109.41C113.033 109.693 112.042 109.835 111.051 109.835C108.078 109.835 105.53 108.773 103.548 106.719C101.567 104.666 100.576 101.904 100.576 98.5754V83.5625H104.327V98.5754C104.327 100.841 105.035 102.683 106.45 104.17C107.866 105.657 109.565 106.365 111.546 106.365C113.74 106.365 115.581 105.586 117.067 103.957C118.553 102.329 119.332 100.275 119.332 97.7964V83.5625H123.083V109.269H119.332V105.799ZM155.783 86.7493H157.411V82.9961H156.349C155.217 82.9961 154.155 83.1377 153.164 83.421C152.173 83.7043 151.395 84.0583 150.758 84.4124C150.121 84.7665 149.554 85.1206 149.059 85.6163C148.87 85.8056 148.701 85.964 148.557 86.0992C148.324 86.318 148.156 86.4764 148.068 86.6077C148.014 86.6884 147.971 86.7487 147.933 86.8002L147.933 86.8006L147.933 86.801C147.872 86.8846 147.829 86.945 147.785 87.0326V83.5626H144.034V109.269H147.785V95.0347C147.785 92.5562 148.564 90.5025 150.121 89.0154C151.678 87.5283 153.589 86.7493 155.783 86.7493ZM176.45 86.8909C178.998 84.2708 181.971 82.9961 185.51 82.9961C187.491 82.9961 189.402 83.421 191.101 84.2708C192.8 85.1206 194.074 85.9703 194.852 86.8201L195.985 88.024L193.295 90.715C193.266 90.6856 193.237 90.632 193.202 90.5692C193.154 90.4803 193.095 90.373 193.012 90.2901C192.871 90.0776 192.587 89.7236 192.092 89.2279C191.597 88.7321 191.101 88.3073 190.535 87.8824C189.969 87.5283 189.261 87.1742 188.341 86.8909C187.421 86.6077 186.5 86.4661 185.51 86.4661C183.032 86.4661 180.909 87.3867 179.14 89.3695C177.299 91.2815 176.45 93.6184 176.45 96.3802C176.45 99.142 177.37 101.479 179.14 103.391C180.98 105.303 183.103 106.294 185.51 106.294C186.996 106.294 188.411 105.94 189.756 105.232C191.101 104.524 192.092 103.816 192.658 103.108L193.508 102.045L196.197 104.453C196.126 104.595 195.914 104.807 195.702 105.02C195.517 105.266 195.117 105.62 194.597 106.082L194.596 106.082C194.519 106.15 194.439 106.221 194.357 106.294C193.649 106.932 192.941 107.427 192.163 107.852C191.384 108.277 190.393 108.773 189.19 109.127C187.987 109.552 186.713 109.694 185.51 109.694C181.971 109.694 178.998 108.419 176.45 105.799C173.902 103.178 172.628 100.063 172.628 96.3094C172.628 92.5562 173.902 89.5111 176.45 86.8909ZM218.776 103.816C217.006 102.116 216.086 100.133 215.945 97.7965H236.753L237.036 95.8845C237.036 92.2021 235.833 89.0862 233.498 86.6785C231.162 84.2 228.118 82.9961 224.721 82.9961C221.324 82.9961 218.351 84.2708 215.874 86.8909C213.397 89.5111 212.123 92.627 212.123 96.3802C212.123 100.133 213.397 103.249 215.945 105.869C218.493 108.49 221.465 109.764 225.004 109.764C226.278 109.764 227.552 109.552 228.755 109.198C229.959 108.844 230.95 108.348 231.728 107.923C232.507 107.498 233.214 107.003 233.922 106.365C234.63 105.799 235.125 105.303 235.267 105.091C235.332 104.993 235.412 104.896 235.486 104.805C235.574 104.698 235.653 104.601 235.692 104.524L233.285 102.116L232.365 103.179C231.799 103.887 230.808 104.595 229.463 105.303C228.118 106.011 226.632 106.365 225.004 106.365C222.598 106.365 220.545 105.515 218.776 103.816ZM215.945 94.539C216.228 92.3437 217.219 90.4317 218.917 88.8738C220.616 87.3158 222.598 86.5369 224.792 86.5369C226.986 86.5369 228.897 87.3158 230.525 88.803C232.153 90.2901 233.073 92.2021 233.356 94.539H215.945Z" fill="url(#paint1_linear_5949_257)"/>
<path d="M21.8706 51.4111C21.8706 52.6858 20.8089 53.748 19.5349 53.748C18.2609 53.748 17.1992 52.6858 17.1992 51.4111C17.1992 50.1364 18.2609 49.0742 19.5349 49.0742C20.8089 49.0742 21.8706 50.1364 21.8706 51.4111Z" fill="white"/>
<path d="M28.4528 7.85949C28.4528 8.14275 28.2404 8.42602 27.8865 8.42602C27.5326 8.42602 27.3203 8.21357 27.3203 7.85949C27.3203 7.50542 27.5326 7.29297 27.8865 7.29297C28.2404 7.29297 28.4528 7.57623 28.4528 7.85949Z" fill="white"/>
<path d="M22.649 15.4381C22.649 15.7922 22.3659 16.0755 22.012 16.0755C21.6581 16.0755 21.375 15.7922 21.375 15.4381C21.375 15.084 21.6581 14.8008 22.012 14.8008C22.3659 14.8008 22.649 15.084 22.649 15.4381Z" fill="white"/>
<path d="M16.35 45.1086C16.35 45.6751 15.9253 46.1 15.3591 46.1C14.7928 46.1 14.3682 45.6751 14.3682 45.1086C14.3682 44.5421 14.7928 44.1172 15.3591 44.1172C15.9253 44.1172 16.35 44.5421 16.35 45.1086Z" fill="white"/>
<path d="M19.8891 46.2443C19.8891 46.74 19.5352 47.0941 19.0398 47.0941C18.5443 47.0941 18.1904 46.6692 18.1904 46.2443C18.1904 45.8194 18.5443 45.3945 19.0398 45.3945C19.5352 45.3945 19.8891 45.7486 19.8891 46.2443Z" fill="white"/>
<path d="M14.8634 18.9085C14.8634 19.6875 14.2264 20.3248 13.4478 20.3248C12.6692 20.3248 12.0322 19.6875 12.0322 18.9085C12.0322 18.1295 12.6692 17.4922 13.4478 17.4922C14.2264 17.4922 14.8634 18.1295 14.8634 18.9085Z" fill="white"/>
<path d="M20.8798 20.3224C20.8798 20.7473 20.5259 21.1722 20.0305 21.1014C19.6058 21.1014 19.1811 20.7473 19.2519 20.2516C19.2519 19.8267 19.6058 19.4018 20.1013 19.4726C20.5259 19.4726 20.8798 19.8975 20.8798 20.3224Z" fill="white"/>
<path d="M15.5003 28.61C15.5003 28.9641 15.2172 29.1765 14.8633 29.1765C14.5094 29.1765 14.2263 28.8933 14.2971 28.5392C14.3678 28.1851 14.5802 27.9727 14.9341 27.9727C15.2879 27.9727 15.5003 28.2559 15.5003 28.61Z" fill="white"/>
<path d="M23.0737 62.1779C23.0737 62.6736 22.649 63.0277 22.2243 63.0277C21.7997 63.0277 21.375 62.6028 21.375 62.1779C21.375 61.753 21.7997 61.3281 22.2243 61.3281C22.7198 61.3281 23.0737 61.6822 23.0737 62.1779Z" fill="white"/>
<path d="M23.5687 57.007C23.5687 57.5736 23.144 57.9985 22.5778 57.9985C22.0116 57.9985 21.5869 57.5736 21.5869 57.007C21.5869 56.4405 22.0116 56.0156 22.5778 56.0156C23.144 56.0156 23.5687 56.4405 23.5687 57.007Z" fill="white"/>
<path d="M7.85604 60.8287C7.85604 61.1828 7.57293 61.4661 7.21904 61.4661C6.86514 61.4661 6.58203 61.1828 6.58203 60.8287C6.58203 60.4747 6.86514 60.1914 7.21904 60.1914C7.57293 60.1914 7.85604 60.4747 7.85604 60.8287Z" fill="white"/>
<path d="M19.1806 38.3117C19.1806 40.0821 17.765 41.4984 15.9956 41.4984C14.2261 41.4984 12.8105 40.0821 12.8105 38.3117C12.8105 36.5413 14.2261 35.125 15.9956 35.125C17.765 35.125 19.1806 36.5413 19.1806 38.3117Z" fill="white"/>
<path d="M11.6078 31.5852C11.6078 32.1517 11.1831 32.5766 10.6169 32.5766C10.0506 32.5766 9.62598 32.1517 9.62598 31.5852C9.62598 31.0186 10.0506 30.5938 10.6169 30.5938C11.1831 30.5938 11.6078 31.0186 11.6078 31.5852Z" fill="white"/>
<path d="M36.2387 0.920601C36.2387 1.41631 35.814 1.8412 35.3186 1.8412C34.8231 1.8412 34.3984 1.41631 34.3984 0.920601C34.3984 0.424893 34.8231 0 35.3186 0C35.814 0 36.2387 0.424893 36.2387 0.920601Z" fill="white"/>
<path d="M12.5988 42.8416C12.5988 43.6206 11.9617 44.1871 11.254 44.1871C10.5462 44.1871 9.90918 43.5497 9.90918 42.8416C9.90918 42.1334 10.5462 41.4961 11.254 41.4961C11.9617 41.4961 12.5988 42.0626 12.5988 42.8416Z" fill="white"/>
<path d="M21.5876 66.0716C21.5876 66.7797 21.0214 67.3462 20.3136 67.3462C19.6058 67.3462 19.1104 66.7797 19.1104 66.0716C19.1104 65.3634 19.6766 64.7969 20.3844 64.7969C21.0921 64.7969 21.5876 65.4342 21.5876 66.0716Z" fill="white"/>
<path d="M12.174 6.08996C12.174 6.37322 11.9616 6.65648 11.6078 6.65648C11.2539 6.65648 11.1123 6.37322 11.1123 6.08996C11.1123 5.8067 11.3246 5.52344 11.6785 5.52344C12.0324 5.52344 12.174 5.8067 12.174 6.08996Z" fill="white"/>
<path d="M17.5533 25.2814C17.5533 25.5646 17.341 25.8479 16.9871 25.8479C16.6332 25.8479 16.4209 25.6354 16.4209 25.2814C16.4209 24.9273 16.6332 24.7148 16.9871 24.7148C17.341 24.7148 17.5533 24.9273 17.5533 25.2814Z" fill="white"/>
<path d="M6.72378 3.04649C6.72378 3.32975 6.51145 3.61301 6.15756 3.61301C5.80367 3.61301 5.66211 3.40057 5.66211 3.04649C5.66211 2.69241 5.87444 2.55078 6.22834 2.55078C6.58223 2.55078 6.72378 2.76323 6.72378 3.04649Z" fill="white"/>
<path d="M35.3893 4.53137C35.3893 4.81463 35.177 5.09789 34.8231 5.09789C34.4692 5.09789 34.2568 4.88544 34.2568 4.53137C34.2568 4.17729 34.4692 3.96484 34.8231 3.96484C35.177 3.96484 35.3893 4.24811 35.3893 4.53137Z" fill="white"/>
<path d="M3.82191 54.8126C3.82191 55.0959 3.60957 55.3791 3.25568 55.3791C2.90179 55.3791 2.68945 55.1667 2.68945 54.8126C2.68945 54.4585 2.90179 54.2461 3.25568 54.2461C3.60957 54.2461 3.82191 54.5294 3.82191 54.8126Z" fill="white"/>
<path d="M1.06167 47.0939C1.06167 47.3771 0.849339 47.6604 0.495448 47.6604C0.141557 47.6604 0 47.4479 0 47.0939C0 46.7398 0.212335 46.5273 0.566226 46.5273C0.920118 46.5273 1.06167 46.8106 1.06167 47.0939Z" fill="white"/>
<path d="M30.5766 63.7326C30.5766 64.2283 30.2227 64.5824 29.7273 64.5824C29.2318 64.5824 28.8779 64.2283 28.8779 63.7326C28.8779 63.2369 29.2318 62.8828 29.7273 62.8828C30.2227 62.8828 30.5766 63.3077 30.5766 63.7326Z" fill="white"/>
<path d="M10.4752 65.7892C10.4752 66.0724 10.2629 66.3557 9.909 66.3557C9.55511 66.3557 9.34277 66.1433 9.34277 65.7892C9.34277 65.4351 9.55511 65.2227 9.909 65.2227C10.2629 65.2227 10.4752 65.5059 10.4752 65.7892Z" fill="white"/>
<path d="M32.9123 67.9845C32.9123 68.2678 32.6999 68.551 32.346 68.551C31.9921 68.551 31.8506 68.2678 31.8506 67.9845C31.8506 67.7012 32.0629 67.418 32.4168 67.418C32.7707 67.418 32.9123 67.7012 32.9123 67.9845Z" fill="white"/>
<path d="M15.7838 32.6451C15.7838 32.9992 15.5007 33.2825 15.1468 33.2825C14.7929 33.2825 14.5098 32.9992 14.5098 32.6451C14.5098 32.2911 14.7929 32.0078 15.1468 32.0078C15.5007 32.0078 15.7838 32.2911 15.7838 32.6451Z" fill="white"/>
<path d="M10.4049 19.8287C10.4049 20.1828 10.1218 20.4661 9.76786 20.4661C9.41397 20.4661 9.13086 20.1828 9.13086 19.8287C9.13086 19.4747 9.41397 19.1914 9.76786 19.1914C10.1218 19.1914 10.4049 19.4747 10.4049 19.8287Z" fill="white"/>
<path d="M28.2402 59.7689C28.2402 60.6187 27.5324 61.3268 26.6831 61.3268C25.8338 61.3268 25.126 60.6187 25.126 59.7689C25.126 58.9191 25.8338 58.2109 26.6831 58.2109C27.5324 58.2109 28.2402 58.9191 28.2402 59.7689Z" fill="white"/>
<path d="M31.7088 3.75476C31.7088 4.74618 30.9303 5.52515 29.9394 5.52515C28.9485 5.52515 28.1699 4.74618 28.1699 3.75476C28.1699 2.76335 28.9485 1.98438 29.9394 1.98438C30.9303 1.98438 31.7088 2.76335 31.7088 3.75476Z" fill="white"/>
<path d="M16.562 54.5295C16.562 55.0252 16.2081 55.3793 15.7126 55.3793C15.2172 55.3793 14.8633 54.9544 14.8633 54.5295C14.8633 54.1046 15.2172 53.6797 15.7126 53.6797C16.2081 53.6797 16.562 54.0338 16.562 54.5295Z" fill="white"/>
<path d="M7.92724 9.34928C7.92724 9.77417 7.57335 10.1283 7.14868 10.1283C6.72401 10.1283 6.37012 9.77417 6.37012 9.34928C6.37012 8.92439 6.72401 8.57031 7.14868 8.57031C7.57335 8.57031 7.92724 8.92439 7.92724 9.34928Z" fill="white"/>
<path d="M19.1103 17.3498C19.1103 17.7746 18.7564 18.1995 18.2609 18.1287C17.8363 18.1287 17.4116 17.7746 17.4824 17.2789C17.4824 16.854 17.8363 16.4292 18.3317 16.5C18.7564 16.5 19.1103 16.9249 19.1103 17.3498Z" fill="white"/>
<path d="M17.4115 22.3073C17.4115 22.803 16.9869 23.2279 16.4914 23.2279C15.996 23.2279 15.5713 22.8738 15.5713 22.3073C15.5713 21.8116 15.996 21.3867 16.4914 21.3867C16.9869 21.3867 17.4115 21.8116 17.4115 22.3073Z" fill="white"/>
<path d="M9.83846 14.8014C9.83846 15.1555 9.55535 15.4387 9.20146 15.4387C8.84757 15.4387 8.56445 15.1555 8.56445 14.8014C8.56445 14.4473 8.84757 14.1641 9.20146 14.1641C9.55535 14.1641 9.83846 14.5181 9.83846 14.8014Z" fill="white"/>
<path d="M1.98202 25.9889C1.98202 26.343 1.6989 26.6262 1.34501 26.6262C0.991121 26.6262 0.708008 26.343 0.708008 25.9889C0.708008 25.6348 0.991121 25.3516 1.34501 25.3516C1.6989 25.3516 1.98202 25.7056 1.98202 25.9889Z" fill="white"/>
<path d="M13.3059 23.7229C13.3059 24.3602 12.8105 24.8559 12.1735 24.8559C11.5365 24.8559 11.041 24.3602 11.041 23.7229C11.041 23.0856 11.5365 22.5898 12.1735 22.5898C12.8105 22.5898 13.3059 23.0856 13.3059 23.7229Z" fill="white"/>
<path d="M15.0053 2.12322C15.0053 2.61893 14.6514 2.97301 14.156 2.97301C13.6605 2.97301 13.3066 2.61893 13.3066 2.12322C13.3066 1.62751 13.6605 1.27344 14.156 1.27344C14.6514 1.27344 15.0053 1.62751 15.0053 2.12322Z" fill="white"/>
<path d="M19.4638 58.1388C19.4638 58.6346 19.0391 58.9886 18.6145 58.9886C18.1898 58.9886 17.6943 58.6346 17.6943 58.1388C17.6943 57.6431 18.119 57.2891 18.5437 57.2891C18.9683 57.2891 19.4638 57.6431 19.4638 58.1388Z" fill="white"/>
<path d="M5.73341 41.7824C5.73341 42.2073 5.37952 42.4905 4.95485 42.4905C4.53018 42.4905 4.24707 42.2073 4.24707 41.7824C4.24707 41.3575 4.60096 41.0742 5.02563 41.0742C5.4503 41.0742 5.73341 41.3575 5.73341 41.7824Z" fill="white"/>
<path d="M5.87459 22.5202C5.87459 22.8742 5.59148 23.1575 5.23759 23.1575C4.8837 23.1575 4.60059 22.8742 4.60059 22.5202C4.60059 22.1661 4.8837 21.8828 5.23759 21.8828C5.59148 21.8828 5.87459 22.1661 5.87459 22.5202Z" fill="white"/>
<path d="M43.1041 0.848277C43.1041 1.20235 42.821 1.48562 42.4671 1.48562C42.1132 1.48562 41.8301 1.20235 41.8301 0.848277C41.8301 0.494199 42.1132 0.210938 42.4671 0.210938C42.821 0.210938 43.1041 0.494199 43.1041 0.848277Z" fill="white"/>
<path d="M4.17584 15.8639C4.17584 16.218 3.89273 16.5012 3.53884 16.5012C3.18495 16.5012 2.83105 16.218 2.83105 15.8639C2.83105 15.5098 3.11417 15.2266 3.46806 15.2266C3.82195 15.2266 4.17584 15.5098 4.17584 15.8639Z" fill="white"/>
<path d="M26.0465 66.4264C26.0465 66.7805 25.7634 67.0637 25.4095 67.0637C25.0556 67.0637 24.7725 66.7805 24.7725 66.4264C24.7725 66.0723 25.0556 65.7891 25.4095 65.7891C25.7634 65.7891 26.0465 66.0723 26.0465 66.4264Z" fill="white"/>
<path d="M5.87446 31.5138C5.87446 32.0096 5.44979 32.3636 5.02512 32.3636C4.60045 32.3636 4.17578 32.0096 4.17578 31.5138C4.17578 31.0181 4.60045 30.6641 5.02512 30.6641C5.44979 30.6641 5.87446 31.089 5.87446 31.5138Z" fill="white"/>
<path d="M8.21053 51.6256C8.21053 51.9797 7.92742 52.263 7.57353 52.263C7.21964 52.263 6.93652 51.9797 6.93652 51.6256C6.93652 51.2715 7.21964 50.9883 7.57353 50.9883C7.92742 50.9883 8.21053 51.2715 8.21053 51.6256Z" fill="white"/>
<path d="M8.70565 46.2428C8.70565 46.5969 8.42254 46.8801 8.06864 46.8801C7.71475 46.8801 7.43164 46.5969 7.43164 46.2428C7.43164 45.8887 7.71475 45.6055 8.06864 45.6055C8.42254 45.6055 8.70565 45.8887 8.70565 46.2428Z" fill="white"/>
<path d="M16.2086 63.3795C16.2086 63.7336 15.9255 64.0169 15.5716 64.0169C15.2177 64.0169 14.9346 63.7336 14.9346 63.3795C14.9346 63.0255 15.2177 62.7422 15.5716 62.7422C15.9255 62.7422 16.2086 63.0255 16.2086 63.3795Z" fill="white"/>
<path d="M2.69002 61.3248C2.69002 61.6789 2.40691 61.9622 2.05302 61.9622C1.69913 61.9622 1.41602 61.6789 1.41602 61.3248C1.41602 60.9708 1.69913 60.6875 2.05302 60.6875C2.40691 60.6875 2.69002 60.9708 2.69002 61.3248Z" fill="white"/>
<path d="M14.934 59.4123C14.934 59.908 14.5094 60.2621 14.0847 60.2621C13.66 60.2621 13.2354 59.8372 13.2354 59.4123C13.2354 58.9874 13.66 58.5625 14.0847 58.5625C14.5094 58.5625 14.934 58.9166 14.934 59.4123Z" fill="white"/>
<path d="M20.1008 6.44265C20.1008 7.1508 19.5345 7.71732 18.8267 7.71732C18.119 7.71732 17.5527 7.1508 17.5527 6.44265C17.5527 5.73449 18.119 5.16797 18.8267 5.16797C19.5345 5.16797 20.1008 5.73449 20.1008 6.44265Z" fill="white"/>
<path d="M18.4021 12.3913C18.4021 14.2325 16.9158 15.7905 15.0048 15.7905C13.0938 15.7905 11.6074 14.3033 11.6074 12.3913C11.6074 10.4793 13.0938 8.99219 15.0048 8.99219C16.9158 8.99219 18.4021 10.5501 18.4021 12.3913Z" fill="white"/>
<path d="M12.5282 55.6605C12.5282 56.5811 11.7497 57.3601 10.8295 57.3601C9.90942 57.3601 9.13086 56.5811 9.13086 55.6605C9.13086 54.7399 9.90942 53.9609 10.8295 53.9609C11.7497 53.9609 12.5282 54.6691 12.5282 55.6605Z" fill="white"/>
<path d="M10.9001 36.3974C10.9001 37.5304 9.97994 38.451 8.84749 38.451C7.71504 38.451 6.79492 37.5304 6.79492 36.3974C6.79492 35.2644 7.71504 34.3438 8.84749 34.3438C9.97994 34.3438 10.9001 35.2644 10.9001 36.3974Z" fill="white"/>
<path d="M12.9525 49.2883C12.9525 49.8548 12.5278 50.2797 11.9616 50.2797C11.3954 50.2797 10.9707 49.8548 10.9707 49.2883C10.9707 48.7218 11.3954 48.2969 11.9616 48.2969C12.5278 48.2969 12.9525 48.7218 12.9525 49.2883Z" fill="white"/>
<path d="M10.2629 27.4075C10.2629 28.1156 9.69664 28.6822 8.98885 28.6822C8.28107 28.6822 7.71484 28.1156 7.71484 27.4075C7.71484 26.6993 8.28107 26.1328 8.98885 26.1328C9.69664 26.1328 10.2629 26.6993 10.2629 27.4075Z" fill="white"/>
<path d="M24.8432 6.58466C24.8432 7.08037 24.4185 7.50526 23.923 7.50526C23.4276 7.50526 23.0029 7.08037 23.0029 6.58466C23.0029 6.08896 23.4276 5.66406 23.923 5.66406C24.4185 5.66406 24.8432 6.08896 24.8432 6.58466Z" fill="white"/>
<path d="M24.348 2.05341C24.348 2.54912 23.9234 2.97401 23.4279 2.97401C22.9325 2.97401 22.5078 2.54912 22.5078 2.05341C22.5078 1.55771 22.9325 1.13281 23.4279 1.13281C23.9234 1.13281 24.348 1.55771 24.348 2.05341Z" fill="white"/>
<path d="M22.8614 11.2601C22.8614 12.039 22.2244 12.6764 21.4458 12.6764C20.6673 12.6764 20.0303 12.039 20.0303 11.2601C20.0303 10.4811 20.6673 9.84375 21.4458 9.84375C22.2244 9.84375 22.8614 10.4811 22.8614 11.2601Z" fill="white"/>
<path d="M26.5423 11.8274C26.5423 12.3939 26.0468 12.8896 25.4806 12.8896C24.9144 12.8896 24.4189 12.4647 24.4189 11.8274C24.4189 11.19 24.9144 10.8359 25.4806 10.8359C26.0468 10.8359 26.5423 11.2608 26.5423 11.8274Z" fill="white"/>
<path d="M54.853 0.496094C50.1109 0.496094 45.5103 1.48751 41.4051 3.18708C41.2636 2.54974 40.6974 2.05403 39.9896 2.05403C39.211 2.05403 38.574 2.69137 38.574 3.47034C38.574 3.82442 38.7156 4.10768 38.9279 4.32013C37.1584 5.24073 35.389 6.30296 33.8319 7.50682C33.6903 7.15275 33.3364 6.9403 32.9118 6.9403C32.3455 6.9403 31.8501 7.36519 31.8501 7.93172C31.8501 8.21498 31.9916 8.49824 32.204 8.71069C31.7085 9.13558 31.2839 9.48966 30.8592 9.91455C31.2131 10.3394 31.3546 10.906 31.3546 11.5433C31.3546 13.0304 30.1514 14.3051 28.5943 14.3051C28.0988 14.3051 27.6034 14.1635 27.2495 13.951C26.6833 14.6592 26.1878 15.4382 25.6924 16.1463C25.48 16.0755 25.1969 16.0047 24.9846 16.0047C23.8521 16.0047 22.932 16.9253 22.932 18.0583C22.932 18.6957 23.2151 19.2622 23.6398 19.6163C23.2151 20.4661 22.7905 21.3867 22.4366 22.3073C22.6489 22.2364 22.8612 22.2364 23.0736 22.2364C24.7015 22.2364 26.0463 23.5819 26.0463 25.2107C26.0463 26.8394 24.7015 28.1849 23.0736 28.1849C22.2242 28.1849 21.4457 27.8309 20.8794 27.1935C20.7379 27.76 20.5963 28.3266 20.5256 28.9639C20.2424 28.6806 19.8886 28.4682 19.4639 28.4682C18.6145 28.4682 17.9775 29.1764 17.9775 30.0261C17.9775 30.8759 18.6853 31.5841 19.4639 31.5841C19.747 31.5841 19.9593 31.5133 20.1717 31.3716C20.1009 32.2214 20.0301 33.0004 19.9593 33.8502C20.0301 33.8502 20.1717 33.7794 20.3132 33.7794C20.9502 33.7794 21.4457 34.2751 21.4457 34.9124C21.4457 35.5497 20.9502 36.0454 20.3132 36.0454C20.1717 36.0454 20.0301 36.0454 19.9593 35.9746C19.9593 37.8867 20.1717 39.7987 20.5256 41.6399C19.747 41.6399 19.1808 42.2772 19.1808 42.9854C19.1808 43.6935 19.8178 44.3309 20.5256 44.3309C20.7379 44.3309 20.9502 44.26 21.0918 44.1892C21.4457 45.4639 21.8703 46.7386 22.3658 48.0133C22.5781 47.8716 22.7905 47.8008 23.0736 47.8008C23.8521 47.8008 24.4891 48.4382 24.4891 49.2171C24.4891 49.8545 24.0645 50.3502 23.4982 50.5626C23.8521 51.2708 24.206 51.9789 24.6307 52.6871C24.2768 52.9703 24.0645 53.3952 24.0645 53.8201C24.0645 54.5283 24.6307 55.0948 25.3385 55.0948C25.5508 55.0948 25.7631 55.024 25.9755 54.8824C27.4618 57.0776 29.1605 58.9897 31.0007 60.8309C31.2131 60.406 31.7085 60.1227 32.204 60.1227C32.9825 60.1227 33.6195 60.76 33.6195 61.539C33.6195 61.9639 33.4072 62.3888 33.0533 62.6012C34.115 63.451 35.2474 64.3008 36.4507 65.009C35.9552 65.2922 35.6721 65.8588 35.6721 66.4253C35.6721 67.3459 36.4507 68.1248 37.3708 68.1248C38.2909 68.1248 39.0695 67.3459 39.0695 66.4253C43.8116 68.833 49.12 70.1785 54.7822 70.1785C74.0339 70.1785 89.6051 54.5991 89.6051 35.3373C89.6051 16.0755 74.1047 0.496094 54.853 0.496094ZM49.757 2.19566C50.1109 2.19566 50.394 2.47893 50.394 2.833C50.394 3.18708 50.1109 3.47034 49.757 3.47034C49.4031 3.47034 49.12 3.18708 49.12 2.833C49.12 2.47893 49.4031 2.19566 49.757 2.19566ZM45.0148 3.39953C46.1473 3.39953 47.0674 4.32013 47.0674 5.45318C47.0674 6.58622 46.1473 7.50682 45.0148 7.50682C43.8824 7.50682 42.9623 6.58622 42.9623 5.45318C42.9623 4.32013 43.8824 3.39953 45.0148 3.39953ZM45.0148 11.1184C45.0148 11.4017 44.8025 11.6849 44.4486 11.6849C44.0947 11.6849 43.8824 11.4725 43.8824 11.1184C43.8824 10.7643 44.0947 10.5519 44.4486 10.5519C44.8025 10.5519 45.0148 10.8351 45.0148 11.1184ZM40.8389 10.9768C40.8389 11.3309 40.5558 11.6141 40.2019 11.6141C39.848 11.6141 39.5649 11.3309 39.5649 10.9768C39.5649 10.6227 39.848 10.3394 40.2019 10.3394C40.5558 10.3394 40.8389 10.6935 40.8389 10.9768ZM39.1402 5.87807C39.6357 5.87807 40.0604 6.30296 40.0604 6.79867C40.0604 7.29438 39.6357 7.71927 39.1402 7.71927C38.6448 7.71927 38.2201 7.29438 38.2201 6.79867C38.2201 6.30296 38.6448 5.87807 39.1402 5.87807ZM34.9643 8.56906C35.2474 8.56906 35.5305 8.7815 35.5305 9.13558C35.5305 9.48966 35.3182 9.7021 34.9643 9.7021C34.6104 9.7021 34.3981 9.48966 34.3981 9.13558C34.3981 8.7815 34.6812 8.56906 34.9643 8.56906ZM35.1059 10.9768C36.2383 10.9768 37.1584 11.8974 37.1584 13.0304C37.1584 14.1635 36.2383 15.0841 35.1059 15.0841C33.9734 15.0841 33.0533 14.1635 33.0533 13.0304C33.0533 11.8974 33.9734 10.9768 35.1059 10.9768ZM36.3799 17.6334C36.3799 17.9875 36.0968 18.2708 35.7429 18.2708C35.389 18.2708 35.1059 17.9875 35.1059 17.6334C35.1059 17.2794 35.389 16.9961 35.7429 16.9961C36.0968 16.9961 36.3799 17.3502 36.3799 17.6334ZM32.1332 18.9081C32.6286 18.9081 33.0533 19.333 33.0533 19.8287C33.0533 20.3244 32.6286 20.7493 32.1332 20.7493C31.6377 20.7493 31.2131 20.3244 31.2131 19.8287C31.2131 19.333 31.567 18.9081 32.1332 18.9081ZM31.1423 40.0819C31.8501 40.0819 32.4163 40.6485 32.4163 41.3566C32.4163 42.0648 31.8501 42.6313 31.1423 42.6313C30.4345 42.6313 29.8683 42.0648 29.8683 41.3566C29.8683 40.6485 30.4345 40.0819 31.1423 40.0819ZM29.9391 33.3545C29.9391 33.0712 30.1514 32.7879 30.5053 32.7879C30.8592 32.7879 31.0715 33.0004 31.0715 33.3545C31.0715 33.7085 30.8592 33.921 30.5053 33.921C30.1514 33.921 29.9391 33.6377 29.9391 33.3545ZM30.8592 23.0154C31.1423 23.0154 31.4254 23.2279 31.4254 23.5819C31.4254 23.936 31.1423 24.0776 30.8592 24.0776C30.5761 24.0776 30.293 23.8652 30.293 23.5111C30.293 23.157 30.5761 23.0154 30.8592 23.0154ZM29.4436 15.863C30.0098 15.863 30.5053 16.2879 30.5053 16.9253C30.5053 17.5626 30.0098 17.9875 29.4436 17.9875C28.8774 17.9875 28.3819 17.5626 28.3819 16.9253C28.3819 16.2879 28.8774 15.863 29.4436 15.863ZM28.5943 25.1399C28.9482 25.1399 29.2313 25.4231 29.2313 25.7772C29.2313 26.1313 28.9482 26.4145 28.5943 26.4145C28.2404 26.4145 27.9573 26.1313 27.9573 25.7772C27.9573 25.4231 28.2404 25.1399 28.5943 25.1399ZM29.3021 36.5412C29.3021 36.8244 29.0897 37.1077 28.7358 37.1077C28.3819 37.1077 28.1696 36.8952 28.1696 36.5412C28.1696 36.1871 28.3819 35.9746 28.7358 35.9746C29.0897 35.9746 29.3021 36.2579 29.3021 36.5412ZM28.4527 29.3888C28.8066 29.3888 29.0897 29.6721 29.0897 30.0261C29.0897 30.3802 28.8066 30.6635 28.4527 30.6635C28.0988 30.6635 27.8157 30.3802 27.8157 30.0261C27.8157 29.6721 28.0988 29.3888 28.4527 29.3888ZM25.9047 20.8201C25.9047 20.3952 26.2586 20.112 26.6125 20.112C26.9664 20.112 27.3203 20.466 27.3203 20.8201C27.3203 21.1742 26.9664 21.5283 26.6125 21.5283C26.2586 21.5283 25.9047 21.245 25.9047 20.8201ZM26.5417 39.5154C26.8248 39.5154 27.1079 39.7279 27.1079 40.0819C27.1079 40.436 26.8956 40.6485 26.5417 40.6485C26.1878 40.6485 25.9755 40.436 25.9755 40.0819C25.9755 39.7279 26.2586 39.5154 26.5417 39.5154ZM25.6924 34.5583C25.6924 35.054 25.3385 35.4081 24.843 35.4081C24.3476 35.4081 23.9937 35.054 23.9937 34.5583C23.9937 34.0626 24.3476 33.7085 24.843 33.7085C25.3385 33.7085 25.6924 34.0626 25.6924 34.5583ZM22.5073 39.5862C22.2242 39.5862 21.9411 39.3738 21.9411 39.0197C21.9411 38.6656 22.1535 38.4532 22.5073 38.4532C22.8612 38.4532 23.0736 38.6656 23.0736 39.0197C23.0736 39.3738 22.8612 39.5862 22.5073 39.5862ZM22.4366 30.5218C22.4366 29.8845 22.932 29.3888 23.569 29.3888C24.206 29.3888 24.7015 29.8845 24.7015 30.5218C24.7015 31.1592 24.206 31.6549 23.569 31.6549C22.932 31.6549 22.4366 31.1592 22.4366 30.5218ZM25.4093 46.1721C24.3476 46.1721 23.4275 45.2515 23.4275 44.1892C23.4275 43.127 24.3476 42.2064 25.4093 42.2064C26.4709 42.2064 27.391 43.127 27.391 44.1892C27.391 45.2515 26.5417 46.1721 25.4093 46.1721ZM27.1079 48.5798C27.1079 48.1549 27.4618 47.8008 27.8865 47.8008C28.3112 47.8008 28.6651 48.1549 28.6651 48.5798C28.6651 49.0047 28.3112 49.3588 27.8865 49.3588C27.4618 49.3588 27.1079 49.0047 27.1079 48.5798ZM27.7449 52.6163C27.7449 51.8373 28.3819 51.2 29.1605 51.2C29.9391 51.2 30.5761 51.8373 30.5761 52.6163C30.5761 53.3952 29.9391 54.0326 29.1605 54.0326C28.3819 54.0326 27.7449 53.3952 27.7449 52.6163ZM30.5053 57.5733C30.2222 57.5733 29.9391 57.3609 29.9391 57.0068C29.9391 56.6527 30.1514 56.4403 30.5053 56.4403C30.8592 56.4403 31.0715 56.6527 31.0715 57.0068C31.0715 57.3609 30.7884 57.5733 30.5053 57.5733ZM32.1332 48.4382C31.4962 48.4382 31.0715 47.9424 31.0715 47.3051C31.0715 46.6678 31.567 46.1721 32.1332 46.1721C32.6994 46.1721 33.1949 46.6678 33.1949 47.3051C33.1949 47.9424 32.6994 48.4382 32.1332 48.4382ZM33.1949 52.0497C33.1949 51.6957 33.478 51.4124 33.8319 51.4124C34.1858 51.4124 34.4689 51.6957 34.4689 52.0497C34.4689 52.4038 34.1858 52.6871 33.8319 52.6871C33.478 52.6871 33.1949 52.4038 33.1949 52.0497ZM34.8935 57.7858C34.1858 57.7858 33.6195 57.2193 33.6195 56.5111C33.6195 55.803 34.1858 55.2364 34.8935 55.2364C35.6013 55.2364 36.1676 55.803 36.1676 56.5111C36.1676 57.2193 35.5305 57.7858 34.8935 57.7858ZM38.0786 62.9553C37.5831 62.9553 37.2292 62.5304 37.2292 62.1055C37.2292 61.6806 37.5831 61.2558 38.0786 61.2558C38.574 61.2558 38.9279 61.6098 38.9279 62.1055C38.9279 62.6012 38.574 62.9553 38.0786 62.9553ZM39.4234 56.7236C39.1402 56.7236 38.8571 56.5111 38.8571 56.157C38.8571 55.803 39.0695 55.5905 39.4234 55.5905C39.7772 55.5905 39.9896 55.803 39.9896 56.157C39.9896 56.5111 39.7065 56.7236 39.4234 56.7236ZM43.2454 66.2128C42.9623 66.2128 42.6792 66.0004 42.6792 65.6463C42.6792 65.2922 42.8915 65.0798 43.2454 65.0798C43.5993 65.0798 43.8116 65.2922 43.8116 65.6463C43.8116 66.0004 43.5285 66.2128 43.2454 66.2128ZM43.4577 62.1055C42.7499 62.1055 42.1837 61.539 42.1837 60.8309C42.1837 60.1227 42.7499 59.5562 43.4577 59.5562C44.1655 59.5562 44.7317 60.1227 44.7317 60.8309C44.7317 61.539 44.1655 62.1055 43.4577 62.1055ZM47.5628 65.5755C47.209 65.5755 46.9258 65.2922 46.9258 64.9382C46.9258 64.5841 47.209 64.3008 47.5628 64.3008C47.9167 64.3008 48.1999 64.5841 48.1999 64.9382C48.1999 65.2922 47.9167 65.5755 47.5628 65.5755ZM54.853 56.2987C43.3162 56.2987 33.9734 46.8802 33.9734 35.3373C33.9734 23.7944 43.3162 14.4467 54.853 14.4467C66.3899 14.4467 75.7326 23.7944 75.7326 35.3373C75.7326 46.8802 66.3899 56.2987 54.853 56.2987Z" fill="white"/>
<defs>
<linearGradient id="paint0_linear_5949_257" x1="101" y1="36" x2="289" y2="36" gradientUnits="userSpaceOnUse">
<stop stop-color="#9CD0CB"/>
<stop offset="0.17" stop-color="#99CCC9"/>
<stop offset="0.3" stop-color="#92C2C4"/>
<stop offset="0.43" stop-color="#86B1BC"/>
<stop offset="0.54" stop-color="#7499B0"/>
<stop offset="0.66" stop-color="#5E7AA1"/>
<stop offset="0.76" stop-color="#43558E"/>
<stop offset="0.85" stop-color="#29317D"/>
</linearGradient>
<linearGradient id="paint1_linear_5949_257" x1="20" y1="96" x2="294" y2="96" gradientUnits="userSpaceOnUse">
<stop stop-color="#9CD0CB"/>
<stop offset="0.17" stop-color="#99CCC9"/>
<stop offset="0.3" stop-color="#92C2C4"/>
<stop offset="0.43" stop-color="#86B1BC"/>
<stop offset="0.54" stop-color="#7499B0"/>
<stop offset="0.66" stop-color="#5E7AA1"/>
<stop offset="0.76" stop-color="#43558E"/>
<stop offset="0.85" stop-color="#29317D"/>
</linearGradient>
</defs>
</svg>
