<svg width="16" height="16" viewBox="0 0 16 16" fill="none" xmlns="http://www.w3.org/2000/svg">
<path d="M10.5 2C10.5 3.10457 9.60457 4 8.5 4C7.39543 4 6.5 3.10457 6.5 2C6.5 0.895431 7.39543 0 8.5 0C9.60457 0 10.5 0.895431 10.5 2Z" fill="#6E7288"/>
<path d="M10.5 8C10.5 9.10457 9.60457 10 8.5 10C7.39543 10 6.5 9.10457 6.5 8C6.5 6.89543 7.39543 6 8.5 6C9.60457 6 10.5 6.89543 10.5 8Z" fill="#6E7288"/>
<path d="M10.5 14C10.5 15.1046 9.60457 16 8.5 16C7.39543 16 6.5 15.1046 6.5 14C6.5 12.8954 7.39543 12 8.5 12C9.60457 12 10.5 12.8954 10.5 14Z" fill="#6E7288"/>
</svg>
