<svg width="10" height="10" viewBox="0 0 10 10" fill="none" xmlns="http://www.w3.org/2000/svg">
<path d="M6.70669 2.91368C7.00092 3.17477 7.38819 3.33333 7.8125 3.33333C8.73297 3.33333 9.47917 2.58714 9.47917 1.66667C9.47917 0.746192 8.73297 0 7.8125 0C6.89202 0 6.14583 0.746192 6.14583 1.66667C6.14583 1.93498 6.20924 2.18848 6.32188 2.41302L3.35756 4.06279C3.05759 3.62247 2.55214 3.33333 1.97917 3.33333C1.05869 3.33333 0.3125 4.07953 0.3125 5C0.3125 5.92047 1.05869 6.66667 1.97917 6.66667C2.49359 6.66667 2.95359 6.4336 3.25931 6.0673L6.25635 7.73529C6.18496 7.92092 6.14583 8.12256 6.14583 8.33333C6.14583 9.25381 6.89202 10 7.8125 10C8.73297 10 9.47917 9.25381 9.47917 8.33333C9.47917 7.41286 8.73297 6.66667 7.8125 6.66667C7.32763 6.66667 6.89111 6.87372 6.58655 7.20423L3.56268 5.52131C3.61664 5.35731 3.64583 5.18207 3.64583 5C3.64583 4.87604 3.6323 4.75524 3.60663 4.639L6.70669 2.91368Z" fill="#001489"/>
</svg>
