<svg width="56" height="56" viewBox="0 0 56 56" fill="none" xmlns="http://www.w3.org/2000/svg">
<g filter="url(#filter0_d_178_13)">
<path d="M8 12C8 9.79086 9.79086 8 12 8H44C46.2091 8 48 9.79086 48 12V44C48 46.2091 46.2091 48 44 48H12C9.79086 48 8 46.2091 8 44V12Z" fill="white" shape-rendering="crispEdges"/>
<path d="M30.483 21.3679C31.5927 22.0637 32.3708 23.2411 32.5125 24.6078C32.965 24.8192 33.4673 24.9408 33.9999 24.9408C35.944 24.9408 37.5197 23.3651 37.5197 21.4212C37.5197 19.4771 35.944 17.9014 33.9999 17.9014C32.0743 17.902 30.5123 19.4496 30.483 21.3679ZM28.177 28.5748C30.1212 28.5748 31.6969 26.9988 31.6969 25.0549C31.6969 23.1111 30.1209 21.5354 28.177 21.5354C26.2332 21.5354 24.6565 23.1114 24.6565 25.0552C24.6565 26.9991 26.2332 28.5748 28.177 28.5748ZM29.6701 28.8147H26.6833C24.1983 28.8147 22.1766 30.8367 22.1766 33.3218V36.9744L22.1858 37.0316L22.4374 37.1104C24.809 37.8513 26.8693 38.0984 28.5652 38.0984C31.8775 38.0984 33.7974 37.1541 33.9157 37.0939L34.1508 36.975H34.176V33.3218C34.1769 30.8367 32.1551 28.8147 29.6701 28.8147ZM35.4935 25.181H32.5298C32.4978 26.3668 31.9916 27.4346 31.191 28.2025C33.3999 28.8594 35.0161 30.9077 35.0161 33.3272V34.4528C37.9423 34.3455 39.6286 33.5162 39.7397 33.4605L39.9748 33.3413H40V29.6875C40 27.2028 37.9783 25.181 35.4935 25.181ZM22.0007 24.9414C22.6893 24.9414 23.33 24.7405 23.8727 24.3981C24.0452 23.2728 24.6484 22.2895 25.5101 21.6198C25.5137 21.5539 25.52 21.4886 25.52 21.4221C25.52 19.478 23.944 17.9023 22.0007 17.9023C20.0563 17.9023 18.4809 19.478 18.4809 21.4221C18.4809 23.3654 20.0563 24.9414 22.0007 24.9414ZM25.1618 28.2025C24.3651 27.4385 23.8607 26.3764 23.8239 25.1978C23.714 25.1897 23.6052 25.181 23.4932 25.181H20.5068C18.0217 25.181 16 27.2028 16 29.6875V33.3407L16.0093 33.397L16.2609 33.4764C18.1634 34.0703 19.8613 34.344 21.3361 34.4303V33.3272C21.3367 30.9077 22.9523 28.86 25.1618 28.2025Z" fill="#F3942D"/>
</g>
<defs>
<filter id="filter0_d_178_13" x="0" y="0" width="56" height="56" filterUnits="userSpaceOnUse" color-interpolation-filters="sRGB">
<feFlood flood-opacity="0" result="BackgroundImageFix"/>
<feColorMatrix in="SourceAlpha" type="matrix" values="0 0 0 0 0 0 0 0 0 0 0 0 0 0 0 0 0 0 127 0" result="hardAlpha"/>
<feOffset/>
<feGaussianBlur stdDeviation="4"/>
<feComposite in2="hardAlpha" operator="out"/>
<feColorMatrix type="matrix" values="0 0 0 0 0 0 0 0 0 0.0784314 0 0 0 0 0.537255 0 0 0 0.15 0"/>
<feBlend mode="normal" in2="BackgroundImageFix" result="effect1_dropShadow_178_13"/>
<feBlend mode="normal" in="SourceGraphic" in2="effect1_dropShadow_178_13" result="shape"/>
</filter>
</defs>
</svg>
