<svg width="265" height="64" viewBox="0 0 265 64" fill="none" xmlns="http://www.w3.org/2000/svg">
<path d="M52.5991 11.0121V0H56.8744V11.0121C56.8744 14.1215 58.4291 15.8057 61.0202 15.8057C63.6113 15.8057 65.1659 14.251 65.1659 11.1417V0H69.4412V10.8826C69.4412 16.7125 66.2024 19.6923 60.8906 19.6923C55.5789 19.6923 52.5991 16.7125 52.5991 11.0121Z" fill="white"/>
<path d="M73.4575 0H77.3442L86.413 11.919V0H90.6883V19.4332H87.0608L77.7328 6.99595V19.4332H73.5871L73.4575 0Z" fill="white"/>
<path d="M94.9634 0H102.478C108.567 0 112.712 4.14575 112.712 9.58704C112.712 15.0283 108.567 19.3036 102.478 19.3036H94.9634V0ZM99.2387 3.88664V15.5466H102.478C105.976 15.5466 108.308 13.2146 108.308 9.7166C108.308 6.34818 105.976 3.88664 102.478 3.88664H99.2387Z" fill="white"/>
<path d="M116.34 0H130.98V3.75709H120.615V7.64373H129.684V11.4008H120.615V15.5466H131.109V19.4332H116.34V0Z" fill="white"/>
<path d="M134.478 0H143.287C145.749 0 147.692 0.647773 148.988 1.94332C150.024 2.97976 150.672 4.53441 150.672 6.34818C150.672 9.45749 148.988 11.4008 146.526 12.3077L151.32 19.1741H146.397L142.251 12.9555H138.882V19.4332H134.607V0H134.478ZM143.028 9.45749C145.101 9.45749 146.267 8.2915 146.267 6.73684C146.267 4.92308 144.971 4.01619 142.899 4.01619H138.623V9.58705H143.028V9.45749Z" fill="white"/>
<path d="M166.607 3.88664H160.777V0H176.842V3.88664H170.883V19.4332H166.607V3.88664Z" fill="white"/>
<path d="M179.692 0H183.968V7.64373H191.871V0H196.146V19.4332H191.871V11.6599H183.968V19.4332H179.692V0Z" fill="white"/>
<path d="M200.421 0H215.061V3.75709H204.696V7.64373H213.765V11.4008H204.696V15.5466H215.19V19.4332H200.421V0Z" fill="white"/>
<path d="M20.3401 31.4843L15.6761 35.63C13.9919 33.298 12.3077 32.132 10.6235 32.132C9.84615 32.132 9.06883 32.3911 8.55061 32.7798C8.03239 33.298 7.77328 33.6867 7.77328 34.3345C7.77328 34.9822 7.90283 35.3709 8.2915 35.8891C8.80972 36.5369 10.3644 37.962 12.9555 40.1644C15.417 42.2373 16.8421 43.4033 17.3603 44.0511C18.6559 45.3466 19.5628 46.6422 20.081 47.8082C20.5992 48.9741 20.8583 50.2697 20.8583 51.6948C20.8583 54.4154 19.9514 56.6179 18.0081 58.4316C16.0648 60.2454 13.6032 61.1523 10.6235 61.1523C8.2915 61.1523 6.21862 60.6341 4.40486 59.4681C2.59109 58.3021 1.29555 56.3588 0 53.7677L5.31174 50.5288C6.8664 53.5086 8.80972 54.9337 10.8826 54.9337C11.919 54.9337 12.8259 54.6745 13.6032 54.0268C14.3806 53.379 14.7692 52.6017 14.7692 51.8243C14.7692 51.047 14.5101 50.2697 13.9919 49.6219C13.4737 48.9741 12.1781 47.6786 10.2348 46.1239C6.60729 43.1442 4.2753 40.9418 3.23887 39.2575C2.20243 37.7029 1.68421 36.0187 1.68421 34.464C1.68421 32.132 2.59109 30.1887 4.2753 28.5045C6.08907 26.8203 8.16194 26.043 10.753 26.043C12.4372 26.043 13.9919 26.4316 15.5466 27.209C16.9717 27.9863 18.5263 29.4114 20.3401 31.4843Z" fill="white"/>
<path d="M30.4453 26.9492H37.1822C40.8097 26.9492 43.4008 27.3379 45.085 27.9857C46.7692 28.6334 47.9352 29.7994 48.8421 31.2245C49.749 32.7792 50.2672 34.4634 50.2672 36.6658C50.2672 38.9978 49.6194 40.9411 48.4534 42.4958C47.2874 44.0504 45.6032 45.0869 43.5303 45.7346C42.3643 46.1233 40.0324 46.2529 36.7935 46.2529V60.3743H30.4453V26.9492ZM36.7935 39.9047H38.8664C40.421 39.9047 41.587 39.7751 42.2348 39.516C42.8826 39.2569 43.4008 38.8682 43.6599 38.35C44.0486 37.8318 44.1781 37.184 44.1781 36.4067C44.1781 35.1112 43.6599 34.2043 42.6235 33.5565C41.8461 33.1678 40.5506 32.9087 38.6073 32.9087H36.7935V39.9047Z" fill="white"/>
<path d="M105.976 26.9492H124.373V33.1678H118.283V60.2448H111.806V33.1678H105.846L105.976 26.9492Z" fill="white"/>
<path d="M132.146 26.9492H138.494V54.1557H147.692V60.2448H132.146V26.9492Z" fill="white"/>
<path d="M155.595 26.9492H161.943V60.2448H155.595V26.9492Z" fill="white"/>
<path d="M203.142 32.3911L198.737 36.796C195.887 33.8162 192.648 32.2616 188.891 32.2616C185.652 32.2616 182.931 33.298 180.599 35.5005C178.267 37.7029 177.231 40.294 177.231 43.4033C177.231 46.6422 178.397 49.3628 180.729 51.5652C183.061 53.7677 185.911 54.9337 189.279 54.9337C191.482 54.9337 193.295 54.4154 194.85 53.5086C196.405 52.6017 197.571 51.1766 198.478 49.2332H188.891V43.2737H205.603V44.6988C205.603 47.549 204.826 50.3992 203.401 52.9903C201.976 55.5814 199.903 57.6543 197.571 58.9498C195.109 60.3749 192.389 61.0227 189.15 61.0227C185.652 61.0227 182.672 60.2454 179.951 58.8203C177.231 57.2656 175.158 55.1928 173.474 52.3426C171.919 49.6219 171.142 46.5126 171.142 43.4033C171.142 38.9984 172.567 35.1118 175.546 31.8729C179.044 27.9863 183.449 26.043 189.02 26.043C191.87 26.043 194.591 26.5612 197.182 27.5976C198.996 28.6341 201.198 30.1887 203.142 32.3911Z" fill="white"/>
<path d="M214.802 26.9492H221.279V39.516H232.421V26.9492H238.769V60.2448H232.421V45.6051H221.279V60.2448H214.802V26.9492Z" fill="white"/>
<path d="M246.543 26.9492H264.939V33.1678H258.85V60.2448H252.373V33.1678H246.413V26.9492H246.543Z" fill="white"/>
<path d="M77.9919 64.0018C89.911 64.0018 98.8502 55.0625 98.8502 43.9208V43.7913C98.8502 32.7791 90.0405 23.8398 78.1215 23.8398C75.2713 23.8398 72.5506 24.3581 69.9595 25.3945L90.1701 56.6172C90.1701 56.7467 90.2996 56.7467 90.2996 56.8763C90.4292 57.9127 86.5425 58.69 81.6195 58.69C76.6964 58.69 72.8097 57.9127 72.6802 56.8763L67.498 26.5605C61.2794 30.0585 57.2632 36.5362 57.2632 43.9208V44.0504C57.3927 55.0625 66.2025 64.0018 77.9919 64.0018Z" fill="url(#paint0_linear_5411_171)"/>
<path fill-rule="evenodd" clip-rule="evenodd" d="M81.4897 55.0625C76.5667 55.0625 72.8096 55.8398 72.8096 56.8763C72.9391 57.9127 76.8258 58.69 81.7488 58.69C86.6719 58.69 90.429 57.9127 90.429 56.8763C90.2995 55.8398 86.2833 55.0625 81.4897 55.0625Z" fill="white"/>
<defs>
<linearGradient id="paint0_linear_5411_171" x1="61.0547" y1="36.2197" x2="95.9315" y2="51.9813" gradientUnits="userSpaceOnUse">
<stop stop-color="#F4923A"/>
<stop offset="1" stop-color="#ED4D69"/>
</linearGradient>
</defs>
</svg>
