<svg width="299" height="72" viewBox="0 0 299 72" fill="none" xmlns="http://www.w3.org/2000/svg">
<path d="M59.1738 12.3887V0H63.9836V12.3887C63.9836 15.8866 65.7325 17.7814 68.6475 17.7814C71.5625 17.7814 73.3115 16.0324 73.3115 12.5344V0H78.1212V12.2429C78.1212 18.8016 74.4775 22.1538 68.5018 22.1538C62.5261 22.1538 59.1738 18.8016 59.1738 12.3887Z" fill="white"/>
<path d="M82.6396 0H87.0121L97.2146 13.4089V0H102.024V21.8624H97.9433L87.4494 7.87045V21.8624H82.7854L82.6396 0Z" fill="white"/>
<path d="M106.834 0H115.287C122.138 0 126.802 4.66397 126.802 10.7854C126.802 16.9069 122.138 21.7166 115.287 21.7166H106.834V0ZM111.644 4.37247V17.4899H115.287C119.223 17.4899 121.846 14.8664 121.846 10.9312C121.846 7.1417 119.223 4.37247 115.287 4.37247H111.644Z" fill="white"/>
<path d="M130.883 0H147.352V4.22672H135.693V8.59919H145.895V12.8259H135.693V17.4899H147.498V21.8624H130.883V0Z" fill="white"/>
<path d="M151.287 0H161.198C163.967 0 166.154 0.728745 167.611 2.18624C168.777 3.35223 169.506 5.10122 169.506 7.1417C169.506 10.6397 167.611 12.8259 164.842 13.8462L170.234 21.5709H164.696L160.032 14.5749H156.243V21.8624H151.433V0H151.287ZM160.907 10.6397C163.239 10.6397 164.55 9.32794 164.55 7.57895C164.55 5.53846 163.093 4.51822 160.761 4.51822H155.951V10.7854H160.907V10.6397Z" fill="white"/>
<path d="M187.433 4.37247H180.874V0H198.947V4.37247H192.242V21.8624H187.433V4.37247Z" fill="white"/>
<path d="M202.153 0H206.963V8.59919H215.854V0H220.663V21.8624H215.854V13.1174H206.963V21.8624H202.153V0Z" fill="white"/>
<path d="M225.474 0H241.943V4.22672H230.283V8.59919H240.486V12.8259H230.283V17.4899H242.089V21.8624H225.474V0Z" fill="white"/>
<path d="M22.8826 35.4144L17.6356 40.0784C15.7409 37.4549 13.8462 36.1432 11.9514 36.1432C11.0769 36.1432 10.2024 36.4347 9.61943 36.8719C9.03644 37.4549 8.74494 37.8922 8.74494 38.6209C8.74494 39.3496 8.89069 39.7869 9.32793 40.3699C9.91093 41.0986 11.6599 42.7019 14.5749 45.1796C17.3441 47.5116 18.9474 48.8233 19.5304 49.5521C20.9879 51.0096 22.0081 52.4671 22.5911 53.7788C23.1741 55.0905 23.4656 56.548 23.4656 58.1513C23.4656 61.212 22.4453 63.6897 20.2591 65.7302C18.0729 67.7707 15.3036 68.791 11.9514 68.791C9.32793 68.791 6.99595 68.208 4.95546 66.8962C2.91498 65.5845 1.45749 63.3982 0 60.4833L5.97571 56.8395C7.72469 60.1918 9.91093 61.795 12.2429 61.795C13.4089 61.795 14.4291 61.5035 15.3036 60.7748C16.1781 60.046 16.6154 59.1715 16.6154 58.297C16.6154 57.4225 16.3239 56.548 15.7409 55.8193C15.1579 55.0905 13.7004 53.6331 11.5142 51.8841C7.4332 48.5318 4.80972 46.0541 3.64372 44.1594C2.47773 42.4104 1.89474 40.5156 1.89474 38.7667C1.89474 36.1432 2.91498 33.9569 4.80972 32.0622C6.8502 30.1675 9.18219 29.293 12.0972 29.293C13.9919 29.293 15.7409 29.7302 17.4899 30.6047C19.0931 31.4792 20.8421 33.0824 22.8826 35.4144Z" fill="white"/>
<path d="M34.251 30.3125H41.8299C45.9109 30.3125 48.8259 30.7497 50.7206 31.4785C52.6154 32.2072 53.9271 33.519 54.9473 35.1222C55.9676 36.8712 56.5506 38.7659 56.5506 41.2437C56.5506 43.8672 55.8218 46.0534 54.5101 47.8024C53.1984 49.5514 51.3036 50.7174 48.9716 51.4461C47.6599 51.8833 45.0364 52.0291 41.3927 52.0291V67.9157H34.251V30.3125ZM41.3927 44.8874H43.7247C45.4737 44.8874 46.7854 44.7416 47.5141 44.4501C48.2429 44.1587 48.8259 43.7214 49.1174 43.1384C49.5546 42.5554 49.7004 41.8267 49.7004 40.9522C49.7004 39.4947 49.1174 38.4744 47.9514 37.7457C47.0769 37.3084 45.6194 37.017 43.4332 37.017H41.3927V44.8874Z" fill="white"/>
<path d="M119.223 30.3125H139.919V37.3085H133.069V67.77H125.782V37.3085H119.077L119.223 30.3125Z" fill="white"/>
<path d="M148.664 30.3125H155.806V60.9198H166.154V67.77H148.664V30.3125Z" fill="white"/>
<path d="M175.045 30.3125H182.187V67.77H175.045V30.3125Z" fill="white"/>
<path d="M228.534 36.4347L223.579 41.3901C220.372 38.0379 216.729 36.2889 212.502 36.2889C208.858 36.2889 205.797 37.4549 203.174 39.9326C200.55 42.4104 199.384 45.3254 199.384 48.8233C199.384 52.4671 200.696 55.5278 203.32 58.0055C205.943 60.4832 209.15 61.795 212.939 61.795C215.417 61.795 217.457 61.212 219.206 60.1917C220.955 59.1715 222.267 57.5683 223.287 55.382H212.502V48.6776H231.303V50.2808C231.303 53.4873 230.429 56.6938 228.826 59.6088C227.222 62.5237 224.89 64.8557 222.267 66.3132C219.498 67.9164 216.437 68.6452 212.793 68.6452C208.858 68.6452 205.506 67.7707 202.445 66.1675C199.384 64.4185 197.052 62.0865 195.158 58.88C193.409 55.8193 192.534 52.3213 192.534 48.8233C192.534 43.8679 194.137 39.4954 197.49 35.8517C201.425 31.4792 206.38 29.293 212.648 29.293C215.854 29.293 218.915 29.876 221.83 31.042C223.87 32.2079 226.348 33.9569 228.534 36.4347Z" fill="white"/>
<path d="M241.651 30.3125H248.939V44.4502H261.473V30.3125H268.615V67.77H261.473V51.3004H248.939V67.77H241.651V30.3125Z" fill="white"/>
<path d="M277.361 30.3125H298.057V37.3085H291.207V67.77H283.919V37.3085H277.215V30.3125H277.361Z" fill="white"/>
<path d="M87.7407 71.9986C101.15 71.9986 111.206 61.9419 111.206 49.4075V49.2617C111.206 36.8731 101.295 26.8164 87.8865 26.8164C84.68 26.8164 81.6193 27.3994 78.7043 28.5654L101.441 63.6909C101.441 63.8366 101.587 63.8366 101.587 63.9824C101.733 65.1484 97.3602 66.0229 91.8217 66.0229C86.2833 66.0229 81.9108 65.1484 81.765 63.9824L75.9351 29.8771C68.9391 33.8124 64.4209 41.0998 64.4209 49.4075V49.5532C64.5666 61.9419 74.4776 71.9986 87.7407 71.9986Z" fill="url(#paint0_linear_5949_106)"/>
<path fill-rule="evenodd" clip-rule="evenodd" d="M91.6763 61.9414C86.1379 61.9414 81.9111 62.8159 81.9111 63.9819C82.0569 65.1479 86.4294 66.0224 91.9678 66.0224C97.5063 66.0224 101.733 65.1479 101.733 63.9819C101.587 62.8159 97.069 61.9414 91.6763 61.9414Z" fill="white"/>
<defs>
<linearGradient id="paint0_linear_5949_106" x1="56.5591" y1="49.4075" x2="121.071" y2="49.4075" gradientUnits="userSpaceOnUse">
<stop stop-color="#9CD0CB"/>
<stop offset="0.17" stop-color="#99CCC9"/>
<stop offset="0.3" stop-color="#92C2C4"/>
<stop offset="0.43" stop-color="#86B1BC"/>
<stop offset="0.54" stop-color="#7499B0"/>
<stop offset="0.66" stop-color="#5E7AA1"/>
<stop offset="0.76" stop-color="#43558E"/>
<stop offset="0.85" stop-color="#29317D"/>
</linearGradient>
</defs>
</svg>
