<svg width="47" height="32" viewBox="0 0 47 32" fill="none" xmlns="http://www.w3.org/2000/svg">
<path fill-rule="evenodd" clip-rule="evenodd" d="M43.9317 10.8977C43.9317 13.6027 41.7276 15.7955 39.0088 15.7955C36.29 15.7955 34.0859 13.6027 34.0859 10.8977C34.0859 8.19279 36.29 6 39.0088 6C41.7276 6 43.9317 8.19279 43.9317 10.8977ZM36.4357 17.8379H41.5636C44.5379 17.8379 46.9993 20.1848 46.9993 23.2458C46.9993 23.9601 46.589 24.5724 46.0762 24.8785C45.1532 25.3887 43.1021 26.0007 38.9997 26.0007C34.8973 26.0007 32.8461 25.3887 31.923 24.8785C31.3077 24.5724 31 23.9601 31 23.2458C31 20.2869 33.4614 17.8379 36.4357 17.8379Z" fill="white"/>
<path d="M16.5022 0.419786C16.5022 0.645825 16.3088 0.839573 16.0831 0.839573C15.8575 0.839573 15.6641 0.645825 15.6641 0.419786C15.6641 0.193748 15.8575 0 16.0831 0C16.3088 0 16.5022 0.193748 16.5022 0.419786Z" fill="white"/>
<path d="M12.9533 3.5845C12.9533 3.71367 12.8566 3.84283 12.6954 3.84283C12.5342 3.84283 12.4375 3.74596 12.4375 3.5845C12.4375 3.42305 12.5342 3.32617 12.6954 3.32617C12.8566 3.32617 12.9533 3.45534 12.9533 3.5845Z" fill="white"/>
<path d="M9.95563 23.4445C9.95563 24.0258 9.47211 24.5101 8.89188 24.5101C8.31165 24.5101 7.82812 24.0258 7.82812 23.4445C7.82812 22.8633 8.31165 22.3789 8.89188 22.3789C9.47211 22.3789 9.95563 22.8633 9.95563 23.4445Z" fill="white"/>
<path d="M10.0245 7.32929C10.1857 7.32929 10.3146 7.20013 10.3146 7.03867C10.3146 6.87721 10.1857 6.74805 10.0245 6.74805C9.86331 6.74805 9.73437 6.87721 9.73437 7.03867C9.73437 7.20013 9.86331 7.32929 10.0245 7.32929Z" fill="white"/>
<path d="M7.44945 20.5693C7.44945 20.8276 7.25604 21.0213 6.99816 21.0213C6.74028 21.0213 6.54687 20.8276 6.54687 20.5693C6.54687 20.3109 6.74028 20.1172 6.99816 20.1172C7.25604 20.1172 7.44945 20.3109 7.44945 20.5693Z" fill="white"/>
<path d="M8.66807 21.4742C8.89371 21.4742 9.05489 21.3128 9.05489 21.0867C9.05489 20.8607 8.89371 20.6992 8.66807 20.6992C8.44242 20.6992 8.28125 20.893 8.28125 21.0867C8.28125 21.2805 8.44242 21.4742 8.66807 21.4742Z" fill="white"/>
<path d="M6.77377 8.62239C6.77377 8.97759 6.48366 9.26822 6.12907 9.26822C5.77449 9.26822 5.48437 8.97759 5.48437 8.62239C5.48437 8.26719 5.77449 7.97656 6.12907 7.97656C6.48366 7.97656 6.77377 8.26719 6.77377 8.62239Z" fill="white"/>
<path d="M9.12375 9.6232C9.34939 9.65549 9.51057 9.46175 9.51057 9.268C9.51057 9.07425 9.34939 8.8805 9.15598 8.8805C8.93034 8.84821 8.76917 9.04196 8.76917 9.23571C8.73693 9.46174 8.93034 9.6232 9.12375 9.6232Z" fill="white"/>
<path d="M7.06078 13.0465C7.06078 13.2079 6.93184 13.3048 6.77066 13.3048C6.60949 13.3048 6.48055 13.1756 6.51278 13.0142C6.54502 12.8527 6.64172 12.7559 6.8029 12.7559C6.96407 12.7559 7.06078 12.885 7.06078 13.0465Z" fill="white"/>
<path d="M10.1212 28.7398C10.3146 28.7398 10.508 28.5784 10.508 28.3523C10.508 28.1263 10.3468 27.9648 10.1212 27.9648C9.92778 27.9648 9.73437 28.1586 9.73437 28.3523C9.73437 28.5461 9.92778 28.7398 10.1212 28.7398Z" fill="white"/>
<path d="M10.7385 25.9951C10.7385 26.2534 10.5451 26.4471 10.2872 26.4471C10.0293 26.4471 9.83594 26.2534 9.83594 25.9951C9.83594 25.7367 10.0293 25.543 10.2872 25.543C10.5451 25.543 10.7385 25.7367 10.7385 25.9951Z" fill="white"/>
<path d="M3.2823 28.0285C3.44348 28.0285 3.57242 27.8993 3.57242 27.7379C3.57242 27.5764 3.44348 27.4473 3.2823 27.4473C3.12113 27.4473 2.99219 27.5764 2.99219 27.7379C2.99219 27.8993 3.12113 28.0285 3.2823 28.0285Z" fill="white"/>
<path d="M8.73708 17.4687C8.73708 18.276 8.09238 18.9218 7.28651 18.9218C6.48063 18.9218 5.83594 18.276 5.83594 17.4687C5.83594 16.6615 6.48063 16.0156 7.28651 16.0156C8.09238 16.0156 8.73708 16.6615 8.73708 17.4687Z" fill="white"/>
<path d="M4.8341 14.8534C5.09198 14.8534 5.28539 14.6596 5.28539 14.4013C5.28539 14.143 5.09198 13.9492 4.8341 13.9492C4.57622 13.9492 4.38281 14.143 4.38281 14.4013C4.38281 14.6596 4.57622 14.8534 4.8341 14.8534Z" fill="white"/>
<path d="M5.12028 20.1489C5.44262 20.1489 5.73274 19.8906 5.73274 19.5354C5.73274 19.1802 5.44262 18.9219 5.12028 18.9219C4.79793 18.9219 4.50781 19.2125 4.50781 19.5354C4.50781 19.8583 4.79793 20.1489 5.12028 20.1489Z" fill="white"/>
<path d="M9.83135 30.1281C9.83135 30.451 9.57347 30.7094 9.25112 30.7094C8.92877 30.7094 8.70312 30.451 8.70312 30.1281C8.70312 29.8052 8.961 29.5469 9.28335 29.5469C9.6057 29.5469 9.83135 29.8375 9.83135 30.1281Z" fill="white"/>
<path d="M5.28033 3.03619C5.44151 3.03619 5.53821 2.90703 5.53821 2.77786C5.53821 2.6487 5.47374 2.51953 5.31257 2.51953C5.15139 2.51953 5.05469 2.6487 5.05469 2.77786C5.05469 2.90703 5.11916 3.03619 5.28033 3.03619Z" fill="white"/>
<path d="M7.99232 11.5279C7.99232 11.657 7.89562 11.7862 7.73444 11.7862C7.57327 11.7862 7.47656 11.6893 7.47656 11.5279C7.47656 11.3664 7.57327 11.2695 7.73444 11.2695C7.89562 11.2695 7.99232 11.3664 7.99232 11.5279Z" fill="white"/>
<path d="M2.81158 1.64843C2.97276 1.64843 3.06946 1.51927 3.06946 1.3901C3.06946 1.26094 3.00499 1.16406 2.84382 1.16406C2.68264 1.16406 2.58594 1.22865 2.58594 1.3901C2.58594 1.55156 2.65041 1.64843 2.81158 1.64843Z" fill="white"/>
<path d="M16.1173 2.06692C16.1173 2.19609 16.0206 2.32525 15.8594 2.32525C15.6983 2.32525 15.6016 2.22838 15.6016 2.06692C15.6016 1.90547 15.6983 1.80859 15.8594 1.80859C16.0206 1.80859 16.1173 1.93776 16.1173 2.06692Z" fill="white"/>
<path d="M1.48444 25.251C1.64562 25.251 1.74232 25.1219 1.74232 24.9927C1.74232 24.8635 1.64562 24.7344 1.48444 24.7344C1.32327 24.7344 1.22656 24.8313 1.22656 24.9927C1.22656 25.1542 1.32327 25.251 1.48444 25.251Z" fill="white"/>
<path d="M0.483524 21.4751C0.483524 21.6043 0.386819 21.7335 0.225644 21.7335C0.0644698 21.7335 0 21.6366 0 21.4751C0 21.3137 0.0967047 21.2168 0.257879 21.2168C0.419054 21.2168 0.483524 21.346 0.483524 21.4751Z" fill="white"/>
<path d="M13.5353 29.4508C13.7609 29.4508 13.9221 29.2893 13.9221 29.0633C13.9221 28.8695 13.7609 28.6758 13.5353 28.6758C13.3096 28.6758 13.1484 28.8372 13.1484 29.0633C13.1484 29.2893 13.3096 29.4508 13.5353 29.4508Z" fill="white"/>
<path d="M4.78138 29.9986C4.78138 30.1277 4.68468 30.2569 4.5235 30.2569C4.36233 30.2569 4.26562 30.16 4.26562 29.9986C4.26562 29.8371 4.36233 29.7402 4.5235 29.7402C4.68468 29.7402 4.78138 29.8694 4.78138 29.9986Z" fill="white"/>
<path d="M14.7335 31.2569C14.8946 31.2569 14.9913 31.1277 14.9913 30.9986C14.9913 30.8694 14.9269 30.7402 14.7657 30.7402C14.6045 30.7402 14.5078 30.8694 14.5078 30.9986C14.5078 31.1277 14.5723 31.2569 14.7335 31.2569Z" fill="white"/>
<path d="M7.1896 14.8844C7.1896 15.0458 7.06066 15.175 6.89949 15.175C6.73831 15.175 6.60937 15.0458 6.60937 14.8844C6.60937 14.7229 6.73831 14.5938 6.89949 14.5938C7.06066 14.5938 7.1896 14.7229 7.1896 14.8844Z" fill="white"/>
<path d="M4.44636 9.3332C4.60754 9.3332 4.73648 9.20403 4.73648 9.04258C4.73648 8.88112 4.60754 8.75196 4.44636 8.75196C4.28519 8.75196 4.15625 8.88112 4.15625 9.04258C4.15625 9.20403 4.28519 9.3332 4.44636 9.3332Z" fill="white"/>
<path d="M12.8715 27.2553C12.8715 27.6428 12.5491 27.9657 12.1623 27.9657C11.7755 27.9657 11.4531 27.6428 11.4531 27.2553C11.4531 26.8678 11.7755 26.5449 12.1623 26.5449C12.5491 26.5449 12.8715 26.8678 12.8715 27.2553Z" fill="white"/>
<path d="M13.634 2.51886C14.0853 2.51886 14.4399 2.16366 14.4399 1.71158C14.4399 1.2595 14.0853 0.904297 13.634 0.904297C13.1827 0.904297 12.8281 1.2595 12.8281 1.71158C12.8281 2.16366 13.1827 2.51886 13.634 2.51886Z" fill="white"/>
<path d="M7.54707 24.8641C7.54707 25.0901 7.3859 25.2516 7.16026 25.2516C6.93461 25.2516 6.77344 25.0578 6.77344 24.8641C6.77344 24.6703 6.93461 24.4766 7.16026 24.4766C7.3859 24.4766 7.54707 24.638 7.54707 24.8641Z" fill="white"/>
<path d="M3.25302 4.61861C3.44643 4.61861 3.6076 4.45716 3.6076 4.26341C3.6076 4.06966 3.44643 3.9082 3.25302 3.9082C3.05961 3.9082 2.89844 4.06966 2.89844 4.26341C2.89844 4.45716 3.05961 4.61861 3.25302 4.61861Z" fill="white"/>
<path d="M8.70588 7.91058C8.70588 8.10432 8.54471 8.29807 8.31906 8.26578C8.12565 8.26578 7.93224 8.10432 7.96448 7.87828C7.96448 7.68454 8.12565 7.49079 8.3513 7.52308C8.54471 7.52308 8.70588 7.71683 8.70588 7.91058Z" fill="white"/>
<path d="M7.5128 10.5896C7.73845 10.5896 7.93186 10.3958 7.93186 10.1698C7.93186 9.94375 7.73845 9.75 7.5128 9.75C7.28716 9.75 7.09375 9.94375 7.09375 10.1698C7.09375 10.4281 7.28716 10.5896 7.5128 10.5896Z" fill="white"/>
<path d="M4.48648 6.74765C4.48648 6.90911 4.35754 7.03828 4.19636 7.03828C4.03519 7.03828 3.90625 6.90911 3.90625 6.74765C3.90625 6.5862 4.03519 6.45703 4.19636 6.45703C4.35754 6.45703 4.48648 6.61849 4.48648 6.74765Z" fill="white"/>
<path d="M0.602614 12.1418C0.763789 12.1418 0.892728 12.0126 0.892728 11.8512C0.892728 11.722 0.763789 11.5605 0.602614 11.5605C0.44144 11.5605 0.3125 11.6897 0.3125 11.8512C0.3125 12.0126 0.44144 12.1418 0.602614 12.1418Z" fill="white"/>
<path d="M6.05495 10.8174C6.05495 11.1081 5.82931 11.3341 5.5392 11.3341C5.24908 11.3341 5.02344 11.1081 5.02344 10.8174C5.02344 10.5268 5.24908 10.3008 5.5392 10.3008C5.82931 10.3008 6.05495 10.5268 6.05495 10.8174Z" fill="white"/>
<path d="M6.44932 1.35702C6.67496 1.35702 6.83614 1.19557 6.83614 0.969527C6.83614 0.743488 6.67496 0.582031 6.44932 0.582031C6.22367 0.582031 6.0625 0.743488 6.0625 0.969527C6.0625 1.19557 6.22367 1.35702 6.44932 1.35702Z" fill="white"/>
<path d="M8.86056 26.5105C8.86056 26.7366 8.66715 26.898 8.47374 26.898C8.28033 26.898 8.05469 26.7366 8.05469 26.5105C8.05469 26.2845 8.2481 26.1231 8.44151 26.1231C8.63492 26.1231 8.86056 26.2845 8.86056 26.5105Z" fill="white"/>
<path d="M2.25985 19.3743C2.45326 19.3743 2.61443 19.2452 2.61443 19.0514C2.61443 18.8577 2.48549 18.7285 2.29208 18.7285C2.09867 18.7285 1.9375 18.8577 1.9375 19.0514C1.9375 19.2452 2.06644 19.3743 2.25985 19.3743Z" fill="white"/>
<path d="M2.67398 10.2691C2.67398 10.4306 2.54504 10.5598 2.38386 10.5598C2.22269 10.5598 2.09375 10.4306 2.09375 10.2691C2.09375 10.1077 2.22269 9.97852 2.38386 9.97852C2.54504 9.97852 2.67398 10.1077 2.67398 10.2691Z" fill="white"/>
<path d="M19.3448 0.676946C19.506 0.676946 19.6349 0.547781 19.6349 0.386325C19.6349 0.224868 19.506 0.0957031 19.3448 0.0957031C19.1836 0.0957031 19.0547 0.224868 19.0547 0.386325C19.0547 0.547781 19.1836 0.676946 19.3448 0.676946Z" fill="white"/>
<path d="M1.90153 7.23398C1.90153 7.39544 1.77259 7.5246 1.61141 7.5246C1.45024 7.5246 1.28906 7.39544 1.28906 7.23398C1.28906 7.07253 1.418 6.94336 1.57918 6.94336C1.74035 6.94336 1.90153 7.07253 1.90153 7.23398Z" fill="white"/>
<path d="M11.5792 30.5812C11.7404 30.5812 11.8693 30.4521 11.8693 30.2906C11.8693 30.1292 11.7404 30 11.5792 30C11.418 30 11.2891 30.1292 11.2891 30.2906C11.2891 30.4521 11.418 30.5812 11.5792 30.5812Z" fill="white"/>
<path d="M2.67208 14.368C2.67208 14.594 2.47867 14.7555 2.28526 14.7555C2.09185 14.7555 1.89844 14.594 1.89844 14.368C1.89844 14.1419 2.09185 13.9805 2.28526 13.9805C2.47867 13.9805 2.67208 14.1742 2.67208 14.368Z" fill="white"/>
<path d="M3.45418 23.8312C3.61535 23.8312 3.74429 23.7021 3.74429 23.5406C3.74429 23.3792 3.61535 23.25 3.45418 23.25C3.293 23.25 3.16406 23.3792 3.16406 23.5406C3.16406 23.7021 3.293 23.8312 3.45418 23.8312Z" fill="white"/>
<path d="M3.96304 21.0856C3.96304 21.247 3.8341 21.3762 3.67293 21.3762C3.51175 21.3762 3.38281 21.247 3.38281 21.0856C3.38281 20.9241 3.51175 20.7949 3.67293 20.7949C3.8341 20.7949 3.96304 20.9241 3.96304 21.0856Z" fill="white"/>
<path d="M7.0948 29.1926C7.25598 29.1926 7.38491 29.0634 7.38491 28.902C7.38491 28.7405 7.25598 28.6113 7.0948 28.6113C6.93363 28.6113 6.80469 28.7405 6.80469 28.902C6.80469 29.0634 6.93363 29.1926 7.0948 29.1926Z" fill="white"/>
<path d="M1.22085 27.9645C1.22085 28.1259 1.09191 28.2551 0.930739 28.2551C0.769565 28.2551 0.640625 28.1259 0.640625 27.9645C0.640625 27.803 0.769565 27.6738 0.930739 27.6738C1.09191 27.6738 1.22085 27.803 1.22085 27.9645Z" fill="white"/>
<path d="M6.41807 27.482C6.61148 27.482 6.80489 27.3206 6.80489 27.0945C6.80489 26.8685 6.61148 26.707 6.41807 26.707C6.22466 26.707 6.03125 26.9008 6.03125 27.0945C6.03125 27.2883 6.22466 27.482 6.41807 27.482Z" fill="white"/>
<path d="M9.15264 2.93867C9.15264 3.26158 8.89476 3.51991 8.57242 3.51991C8.25007 3.51991 7.99219 3.26158 7.99219 2.93867C7.99219 2.61575 8.25007 2.35742 8.57242 2.35742C8.89476 2.35742 9.15264 2.61575 9.15264 2.93867Z" fill="white"/>
<path d="M6.83634 7.19957C7.70668 7.19957 8.38361 6.48916 8.38361 5.64959C8.38361 4.81002 7.70668 4.09961 6.83634 4.09961C5.966 4.09961 5.28906 4.77773 5.28906 5.64959C5.28906 6.52146 5.966 7.19957 6.83634 7.19957Z" fill="white"/>
<path d="M5.70353 25.3805C5.70353 25.8003 5.34894 26.1555 4.92989 26.1555C4.51083 26.1555 4.15625 25.8003 4.15625 25.3805C4.15625 24.9607 4.51083 24.6055 4.92989 24.6055C5.34894 24.6055 5.70353 24.9284 5.70353 25.3805Z" fill="white"/>
<path d="M4.02856 17.535C4.54432 17.535 4.96337 17.1152 4.96337 16.5986C4.96337 16.0819 4.54432 15.6621 4.02856 15.6621C3.5128 15.6621 3.09375 16.0819 3.09375 16.5986C3.09375 17.1152 3.5128 17.535 4.02856 17.535Z" fill="white"/>
<path d="M5.90258 22.4755C5.90258 22.7339 5.70917 22.9276 5.45129 22.9276C5.19341 22.9276 5 22.7339 5 22.4755C5 22.2172 5.19341 22.0234 5.45129 22.0234C5.70917 22.0234 5.90258 22.2172 5.90258 22.4755Z" fill="white"/>
<path d="M4.09585 13.0785C4.4182 13.0785 4.67608 12.8202 4.67608 12.4973C4.67608 12.1743 4.4182 11.916 4.09585 11.916C3.7735 11.916 3.51562 12.1743 3.51562 12.4973C3.51562 12.8202 3.7735 13.0785 4.09585 13.0785Z" fill="white"/>
<path d="M11.3069 3.00377C11.3069 3.22981 11.1134 3.42356 10.8878 3.42356C10.6622 3.42356 10.4687 3.22981 10.4687 3.00377C10.4687 2.77773 10.6622 2.58399 10.8878 2.58399C11.1134 2.58399 11.3069 2.77773 11.3069 3.00377Z" fill="white"/>
<path d="M10.6612 1.35715C10.8869 1.35715 11.0803 1.1634 11.0803 0.937365C11.0803 0.711326 10.8869 0.517578 10.6612 0.517578C10.4356 0.517578 10.2422 0.711326 10.2422 0.937365C10.2422 1.1634 10.4356 1.35715 10.6612 1.35715Z" fill="white"/>
<path d="M10.4144 5.13411C10.4144 5.48931 10.1243 5.77993 9.7697 5.77993C9.41511 5.77993 9.125 5.48931 9.125 5.13411C9.125 4.7789 9.41511 4.48828 9.7697 4.48828C10.1243 4.48828 10.4144 4.7789 10.4144 5.13411Z" fill="white"/>
<path d="M11.6007 5.87785C11.8586 5.87785 12.0842 5.65182 12.0842 5.39349C12.0842 5.13516 11.8586 4.94141 11.6007 4.94141C11.3428 4.94141 11.1172 5.10286 11.1172 5.39349C11.1172 5.68411 11.3428 5.87785 11.6007 5.87785Z" fill="white"/>
<path fill-rule="evenodd" clip-rule="evenodd" d="M24.9819 0.224609C22.8221 0.224609 20.7269 0.676687 18.8573 1.45168C18.7928 1.16106 18.5349 0.935017 18.2126 0.935017C17.858 0.935017 17.5679 1.22564 17.5679 1.58084C17.5679 1.7423 17.6323 1.87146 17.729 1.96834C16.9232 2.38812 16.1173 2.87249 15.4081 3.42144C15.3436 3.25999 15.1825 3.16311 14.9891 3.16311C14.7312 3.16311 14.5055 3.35686 14.5055 3.61519C14.5055 3.74436 14.57 3.87352 14.6667 3.9704L14.5822 4.04279C14.3919 4.20568 14.2231 4.35021 14.0543 4.51935C14.2154 4.71309 14.2799 4.97142 14.2799 5.26205C14.2799 5.94016 13.7319 6.52141 13.0227 6.52141C12.7971 6.52141 12.5714 6.45682 12.4103 6.35995C12.2267 6.5898 12.0595 6.83601 11.897 7.07529C11.8312 7.17217 11.7661 7.26792 11.7011 7.36098C11.6044 7.32869 11.4755 7.2964 11.3788 7.2964C10.863 7.2964 10.4439 7.71618 10.4439 8.23284C10.4439 8.52346 10.5729 8.78179 10.7663 8.94325C10.5729 9.33074 10.3795 9.75053 10.2183 10.1703C10.315 10.138 10.4117 10.138 10.5084 10.138C11.2498 10.138 11.8623 10.7516 11.8623 11.4943C11.8623 12.237 11.2498 12.8505 10.5084 12.8505C10.1216 12.8505 9.76701 12.689 9.50913 12.3984C9.44466 12.6567 9.38019 12.9151 9.34796 13.2057C9.21902 13.0765 9.05784 12.9797 8.86443 12.9797C8.47761 12.9797 8.1875 13.3026 8.1875 13.6901C8.1875 14.0776 8.50985 14.4005 8.86443 14.4005C8.99337 14.4005 9.09008 14.3682 9.18678 14.3036C9.17069 14.4971 9.15459 14.6825 9.1385 14.8679C9.12238 15.0536 9.1062 15.24 9.09008 15.4338C9.10343 15.4338 9.12231 15.4283 9.14443 15.4218C9.17572 15.4126 9.21349 15.4015 9.25125 15.4015C9.54137 15.4015 9.76701 15.6275 9.76701 15.9182C9.76701 16.2088 9.54137 16.4348 9.25125 16.4348C9.18678 16.4348 9.12231 16.4348 9.09008 16.4025C9.09008 17.2744 9.18678 18.1463 9.34796 18.9858C8.99337 18.9858 8.73549 19.2765 8.73549 19.5994C8.73549 19.9223 9.02561 20.2129 9.34796 20.2129C9.44466 20.2129 9.54137 20.1806 9.60583 20.1483C9.76701 20.7296 9.96042 21.3108 10.1861 21.892C10.2828 21.8275 10.3795 21.7952 10.5084 21.7952C10.863 21.7952 11.1531 22.0858 11.1531 22.441C11.1531 22.7316 10.9597 22.9577 10.7018 23.0545C10.863 23.3774 11.0242 23.7004 11.2176 24.0233C11.0564 24.1524 10.9597 24.3462 10.9597 24.5399C10.9597 24.8628 11.2176 25.1212 11.5399 25.1212C11.6366 25.1212 11.7333 25.0889 11.83 25.0243C12.507 26.0253 13.2806 26.8972 14.1187 27.7368C14.2154 27.543 14.4411 27.4139 14.6667 27.4139C15.0213 27.4139 15.3114 27.7045 15.3114 28.0597C15.3114 28.2534 15.2147 28.4472 15.0535 28.544C15.5371 28.9315 16.0528 29.319 16.6008 29.642C16.3752 29.7711 16.2462 30.0294 16.2462 30.2878C16.2462 30.7076 16.6008 31.0628 17.0199 31.0628C17.4389 31.0628 17.7935 30.7076 17.7935 30.2878C19.9532 31.3857 22.3709 31.9992 24.9497 31.9992C29.013 31.9992 32.7163 30.4735 35.5206 27.9619C31.8338 27.8024 29.8686 27.1827 28.9124 26.6542C28.3316 26.3653 27.9792 25.8492 27.8552 25.225C26.9488 25.5141 25.9835 25.6701 24.9819 25.6701C19.7276 25.6701 15.4726 21.3754 15.4726 16.1119C15.4726 10.8484 19.7276 6.58599 24.9819 6.58599C27.524 6.58599 29.8321 7.58371 31.5377 9.2098C31.8005 6.89781 33.4115 4.99227 35.5698 4.29001C32.7692 1.76175 29.0604 0.224609 24.9819 0.224609ZM22.661 0.9996C22.8222 0.9996 22.9511 1.12876 22.9511 1.29022C22.9511 1.45168 22.8222 1.58084 22.661 1.58084C22.4998 1.58084 22.3709 1.45168 22.3709 1.29022C22.3709 1.12876 22.4998 0.9996 22.661 0.9996ZM20.5012 1.54855C21.017 1.54855 21.436 1.96834 21.436 2.485C21.436 3.00166 21.017 3.42144 20.5012 3.42144C19.9855 3.42144 19.5664 3.00166 19.5664 2.485C19.5664 1.96834 19.9855 1.54855 20.5012 1.54855ZM20.5012 5.0683C20.5012 5.19746 20.4045 5.32663 20.2434 5.32663C20.0822 5.32663 19.9855 5.22976 19.9855 5.0683C19.9855 4.90684 20.0822 4.80997 20.2434 4.80997C20.4045 4.80997 20.5012 4.93913 20.5012 5.0683ZM18.5994 5.00372C18.5994 5.16517 18.4704 5.29434 18.3093 5.29434C18.1481 5.29434 18.0191 5.16517 18.0191 5.00372C18.0191 4.84226 18.1481 4.71309 18.3093 4.71309C18.4704 4.71309 18.5994 4.87455 18.5994 5.00372ZM17.8257 2.67875C18.0514 2.67875 18.2448 2.87249 18.2448 3.09853C18.2448 3.32457 18.0514 3.51832 17.8257 3.51832C17.6001 3.51832 17.4067 3.32457 17.4067 3.09853C17.4067 2.87249 17.6001 2.67875 17.8257 2.67875ZM15.9239 3.90581C16.0528 3.90581 16.1818 4.00269 16.1818 4.16414C16.1818 4.3256 16.0851 4.42247 15.9239 4.42247C15.7627 4.42247 15.666 4.3256 15.666 4.16414C15.666 4.00269 15.7949 3.90581 15.9239 3.90581ZM15.9883 5.00372C16.5041 5.00372 16.9232 5.4235 16.9232 5.94016C16.9232 6.45682 16.5041 6.87661 15.9883 6.87661C15.4726 6.87661 15.0535 6.45682 15.0535 5.94016C15.0535 5.4235 15.4726 5.00372 15.9883 5.00372ZM16.5686 8.03909C16.5686 8.20055 16.4396 8.32972 16.2785 8.32972C16.1173 8.32972 15.9883 8.20055 15.9883 8.03909C15.9883 7.87764 16.1173 7.74847 16.2785 7.74847C16.4396 7.74847 16.5686 7.90993 16.5686 8.03909ZM14.6345 8.62034C14.8601 8.62034 15.0535 8.81409 15.0535 9.04012C15.0535 9.26616 14.8601 9.45991 14.6345 9.45991C14.4088 9.45991 14.2154 9.26616 14.2154 9.04012C14.2154 8.81409 14.3766 8.62034 14.6345 8.62034ZM14.1832 18.2754C14.5055 18.2754 14.7634 18.5338 14.7634 18.8567C14.7634 19.1796 14.5055 19.4379 14.1832 19.4379C13.8608 19.4379 13.603 19.1796 13.603 18.8567C13.603 18.5338 13.8608 18.2754 14.1832 18.2754ZM13.6352 15.2078C13.6352 15.0786 13.7319 14.9494 13.8931 14.9494C14.0543 14.9494 14.151 15.0463 14.151 15.2078C14.151 15.3692 14.0543 15.4661 13.8931 15.4661C13.7319 15.4661 13.6352 15.3369 13.6352 15.2078ZM14.0543 10.4932C14.1832 10.4932 14.3121 10.5901 14.3121 10.7516C14.3121 10.913 14.1832 10.9776 14.0543 10.9776C13.9253 10.9776 13.7964 10.8807 13.7964 10.7193C13.7964 10.5578 13.9253 10.4932 14.0543 10.4932ZM13.4096 7.23181C13.6674 7.23181 13.8931 7.42556 13.8931 7.71618C13.8931 8.0068 13.6674 8.20055 13.4096 8.20055C13.1517 8.20055 12.926 8.0068 12.926 7.71618C12.926 7.42556 13.1517 7.23181 13.4096 7.23181ZM13.0227 11.462C13.1839 11.462 13.3128 11.5911 13.3128 11.7526C13.3128 11.914 13.1839 12.0432 13.0227 12.0432C12.8616 12.0432 12.7326 11.914 12.7326 11.7526C12.7326 11.5911 12.8616 11.462 13.0227 11.462ZM13.3451 16.6609C13.3451 16.79 13.2484 16.9192 13.0872 16.9192C12.926 16.9192 12.8293 16.8223 12.8293 16.6609C12.8293 16.4994 12.926 16.4025 13.0872 16.4025C13.2484 16.4025 13.3451 16.5317 13.3451 16.6609ZM12.9583 13.3994C13.1194 13.3994 13.2484 13.5286 13.2484 13.6901C13.2484 13.8515 13.1194 13.9807 12.9583 13.9807C12.7971 13.9807 12.6682 13.8515 12.6682 13.6901C12.6682 13.5286 12.7971 13.3994 12.9583 13.3994ZM11.7978 9.4922C11.7978 9.29845 11.959 9.16929 12.1202 9.16929C12.2813 9.16929 12.4425 9.33074 12.4425 9.4922C12.4425 9.65366 12.2813 9.81511 12.1202 9.81511C11.959 9.81511 11.7978 9.68595 11.7978 9.4922ZM12.0879 18.0171C12.2169 18.0171 12.3458 18.114 12.3458 18.2754C12.3458 18.4369 12.2491 18.5338 12.0879 18.5338C11.9267 18.5338 11.83 18.4369 11.83 18.2754C11.83 18.114 11.959 18.0171 12.0879 18.0171ZM11.7011 15.7567C11.7011 15.9827 11.5399 16.1442 11.3143 16.1442C11.0886 16.1442 10.9275 15.9827 10.9275 15.7567C10.9275 15.5307 11.0886 15.3692 11.3143 15.3692C11.5399 15.3692 11.7011 15.5307 11.7011 15.7567ZM10.2505 18.0494C10.1216 18.0494 9.99265 17.9525 9.99265 17.7911C9.99265 17.6296 10.0894 17.5327 10.2505 17.5327C10.4117 17.5327 10.5084 17.6296 10.5084 17.7911C10.5084 17.9525 10.4117 18.0494 10.2505 18.0494ZM10.2183 13.9161C10.2183 13.6255 10.4439 13.3994 10.7341 13.3994C11.0242 13.3994 11.2498 13.6255 11.2498 13.9161C11.2498 14.2067 11.0242 14.4328 10.7341 14.4328C10.4439 14.4328 10.2183 14.2067 10.2183 13.9161ZM11.5722 21.0525C11.0886 21.0525 10.6696 20.6327 10.6696 20.1483C10.6696 19.6639 11.0886 19.2442 11.5722 19.2442C12.0557 19.2442 12.4747 19.6639 12.4747 20.1483C12.4747 20.6327 12.0879 21.0525 11.5722 21.0525ZM12.3458 22.1504C12.3458 21.9566 12.507 21.7952 12.7004 21.7952C12.8938 21.7952 13.055 21.9566 13.055 22.1504C13.055 22.3441 12.8938 22.5056 12.7004 22.5056C12.507 22.5056 12.3458 22.3441 12.3458 22.1504ZM12.6359 23.991C12.6359 23.6358 12.926 23.3452 13.2806 23.3452C13.6352 23.3452 13.9253 23.6358 13.9253 23.991C13.9253 24.3462 13.6352 24.6368 13.2806 24.6368C12.926 24.6368 12.6359 24.3462 12.6359 23.991ZM13.8931 26.2514C13.7641 26.2514 13.6352 26.1545 13.6352 25.993C13.6352 25.8316 13.7319 25.7347 13.8931 25.7347C14.0543 25.7347 14.151 25.8316 14.151 25.993C14.151 26.1545 14.022 26.2514 13.8931 26.2514ZM14.6345 22.0858C14.3444 22.0858 14.151 21.8598 14.151 21.5691C14.151 21.2785 14.3766 21.0525 14.6345 21.0525C14.8924 21.0525 15.118 21.2785 15.118 21.5691C15.118 21.8598 14.8924 22.0858 14.6345 22.0858ZM15.118 23.7326C15.118 23.5712 15.2469 23.442 15.4081 23.442C15.5693 23.442 15.6982 23.5712 15.6982 23.7326C15.6982 23.8941 15.5693 24.0233 15.4081 24.0233C15.2469 24.0233 15.118 23.8941 15.118 23.7326ZM15.8916 26.3482C15.5693 26.3482 15.3114 26.0899 15.3114 25.767C15.3114 25.4441 15.5693 25.1858 15.8916 25.1858C16.214 25.1858 16.4719 25.4441 16.4719 25.767C16.4719 26.0899 16.1818 26.3482 15.8916 26.3482ZM17.3422 28.7055C17.1166 28.7055 16.9554 28.5118 16.9554 28.318C16.9554 28.1243 17.1166 27.9305 17.3422 27.9305C17.5679 27.9305 17.729 28.092 17.729 28.318C17.729 28.544 17.5679 28.7055 17.3422 28.7055ZM17.9547 25.8639C17.8257 25.8639 17.6968 25.767 17.6968 25.6055C17.6968 25.4441 17.7935 25.3472 17.9547 25.3472C18.1159 25.3472 18.2126 25.4441 18.2126 25.6055C18.2126 25.767 18.0836 25.8639 17.9547 25.8639ZM19.6954 30.1909C19.5664 30.1909 19.4375 30.094 19.4375 29.9326C19.4375 29.7711 19.5342 29.6742 19.6954 29.6742C19.8565 29.6742 19.9532 29.7711 19.9532 29.9326C19.9532 30.094 19.8243 30.1909 19.6954 30.1909ZM19.7921 28.318C19.4697 28.318 19.2118 28.0597 19.2118 27.7368C19.2118 27.4139 19.4697 27.1555 19.7921 27.1555C20.1144 27.1555 20.3723 27.4139 20.3723 27.7368C20.3723 28.0597 20.1144 28.318 19.7921 28.318ZM21.6617 29.9003C21.5005 29.9003 21.3716 29.7711 21.3716 29.6097C21.3716 29.4482 21.5005 29.319 21.6617 29.319C21.8229 29.319 21.9518 29.4482 21.9518 29.6097C21.9518 29.7711 21.8229 29.9003 21.6617 29.9003Z" fill="white"/>
</svg>
